<svg width="20" height="20" viewBox="0 0 20 20" fill="none" xmlns="http://www.w3.org/2000/svg">
<path d="M18.0667 12.0417C17.5084 11.8 16.8917 11.6667 16.25 11.6667C15.0351 11.6689 13.8706 12.1525 13.0116 13.0115C12.1525 13.8706 11.6689 15.0351 11.6667 16.25C11.6667 16.9 11.8 17.5083 12.0417 18.0667C14.9917 17.3167 17.3167 14.9917 18.0667 12.0417ZM8.33338 3.75002C8.33338 3.10002 8.20005 2.49168 7.95838 1.93335C5.00838 2.68335 2.68338 5.00835 1.93338 7.95835C2.49171 8.20002 3.10838 8.33335 3.75005 8.33335C6.27505 8.33335 8.33338 6.27502 8.33338 3.75002Z" fill="#7CEF4C"/>
<path d="M10 1.66669C9.88335 1.66669 9.75835 1.68335 9.64169 1.68335C9.86669 2.33335 10 3.02502 10 3.75002C10 7.20002 7.20002 10 3.75002 10C3.02502 10 2.33335 9.86669 1.68335 9.64169C1.68335 9.75835 1.66669 9.87502 1.66669 10C1.66669 14.5917 5.40835 18.3334 10 18.3334C10.1167 18.3334 10.2417 18.3167 10.3584 18.3167C10.1334 17.6667 10 16.975 10 16.25C10 12.8 12.8 10 16.25 10C16.975 10 17.6667 10.1334 18.3167 10.3584C18.3167 10.2417 18.3334 10.125 18.3334 10C18.3334 5.40835 14.5917 1.66669 10 1.66669Z" fill="#7CEF4C"/>
</svg>
