<svg width="20" height="20" viewBox="0 0 20 20" fill="none" xmlns="http://www.w3.org/2000/svg">
<path d="M14.7165 9.33333C14.5249 9.08333 14.2915 8.86667 14.0749 8.65C13.5165 8.15 12.8832 7.79167 12.3499 7.26667C11.1082 6.05 10.8332 4.04167 11.6249 2.5C10.8332 2.69167 10.1415 3.125 9.54986 3.6C7.39153 5.33333 6.54152 8.39167 7.55819 11.0167C7.59152 11.1 7.62486 11.1833 7.62486 11.2917C7.62486 11.475 7.49986 11.6417 7.33319 11.7083C7.14153 11.7917 6.94153 11.7417 6.78319 11.6083C6.7359 11.5687 6.69634 11.5207 6.66653 11.4667C5.72486 10.275 5.57486 8.56667 6.20819 7.2C4.81652 8.33333 4.05819 10.25 4.16652 12.0583C4.21652 12.475 4.26652 12.8917 4.40819 13.3083C4.52486 13.8083 4.74986 14.3083 4.99986 14.75C5.89986 16.1917 7.45819 17.225 9.13319 17.4333C10.9165 17.6583 12.8249 17.3333 14.1915 16.1C15.7165 14.7167 16.2499 12.5 15.4665 10.6L15.3582 10.3833C15.1832 10 14.7165 9.33333 14.7165 9.33333ZM12.0832 14.5833C11.8499 14.7833 11.4665 15 11.1665 15.0833C10.2332 15.4167 9.29986 14.95 8.74986 14.4C9.74153 14.1667 10.3332 13.4333 10.5082 12.6917C10.6499 12.025 10.3832 11.475 10.2749 10.8333C10.1749 10.2167 10.1915 9.69167 10.4165 9.11667C10.5749 9.43333 10.7415 9.75 10.9415 10C11.5832 10.8333 12.5915 11.2 12.8082 12.3333C12.8415 12.45 12.8582 12.5667 12.8582 12.6917C12.8832 13.375 12.5832 14.125 12.0832 14.5833Z" fill="#7CEF4C"/>
</svg>
