<svg width="24" height="24" viewBox="0 0 24 24" fill="none" xmlns="http://www.w3.org/2000/svg">
<path d="M20 17L15 18L14.25 16.5M9 21V17L13 14L12 8M12 4C12 4.26522 11.8946 4.51957 11.7071 4.70711C11.5196 4.89464 11.2652 5 11 5C10.7348 5 10.4804 4.89464 10.2929 4.70711C10.1054 4.51957 10 4.26522 10 4C10 3.73478 10.1054 3.48043 10.2929 3.29289C10.4804 3.10536 10.7348 3 11 3C11.2652 3 11.5196 3.10536 11.7071 3.29289C11.8946 3.48043 12 3.73478 12 4Z" stroke="#7CEF4C" stroke-width="2" stroke-linecap="round" stroke-linejoin="round"/>
<path d="M17 12V9L12 8L9 11L6 12" stroke="#7CEF4C" stroke-width="2" stroke-linecap="round" stroke-linejoin="round"/>
</svg>
