<svg width="20" height="20" viewBox="0 0 20 20" fill="none" xmlns="http://www.w3.org/2000/svg">
<path d="M3.5 3C3.3674 3 3.24022 3.05268 3.14645 3.14645C3.05268 3.24021 3 3.36739 3 3.5C3 3.63261 3.05268 3.75979 3.14645 3.85355C3.24022 3.94732 3.3674 4 3.5 4H4.25L2.077 9.215C2.02417 9.34333 1.99863 9.48126 2.002 9.62C2.03036 10.3962 2.35863 11.1311 2.91777 11.6702C3.4769 12.2093 4.22332 12.5105 5 12.5105C5.77669 12.5105 6.52311 12.2093 7.08224 11.6702C7.64138 11.1311 7.96965 10.3962 7.998 9.62C8.00138 9.48126 7.97584 9.34333 7.923 9.215L5.75 4H9.5V15H5.5C5.10218 15 4.72065 15.158 4.43934 15.4393C4.15804 15.7206 4 16.1022 4 16.5C4 16.8978 4.15804 17.2794 4.43934 17.5607C4.72065 17.842 5.10218 18 5.5 18H14.5C14.8978 18 15.2794 17.842 15.5607 17.5607C15.842 17.2794 16 16.8978 16 16.5C16 16.1022 15.842 15.7206 15.5607 15.4393C15.2794 15.158 14.8978 15 14.5 15H10.5V4H14.25L12.077 9.215C12.0242 9.34333 11.9986 9.48126 12.002 9.62C12.0304 10.3962 12.3586 11.1311 12.9178 11.6702C13.4769 12.2093 14.2233 12.5105 15 12.5105C15.7767 12.5105 16.5231 12.2093 17.0822 11.6702C17.6414 11.1311 17.9696 10.3962 17.998 9.62C18.0014 9.48126 17.9758 9.34333 17.923 9.215L15.75 4H16.5C16.6326 4 16.7598 3.94732 16.8536 3.85355C16.9473 3.75979 17 3.63261 17 3.5C17 3.36739 16.9473 3.24021 16.8536 3.14645C16.7598 3.05268 16.6326 3 16.5 3H3.5ZM5 4.8L6.75 9H3.25L5 4.8ZM16.75 9H13.25L15 4.8L16.75 9Z" fill="#7CEF4C"/>
</svg>
