<svg width="119" height="119" viewBox="0 0 119 119" fill="none" xmlns="http://www.w3.org/2000/svg">
<g clip-path="url(#clip0_653_29629)">
<path fill-rule="evenodd" clip-rule="evenodd" d="M35.5645 89.7547C35.7697 89.4174 35.8452 89.017 35.777 88.6282C35.7088 88.2393 35.5015 87.8885 35.1938 87.6411C34.8861 87.3938 34.499 87.2667 34.1046 87.2836C33.7101 87.3006 33.3353 87.4604 33.0499 87.7332C31.8052 89.4393 30.2027 90.8527 28.3546 91.8747C26.5064 92.8968 24.4573 93.5026 22.3506 93.6499C20.3799 93.6226 18.4386 93.1675 16.6611 92.3162C14.8835 91.4649 13.3121 90.2376 12.0555 88.7193C10.8677 86.7597 10.1515 84.5509 9.96324 82.2672C9.775 79.9835 10.1199 77.6872 10.9708 75.5596C11.6726 73.3997 13.0347 71.5146 14.8649 70.17C16.6951 68.8254 18.9012 68.0892 21.1722 68.0651C23.2184 68.0059 25.2547 68.3264 27.1875 69.0019C29.0463 69.6922 30.7276 70.7868 32.1181 72.2068C32.2876 72.4464 32.5246 72.6302 32.799 72.7347C33.0733 72.8393 33.3726 72.8598 33.6586 72.7937C33.9446 72.7276 34.2045 72.5779 34.4052 72.3636C34.6059 72.1493 34.7383 71.8802 34.7855 71.5905C34.8175 71.3985 34.8113 71.2022 34.7673 71.0127C34.7233 70.8232 34.6424 70.6442 34.5291 70.486C32.9291 68.5543 30.9041 67.0187 28.6124 65.9992C26.2992 64.9213 23.8105 64.2699 21.2658 64.0762C18.0005 63.8385 14.7467 64.6729 11.9988 66.4526C9.25077 68.2324 7.15868 70.8604 6.04021 73.9374C4.81936 76.8701 4.33822 80.0579 4.63915 83.2202C4.94008 86.3825 6.01384 89.4224 7.76591 92.0721C8.39703 92.6966 9.10375 93.2226 9.88606 93.6499C8.42282 94.6203 7.06744 95.7443 5.84299 97.0027C4.94233 98.0118 4.16987 99.113 3.52561 100.306C2.87464 101.471 2.33007 102.692 1.89852 103.955C0.931436 106.846 0.3027 109.839 0.0248985 112.874C-0.020904 113.133 -0.00333212 113.399 0.076111 113.65C0.155554 113.9 0.294504 114.128 0.481073 114.313C0.667643 114.498 0.896278 114.635 1.14742 114.713C1.39856 114.79 1.66474 114.806 1.92317 114.758C2.25387 114.691 2.55441 114.52 2.7807 114.269C3.00699 114.019 3.1471 113.703 3.18047 113.367C4.02524 110.771 5.0771 108.256 6.33604 105.823L7.96314 102.865C8.5055 101.928 9.09717 100.992 9.68884 100.055C10.7078 98.5229 11.809 97.0438 12.9923 95.6172C16.0145 97.221 19.4452 97.8904 22.8486 97.5401C25.3986 97.2172 27.851 96.3561 30.0432 95.0139C32.2354 93.6717 34.1174 91.8791 35.5645 89.7547ZM116.697 103.95C116.266 102.687 115.721 101.466 115.07 100.301C114.43 99.1132 113.652 98.0045 112.753 96.9977C111.528 95.7411 110.173 94.6188 108.71 93.6499C109.409 93.1429 110.039 92.5461 110.583 91.8749C112.303 89.2478 113.359 86.2421 113.659 83.1166C113.96 79.991 113.497 76.8392 112.309 73.9325C111.19 70.8546 109.098 68.226 106.349 66.4462C103.6 64.6663 100.345 63.8324 97.0785 64.0713C94.5933 64.2356 92.1565 64.8364 89.8798 65.8463C87.5899 66.8665 85.5667 68.4021 83.9681 70.3332C83.7515 70.6121 83.6483 70.9626 83.6792 71.3144C83.7101 71.6662 83.8728 71.9933 84.1347 72.2303C84.3965 72.4672 84.7383 72.5964 85.0914 72.5921C85.4445 72.5877 85.783 72.4501 86.0389 72.2068C87.4195 70.7868 89.1057 69.6922 90.9695 69.0019C92.9037 68.3419 94.9424 68.0411 96.9848 68.1144C99.2557 68.1385 101.462 68.8747 103.292 70.2193C105.122 71.5639 106.484 73.449 107.186 75.6089C108.059 77.7155 108.433 79.9954 108.279 82.2706C108.125 84.5457 107.448 86.7544 106.299 88.7242C105.004 90.1718 103.415 91.3256 101.637 92.108C99.8599 92.8904 97.9356 93.2833 95.9938 93.2604C93.9188 93.1603 91.8896 92.6154 90.0436 91.6626C88.1976 90.7099 86.578 89.3715 85.2944 87.7381C85.0082 87.4697 84.6346 87.3138 84.2426 87.2991C83.8505 87.2844 83.4663 87.4118 83.1608 87.6579C82.8552 87.904 82.6489 88.2523 82.5798 88.6385C82.5107 89.0247 82.5835 89.4229 82.7847 89.7597C84.2489 91.932 86.1661 93.7616 88.4046 95.1225C90.6431 96.4835 93.1497 97.3436 95.7522 97.6437C99.0739 97.9448 102.412 97.2769 105.362 95.7207C106.539 97.1407 107.64 98.6199 108.665 100.158C109.257 101.095 109.849 102.032 110.391 102.969L112.018 105.927C113.267 108.323 114.319 110.803 115.174 113.367C115.226 113.676 115.369 113.963 115.584 114.19C115.799 114.418 116.078 114.576 116.383 114.645C116.689 114.714 117.008 114.69 117.3 114.576C117.593 114.463 117.844 114.265 118.024 114.008C118.26 113.68 118.365 113.276 118.319 112.874C118.124 109.847 117.579 106.852 116.697 103.95Z" fill="black"/>
<path fill-rule="evenodd" clip-rule="evenodd" d="M81.4036 93.9526C80.6324 92.5394 79.7063 91.2164 78.6425 90.0081C76.9849 88.1335 75.0962 86.4768 73.0216 85.0776C75.251 82.9323 76.9674 80.3116 78.0431 77.4107C79.1188 74.5098 79.5259 71.4036 79.2341 68.3235C79.208 63.2514 77.1688 58.3973 73.5647 54.8283C69.9607 51.2594 65.0868 49.2678 60.0147 49.2914C54.5626 49.0905 49.2514 51.0494 45.2353 54.7423C41.2193 58.4353 38.8228 63.5639 38.5667 69.0137C38.4384 72.5939 39.3965 76.1291 41.3149 79.1546C43.2334 82.1801 46.0224 84.5543 49.3154 85.9651C46.5223 87.523 43.8812 89.3388 41.4264 91.3887C39.2159 93.2741 37.3055 95.4854 35.7612 97.9464C34.3274 100.033 33.3269 102.387 32.8188 104.867C32.3106 107.348 32.3052 109.905 32.8028 112.388C32.8617 112.807 33.0844 113.184 33.4219 113.439C33.7594 113.693 34.184 113.803 34.6025 113.744C35.021 113.685 35.3989 113.462 35.6532 113.125C35.9075 112.787 36.0173 112.363 35.9584 111.944C35.9688 107.885 37.4388 103.965 40.1001 100.9C41.5793 98.9276 43.305 97.0046 45.0307 95.136C47.7918 92.2269 50.5529 89.4658 53.1119 87.247C55.0472 87.7435 57.0315 88.0246 59.0286 88.0852C59.2165 88.0986 59.4051 88.0748 59.5838 88.0151C59.7624 87.9553 59.9275 87.8609 60.0695 87.7372C60.2115 87.6135 60.3277 87.463 60.4114 87.2942C60.4951 87.1255 60.5446 86.9419 60.5571 86.754C60.5708 86.3828 60.4395 86.0209 60.191 85.7448C59.9425 85.4687 59.5964 85.3002 59.2258 85.2748C48.4772 84.2887 43.3987 77.6373 43.2507 70.488C44.7102 71.2571 46.2978 71.7453 47.9348 71.9178C48.7073 72.0395 49.4797 72.0395 50.2522 71.9178C51.0479 71.7995 51.8261 71.5843 52.5695 71.2769C54.4678 70.6211 56.1689 69.4821 57.5001 67.9734C57.5001 67.9734 57.5001 67.5789 57.7467 67.431L59.6203 68.4171C61.2901 69.2027 63.0322 69.778 64.8467 70.1428C68.2389 70.6901 71.7002 70.6901 75.0974 70.1428C75.5047 73.7776 74.5134 77.4312 72.3248 80.3616C70.1361 83.292 66.9142 85.2796 63.3133 85.9207C62.89 85.9703 62.503 86.1841 62.2356 86.516C61.9682 86.8479 61.8418 87.2715 61.8834 87.6957C61.9077 87.9036 61.9732 88.1045 62.0759 88.2868C62.1787 88.4691 62.3166 88.6292 62.4818 88.7577C62.647 88.8862 62.8361 88.9805 63.0381 89.0352C63.2401 89.0899 63.451 89.1038 63.6584 89.0763C66.0103 88.879 68.2932 88.1888 70.364 87.0547C72.024 88.8659 73.5196 90.8053 74.8508 92.8728C75.5904 94.0019 76.33 95.136 77.0203 96.3193C77.7106 97.5026 78.3516 98.7353 78.9925 100.017C80.4964 103.015 81.7142 106.151 82.6412 109.385C82.7137 109.692 82.8737 109.971 83.1016 110.188C83.3295 110.405 83.6156 110.552 83.9251 110.61C84.2347 110.668 84.5544 110.635 84.8455 110.514C85.1366 110.394 85.3865 110.192 85.565 109.933C85.6798 109.759 85.7589 109.564 85.7978 109.359C85.8367 109.154 85.8347 108.943 85.7918 108.739C85.3595 105.276 84.5494 101.87 83.3758 98.5824C82.8633 96.9814 82.2031 95.4314 81.4036 93.9526ZM52.964 66.3019H50.5973L48.2306 66.6471C46.62 67.0908 44.9764 67.3702 43.3 67.4853C44.1152 63.8217 46.2581 60.5899 49.3154 58.413C50.6853 61.1109 52.5599 63.5211 54.8376 65.513C54.9185 65.5339 55.0033 65.5339 55.0841 65.513C54.4136 65.8746 53.7069 66.1376 52.964 66.3019ZM65.7835 65.3158C64.3627 64.8622 62.9781 64.3018 61.6418 63.6394C58.0312 61.951 54.8211 59.514 52.2244 56.49C54.7221 55.3702 57.4255 54.7825 60.1626 54.7643C63.5924 54.6488 66.943 55.8103 69.5655 58.0238C72.188 60.2372 73.8957 63.3452 74.3578 66.7457C71.4492 66.6327 68.5666 66.1523 65.7786 65.3158" fill="black"/>
<path fill-rule="evenodd" clip-rule="evenodd" d="M61.4388 93.9487C61.4388 93.5695 61.2881 93.2058 61.02 92.9376C60.7518 92.6695 60.3881 92.5188 60.0089 92.5188C59.6297 92.5188 59.266 92.6695 58.9978 92.9376C58.7297 93.2058 58.579 93.5695 58.579 93.9487C58.1353 95.7237 57.5929 97.3508 57.2971 99.1258C57.2245 99.8801 57.2245 100.64 57.2971 101.394C57.2478 102.133 57.2478 102.873 57.2971 103.613C57.2971 105.388 57.9874 107.015 58.3325 108.79C58.3328 108.999 58.3758 109.205 58.459 109.397C58.5422 109.588 58.6638 109.761 58.8163 109.904C58.9688 110.046 59.1489 110.156 59.3455 110.227C59.5422 110.297 59.7512 110.327 59.9596 110.313C60.171 110.313 60.3803 110.271 60.575 110.189C60.7697 110.106 60.9459 109.986 61.0931 109.834C61.2402 109.682 61.3554 109.502 61.4317 109.305C61.5081 109.108 61.544 108.898 61.5374 108.686C61.5374 106.96 62.1784 105.333 62.3756 103.756C62.4287 103.033 62.4287 102.308 62.3756 101.586C62.4479 100.85 62.4479 100.11 62.3756 99.3674C62.2277 97.2965 61.7346 95.7188 61.4388 93.9487ZM67.8978 28.2487L61.9318 24.6493C61.9318 24.6493 60.4527 23.6139 59.861 23.3181C59.3232 23.0499 58.7146 22.958 58.1216 23.0554C57.5286 23.1527 56.9813 23.4344 56.5575 23.8604C54.6839 25.882 52.7166 27.7556 50.7936 29.6736C47.8353 32.5826 44.9263 35.3931 41.82 38.0556C38.3358 40.9565 34.7001 43.6705 30.9283 46.1861C30.6145 46.3823 30.3914 46.6951 30.3082 47.0557C30.225 47.4163 30.2884 47.7952 30.4846 48.1091C30.6807 48.4229 30.9935 48.646 31.3541 48.7292C31.7148 48.8124 32.0937 48.749 32.4075 48.5528C37.5786 45.7527 42.5241 42.5546 47.1993 38.9875C51.2952 35.93 55.2116 32.6391 58.9291 29.1312L65.043 32.8292L90.1792 49.2924C90.5402 49.516 90.9743 49.5896 91.3889 49.4975C91.8034 49.4054 92.1656 49.1548 92.3979 48.7993C92.5174 48.6255 92.6008 48.4294 92.6432 48.2228C92.6856 48.0161 92.6862 47.8031 92.6448 47.5962C92.6034 47.3893 92.521 47.1929 92.4024 47.0184C92.2837 46.844 92.1313 46.6951 91.9542 46.5806C85.3965 41.9951 79.3319 36.7194 72.9221 31.7888C71.2457 30.6104 69.5693 29.5799 67.8978 28.2487Z" fill="black"/>
<path fill-rule="evenodd" clip-rule="evenodd" d="M27.8252 33.3235C31.178 31.1541 34.5308 28.7874 37.6864 26.3714C42.617 22.7721 47.5476 19.0248 52.1774 15.3269L58.6365 10.4012L59.1788 9.85887C59.1788 9.85887 60.5101 10.6478 60.7566 10.8943C62.4823 12.5214 64.1094 14.1485 65.6872 15.8249C66.4761 16.4658 67.3094 17.1561 68.1476 17.7478C71.4702 20.0857 74.9276 22.226 78.5018 24.1576C83.7233 27.2145 89.0976 29.9214 94.2698 32.8305C94.4477 32.9377 94.6451 33.0088 94.8506 33.0396C95.0561 33.0705 95.2656 33.0604 95.4672 33.01C95.6688 32.9596 95.8584 32.8699 96.0252 32.746C96.192 32.6221 96.3327 32.4665 96.4392 32.2881C96.646 31.9182 96.705 31.4837 96.6044 31.072C96.5038 30.6604 96.251 30.3021 95.8969 30.0693C90.9663 26.9138 85.7892 23.8568 80.7649 20.504C77.5107 18.3543 74.388 16.0221 71.3968 13.5075L64.4496 6.85121C63.6198 5.95397 62.7303 5.11386 61.7871 4.33661C61.1889 3.9104 60.4943 3.63933 59.7656 3.54772C59.1373 3.49397 58.5064 3.61334 57.9412 3.89286C57.0598 4.51108 56.2198 5.18637 55.4267 5.9144L48.9774 11.338C44.392 15.3811 40.0531 19.72 35.4726 23.418C32.4156 26.0805 29.3587 28.3486 26.2031 31.0061C26.0207 31.0991 25.8605 31.2302 25.7332 31.3905C25.6058 31.5508 25.5144 31.7365 25.465 31.9352C25.4157 32.1338 25.4096 32.3407 25.4471 32.542C25.4846 32.7432 25.5649 32.934 25.6825 33.1016C25.8001 33.2691 25.9523 33.4094 26.1289 33.513C26.3054 33.6167 26.5021 33.6812 26.7057 33.7022C26.9093 33.7232 27.1151 33.7003 27.3091 33.635C27.5031 33.5697 27.6758 33.4634 27.8252 33.3235Z" fill="black"/>
</g>
<defs>
<clipPath id="clip0_653_29629">
<rect width="118.334" height="118.334" fill="white"/>
</clipPath>
</defs>
</svg>
