<svg width="115" height="115" viewBox="0 0 115 115" fill="none" xmlns="http://www.w3.org/2000/svg">
<path fill-rule="evenodd" clip-rule="evenodd" d="M70.8057 54.0026C71.0014 53.979 71.1905 53.9167 71.3619 53.8192C71.5333 53.7218 71.6836 53.5912 71.804 53.4351C71.9244 53.279 72.0126 53.1005 72.0633 52.91C72.114 52.7195 72.1263 52.5208 72.0994 52.3255C72.087 50.0887 72.7555 47.901 74.0161 46.0532C75.214 44.2515 76.5557 42.5601 78.0411 40.9788C80.191 38.4904 82.4718 36.1281 84.8836 33.892C86.3531 34.2178 87.8385 34.4095 89.3399 34.467C89.6463 34.4083 89.9227 34.2446 90.1215 34.0041C90.3204 33.7636 90.4291 33.4613 90.4291 33.1493C90.4291 32.8372 90.3204 32.5349 90.1215 32.2944C89.9227 32.0539 89.6463 31.8902 89.3399 31.8315C80.8107 30.969 77.078 25.4203 77.5572 19.9147C77.9316 16.8823 79.4688 14.1138 81.8448 12.1928C84.2208 10.2718 87.2499 9.34843 90.2934 9.61738C93.0395 9.56581 95.6973 10.5881 97.7011 12.4665C99.7048 14.345 100.896 16.9314 101.022 19.6751C101.299 21.0841 101.296 22.5339 101.013 23.9416C100.729 25.3494 100.171 26.6874 99.3697 27.8792C98.5687 29.071 97.5405 30.0932 96.3441 30.8873C95.1476 31.6814 93.8063 32.2319 92.397 32.5072C92.2019 32.5323 92.0137 32.5957 91.8431 32.6936C91.6725 32.7915 91.5229 32.922 91.4027 33.0778C91.2826 33.2335 91.1943 33.4114 91.1429 33.6012C91.0915 33.7911 91.078 33.9892 91.1032 34.1843C91.1284 34.3793 91.1917 34.5675 91.2896 34.7381C91.3875 34.9087 91.5181 35.0583 91.6738 35.1785C91.8295 35.2986 92.0074 35.3869 92.1972 35.4383C92.3871 35.4897 92.5852 35.5032 92.7803 35.478C94.4574 35.3247 96.0817 34.8551 97.572 34.0884C98.7603 35.4173 99.8304 36.8372 100.782 38.3482C101.357 39.2107 101.884 40.0732 102.364 40.9357C102.891 41.8413 103.418 42.7518 103.892 43.6622C105.055 45.927 106.029 48.2733 106.815 50.7011C106.849 50.8917 106.922 51.0734 107.028 51.2354C107.134 51.3973 107.272 51.5361 107.433 51.6435C107.594 51.7509 107.775 51.8247 107.965 51.8604C108.155 51.896 108.351 51.8929 108.54 51.8511C108.927 51.78 109.269 51.5585 109.493 51.2352C109.717 50.9118 109.803 50.513 109.733 50.1261C109.573 47.3148 109.075 44.5331 108.248 41.8413C107.91 40.6294 107.444 39.4568 106.858 38.3434C106.226 37.2528 105.488 36.2272 104.654 35.2815C103.437 34.0485 102.072 32.9702 100.591 32.0711C102.281 30.405 103.585 28.3888 104.412 26.1644C105.239 23.94 105.569 21.5614 105.378 19.1959C105.36 17.2192 104.95 15.2657 104.174 13.4478C103.398 11.6299 102.269 9.98358 100.854 8.60373C99.4382 7.22388 97.7637 6.13775 95.9266 5.40793C94.0895 4.67811 92.1261 4.31901 90.1497 4.35134C85.9156 4.21978 81.798 5.74887 78.6761 8.61204C75.5542 11.4752 73.6754 15.4455 73.4411 19.6751C73.3648 22.3819 74.0811 25.0521 75.5019 27.3574C76.9227 29.6626 78.986 31.5025 81.4384 32.6509C79.3972 33.7107 77.4704 34.9775 75.6884 36.4315C73.9903 37.8785 72.5217 39.5749 71.3328 41.4628C70.2291 43.0933 69.4652 44.9294 69.0865 46.8616C68.7078 48.7937 68.7221 50.7823 69.1286 52.7088C69.1456 52.9072 69.2037 53.1 69.2991 53.2748C69.3945 53.4496 69.5252 53.6026 69.6828 53.7243C69.8405 53.8459 70.0217 53.9335 70.215 53.9814C70.4083 54.0293 70.6095 54.0365 70.8057 54.0026ZM40.3547 94.8899C39.7808 93.8223 39.1069 92.8115 38.3422 91.8711C37.1388 90.5812 35.771 89.4551 34.274 88.5218C35.9553 86.8682 37.2551 84.8674 38.0828 82.6592C38.9104 80.4511 39.2459 78.0888 39.0657 75.7376C39.0597 73.7393 38.6527 71.7624 37.8689 69.9242C37.0851 68.086 35.9404 66.4238 34.5026 65.036C33.0647 63.6482 31.363 62.5631 29.4982 61.8448C27.6334 61.1266 25.6434 60.7899 23.6461 60.8547C19.4142 60.6978 15.2902 62.2112 12.1643 65.0682C9.03835 67.9252 7.16106 71.8968 6.93757 76.1257C6.8571 78.8273 7.56626 81.4938 8.9782 83.7985C10.3901 86.1032 12.4435 87.9461 14.8869 89.1015C12.8455 90.1628 10.9187 91.4313 9.13695 92.887C7.4562 94.336 6.00392 96.0306 4.82924 97.9134C3.71859 99.5506 2.95074 101.396 2.57194 103.337C2.19314 105.279 2.21121 107.278 2.62507 109.212C2.64818 109.406 2.71066 109.594 2.80871 109.763C2.90676 109.932 3.0383 110.08 3.19529 110.196C3.35228 110.313 3.53142 110.396 3.72174 110.441C3.91206 110.486 4.10956 110.492 4.30216 110.458C4.49789 110.434 4.68696 110.372 4.85836 110.275C5.02976 110.177 5.18004 110.047 5.30046 109.891C5.42088 109.734 5.50902 109.556 5.55975 109.365C5.61047 109.175 5.62276 108.976 5.59591 108.781C5.58346 106.544 6.25196 104.356 7.51257 102.509C8.71049 100.704 10.0522 99.0107 11.5376 97.4295C13.697 94.9538 15.9779 92.5931 18.3801 90.3474C19.8399 90.7179 21.3253 90.9096 22.8363 90.9224C23.1428 90.8637 23.4192 90.7 23.618 90.4595C23.8168 90.219 23.9256 89.9167 23.9256 89.6047C23.9256 89.2926 23.8168 88.9904 23.618 88.7499C23.4192 88.5094 23.1428 88.3457 22.8363 88.287C14.403 87.4245 10.7661 81.8709 11.2453 76.3653C11.5748 73.299 13.0928 70.484 15.4738 68.524C17.8548 66.5641 20.9091 65.6153 23.9815 65.8811C26.725 65.8825 29.3598 66.9534 31.3264 68.8663C33.2929 70.7792 34.4363 73.3834 34.5136 76.1257C35.0751 78.9631 34.4884 81.9073 32.8824 84.3127C31.2763 86.7182 28.7819 88.3887 25.9461 88.9578C25.7506 88.9786 25.5611 89.0381 25.3887 89.1327C25.2163 89.2273 25.0644 89.3552 24.9418 89.509C24.8192 89.6628 24.7284 89.8394 24.6746 90.0285C24.6208 90.2177 24.6051 90.4156 24.6284 90.6109C24.6492 90.8065 24.7087 90.996 24.8033 91.1684C24.8979 91.3408 25.0258 91.4927 25.1796 91.6152C25.3334 91.7378 25.51 91.8286 25.6991 91.8824C25.8883 91.9362 26.0863 91.9519 26.2815 91.9286C27.949 91.7801 29.5782 91.3057 31.0684 90.539C32.2535 91.8679 33.3237 93.2895 34.2788 94.8036C34.8474 95.6502 35.3745 96.527 35.8601 97.4343C36.3872 98.2968 36.9094 99.2072 37.3886 100.118C38.5514 102.386 39.5257 104.73 40.3115 107.152C40.4549 107.45 40.6936 107.691 40.9897 107.838C41.2859 107.985 41.6226 108.029 41.9466 107.963C42.2705 107.897 42.5632 107.725 42.7783 107.474C42.9933 107.223 43.1184 106.907 43.1338 106.577C42.9736 103.767 42.4748 100.987 41.6484 98.2968C41.3261 97.1243 40.8929 95.9851 40.3547 94.8947M8.61466 49.2109C14.2991 53.2808 21.1567 55.3838 28.1455 55.2005C37.9689 54.9179 47.7688 54.086 57.4992 52.7088C57.6779 52.7033 57.8534 52.6609 58.0148 52.5841C58.1763 52.5074 58.32 52.3981 58.4371 52.263C58.5541 52.128 58.6419 51.9701 58.6949 51.7994C58.7479 51.6287 58.765 51.4489 58.7451 51.2713C58.7329 51.1013 58.6873 50.9353 58.6108 50.7829C58.5343 50.6305 58.4285 50.4948 58.2993 50.3835C58.1702 50.2721 58.0203 50.1874 57.8584 50.1342C57.6964 50.081 57.5255 50.0604 57.3555 50.0734C47.8105 51.1436 38.2335 51.7026 28.6247 51.7505C22.5327 51.7143 16.6178 49.6978 11.7724 46.0053C9.46293 43.7861 7.65007 41.1026 6.4533 38.1317C5.25652 35.1608 4.70301 31.9701 4.82924 28.7697C4.52511 22.3895 6.60931 16.1249 10.6751 11.1986C13.5136 8.38513 17.2681 6.68469 21.2551 6.40696C25.4367 5.92302 29.6727 6.51684 33.5601 8.13196C35.4801 8.92317 37.206 10.121 38.6188 11.643C40.0316 13.165 41.0979 14.9751 41.7442 16.9486C44.0442 23.5515 43.4692 31.5488 46.1526 37.9649C47.2547 40.5715 49.0228 42.8524 51.2749 44.5726C54.4038 46.9439 57.8122 48.9217 61.4236 50.4615C61.5994 50.5516 61.7914 50.6057 61.9884 50.6207C62.1854 50.6357 62.3833 50.6112 62.5707 50.5488C62.7581 50.4863 62.9312 50.3871 63.0798 50.2569C63.2284 50.1268 63.3495 49.9683 63.4361 49.7907C63.5546 49.4494 63.5526 49.0779 63.4306 48.7379C63.3085 48.3979 63.0737 48.11 62.7653 47.922C59.3552 46.3948 56.1396 44.4661 53.1867 42.1768C51.4404 40.7427 50.0758 38.8991 49.2144 36.8101C46.4832 28.7697 47.9207 19.1959 44.1353 11.9653C42.1634 8.37283 39.0487 5.54144 35.2851 3.92009C30.771 1.94273 25.8359 1.1194 20.9244 1.52425C15.6924 1.86187 10.752 4.05344 6.99028 7.7055C2.119 13.6095 -0.360307 21.1261 0.0423647 28.7697C-0.0435207 32.5884 0.675369 36.3825 2.15228 39.9051C3.62919 43.4277 5.83105 46.5952 8.61466 49.2109ZM108.008 66.1159C104.307 62.4611 99.4091 60.2675 94.2178 59.9395C89.3055 59.514 84.3653 60.3382 79.8572 62.3353C76.0859 63.9223 72.9631 66.7394 70.9974 70.3278C67.0251 77.6111 68.6494 87.3286 65.7313 95.0815C64.8544 97.2378 63.4361 99.1401 61.6105 100.592C58.6579 102.89 55.4464 104.834 52.0415 106.385C51.6919 106.569 51.4269 106.882 51.3019 107.257C51.1769 107.632 51.2016 108.04 51.3707 108.398C51.5641 108.738 51.877 108.995 52.2488 109.118C52.6206 109.241 53.0248 109.222 53.3832 109.064C56.9885 107.492 60.3952 105.499 63.5319 103.127C65.7697 101.411 67.533 99.1497 68.6542 96.567C71.3376 90.103 70.7626 82.2015 73.0578 75.498C73.7022 73.4716 74.7881 71.6134 76.2373 70.0573C77.6865 68.5012 79.4629 67.286 81.4384 66.4993C85.2862 64.9247 89.4694 64.3478 93.5997 64.8222C97.5866 65.0999 101.341 66.8003 104.18 69.6138C108.269 74.4974 110.401 80.724 110.164 87.089C110.33 90.2262 109.845 93.3638 108.741 96.3049C107.637 99.2461 105.937 101.927 103.748 104.181C98.8986 107.859 92.9831 109.859 86.8961 109.878C77.2965 109.873 67.7051 109.313 58.1701 108.201C57.976 108.164 57.7762 108.17 57.5847 108.219C57.3933 108.268 57.2151 108.359 57.0628 108.485C56.9106 108.611 56.7879 108.769 56.7038 108.947C56.6196 109.126 56.576 109.321 56.576 109.519C56.576 109.716 56.6196 109.912 56.7038 110.09C56.7879 110.269 56.9106 110.427 57.0628 110.553C57.2151 110.679 57.3933 110.77 57.5847 110.819C57.7762 110.868 57.976 110.874 58.1701 110.837C67.8444 112.284 77.5955 113.199 87.3753 113.568C94.3615 113.75 101.223 111.651 106.911 107.578C109.592 104.922 111.691 101.738 113.075 98.2268C114.459 94.7161 115.098 90.9558 114.951 87.1849C115.376 79.5378 112.896 72.0126 108.008 66.1159Z" fill="black"/>
<path fill-rule="evenodd" clip-rule="evenodd" d="M21.4953 22.2095H32.4586C32.6586 22.2451 32.8637 22.2405 33.0619 22.1959C33.2601 22.1514 33.4474 22.0678 33.6129 21.9499C33.7785 21.8321 33.9188 21.6825 34.0258 21.5099C34.1329 21.3372 34.2044 21.1449 34.2362 20.9443C34.2681 20.7436 34.2596 20.5387 34.2113 20.3413C34.163 20.144 34.0759 19.9583 33.955 19.795C33.8341 19.6317 33.6819 19.4942 33.5072 19.3905C33.3326 19.2867 33.139 19.2188 32.9378 19.1908C30.9253 18.5678 28.9607 17.9497 26.9003 17.5185C26.0182 17.3328 25.1223 17.2206 24.2217 17.183C23.3127 17.1109 22.3995 17.1109 21.4905 17.183C19.3662 17.4705 17.293 17.9657 15.2709 18.6685C15.0953 18.7163 14.9317 18.8007 14.791 18.9161C14.6502 19.0315 14.5353 19.1753 14.4539 19.3381C14.3725 19.5009 14.3264 19.6791 14.3185 19.8609C14.3107 20.0428 14.3413 20.2242 14.4084 20.3935C14.4562 20.7414 14.6385 21.0568 14.9163 21.2718C15.194 21.4868 15.545 21.5844 15.8938 21.5435C17.6667 21.5914 19.5307 22.0178 21.4953 22.2095ZM82.5411 80.7206H93.5044C95.469 80.7206 97.3378 80.0976 99.3934 80.0018C99.5785 80.052 99.7723 80.0618 99.9616 80.0308C100.151 79.9997 100.331 79.9284 100.491 79.8217C100.65 79.715 100.785 79.5753 100.886 79.4121C100.986 79.249 101.051 79.0661 101.075 78.8758C101.099 78.6856 101.082 78.4925 101.025 78.3095C100.968 78.1265 100.873 77.9578 100.745 77.8148C100.618 77.6718 100.461 77.5578 100.286 77.4804C100.11 77.4031 99.9205 77.3642 99.7288 77.3664C97.708 76.6618 95.621 76.1641 93.4997 75.881C92.5923 75.809 91.6806 75.809 90.7732 75.881C89.8731 75.9422 88.9773 76.0541 88.0899 76.2164C86.0454 76.6764 84.0361 77.2514 82.0619 77.9414C81.6714 78.0118 81.3234 78.2309 81.0911 78.5526C80.8588 78.8743 80.7602 79.2735 80.8161 79.6664C80.9175 80.0274 81.1517 80.3367 81.4716 80.5322C81.7916 80.7277 82.1736 80.795 82.5411 80.7206ZM13.1626 35.4728C13.2018 35.6405 13.2741 35.7987 13.3753 35.938C13.4765 36.0774 13.6044 36.1952 13.7517 36.2844C13.899 36.3737 14.0626 36.4326 14.233 36.4578C14.4033 36.483 14.577 36.474 14.7438 36.4312H24.3655L27.2405 36.1437L34.083 35.2812C34.278 35.2875 34.4724 35.2553 34.6551 35.1864C34.8377 35.1176 35.005 35.0135 35.1474 34.88C35.2897 34.7465 35.4044 34.5863 35.4849 34.4085C35.5654 34.2307 35.61 34.0387 35.6163 33.8437C35.6226 33.6486 35.5904 33.4542 35.5216 33.2716C35.4527 33.089 35.3486 32.9217 35.2151 32.7793C35.0816 32.6369 34.9214 32.5222 34.7436 32.4417C34.5658 32.3613 34.3739 32.3166 34.1788 32.3103C31.8469 31.8855 29.5021 31.582 27.1446 31.3999C26.1235 31.3344 25.0992 31.3344 24.078 31.3999C23.0617 31.4304 22.0508 31.5587 21.0592 31.7833C18.7799 32.2716 16.5528 32.9776 14.4084 33.8916C14.2183 33.9021 14.0325 33.9529 13.8636 34.0407C13.6946 34.1285 13.5463 34.2513 13.4284 34.4009C13.3106 34.5505 13.2259 34.7234 13.1801 34.9082C13.1342 35.0931 13.1283 35.2855 13.1626 35.4728ZM79.3786 92.163C79.3846 92.3624 79.4307 92.5585 79.5141 92.7396C79.5975 92.9208 79.7166 93.0832 79.8641 93.2174C80.0117 93.3515 80.1848 93.4546 80.373 93.5204C80.5613 93.5863 80.7609 93.6135 80.9599 93.6006L87.7592 94.4631L90.6342 94.7506H100.256C100.511 94.8049 100.777 94.7837 101.02 94.6895C101.263 94.5953 101.474 94.4322 101.626 94.2202C101.778 94.0081 101.865 93.7563 101.876 93.4956C101.887 93.235 101.822 92.9767 101.689 92.7524C101.599 92.6048 101.481 92.4766 101.341 92.3754C101.201 92.2742 101.042 92.202 100.874 92.163C98.6561 91.2014 96.3479 90.4631 93.9836 89.9589C92.9774 89.9589 91.9711 89.6714 90.9169 89.5756C89.8628 89.4797 88.9044 89.5756 87.8982 89.5756C85.5375 89.7512 83.1928 90.0547 80.864 90.486C80.654 90.4916 80.4474 90.5403 80.2571 90.6291C80.0667 90.7179 79.8966 90.8448 79.7573 91.0021C79.618 91.1594 79.5125 91.3435 79.4474 91.5433C79.3822 91.743 79.3588 91.9539 79.3786 92.163Z" fill="black"/>
</svg>
