<svg width="128" height="128" viewBox="0 0 128 128" fill="none" xmlns="http://www.w3.org/2000/svg">
<g clip-path="url(#clip0_653_29622)">
<path fill-rule="evenodd" clip-rule="evenodd" d="M120.988 62.625C118.241 60.3516 114.811 59.0656 111.247 58.973C109.879 59.0383 108.534 59.3438 107.271 59.8754C105.566 60.6893 104.014 61.7297 102.616 62.9965C102.239 63.2908 101.989 63.7195 101.92 64.1932C101.851 64.6669 101.967 65.1491 102.245 65.5391C102.548 65.9204 102.986 66.1713 103.469 66.2403C103.951 66.3094 104.442 66.1915 104.84 65.9107C105.877 65.0826 106.971 64.3395 108.121 63.6813C109.172 63.2089 110.302 62.9382 111.454 62.8851C114.098 63.0443 116.603 64.1166 118.551 65.9107C119.515 66.643 120.308 67.5765 120.874 68.6463C121.441 69.7161 121.768 70.8964 121.832 72.1053C121.68 73.9683 121.12 75.7751 120.191 77.3974C119.179 79.142 117.944 80.7132 116.486 82.111C112.144 86.3469 105.472 93.3854 99.1713 100.27C92.8706 107.155 86.9945 113.721 84.0273 116.683C79.6079 119.062 74.7735 120.572 69.7856 121.131C69.7856 102.234 70.8473 104.718 72.4344 102.6C77.7266 95.5034 90.965 80.147 97.0003 73.1616L100.074 69.5627C100.214 69.3176 100.304 69.0469 100.339 68.7665C100.395 68.413 100.33 68.051 100.154 67.7392C99.9785 67.4275 99.7026 67.1842 99.3712 67.049C99.0399 66.9138 98.6726 66.8945 98.3289 66.9943C97.9853 67.094 97.6854 67.307 97.478 67.5987L94.3038 71.0436C87.95 77.8221 73.9737 92.7007 68.2516 99.58C66.9381 100.993 65.9123 102.648 65.2313 104.453C65.2313 106.045 63.7503 117.214 63.6442 121.821C63.5221 123.212 63.8565 124.608 64.5996 125.791C65.4357 126.447 66.4009 126.918 67.4319 127.174C68.4628 127.43 69.5363 127.466 70.5819 127.278C75.4865 126.428 80.3045 125.227 85.0358 123.674C86.9308 122.5 88.6294 121.035 90.0679 119.331C97.0534 111.762 112.304 93.8101 119.979 85.8161C121.731 83.9583 123.196 81.8562 124.321 79.5685C125.505 77.27 126.174 74.7381 126.285 72.153C126.162 70.2718 125.623 68.4414 124.707 66.7937C123.791 65.146 122.521 63.7222 120.988 62.625ZM52.4706 109.91C43.9989 109.91 33.8922 109.91 25.3621 109.538C20.6308 109.474 15.919 109.156 11.2266 108.583C10.3242 108.583 9.47495 107.893 9.15646 108.052C8.87261 107.269 8.7132 106.447 8.68404 105.615V101.119C8.36556 97.2551 7.99399 80.8955 7.35702 64.6898C6.35378 47.3748 5.35055 30.1659 5.35055 28.4726V26.6201C6.90583 25.5001 8.73181 24.8207 10.6427 24.6561C12.3413 24.6561 14.1408 24.6561 15.9402 24.3429C15.6217 25.263 15.3563 26.199 15.144 27.1509C15.0297 27.9235 15.0297 28.7086 15.144 29.4812C15.144 31.0152 15.5687 33.027 15.5687 33.027C15.653 33.718 15.9731 34.3589 16.475 34.8414C16.9768 35.3239 17.6297 35.6186 18.3236 35.6757H44.3704C51.4143 35.6757 58.0866 35.6757 61.8447 35.2511C62.2593 35.2962 62.6749 35.1769 63.0025 34.9188C63.33 34.6608 63.5432 34.2845 63.5964 33.871C63.5749 33.5564 63.4605 33.2554 63.2677 33.0059C63.075 32.7564 62.8125 32.5698 62.5135 32.4696C62.3155 32.403 62.1063 32.3759 61.8978 32.39C58.9306 32.39 54.2701 32.39 49.031 32.0184C38.5474 31.5407 26.5246 30.6436 21.2324 30.219V28.6319C21.427 27.7697 21.6751 26.9205 21.9755 26.0893C22.2056 25.4134 22.524 24.7782 22.931 24.1837C23.7484 23.0424 24.8631 22.1401 26.1583 21.588C28.5842 20.537 31.1245 19.7728 33.7277 19.3108L35.267 18.9393C36.0262 18.7419 36.6859 18.2712 37.1196 17.6175C37.5538 16.904 37.7053 16.0538 37.5442 15.2342L36.8542 11.6884C36.8624 11.0176 37.0184 10.3568 37.3111 9.75309C37.6038 9.14941 38.0259 8.61765 38.5474 8.19566C39.9276 7.0385 41.5624 6.22105 43.3141 5.80702C44.176 5.54631 45.0957 5.54631 45.9576 5.80702C46.8971 6.09365 47.7517 6.60323 48.4524 7.29328C49.3654 8.24874 49.9917 9.43776 50.2465 10.7382C50.5458 12.3065 50.6528 13.9054 50.565 15.4996C50.5598 16.0816 50.7673 16.6455 51.1485 17.0853C51.5297 17.5252 52.0583 17.8107 52.6352 17.8883C54.4258 18.0369 56.1898 18.3536 57.9273 18.8384C59.5994 19.3355 61.1998 20.0475 62.6887 20.9563C63.7981 21.7154 64.5996 22.8407 64.9712 24.1306C65.4065 25.7089 65.6365 27.3155 65.6612 28.9504C65.7439 29.3732 65.971 29.7542 66.3036 30.0281C66.6362 30.302 67.0537 30.4518 67.4846 30.4518C67.9155 30.4518 68.3329 30.302 68.6656 30.0281C68.9982 29.7542 69.2253 29.3732 69.3079 28.9504C69.4224 26.5423 69.0802 24.1343 68.2994 21.8534C67.6697 20.1079 66.526 18.594 65.019 17.5114C63.2532 16.302 61.3296 15.3411 59.3021 14.6556C58.0108 14.1908 56.6826 13.8357 55.3317 13.594C55.4602 11.8157 55.2988 10.0284 54.8539 8.30183C54.279 6.74316 53.4166 5.30631 52.3114 4.06596C51.0441 2.66422 49.4687 1.57581 47.7092 0.886402C45.8833 0.0657362 43.8544 -0.192955 41.8809 0.143267C38.643 0.812088 35.6704 2.43106 33.3561 4.80378C31.6316 6.68297 30.6701 9.13787 30.6596 11.6884V13.5462C28.071 14.1039 25.5495 14.9367 23.138 16.0304C21.0148 17.1239 19.1994 18.7269 17.8458 20.6909V21.1156C14.7207 20.9229 11.5849 20.994 8.47172 21.3279C6.57142 21.6464 4.76135 22.3895 3.17954 23.4936C2.61279 23.9157 2.17225 24.4847 1.90559 25.1391C1.61046 26.0496 1.41469 26.9893 1.3217 27.9418C1.3217 29.6404 0.84397 47.2155 1.3217 65.0083C1.64019 81.3148 2.4364 97.7806 2.75489 101.698C2.87167 104.062 3.20785 106.392 3.76343 108.689C4.08191 110.09 4.75604 111.385 5.72212 112.447C6.60326 113.163 7.66489 113.62 8.7902 113.774C11.3381 114.163 13.8966 114.375 16.4657 114.411C25.8929 114.411 40.9839 114.039 52.7891 113.721C53.264 113.695 53.711 113.489 54.0382 113.144C54.3653 112.799 54.5477 112.341 54.5477 111.866C54.5477 111.39 54.3653 110.933 54.0382 110.588C53.711 110.242 53.264 110.036 52.7891 110.01L52.4706 109.91ZM74.1808 22.7027C75.2955 22.9681 76.3376 23.4105 77.3072 24.0297C78.0008 24.5039 78.6183 25.0666 79.1598 25.7177L79.4782 26.6201C79.4782 29.2688 79.4782 34.7203 79.956 41.1802C79.956 43.5105 80.2214 46 80.4337 48.4895C80.9592 54.4186 81.7023 60.454 81.9094 65.486C81.9332 65.9056 82.1167 66.3001 82.4222 66.5888C82.7277 66.8773 83.132 67.0381 83.5522 67.0381C83.9725 67.0381 84.3768 66.8773 84.6823 66.5888C84.9877 66.3001 85.1712 65.9056 85.1951 65.486C85.7259 60.1886 86.2567 54.2063 86.3098 48.171V40.7556C85.8851 35.8297 85.1951 30.9409 84.2396 26.0893C84.1055 25.1187 83.7808 24.1843 83.2842 23.3397C82.2113 22.1362 80.9198 21.1473 79.4782 20.4255C78.0729 19.7083 76.5466 19.2583 74.977 19.0985C74.7396 19.0528 74.4955 19.0552 74.259 19.1057C74.0226 19.1561 73.7988 19.2536 73.6007 19.3922C73.4027 19.5308 73.2345 19.7078 73.1062 19.9127C72.9779 20.1175 72.892 20.3461 72.8537 20.5848C72.7589 21.0408 72.844 21.5159 73.0913 21.9106C73.3386 22.3054 73.729 22.5892 74.1808 22.7027Z" fill="#020202"/>
<path fill-rule="evenodd" clip-rule="evenodd" d="M66.2941 81.789C66.712 81.6345 67.0927 81.394 67.4118 81.0831C67.7309 80.7723 67.9813 80.3979 68.1466 79.9842C68.3506 79.5542 68.3818 79.0622 68.2336 78.6098C68.0855 78.1575 67.7693 77.7792 67.3504 77.5531C67.3504 76.7038 66.6604 75.5361 66.448 74.8513C66.4016 74.4751 66.281 74.1118 66.0932 73.7825C65.9054 73.4532 65.6542 73.1645 65.354 72.9329C65.0538 72.7014 64.7108 72.5317 64.3446 72.4337C63.9784 72.3356 63.5964 72.3112 63.2207 72.3618C62.5189 72.5799 61.87 72.9414 61.3151 73.4234C60.4658 74.1135 59.6218 75.1167 59.091 75.5414C57.5569 77.076 55.7657 78.3299 53.7988 79.2464C53.0799 79.6127 52.2732 79.772 51.469 79.7063C50.6647 79.6407 49.8946 79.3528 49.2445 78.8748V78.4502C49.1672 77.8351 49.1672 77.2128 49.2445 76.5977C49.9186 73.6517 50.8369 70.7588 51.9994 67.9667C51.9917 67.3532 51.794 66.7572 51.4336 66.2607C51.0731 65.7642 50.5677 65.3917 49.9867 65.1943C49.4058 64.997 48.778 64.9846 48.1897 65.1588C47.6015 65.3331 47.0817 65.6854 46.7019 66.1672C43.7552 71.413 39.9207 76.1077 35.3691 80.0426C32.5133 82.3198 29.6523 83.7477 27.1097 82.1075C25.4164 81.0989 25.151 78.7687 25.0979 76.3323C25.2359 72.0327 25.9844 67.7703 27.3273 63.6777C27.5219 63.0762 27.7679 62.494 28.0651 61.9314C28.4367 61.3475 28.8437 60.7831 29.286 60.2381C30.0593 59.1991 31.0077 58.3027 32.0887 57.5894C32.5152 57.2911 33.0037 57.0932 33.5175 57.0104C34.0314 56.9277 34.5573 56.9623 35.0559 57.1116C35.4568 57.268 35.9031 57.2612 36.299 57.0925C36.6949 56.9238 37.0089 56.6067 37.1738 56.2092C37.3257 55.8023 37.3104 55.3518 37.1314 54.9561C36.9524 54.5603 36.6242 54.2514 36.2184 54.0966C35.463 53.7827 34.6531 53.6211 33.8351 53.6211C33.017 53.6211 32.2071 53.7827 31.4517 54.0966C29.3975 54.8822 27.5768 56.1721 26.1595 57.8548C25.4695 58.651 24.9917 59.1818 24.5671 59.7657C24.0675 60.5336 23.6427 61.3477 23.2985 62.1968C21.0053 67.4648 19.7647 73.1305 19.6465 78.8748C19.6715 80.447 20.0454 81.994 20.7413 83.404C21.4371 84.814 22.4374 86.0519 23.67 87.0281C25.4754 88.198 27.5806 88.8204 29.7319 88.8204C31.8831 88.8204 33.9884 88.198 35.7937 87.0281C38.9359 85.1783 41.7178 82.7758 44.0054 79.9365C44.2967 81.2769 45.0957 82.4526 46.2348 83.2169C47.3454 83.9518 48.6066 84.4286 49.9256 84.6123C51.2446 84.796 52.588 84.6819 53.8572 84.2785C56.8936 83.1203 59.6401 81.3123 61.9043 78.981L62.4882 78.291C62.8598 79.2004 63.2826 80.0851 63.7568 80.945C64.0119 81.3642 64.4075 81.6792 64.8732 81.8337C65.3389 81.9883 65.839 81.9725 66.2941 81.789Z" fill="#020202"/>
</g>
<defs>
<clipPath id="clip0_653_29622">
<rect width="127.395" height="127.395" fill="white"/>
</clipPath>
</defs>
</svg>
