<svg width="140" height="140" viewBox="0 0 140 140" fill="none" xmlns="http://www.w3.org/2000/svg">
<g clip-path="url(#clip0_654_29654)">
<path fill-rule="evenodd" clip-rule="evenodd" d="M138.822 28.3263C138.472 9.10544 137.608 -0.589563 98.9216 0.862937C95.6666 0.99127 28.8983 -0.49623 22.3766 0.174603C0.583293 2.39127 1.72079 17.6921 1.42913 37.5663C-0.0642072 117.401 0.845793 123.841 7.19246 130.62C16.2795 137.645 27.7126 140.922 39.1416 139.778C154.134 133.705 139.195 163.607 137.865 35.6121C137.853 35.0239 137.614 34.4631 137.197 34.0476C136.78 33.6322 136.219 33.3942 135.631 33.3838C131.139 33.3838 134.289 39.2754 133.63 87.7679C132.872 148.75 134.464 127.51 38.7975 132.014C29.6595 132.853 20.5162 130.465 12.9558 125.265C8.69746 120.691 9.28079 111.177 9.21079 105.058C9.00079 5.83293 0.635792 7.3671 38.0041 7.04044C134.575 6.1421 131.133 4.04794 133.729 21.1163C134.557 27.4279 133.554 30.7179 136.727 30.6421C137.306 30.5961 137.845 30.3307 138.235 29.9001C138.624 29.4696 138.834 28.9066 138.822 28.3263Z" fill="black"/>
<path fill-rule="evenodd" clip-rule="evenodd" d="M54.1679 88.0828C55.4512 97.2936 58.5021 106.166 63.1454 114.228C72.6537 124.22 87.0795 115.995 93.3037 104.043C100.263 88.9931 106.435 73.5918 111.795 57.9011C115.931 47.2145 119.28 38.4528 110.769 30.1345C104.025 22.8078 90.3054 28.6411 81.1821 31.7795C69.3696 35.8511 38.2254 45.692 30.6421 54.3953C15.9071 71.3003 32.9462 81.0245 54.1679 88.0828ZM58.1637 81.0536C52.8554 79.5545 35.4254 73.0211 32.9754 67.5903C27.3521 55.9353 91.1046 33.1153 98.7929 31.7678C106.481 30.4203 106.015 33.2611 107.508 33.2611C113.942 40.2028 110.5 46.812 106.516 55.6961C100.625 69.0428 94.8845 85.6153 86.6829 100.572C83.0662 107.245 74.0654 114.525 68.7396 108.844C65.1145 101.169 62.7169 92.9723 61.6346 84.5536C61.5397 83.6627 61.1443 82.8307 60.5134 82.1945C59.8825 81.5583 59.0538 81.156 58.1637 81.0536Z" fill="black"/>
</g>
<defs>
<clipPath id="clip0_654_29654">
<rect width="140" height="140" fill="white"/>
</clipPath>
</defs>
</svg>
