<svg width="144" height="144" viewBox="0 0 144 144" fill="none" xmlns="http://www.w3.org/2000/svg">
<g clip-path="url(#clip0_653_29635)">
<path fill-rule="evenodd" clip-rule="evenodd" d="M6.18704 39.6039C9.42366 39.6039 7.5656 36.3673 7.32585 22.7675C7.32585 12.6441 6.72648 8.9879 18.1086 7.31565C24.5219 6.41659 31.4686 7.31565 37.8759 7.01596C38.4391 6.92607 38.9519 6.63832 39.322 6.20439C39.6922 5.77047 39.8955 5.2188 39.8955 4.64844C39.8955 4.07808 39.6922 3.52641 39.322 3.09249C38.9519 2.65856 38.4391 2.37081 37.8759 2.28092C26.5537 1.38186 14.1527 -3.89263 2.89049 6.05697C-3.52281 12.0507 2.89049 30.5594 3.96936 37.8058C4.02977 38.3363 4.29597 38.8218 4.71069 39.1581C5.1254 39.4944 5.65552 39.6544 6.18704 39.6039ZM37.8819 136.9C31.4686 136.6 24.5159 137.5 18.1026 136.6C6.66654 134.922 7.14604 131.206 7.32585 121.137C7.32585 107.603 9.42366 104.606 6.18704 104.306C5.64013 104.273 5.10192 104.455 4.68749 104.813C4.27306 105.172 4.01531 105.678 3.96936 106.224C2.65074 113.896 -3.58275 132.165 2.89049 137.853C14.0988 147.623 26.4938 142.408 37.9358 141.509C38.437 141.361 38.876 141.053 39.1861 140.633C39.4962 140.212 39.6603 139.702 39.6535 139.179C39.6467 138.657 39.4694 138.151 39.1485 137.738C38.8276 137.326 38.3807 137.029 37.8759 136.894M105.695 7.01596C112.108 7.31565 119.055 6.41659 125.462 7.31565C136.85 8.9939 136.431 12.6501 136.251 22.7675C136.251 36.3733 134.153 39.3102 137.39 39.6039C137.662 39.6284 137.937 39.5979 138.198 39.514C138.458 39.4301 138.699 39.2946 138.906 39.1156C139.113 38.9366 139.282 38.7178 139.402 38.4721C139.523 38.2265 139.593 37.9591 139.608 37.6859C140.926 30.0139 147.154 12.0447 140.686 6.05697C129.478 -3.83269 117.077 1.38186 105.635 2.28092C105.073 2.37769 104.563 2.67182 104.199 3.11047C103.834 3.54911 103.637 4.1035 103.644 4.67402C103.652 5.24454 103.862 5.79378 104.238 6.22304C104.614 6.65231 105.13 6.93346 105.695 7.01596ZM137.684 104.306C134.447 104.606 136.305 107.543 136.545 121.143C136.545 131.206 137.204 134.922 125.762 136.594C119.349 137.494 112.402 136.594 105.995 136.894C105.431 136.984 104.919 137.272 104.549 137.706C104.178 138.14 103.975 138.691 103.975 139.262C103.975 139.832 104.178 140.384 104.549 140.818C104.919 141.252 105.431 141.539 105.995 141.629C117.377 142.528 129.958 147.623 141.04 137.973C147.453 131.979 141.04 114.01 139.961 106.224C139.939 105.948 139.862 105.68 139.735 105.434C139.608 105.188 139.433 104.969 139.222 104.791C139.01 104.613 138.765 104.478 138.501 104.395C138.237 104.312 137.959 104.282 137.684 104.306ZM59.807 47.9891C58.4919 46.9464 56.8812 46.3454 55.2045 46.2717C53.5278 46.1981 51.8706 46.6554 50.469 47.5787C49.0675 48.502 47.9931 49.8441 47.399 51.4137C46.8049 52.9834 46.7213 54.7005 47.1602 56.3204C47.0489 56.853 47.1538 57.4079 47.4516 57.8631C47.7495 58.3183 48.216 58.6366 48.7486 58.7479C49.2811 58.8592 49.836 58.7543 50.2912 58.4565C50.7465 58.1586 51.0647 57.6921 51.176 57.1595C51.176 56.74 56.8101 52.4245 58.1287 52.6043C58.7334 52.7969 59.389 52.7481 59.9585 52.4682C60.528 52.1882 60.9671 51.6989 61.1839 51.1026C61.4008 50.5062 61.3786 49.8491 61.1219 49.2688C60.8652 48.6885 60.3941 48.2299 59.807 47.9891ZM71.7885 51.1059L78.5554 48.5286C79.2451 48.2465 79.9718 48.0648 80.7131 47.9891C81.2878 48.1939 81.9196 48.1677 82.4753 47.916C83.0311 47.6643 83.4675 47.2068 83.6928 46.6399C83.918 46.0729 83.9145 45.4406 83.6829 44.8762C83.4514 44.3117 83.0098 43.8591 82.4513 43.6137C81.3196 42.5301 79.907 41.7851 78.3737 41.4629C76.8403 41.1407 75.2474 41.2543 73.7752 41.7907C72.3031 42.3272 71.0105 43.2651 70.0439 44.4983C69.0774 45.7315 68.4754 47.2106 68.3061 48.7683C68.0319 49.2292 67.9447 49.7776 68.0623 50.3008C68.1799 50.8241 68.4935 51.2824 68.9385 51.5816C69.3835 51.8809 69.9262 51.9983 70.4552 51.9098C70.9841 51.8214 71.4591 51.5337 71.7825 51.1059M77.7762 65.9643C77.8398 65.3444 77.6545 64.7246 77.2611 64.2412C76.8677 63.7579 76.2984 63.4506 75.6784 63.387C75.0584 63.3234 74.4386 63.5087 73.9553 63.9022C73.4719 64.2956 73.1647 64.8649 73.1011 65.4848C72.9067 66.0905 72.5876 66.6488 72.1643 67.1236C71.7411 67.5985 71.2231 67.9794 70.6437 68.242C67.5273 68.6617 64.3566 68.1399 61.5392 66.7435C61.3751 66.4971 61.1607 66.2883 60.9101 66.1307C60.6595 65.9731 60.3783 65.8703 60.0852 65.8291C59.792 65.7879 59.4935 65.8092 59.2091 65.8917C58.9248 65.9741 58.6612 66.1158 58.4355 66.3074C58.2098 66.499 58.0273 66.7362 57.8998 67.0034C57.7724 67.2706 57.7029 67.5617 57.696 67.8577C57.6891 68.1536 57.7449 68.4477 57.8598 68.7205C57.9747 68.9934 58.146 69.2388 58.3625 69.4407C63.8168 80.8827 78.4955 77.5263 77.7822 65.9643" fill="black"/>
<path fill-rule="evenodd" clip-rule="evenodd" d="M108.812 118.558C109.124 118.558 109.432 118.496 109.719 118.375C110.007 118.255 110.267 118.078 110.484 117.855C110.702 117.632 110.873 117.368 110.988 117.078C111.102 116.788 111.157 116.478 111.15 116.167C112.708 96.939 105.635 86.2102 94.9067 78.724C98.8329 75.0229 101.722 70.3587 103.287 65.195C104.852 60.0313 105.039 54.5479 103.828 49.2899C102.617 44.0318 100.051 39.1822 96.3849 35.2232C92.719 31.2641 88.0808 28.3334 82.9312 26.7224C50.3373 15.0466 16.6645 45.4168 36.9773 75.6672C39.9346 80.0885 43.821 83.8113 48.3654 86.5758C38.2959 93.3427 32.1224 101.908 32.482 120.662C32.5185 121.239 32.7625 121.784 33.1688 122.195C33.5751 122.607 34.1165 122.857 34.6931 122.901C35.2697 122.945 35.8427 122.779 36.3066 122.433C36.7704 122.088 37.0937 121.587 37.217 121.022C39.608 109.028 45.1739 97.8963 53.3342 88.7875C56.2393 90.0031 59.3554 90.6345 62.5046 90.6455C62.8056 90.697 63.1143 90.6821 63.4089 90.6019C63.7036 90.5216 63.9772 90.3781 64.2106 90.1811C64.444 89.9842 64.6317 89.7387 64.7603 89.4618C64.889 89.1848 64.9557 88.8831 64.9557 88.5777C64.9557 88.2723 64.889 87.9706 64.7603 87.6936C64.6317 87.4167 64.444 87.1712 64.2106 86.9743C63.9772 86.7773 63.7036 86.6338 63.4089 86.5536C63.1143 86.4733 62.8056 86.4584 62.5046 86.5099C59.4611 86.2583 56.5023 85.3809 53.8137 83.9326C47.4155 80.8976 42.4019 75.5549 39.7794 68.9768C37.1568 62.3987 37.1193 55.0722 39.6745 48.4676C48.2455 30.4984 77.8965 26.6624 91.6162 41.395C105.336 56.1276 94.9127 80.2224 75.2593 83.9386C74.715 84.1173 74.2527 84.485 73.9561 84.9752C73.6595 85.4653 73.5482 86.0454 73.6424 86.6105C73.7366 87.1756 74.03 87.6883 74.4695 88.0558C74.909 88.4232 75.4656 88.6211 76.0384 88.6137C81.6019 87.8016 86.8631 85.5725 91.3165 82.1404C96.3002 88.1675 100.231 94.9923 102.944 102.327C107.733 114.974 105.156 118.618 108.812 118.558Z" fill="black"/>
</g>
<defs>
<clipPath id="clip0_653_29635">
<rect width="143.85" height="143.85" fill="white"/>
</clipPath>
</defs>
</svg>
