<svg width="128" height="127" viewBox="0 0 128 127" fill="none" xmlns="http://www.w3.org/2000/svg">
<g clip-path="url(#clip0_654_29669)">
<path d="M61.2745 60.1179C59.1945 58.3717 59.1945 57.1017 53.3812 57.1546C51.2201 57.4729 49.2036 58.4232 47.5895 59.8842C45.9755 61.3452 44.8371 63.2505 44.3199 65.3567C43.8376 66.9407 43.8495 68.6324 44.354 70.2095C44.8585 71.7867 45.832 73.1756 47.1465 74.1938C48.9857 75.226 51.0859 75.7102 53.1953 75.5881C55.3048 75.4661 57.334 74.7431 59.0399 73.5059C60.8542 72.4806 62.267 70.8782 63.0499 68.9577C63.8328 67.0373 63.9402 64.911 63.3545 62.9225C62.903 61.8328 62.1888 60.8698 61.2745 60.1179ZM55.9412 69.1667C55.1288 69.7679 54.1606 70.1271 53.1499 70.2021C52.1393 70.277 51.128 70.0647 50.2345 69.59C48.9012 68.7434 49.1145 66.9442 49.6479 65.3567C50.1812 63.7692 51.6212 61.2292 53.4345 60.9117C54.2798 60.8102 55.1372 60.911 55.9352 61.2056C56.7331 61.5002 57.4484 61.98 58.0212 62.605C58.5545 63.0654 58.9279 63.6739 59.0879 64.3513C59.8345 66.415 58.0745 68.1084 56.1545 69.1667H55.9412ZM29.7119 87.841C27.6319 86.0947 27.6319 84.8247 21.7652 84.8777C19.6137 85.2056 17.6089 86.1603 16.0051 87.6206C14.4013 89.0809 13.2709 90.981 12.7572 93.0797C12.2284 94.6921 12.2163 96.4275 12.7225 98.047C13.2287 99.6665 14.2284 101.091 15.5839 102.123C17.423 103.155 19.5232 103.64 21.6327 103.518C23.7421 103.396 25.7714 102.673 27.4772 101.435C29.2915 100.41 30.7043 98.8076 31.4872 96.8872C32.2702 94.9667 32.3775 92.8404 31.7919 90.8519C31.3717 89.6857 30.6552 88.6521 29.7119 87.841ZM24.3785 96.8792C23.5662 97.4804 22.598 97.8395 21.5873 97.9145C20.5766 97.9895 19.5653 97.7772 18.6719 97.3025C17.3385 96.4558 17.5519 94.6566 18.0852 93.0691C18.6185 91.4816 20.0052 88.9416 21.8719 88.6241C22.7086 88.5313 23.5555 88.6364 24.3435 88.9307C25.1314 89.225 25.8379 89.7002 26.4052 90.3175C26.9504 90.7717 27.3414 91.3814 27.5252 92.0637C28.2719 94.1275 26.6719 95.8208 24.5919 96.8792H24.3785ZM89.4239 59.43C87.2372 57.5779 87.2372 56.4138 81.4772 56.4138C79.3188 56.7455 77.309 57.708 75.7045 59.1784C74.1 60.6487 72.9736 62.5602 72.4692 64.6688C71.9434 66.274 71.9329 68.0017 72.4392 69.6131C72.9456 71.2246 73.9437 72.6402 75.2959 73.6646C77.1224 74.7369 79.2297 75.2442 81.3484 75.1216C83.467 74.9991 85.5007 74.2523 87.1892 72.9767C89.0045 71.9522 90.4184 70.3502 91.2023 68.4297C91.9863 66.5091 92.0944 64.3824 91.5092 62.3934C91.0942 61.2394 90.3708 60.2164 89.4239 59.43ZM84.0959 68.4788C83.2835 69.08 82.3153 69.4392 81.3046 69.5141C80.2939 69.5891 79.2827 69.3768 78.3892 68.9021C77.0612 68.0554 77.2745 66.2034 77.8079 64.6159C78.3412 63.0284 79.7279 60.4884 81.5945 60.2238C82.8166 60.0246 84.0705 60.2537 85.1409 60.8716C86.2114 61.4896 87.0317 62.4579 87.4612 63.6104C87.9945 65.7271 86.2345 67.3675 84.3145 68.4788H84.0959ZM57.8665 87.1531C55.7865 85.4068 55.7865 84.1368 49.9199 84.1368C47.7439 84.4253 45.7107 85.3729 44.0976 86.8502C42.4845 88.3276 41.3702 90.2628 40.9065 92.3918C40.3738 93.9957 40.3599 95.7247 40.8668 97.3368C41.3736 98.9489 42.3759 100.363 43.7332 101.382C45.5649 102.447 47.6751 102.945 49.7939 102.814C51.9126 102.682 53.9435 101.925 55.6265 100.642C57.4418 99.617 58.8557 98.015 59.6396 96.0945C60.4236 94.174 60.5317 92.0472 59.9465 90.0582C59.5232 88.9234 58.8058 87.9248 57.8665 87.1531ZM52.5332 96.1965C51.7208 96.7978 50.7526 97.1569 49.7419 97.2319C48.7313 97.3069 47.72 97.0946 46.8265 96.6199C45.4399 95.7732 45.7065 93.9211 46.2399 92.3336C46.7732 90.7461 48.1599 88.2061 50.0265 87.9415C50.8589 87.8422 51.7032 87.9389 52.4909 88.2239C53.2785 88.509 53.9874 88.9742 54.5599 89.5819C55.1051 90.0361 55.4961 90.6458 55.6799 91.3282C56.3732 93.4449 54.6665 95.3499 52.7465 96.1965H52.5332ZM113.579 59.9592C111.499 58.16 111.445 56.9429 105.632 56.9429C103.456 57.2314 101.423 58.179 99.8096 59.6564C98.1965 61.1337 97.0822 63.0689 96.6185 65.1979C96.0846 66.8025 96.0701 68.5327 96.577 70.1459C97.0839 71.7591 98.0868 73.1745 99.4452 74.1938C101.272 75.266 103.379 75.7733 105.498 75.6508C107.616 75.5282 109.65 74.7814 111.339 73.5059C113.154 72.4814 114.568 70.8794 115.352 68.9588C116.136 67.0383 116.244 64.9116 115.659 62.9225C115.244 61.7686 114.525 60.7456 113.579 59.9592ZM108.245 69.0079C107.433 69.6092 106.465 69.9683 105.454 70.0433C104.443 70.1183 103.432 69.906 102.539 69.4313C101.152 68.5846 101.419 66.7325 101.952 65.145C102.485 63.5575 103.872 61.0175 105.739 60.7529C106.927 60.6054 108.131 60.8593 109.157 61.4737C110.183 62.0881 110.97 63.0271 111.392 64.1396C111.979 66.2563 110.379 67.8967 108.459 68.9021L108.245 69.0079ZM77.5892 84.7718C75.4367 85.0988 73.4307 86.0531 71.8259 87.5135C70.2211 88.9738 69.0899 90.8744 68.5759 92.9739C68.0471 94.5863 68.035 96.3217 68.5412 97.9412C69.0474 99.5607 70.047 100.985 71.4025 102.017C73.2456 103.037 75.3436 103.514 77.4502 103.392C79.5568 103.27 81.5847 102.555 83.2959 101.329C85.1111 100.305 86.525 98.7029 87.309 96.7824C88.0929 94.8619 88.201 92.7352 87.6159 90.7461C86.7856 88.8336 85.3714 87.2278 83.5726 86.1551C81.7737 85.0823 79.681 84.5966 77.5892 84.7665M80.4159 96.7786C79.603 97.379 78.6345 97.7372 77.6238 97.8113C76.6132 97.8853 75.6022 97.6721 74.7092 97.1966C73.3759 96.35 73.5892 94.5508 74.1225 92.9104C74.6559 91.27 76.0959 88.8358 77.9092 88.5183C78.7416 88.419 79.5859 88.5157 80.3736 88.8007C81.1612 89.0858 81.87 89.551 82.4425 90.1587C82.9755 90.6234 83.364 91.2291 83.5625 91.905C84.0959 93.8629 82.3359 95.3446 80.4159 96.6146V96.7786ZM84.0425 20.6051C83.4402 24.6172 83.8808 28.7155 85.3225 32.5113C86.2872 34.3702 87.9034 35.8152 89.8669 36.5744C91.8304 37.3336 94.0058 37.3546 95.9839 36.6335C97.3303 36.3099 98.5732 35.6557 99.5983 34.7311C100.623 33.8064 101.398 32.641 101.851 31.3419C102.718 28.3715 103.043 25.2712 102.811 22.1873V14.472C102.89 13.3004 102.712 12.1256 102.288 11.0291C101.865 9.93255 101.206 8.9406 100.357 8.12202C97.514 6.20829 94.0461 5.43317 90.6505 5.95244C90.422 5.94534 90.1943 5.9839 89.981 6.06582C89.7678 6.14774 89.5733 6.27134 89.4091 6.4293C89.2449 6.58725 89.1144 6.77633 89.0254 6.9853C88.9363 7.19427 88.8904 7.41887 88.8905 7.64577C88.7597 7.31947 88.5162 7.0499 88.2036 6.88513C87.8911 6.72037 87.5297 6.67113 87.1839 6.74619C86.8352 6.84304 86.5162 7.02429 86.2556 7.27367C85.9949 7.52304 85.8008 7.83273 85.6905 8.17494C85.3657 10.0262 85.2405 11.9065 85.3172 13.7841L84.5705 17.012C84.2932 18.1938 84.1154 19.3933 84.0372 20.6104M88.4639 18.4408C88.4639 18.4408 89.3172 8.59827 89.3172 8.22785C89.4517 8.53923 89.6746 8.80508 89.9587 8.99299C90.2427 9.18091 90.5758 9.28278 90.9172 9.28619C95.7119 9.28619 97.7386 10.1858 98.2719 12.0379C98.4451 15.4047 98.2123 18.78 97.5785 22.092C97.5892 24.1452 97.3581 26.1737 96.8852 28.1774C96.5119 29.4474 96.0319 30.7174 94.6985 31.0349C94.1782 31.2688 93.6117 31.3845 93.0405 31.3737C92.4694 31.3628 91.9078 31.2256 91.3969 30.9721C90.8859 30.7186 90.4384 30.3552 90.0869 29.9084C89.7354 29.4615 89.4889 28.9425 89.3652 28.3891C88.5175 25.1444 88.2165 21.7838 88.4639 18.4408ZM45.5999 18.9646C45.5999 19.4938 45.9732 20.023 48.0532 20.2346C51.0399 20.2346 52.3199 21.1871 56.4265 21.3988H69.8025C73.4825 21.3988 75.7225 21.0813 79.4559 20.8167C81.2159 20.8167 82.6025 17.4301 80.2559 16.848C76.2025 16.6892 73.4292 16.0013 69.3225 16.0013H58.6665C55.3687 15.9934 52.0735 16.1878 48.7999 16.5834C46.5599 16.7421 45.5465 18.1709 45.5999 18.9646Z" fill="black"/>
<path d="M122.64 21.6631C120.841 19.7205 118.471 18.3878 115.867 17.8531C113.4 17.2087 110.845 16.9586 108.299 17.1123C104.512 17.6415 105.526 20.2344 107.499 20.2344C109.291 20.2167 111.069 20.3579 112.832 20.6577C115.493 20.8462 117.986 22.0167 119.819 23.9386C121.056 26.4098 121.766 29.1138 121.899 31.8761C122.432 35.9983 122.859 41.3428 123.126 47.2113C115.286 47.2113 99.5524 46.5763 81.9098 46.2588H45.7604C26.6724 46.4176 10.0911 47.0526 4.86978 47.2642C4.83789 39.284 5.66028 31.3231 7.32311 23.5152C7.84731 22.5604 8.61572 21.7593 9.55102 21.1927C10.4863 20.626 11.5555 20.3138 12.6511 20.2873C14.8658 19.7503 17.1476 19.5364 19.4244 19.6523C19.7259 19.6008 20.003 19.4554 20.2156 19.2372C20.4282 19.019 20.5653 18.7392 20.6069 18.4385C20.6485 18.1378 20.5925 17.8318 20.447 17.5648C20.3015 17.2978 20.0741 17.0837 19.7978 16.9536C16.4946 16.2368 13.0743 16.2368 9.77111 16.9536C8.46243 17.2659 7.24341 17.872 6.20785 18.7252C5.17229 19.5784 4.34779 20.6559 3.79778 21.8748C1.71778 26.7431 -0.415558 53.6142 0.0644421 77.4161C0.437775 94.7199 2.51778 110.214 6.35778 114.871C9.18444 118.257 16.5444 120.162 25.8244 120.903C40.2671 121.856 59.4618 120.268 69.3764 120.268C81.8308 120.664 94.2979 120.257 106.699 119.051C112.292 118.572 117.732 116.989 122.699 114.394C124.144 113.176 125.106 111.488 125.414 109.632C127.312 98.768 128.171 87.7508 127.974 76.7282C127.974 53.0321 126 25.579 122.64 21.6631ZM121.307 103.446C121.008 105.768 120.416 108.043 119.547 110.219C113.58 112.69 107.196 114.017 100.731 114.13C88.2511 115.135 74.4964 114.659 69.3818 114.659C59.5684 114.659 40.5338 116.299 26.1924 115.453C18.8324 115.029 12.7578 114.288 10.5178 111.643C6.89111 107.462 5.34444 93.2329 4.86444 77.522C4.5086 68.4808 4.47302 59.43 4.75778 50.3863C10.0911 50.3863 26.3578 51.233 45.7604 51.6034H81.9098C99.6644 51.2859 115.446 50.8096 123.227 50.598C123.227 55.8896 123.494 61.8692 123.227 67.6848C123.334 79.6334 122.694 91.5766 121.307 103.446Z" fill="black"/>
<path d="M23.8994 20.4477C23.4888 24.681 23.9048 28.9567 25.1261 33.0366C26.09 34.8976 27.7067 36.3447 29.6715 37.1049C31.6362 37.8652 33.8134 37.8862 35.7928 37.1641C37.151 36.853 38.4072 36.204 39.4428 35.2782C40.4785 34.3525 41.2597 33.1804 41.7128 31.8724C42.6194 28.8773 42.9394 25.7341 42.6728 22.612V14.8967C42.7453 13.7258 42.5639 12.553 42.1406 11.4576C41.7174 10.3621 41.0623 9.36952 40.2194 8.54673C37.3858 6.60958 33.9154 5.81497 30.5128 6.32423C30.046 6.32423 29.5983 6.50821 29.2683 6.8357C28.9382 7.16318 28.7528 7.60735 28.7528 8.07048C28.6219 7.74418 28.3784 7.47461 28.0659 7.30985C27.7533 7.14508 27.3919 7.09584 27.0461 7.1709C26.6974 7.26776 26.3784 7.44901 26.1178 7.69838C25.8571 7.94775 25.663 8.25744 25.5528 8.59965C25.1527 10.3377 24.9205 12.1096 24.8594 13.8913L24.2728 16.6959V18.0717L23.8994 20.4477ZM28.2728 18.9131C28.2728 18.9131 29.1261 9.12352 29.1261 8.70019C29.2462 9.0256 29.4639 9.30662 29.7501 9.50534C30.0362 9.70406 30.3768 9.8109 30.7261 9.81144C35.5261 9.81144 37.5528 10.711 38.0861 12.5631C38.2417 15.932 37.9911 19.3074 37.3394 22.6173C37.3394 24.6704 37.1083 26.6989 36.6461 28.7027C36.3261 29.9198 35.8461 31.1898 34.5128 31.5073C33.9924 31.7411 33.4259 31.8569 32.8548 31.846C32.2836 31.8351 31.7221 31.698 31.2111 31.4445C30.7001 31.191 30.2526 30.8276 29.9011 30.3807C29.5496 29.9339 29.3031 29.4148 29.1794 28.8614C28.322 25.6184 28.0156 22.2562 28.2728 18.9131Z" fill="black"/>
</g>
<defs>
<clipPath id="clip0_654_29669">
<rect width="128" height="127" fill="white"/>
</clipPath>
</defs>
</svg>
