<svg width="119" height="119" viewBox="0 0 119 119" fill="none" xmlns="http://www.w3.org/2000/svg">
<g clip-path="url(#clip0_660_29615)">
<path fill-rule="evenodd" clip-rule="evenodd" d="M111.087 8.56526C112.343 7.85539 113.494 6.97184 114.503 5.94071C115.543 4.90079 116.237 3.61328 116.93 2.87048C117.215 2.54952 117.367 2.1317 117.354 1.70249C117.342 1.27329 117.166 0.865124 116.862 0.561497C116.558 0.25787 116.15 0.0817238 115.721 0.0690891C115.292 0.0564544 114.874 0.208286 114.553 0.493527C113.414 1.31886 112.374 2.25974 111.433 3.31616C110.492 4.35608 109.849 5.64359 109.155 6.38639C108.991 6.54677 108.866 6.74313 108.79 6.96004C108.714 7.17694 108.689 7.40848 108.718 7.63645C108.747 7.86442 108.828 8.0826 108.956 8.27384C109.083 8.46508 109.253 8.62416 109.452 8.73858C109.71 8.8797 110.005 8.93827 110.298 8.90639C110.59 8.87451 110.865 8.75371 111.087 8.56031M113.414 17.7264C112.001 16.8391 110.377 16.3434 108.71 16.2904C108.322 16.2334 107.929 16.3315 107.613 16.5633C107.298 16.7951 107.087 17.1419 107.026 17.5284C106.969 17.9155 107.067 18.3094 107.299 18.6247C107.531 18.9399 107.877 19.151 108.264 19.212C108.677 19.3573 109.056 19.5554 109.403 19.8063C110.047 20.2222 110.657 20.6844 111.235 21.1928C112.275 21.9356 113.414 22.5794 114.305 23.2727C114.457 23.4269 114.639 23.5493 114.838 23.6329C115.038 23.7165 115.252 23.7595 115.469 23.7595C115.686 23.7595 115.9 23.7165 116.1 23.6329C116.3 23.5493 116.481 23.4269 116.633 23.2727C116.947 22.9571 117.124 22.5297 117.124 22.0842C117.124 21.6387 116.947 21.2113 116.633 20.8957C115.728 19.6814 114.642 18.6126 113.414 17.7264ZM92.6057 22.926C93.4971 22.0842 94.5865 21.4404 95.5274 20.5986C96.4683 19.7568 97.2111 18.8159 98.2015 18.0236C98.3689 17.9309 98.5162 17.8057 98.6346 17.6553C98.753 17.5049 98.8401 17.3324 98.8908 17.1478C98.9416 16.9633 98.9549 16.7705 98.9301 16.5807C98.9053 16.3909 98.8427 16.208 98.7462 16.0428C98.5406 15.7107 98.2161 15.4696 97.8389 15.3684C97.4617 15.2672 97.0601 15.3135 96.7159 15.498C95.3583 15.9763 94.0747 16.6431 92.9029 17.4788C91.8497 18.423 90.9254 19.4794 90.1298 20.6481C89.8153 20.9637 89.6387 21.3911 89.6387 21.8366C89.6387 22.2821 89.8153 22.7095 90.1298 23.0251C90.2976 23.1835 90.4954 23.3068 90.7116 23.3877C90.9278 23.4686 91.1579 23.5056 91.3886 23.4963C91.6192 23.4871 91.8457 23.4319 92.0547 23.334C92.2637 23.236 92.4511 23.0973 92.6057 22.926ZM94.9332 5.39599C95.676 6.23783 96.6169 6.88159 97.1121 7.47583C97.2095 7.64499 97.3394 7.79328 97.4942 7.91222C97.649 8.03116 97.8257 8.11842 98.0143 8.16901C98.2029 8.2196 98.3996 8.23253 98.5931 8.20705C98.7867 8.18158 98.9733 8.1182 99.1424 8.02055C99.4757 7.81554 99.7146 7.48733 99.8073 7.10718C99.9 6.72704 99.839 6.32566 99.6376 5.99023C99.2756 4.83389 98.7233 3.74603 98.0034 2.77144C97.2006 1.82224 96.2262 1.03268 95.1313 0.444007C94.9541 0.31251 94.7522 0.218237 94.5377 0.166869C94.3231 0.115501 94.1004 0.108103 93.883 0.14512C93.6655 0.182136 93.4577 0.262802 93.2723 0.382254C93.0868 0.501707 92.9275 0.657474 92.8038 0.840166C92.5462 1.19655 92.4383 1.63956 92.5031 2.07449C92.5678 2.50942 92.8002 2.90175 93.1505 3.1676C93.6952 3.6628 94.1409 4.60368 94.9332 5.39599Z" fill="black"/>
<path fill-rule="evenodd" clip-rule="evenodd" d="M106.528 49.4856V27.786C106.528 27.392 106.371 27.0141 106.093 26.7355C105.814 26.4569 105.436 26.3004 105.042 26.3004C104.648 26.3004 104.27 26.4569 103.992 26.7355C103.713 27.0141 103.556 27.392 103.556 27.786L103.21 37.9376C102.879 42.8877 102.648 47.844 102.517 52.8034C102.269 60.1324 102.12 67.3177 101.873 75.1963C101.873 80.7921 101.576 86.5364 101.279 92.2856C101.031 96.0491 100.734 99.8176 100.239 103.482C100.15 104.484 99.8316 105.453 99.3077 106.311C98.7837 107.17 98.0686 107.897 97.218 108.434C93.7359 109.996 89.9232 110.678 86.1156 110.42L58.226 110.915C55.5519 110.915 50.699 111.163 46.4849 110.915C44.263 111.044 42.0497 110.546 40.0968 109.479C39.0336 108.443 38.2631 107.145 37.8635 105.715C37.3683 103.877 37.0546 102.011 36.9226 100.12C41.0629 98.0561 44.9235 95.4735 48.4112 92.4342C51.0662 90.3538 52.8368 87.3467 53.3681 84.0158C53.7638 81.4868 53.2883 78.8983 52.0196 76.675C50.751 74.4517 48.7644 72.7255 46.3858 71.7795C44.0328 71.0384 41.5089 71.0384 39.1559 71.7795V57.4583C39.1559 50.2284 39.8987 42.5974 40.2454 36.5015C40.592 30.4106 40.7901 24.6167 40.8396 22.4874C40.8198 20.7212 40.9683 18.9698 41.2853 17.2333C41.4702 15.92 42.0787 14.7029 43.0185 13.7669C44.1327 12.8954 45.4152 12.2566 46.782 11.8852V12.6775C47.0296 14.0641 47.5248 15.6487 47.6733 16.7877C48.0893 18.6694 48.7182 20.5017 49.5551 22.2348C50.2715 23.9845 51.1628 25.6352 52.2292 27.1868C52.7594 27.783 53.4743 28.184 54.2595 28.3258C56.2733 28.7219 58.3053 28.887 60.3554 28.821H66.1492C69.368 28.821 72.5422 28.1772 74.7706 27.8306C76.999 27.4839 78.3856 27.2859 80.2178 27.1373C81.3766 27.0383 82.5337 27.0383 83.6891 27.1373C83.904 27.165 84.1222 27.1496 84.331 27.0922C84.5399 27.0347 84.7353 26.9363 84.9058 26.8027C85.0762 26.6691 85.2185 26.5029 85.3242 26.3138C85.4298 26.1247 85.4969 25.9165 85.5214 25.7012C85.5943 25.4736 85.6183 25.233 85.5916 24.9955C85.5649 24.7579 85.4882 24.5287 85.3666 24.3228C85.245 24.117 85.0812 23.9393 84.8859 23.8013C84.6907 23.6633 84.4685 23.5683 84.2338 23.5224C82.921 23.3311 81.5983 23.2154 80.2723 23.1757H65.5054C54.3635 23.1757 56.5423 24.4137 53.8683 20.056C53.0294 18.7915 52.3163 17.4481 51.7389 16.0449C51.4418 14.9059 50.6495 13.4203 50.2038 11.9842C50.1638 11.705 50.1638 11.4216 50.2038 11.1424C53.4721 10.5151 56.7734 10.2015 60.1078 10.2015L78.4895 9.85488L86.7594 9.50329C87.2059 9.50329 87.6341 9.3259 87.9499 9.01015C88.2656 8.6944 88.443 8.26615 88.443 7.81961C88.443 7.37308 88.2656 6.94483 87.9499 6.62908C87.6341 6.31333 87.2059 6.13594 86.7594 6.13594H78.44L60.2068 5.73978C56.1168 5.5058 52.0134 5.72168 47.9705 6.38354C44.9497 6.82922 42.0924 8.01769 39.6511 9.84993C38.0863 11.1473 36.9275 12.8706 36.3283 14.8019C35.6636 17.3068 35.347 19.8912 35.3875 22.4824V49.2875C30.6693 49.0721 25.9669 49.9734 21.6628 51.9181C17.3587 53.8628 13.5744 56.796 10.6176 60.479C7.33077 64.2264 4.82107 68.5893 3.23422 73.3146C1.67404 78.1033 1.11775 83.1622 1.60006 88.1755C2.11012 93.3454 3.03614 98.4657 4.37317 103.482C5.71889 108.452 7.57762 113.268 9.9194 117.853C10.0104 118.054 10.1402 118.236 10.3014 118.388C10.4627 118.539 10.6522 118.657 10.8591 118.735C11.0661 118.814 11.2864 118.85 11.5075 118.843C11.7286 118.836 11.9462 118.786 12.1478 118.695C12.5463 118.502 12.8528 118.16 13.0011 117.743C13.1494 117.326 13.1275 116.867 12.9401 116.466C11.0667 111.899 9.67267 107.149 8.78044 102.294C7.82577 97.3925 7.26277 92.4231 7.09677 87.4327C6.89869 83.1839 7.49292 78.9351 8.82996 74.8992C10.0841 70.8083 12.045 66.9686 14.6238 63.5542C16.9975 60.1775 20.1207 57.3961 23.7487 55.4279C27.3767 53.4597 31.4112 52.358 35.536 52.2092C35.536 59.3401 35.9322 66.5254 36.4274 72.5223V72.8194C33.3666 74.4037 30.7721 76.7592 28.9004 79.6531C28.6705 79.9749 28.5779 80.3748 28.6429 80.7648C28.7079 81.1549 28.9252 81.5031 29.247 81.733C29.5688 81.9628 29.9687 82.0554 30.3587 81.9904C30.7487 81.9254 31.097 81.7081 31.3268 81.3863C32.6071 79.5759 34.2973 78.0938 36.2594 77.0611C38.2216 76.0284 40.4002 75.4742 42.6174 75.4439C46.0342 75.4439 48.2626 78.4151 47.5693 83.7137C47.5693 85.9917 45.1924 88.0269 42.6174 90.0572C38.5798 93.1836 34.3541 96.0244 29.9403 98.5796C28.7953 99.6583 27.9439 101.011 27.4665 102.51C26.9891 104.009 26.9014 105.604 27.2117 107.147C27.4989 111.128 29.143 114.886 31.8666 117.803C32.2015 118.099 32.6401 118.249 33.0858 118.221C33.5316 118.193 33.948 117.99 34.2436 117.655C34.5391 117.32 34.6894 116.881 34.6616 116.435C34.6337 115.99 34.4299 115.573 34.095 115.278C32.5232 113.307 31.5903 110.904 31.4209 108.389C31.1461 106.933 31.1461 105.438 31.4209 103.982C31.4209 103.338 31.718 102.843 32.1637 102.596L33.3027 102.001C33.4017 103.675 33.6493 105.326 34.0455 106.953C34.5753 109.023 35.6301 110.915 37.1157 112.45C39.0225 113.915 41.3145 114.792 43.7117 114.976C48.3897 115.444 53.0776 115.676 57.7754 115.669C61.7419 115.669 66.3522 115.966 71.8489 116.065H85.868C90.6585 116.351 95.4443 115.431 99.788 113.391C101.383 112.435 102.731 111.116 103.721 109.541C104.711 107.967 105.317 106.181 105.488 104.329C105.983 100.516 106.33 96.5988 106.478 92.6818C106.726 86.8384 106.478 80.9951 106.478 75.3449C106.874 66.2332 106.577 57.904 106.528 49.4856Z" fill="black"/>
<path fill-rule="evenodd" clip-rule="evenodd" d="M86.5599 66.1846C88.1549 62.4891 88.7854 58.4491 88.3922 54.4434C88.1734 51.6662 87.1781 49.0064 85.52 46.7678C84.7331 45.8884 83.8143 45.1366 82.7964 44.5394C81.2689 43.5934 79.5958 42.9057 77.8444 42.5042C76.6896 42.1692 75.5155 41.9046 74.3285 41.7118C73.437 41.6385 72.541 41.6385 71.6495 41.7118C69.9993 41.3561 68.2821 41.4764 66.6975 42.0585C63.4788 43.2913 60.5817 45.2384 58.2247 47.7533C55.8906 50.3759 54.3456 53.605 53.7679 57.068C53.1052 60.5415 53.3613 64.1279 54.5107 67.4721C55.6249 70.2155 57.5165 72.5726 59.9579 74.2563C61.493 75.2219 63.1668 75.9548 64.9099 76.4401C63.1767 77.1829 61.3939 77.9752 60.3045 78.5695C60.1248 78.6497 59.9627 78.7648 59.8279 78.9082C59.693 79.0515 59.5879 79.2202 59.5188 79.4045C59.4497 79.5888 59.4179 79.785 59.4253 79.9817C59.4326 80.1784 59.479 80.3717 59.5617 80.5503C59.7239 80.9009 60.0162 81.1745 60.3768 81.3132C60.7373 81.4519 61.1377 81.4446 61.493 81.2931C62.4834 80.9464 64.068 80.5008 65.7022 80.1046C67.0543 79.7776 68.4277 79.5459 69.8123 79.4113C71.3078 79.1538 72.8116 79.0878 74.3236 79.2132C75.8224 79.4146 77.2915 79.7447 78.7308 80.2036C81.8407 81.1346 84.8218 82.4469 87.6048 84.1157C88.8461 84.7859 90.0016 85.5782 91.0712 86.4926C92.1606 87.3196 93.1015 88.3249 93.8443 89.4688C94.0553 89.8621 94.4099 90.1588 94.8342 90.2972C95.2586 90.4356 95.7199 90.4049 96.1222 90.2116C96.5162 90.0015 96.8106 89.6434 96.9406 89.2162C97.0706 88.789 97.0256 88.3277 96.8155 87.9337C96.0781 86.3507 95.0917 84.8962 93.8938 83.6254C92.7264 82.3788 91.4685 81.2202 90.1303 80.1591C87.1947 77.9031 83.9382 76.0988 80.469 74.806L78.9834 74.4098C82.3316 72.5614 84.9901 69.677 86.5599 66.1895M59.116 65.2486C58.1136 62.8225 57.7718 60.1741 58.1256 57.5731C58.3237 54.9089 59.2894 52.3636 60.8987 50.2392C65.8507 44.2473 69.1686 43.5045 76.9977 46.03C78.0838 46.3601 79.1072 46.8223 80.0679 47.4165C80.9345 47.9464 81.6773 48.6545 82.2517 49.4964C83.5788 51.5861 84.1582 54.067 83.8859 56.5282C83.766 59.1274 83.1084 61.6735 81.9546 64.0057C80.7399 66.4335 78.8022 68.4249 76.4084 69.7054C74.0281 70.989 71.3215 71.5403 68.6288 71.2901C66.6089 71.122 64.6656 70.4401 62.9835 69.3093C61.3116 68.3803 59.9625 66.9638 59.116 65.2486Z" fill="black"/>
</g>
<defs>
<clipPath id="clip0_660_29615">
<rect width="118.848" height="118.848" fill="white"/>
</clipPath>
</defs>
</svg>
