<svg width="139" height="139" viewBox="0 0 139 139" fill="none" xmlns="http://www.w3.org/2000/svg">
<g clip-path="url(#clip0_653_29650)">
<path fill-rule="evenodd" clip-rule="evenodd" d="M96.3501 110.504C94.9613 109.612 93.4891 108.858 91.9543 108.251C81.7841 104.208 82.8845 107.266 88.0854 103.282C103.167 91.7216 101.088 63.3425 81.2628 59.4736C80.75 59.3705 80.2171 59.4696 79.7756 59.7502C79.3342 60.0309 79.0183 60.4713 78.894 60.9795C78.1411 64.5587 83.7475 62.0741 89.2959 69.1225C97.9081 80.1615 91.7284 107.614 63.2913 101.087C41.3872 96.575 44.2773 58.3732 74.0406 60.6262C74.268 60.649 74.4977 60.6268 74.7166 60.5608C74.9354 60.4949 75.1391 60.3865 75.316 60.2418C75.493 60.0971 75.6397 59.919 75.7478 59.7177C75.8559 59.5163 75.9233 59.2956 75.9461 59.0682C75.9689 58.8408 75.9467 58.6111 75.8808 58.3923C75.8148 58.1734 75.7064 57.9697 75.5617 57.7928C75.4171 57.6159 75.239 57.4692 75.0376 57.3611C74.8362 57.2529 74.6155 57.1856 74.3881 57.1627C40.5185 52.8827 33.4063 95.4225 57.0479 106.23C43.1768 112.01 32.0221 122.875 33.9275 137.267C33.9139 137.504 33.9486 137.74 34.0296 137.962C34.1106 138.185 34.2362 138.388 34.3986 138.56C34.561 138.732 34.7569 138.869 34.9741 138.963C35.1914 139.057 35.4255 139.105 35.6622 139.105C35.8988 139.105 36.1329 139.057 36.3502 138.963C36.5674 138.869 36.7633 138.732 36.9257 138.56C37.0881 138.388 37.2137 138.185 37.2947 137.962C37.3757 137.74 37.4104 137.504 37.3968 137.267C37.9248 133.021 39.648 129.012 42.366 125.707C46.4028 120.506 51.1056 115.861 56.3529 111.894C62.4805 108.193 62.133 108.541 62.133 107.961C64.272 108.39 66.4304 108.66 68.608 108.772C66.6845 116.332 66.408 124.217 67.7972 131.893C67.7972 133.051 67.7972 135.761 70.3455 135.124C72.8823 134.487 72.1352 133.161 72.1352 131.371C72.1352 130.734 73.5194 121.485 73.6352 119.811C73.624 115.94 73.3142 112.075 72.7085 108.251C75.0059 108.12 77.2608 107.734 79.4732 107.093C79.9945 108.309 81.4424 108.135 87.9696 112.126C96.0143 118.209 101.956 126.655 104.962 136.283C105.098 136.767 105.412 137.181 105.842 137.442C106.271 137.703 106.784 137.791 107.276 137.688C107.768 137.585 108.203 137.299 108.491 136.887C108.78 136.476 108.902 135.97 108.831 135.472C108.058 125.85 103.584 116.896 96.3501 110.504Z" fill="black"/>
<path fill-rule="evenodd" clip-rule="evenodd" d="M67.7969 76.4664C63.2703 79.186 58.0504 80.5302 52.7733 80.3353C52.5371 80.3216 52.3006 80.3564 52.0783 80.4374C51.8559 80.5184 51.6525 80.6439 51.4804 80.8063C51.3084 80.9687 51.1713 81.1646 51.0776 81.3819C50.9839 81.5991 50.9355 81.8333 50.9355 82.0699C50.9355 82.3065 50.9839 82.5406 51.0776 82.7579C51.1713 82.9752 51.3084 83.171 51.4804 83.3334C51.6525 83.4958 51.8559 83.6214 52.0783 83.7024C52.3006 83.7834 52.5371 83.8181 52.7733 83.8045C58.8958 85.362 65.363 84.8321 71.1503 82.2987C74.05 80.3218 77.0751 78.5495 80.2258 76.9819C84.8476 81.4936 87.6218 85.7679 89.7589 83.3991C90.1155 83.0137 90.3135 82.508 90.3135 81.983C90.3135 81.458 90.1155 80.9523 89.7589 80.5669C84.7317 75.4239 83.9788 69.0068 78.6621 70.5705C74.9052 72.2849 71.2835 74.2502 67.7969 76.4664ZM67.2177 44.8497C68.0865 46.7031 69.0131 49.3557 71.0924 48.0873C71.4209 47.9363 71.6961 47.6897 71.8821 47.3796C72.0681 47.0696 72.1562 46.7107 72.1349 46.3498C72.1349 45.7127 65.6598 28.1466 64.9069 26.1253C79.415 25.604 78.4883 27.0519 75.1929 1.62073C75.1489 1.16615 74.9334 0.745388 74.5902 0.444112C74.2469 0.142836 73.8018 -0.0163118 73.3453 -0.000934119C70.2236 -0.000934119 72.5345 4.39494 71.2024 19.3027C69.7603 19.3027 60.8064 19.5923 59.648 19.766C59.0957 19.7682 58.5538 19.917 58.0778 20.197C57.6017 20.4771 57.2085 20.8784 56.9382 21.3601C56.6679 21.8418 56.5303 22.3865 56.5393 22.9388C56.5483 23.4911 56.7037 24.031 56.9896 24.5036C59.2484 28.1466 64.8489 39.8805 67.2177 44.8497ZM37.3964 67.0434C37.8598 64.9584 35.7169 64.4951 33.8114 63.4004C29.5951 61.1475 21.0987 56.4099 15.3765 53.404C21.9674 47.2185 24.6258 44.7918 23.5833 42.1914C18.4848 35.8711 12.6652 30.1682 6.24307 25.1986C6.09438 24.9975 5.90402 24.8308 5.685 24.71C5.46598 24.5892 5.22346 24.5172 4.97402 24.4987C4.72458 24.4803 4.4741 24.5159 4.23969 24.6032C4.00529 24.6904 3.79249 24.8273 3.61584 25.0044C3.43919 25.1814 3.30285 25.3946 3.21614 25.6292C3.12943 25.8638 3.0944 26.1143 3.11344 26.3637C3.13248 26.6131 3.20514 26.8555 3.32645 27.0742C3.44777 27.2929 3.61487 27.4829 3.81636 27.6311C6.48052 30.6891 13.7606 39.1855 16.7086 43.0022C15.3186 44.1605 7.98057 51.209 7.34348 52.014C6.93366 52.3896 6.62928 52.866 6.46058 53.3957C6.29188 53.9254 6.26474 54.49 6.38186 55.0334C6.49898 55.5769 6.75628 56.0802 7.12819 56.4934C7.50009 56.9066 7.97366 57.2152 8.50182 57.3887C13.3552 59.0683 27.6896 65.4275 34.796 68.4276C35.0574 68.5155 35.3339 68.5491 35.6088 68.5264C35.8836 68.5037 36.1509 68.4251 36.3943 68.2955C36.6377 68.166 36.8522 67.9881 37.0245 67.7728C37.1968 67.5575 37.3234 67.3093 37.3964 67.0434ZM132.646 24.4457C116.233 39.1276 114.379 40.8593 115.306 43.981C117.696 47.1605 120.407 50.0852 123.397 52.709C117.617 55.7207 109.178 60.3946 104.962 62.7112C98.6607 66.1167 103.225 68.028 104.383 67.5067C106.867 66.5222 125.013 58.4891 130.272 56.5837C130.741 56.3529 131.152 56.0191 131.475 55.6072C131.797 55.1953 132.023 54.7159 132.134 54.2048C132.245 53.6937 132.24 53.1641 132.118 52.6554C131.996 52.1467 131.761 51.672 131.43 51.2669C130.503 50.2244 123.339 43.3497 121.897 42.3072C124.845 38.2009 132.125 29.9941 134.783 26.9303C135.041 26.8285 135.271 26.6663 135.454 26.4575C135.636 26.2486 135.766 25.9991 135.832 25.7298C135.899 25.4605 135.9 25.1793 135.835 24.9095C135.77 24.6398 135.642 24.3895 135.461 24.1794C135.28 23.9694 135.051 23.8058 134.794 23.7023C134.536 23.5988 134.258 23.5583 133.982 23.5844C133.706 23.6105 133.44 23.7023 133.207 23.8521C132.973 24.0019 132.785 24.2055 132.646 24.4457Z" fill="black"/>
</g>
<defs>
<clipPath id="clip0_653_29650">
<rect width="139" height="139" fill="white"/>
</clipPath>
</defs>
</svg>
