<svg width="118" height="119" viewBox="0 0 118 119" fill="none" xmlns="http://www.w3.org/2000/svg">
<g clip-path="url(#clip0_670_29717)">
<path fill-rule="evenodd" clip-rule="evenodd" d="M76.5124 10.1448C76.9057 12.1727 76.8074 14.0023 78.7249 14.0519C80.6375 14.1015 80.4408 12.614 81.4684 10.1943C85.0035 9.54975 86.3752 9.84725 86.3752 8.11183C86.3752 6.38138 84.9002 5.94008 82.1076 4.94842C81.2717 0.694167 80.8784 0 79.7525 0C78.6217 0 78.3758 0.74375 76.7091 4.1055C71.5072 4.94842 71.0697 5.49383 70.9222 6.53508C70.7747 7.57633 70.6763 8.65725 76.5124 10.1448ZM105.609 69.025C104.626 66.5012 104.577 64.622 102.812 64.8203C101.047 65.0186 101.533 66.2086 100.752 69.3225H100.309C93.1947 71.3008 93.5388 72.1933 93.588 72.9321C93.6372 73.6709 94.473 74.8163 100.604 75.2625C102.227 82.2835 103.647 81.7431 104.287 81.6935C104.926 81.6439 106.199 80.9002 106.593 74.7171V74.4692C111.499 73.0313 112.674 73.0809 112.625 71.2513C112.576 69.4167 111.986 69.5158 105.609 69.025ZM25.4381 39.8303C23.9473 39.9105 22.4762 40.2113 21.0721 40.7228C20.4284 41.0157 19.8646 41.4614 19.4288 42.0218C18.993 42.5821 18.6982 43.2405 18.5695 43.9408C18.1579 46.3077 17.9604 48.7075 17.9795 51.1105C17.9795 56.3564 17.6353 61.6023 17.6845 66.8978C17.6845 70.4579 17.6845 74.023 18.127 77.5335C18.4712 82.4819 18.127 94.3571 18.422 99.5038C18.3644 100.379 18.3644 101.257 18.422 102.132C18.4667 102.686 18.6594 103.217 18.9798 103.669C19.3001 104.122 19.736 104.478 20.2412 104.7C22.8827 105.275 25.5837 105.525 28.2848 105.444C36.6727 105.444 50.3115 105.146 55.71 104.998L70.1847 104.303C70.1847 104.303 73.0314 104.304 74.0639 104.056C74.6287 104.004 75.1594 103.76 75.5693 103.365C75.9792 102.969 76.244 102.446 76.3207 101.879C76.4114 100.231 76.4114 98.5787 76.3207 96.9305C76.0257 93.0729 75.3865 88.7195 74.9932 85.8486C74.9686 85.6011 74.8958 85.3609 74.7787 85.142C74.6617 84.923 74.5029 84.7296 74.3113 84.5729C74.1198 84.4162 73.8994 84.2993 73.6629 84.2289C73.4263 84.1585 73.1783 84.136 72.9331 84.1628C72.4323 84.2249 71.9761 84.4835 71.6632 84.8826C71.3502 85.2817 71.2059 85.7891 71.2614 86.2948C71.2614 88.7195 71.9006 92.2795 72.0972 95.6958V99.4047L70.0863 99.8509H55.71C51.5898 99.8509 42.8578 99.8509 35.2517 99.5534C30.7874 99.5534 26.7656 99.5534 24.558 99.2559C24.558 93.9654 24.558 81.8918 24.263 76.993C23.968 73.5767 23.8697 70.1654 23.7713 66.7491V51.0659C23.673 43.8416 19.602 45.8646 34.8092 44.4763L64.8353 42.4979C65.0576 42.4862 65.2753 42.4299 65.4757 42.3323C65.6761 42.2346 65.8552 42.0976 66.0024 41.9292C66.1495 41.7609 66.2619 41.5645 66.3329 41.3518C66.4038 41.1391 66.432 40.9142 66.4156 40.6903C66.3992 40.4665 66.3387 40.2482 66.2376 40.0483C66.1364 39.8483 65.9967 39.6708 65.8266 39.526C65.6565 39.3812 65.4595 39.2722 65.247 39.2052C65.0346 39.1383 64.8111 39.1148 64.5895 39.1361L34.3176 39.8303H25.4381Z" fill="black"/>
<path fill-rule="evenodd" clip-rule="evenodd" d="M11.7018 53.6385C11.7018 46.558 12.2918 39.5321 13.0293 32.5061H13.6193C16.1931 32.0428 18.8026 31.8105 21.4171 31.8119C23.138 31.8119 24.8981 31.8119 26.6681 31.5144C39.7661 29.9327 34.3185 31.7623 38.7336 25.6289C39.363 24.6703 40.1333 23.8455 41.0445 23.1547C42.0278 22.3118 43.1586 21.6622 44.378 21.2259C45.0884 20.9074 45.8572 20.7428 46.6347 20.7428C47.4122 20.7428 48.181 20.9074 48.8915 21.2259C52.0283 23.115 54.349 26.1148 55.4159 29.6402C55.4791 29.8818 55.5893 30.1083 55.7401 30.3066C55.8909 30.5049 56.0793 30.6709 56.2944 30.795C56.5094 30.9191 56.7468 30.9989 56.9927 31.0296C57.2386 31.0603 57.4881 31.0414 57.7267 30.974C58.1662 30.7952 58.5244 30.4586 58.7323 30.0292C58.9402 29.5998 58.9831 29.1079 58.8526 28.6485C58.5053 25.7304 57.4204 22.9513 55.7019 20.5775C53.9835 18.2038 51.6892 16.315 49.039 15.0924C47.6987 14.6971 46.2918 14.5855 44.9068 14.7647C43.5217 14.9439 42.1883 15.4099 40.9904 16.1337C39.5828 16.9726 38.3234 18.0416 37.2636 19.2971C36.1819 20.6111 35.3411 22.0986 34.761 23.7001C34.4168 24.6587 34.1218 25.6322 33.876 26.6206C31.8802 26.0967 29.8466 25.732 27.7941 25.5297C26.603 25.43 25.4058 25.43 24.2147 25.5297C22.9921 25.6289 21.781 25.8107 20.5813 26.0751C9.54339 28.6485 8.21589 26.0751 5.86081 57.4961C5.51664 61.5024 5.36914 65.5137 5.36914 69.5201V81.4944C5.90997 90.7963 6.89331 100.049 8.02414 109.301C8.04252 109.553 8.1109 109.798 8.22523 110.023C8.33956 110.247 8.49751 110.447 8.68968 110.609C8.88185 110.77 9.10433 110.892 9.34389 110.965C9.58346 111.039 9.83522 111.063 10.0842 111.036C10.5698 110.974 11.0148 110.73 11.3321 110.354C11.6495 109.979 11.8163 109.497 11.8001 109.003C11.3085 97.971 11.3085 86.9387 11.456 75.8518V62.6924C11.6526 59.6183 11.6526 56.559 11.7018 53.6385ZM86.032 70.2588C85.9902 70.0413 85.9062 69.8342 85.785 69.6494C85.6637 69.4645 85.5075 69.3056 85.3253 69.1818C85.1431 69.0579 84.9385 68.9714 84.7231 68.9274C84.5077 68.8833 84.2859 68.8826 84.0702 68.9251C83.6388 69.0207 83.2604 69.2799 83.0133 69.6491C82.7662 70.0183 82.6693 70.4692 82.7427 70.9084C83.1721 76.2964 83.2541 81.6878 82.9886 87.0825C82.9886 90.6475 82.9886 94.2076 82.7427 97.7231C82.6001 101.551 82.1282 105.359 81.3218 109.102C81.1797 109.589 81.2279 110.112 81.4565 110.564C81.6852 111.016 82.0768 111.362 82.551 111.532C83.0263 111.672 83.5369 111.621 83.9759 111.39C84.4148 111.159 84.7482 110.766 84.9061 110.292C86.7487 105.85 88.0496 101.198 88.7804 96.4389C89.1082 94.4059 89.2885 92.3598 89.3212 90.3004C89.4425 88.2543 89.4425 86.2098 89.3212 84.167C88.6171 79.447 87.5167 74.791 86.032 70.2588ZM79.2617 111.428C75.4218 112.241 71.5131 112.667 67.5846 112.717C61.5519 112.717 55.3667 112.717 49.5798 112.469C46.5856 112.469 43.6405 112.469 40.7003 112.816C36.2802 113.064 31.8651 113.51 27.4499 113.659H18.0296C17.8105 113.632 17.5884 113.649 17.3759 113.709C17.1635 113.769 16.9649 113.871 16.7917 114.009C16.6184 114.147 16.474 114.318 16.3666 114.512C16.2593 114.707 16.1911 114.921 16.1661 115.142C16.1383 115.578 16.2747 116.009 16.5482 116.348C16.8216 116.687 17.212 116.91 17.6411 116.971C22.9708 117.864 28.3349 118.442 33.7334 118.707C35.8918 118.707 38.0011 118.707 40.1595 118.999H49.6781C55.6126 118.702 61.8469 118.603 68.0271 117.859C72.17 117.361 76.2595 116.485 80.2451 115.241C80.7336 115.102 81.1477 114.774 81.3966 114.328C81.6454 113.881 81.7087 113.354 81.5726 112.861C81.5142 112.614 81.4081 112.381 81.2604 112.175C81.1127 111.969 80.9262 111.795 80.7116 111.661C80.497 111.528 80.2585 111.439 80.0097 111.399C79.7609 111.359 79.5068 111.369 79.2617 111.428Z" fill="black"/>
<path fill-rule="evenodd" clip-rule="evenodd" d="M95.3584 53.0447C95.6534 53.0447 95.85 53.7389 96.1942 54.086C96.581 54.4959 97.0218 54.8413 97.5168 55.1223C98.1827 55.3634 98.911 55.3634 99.5769 55.1223C100.008 55.0086 100.41 54.804 100.757 54.5219C101.103 54.2398 101.387 53.8868 101.588 53.486C102.158 52.42 102.492 51.2349 102.571 50.0251C102.702 48.0473 102.702 46.0629 102.571 44.085C102.571 41.7596 102.571 39.4341 102.03 37.1582C101.342 31.8181 100.162 26.6218 99.1786 21.3263C99.0416 20.8806 98.7456 20.5021 98.3477 20.264C97.9499 20.0258 97.4786 19.945 97.0251 20.0371C96.6273 20.1011 96.2617 20.2965 95.9859 20.5927C95.71 20.8888 95.5395 21.2689 95.5009 21.6734C90.9383 22.7642 86.2773 23.1113 81.6163 23.8501C79.4579 24.2467 77.2994 24.7426 75.2394 25.288C73.1668 25.8402 71.1714 26.6532 69.3 27.7076C68.3797 28.2065 67.6409 28.988 67.1908 29.9389C67.0487 30.4003 67.0332 30.8919 67.1457 31.3616C67.2582 31.8312 67.4947 32.2614 67.8299 32.6065L69.3049 33.7469L74.2069 37.5053C74.2069 37.5053 73.8135 37.5053 73.7152 37.902C71.2667 41.7596 68.8133 45.6717 66.3599 49.4797C64.6882 51.9589 62.9723 54.4281 61.158 56.7536C61.158 56.7536 60.0272 59.084 58.9947 60.5169C57.1854 59.2774 55.4154 57.9386 53.5519 56.704C52.4637 55.9635 51.3343 55.2864 50.1693 54.676C48.9643 53.9724 47.7181 53.3432 46.4375 52.7919C45.9874 52.5989 45.5033 52.4994 45.0142 52.4994C44.525 52.4994 44.0409 52.5989 43.5908 52.7919C42.5091 53.4464 41.5602 54.3041 40.7981 55.3206C39.4706 57.0064 38.3398 59.2774 37.3614 60.6161L26.0284 77.7819C25.7779 78.1447 25.6786 78.5923 25.7522 79.0282C25.8258 79.4642 26.0663 79.8535 26.4218 80.1123C26.789 80.3663 27.2395 80.4668 27.6786 80.3929C28.1178 80.3189 28.5115 80.0761 28.7769 79.7156C30.3469 77.6034 31.9825 75.5242 33.6837 73.478C36.378 70.4088 39.2248 67.4437 41.8257 64.5729C42.7599 63.5316 43.8907 61.8507 45.0658 60.3682L45.9016 59.4757C46.5408 59.9219 47.2242 60.5665 47.3717 60.6657L57.4263 67.1958C58.1784 67.5568 59.0295 67.6503 59.841 67.4613C60.6525 67.2722 61.3767 66.8116 61.8955 66.1546C63.3574 64.3365 64.7144 62.4408 65.9665 60.4674C67.6382 57.8394 69.2558 55.1719 70.8734 52.4001C73.1301 48.3442 75.141 44.2338 77.2994 40.1779C77.4077 39.9276 77.4636 39.6575 77.4636 39.3845C77.4636 39.1115 77.4077 38.8414 77.2994 38.5912H77.6928C78.002 38.2756 78.1755 37.8498 78.1755 37.4061C78.1755 36.9625 78.002 36.5367 77.6928 36.2211L74.1134 32.1602C75.2394 31.8627 76.3653 31.6644 76.9061 31.5652C80.2445 30.5785 83.6764 29.8348 87.1131 28.8976C89.999 28.0824 92.833 27.0906 95.5993 25.9276L96.2384 44.7296V48.0467C95.6102 47.6731 95.0177 47.2415 94.4684 46.7576C93.3296 45.8562 92.2791 44.8467 91.3316 43.7429C91.2135 43.5622 91.06 43.4079 90.8806 43.2892C90.7012 43.1706 90.4995 43.0902 90.2882 43.0531C90.0768 43.0159 89.8601 43.0228 89.6515 43.0732C89.4428 43.1236 89.2466 43.2165 89.0749 43.3462C88.7673 43.5584 88.5474 43.8768 88.4568 44.2413C88.3662 44.6059 88.4112 44.9912 88.5832 45.3246C84.2303 51.0218 79.7651 56.6308 75.1902 62.1482C72.1767 65.7725 69.0176 69.2711 65.7207 72.6351C56.7429 81.4461 61.8464 78.9223 52.3277 74.0234C51.1757 73.4421 49.9766 72.961 48.7434 72.5855C48.2896 72.4684 47.8153 72.4566 47.3563 72.5511C46.8972 72.6456 46.4654 72.8438 46.0934 73.1309C43.1299 75.6018 40.3128 78.2458 37.6564 81.0494C33.782 85.2045 30.0994 89.6075 26.3234 93.7179C26.0127 94.0337 25.8383 94.4606 25.8383 94.9055C25.8383 95.3503 26.0127 95.7772 26.3234 96.093C26.6506 96.3982 27.0799 96.5678 27.5256 96.5678C27.9713 96.5678 28.4006 96.3982 28.7277 96.093C32.7495 92.3296 36.7714 88.3233 41.039 84.5599C43.2515 82.5733 45.5591 80.7106 47.9617 78.9719C48.5025 79.2198 49.3334 79.3685 49.4318 79.4677C51.3493 80.5585 53.3553 82.284 55.3662 83.6228C56.4675 84.3566 57.6459 84.9351 58.9013 85.3582C59.6951 85.6406 60.5609 85.6406 61.3547 85.3582C62.3219 84.7721 63.2409 84.1089 64.1031 83.3749L70.2834 77.0926C73.4883 73.4167 76.533 69.6018 79.4087 65.6587C83.3814 60.1699 87.1131 54.4777 90.8891 48.8351C91.1841 49.1822 91.3808 49.5789 91.6758 49.9259C92.823 51.0631 94.0505 52.1026 95.3584 53.0447Z" fill="black"/>
</g>
<defs>
<clipPath id="clip0_670_29717">
<rect width="118" height="119" fill="white"/>
</clipPath>
</defs>
</svg>
