<svg width="106" height="106" viewBox="0 0 106 106" fill="none" xmlns="http://www.w3.org/2000/svg">
<g clip-path="url(#clip0_670_29722)">
<path fill-rule="evenodd" clip-rule="evenodd" d="M90.7535 80.9832C90.2228 80.8162 89.6743 80.7124 89.1193 80.6741C89.4991 79.2342 89.5742 77.7326 89.3401 76.2574C89.1344 74.9847 88.6526 73.7725 87.9285 72.7058C87.2044 71.6391 86.2556 70.7439 85.1487 70.0829C83.9464 69.3619 82.6022 68.9097 81.2086 68.7572C79.815 68.6047 78.4049 68.7556 77.075 69.1996C73.8973 70.143 70.9103 71.638 68.2505 73.6162C66.3955 74.9412 64.8497 76.3501 63.5733 77.1893C60.7908 79.0885 55.7646 82.0388 53.5121 83.3638C53.2177 83.5611 52.938 83.7819 52.673 84.0263C50.9673 83.9127 49.2806 83.6015 47.6468 83.0988C45.1695 82.6564 42.8191 81.6764 40.7612 80.228V79.6141C41.0439 79.0899 41.3825 78.6041 41.777 78.1566C46.4543 72.7771 51.1316 70.2154 52.7216 66.9515C53.3366 65.6546 53.6031 64.2198 53.4946 62.7885C53.3862 61.3572 52.9066 59.9789 52.1032 58.7895C51.315 57.5223 50.1526 56.5314 48.7766 55.9537C47.4006 55.3761 45.8791 55.2404 44.4226 55.5653C39.2787 56.5428 34.3495 58.4271 29.8653 61.1303C25.527 63.8113 20.9112 66.0148 16.0986 67.7023H14.8619C13.3602 67.8083 11.8453 67.5698 10.4496 66.9956C8.33026 66.3362 6.27775 65.4785 4.3193 64.434C4.14571 64.3252 3.95225 64.2521 3.75014 64.2188C3.54804 64.1854 3.34132 64.1926 3.14202 64.2399C2.94271 64.2871 2.75478 64.3735 2.58915 64.494C2.42353 64.6146 2.2835 64.7668 2.17722 64.9419C2.06848 65.1155 1.99532 65.309 1.962 65.5111C1.92868 65.7132 1.93585 65.9199 1.98311 66.1192C2.03037 66.3185 2.11677 66.5064 2.23728 66.672C2.3578 66.8377 2.51003 66.9777 2.68513 67.084C4.87588 68.504 7.19438 69.7165 9.61047 70.7057C11.3155 71.36 13.1284 71.6882 14.9546 71.6729H15.5244C16.7316 71.5051 17.9094 71.2106 19.0577 70.7896C23.52 69.1401 27.8418 67.1328 31.9809 64.7873C35.5186 62.8263 39.3037 61.3423 43.2345 60.3751C45.5754 59.8892 47.6468 59.5801 48.614 61.2142C49.0709 61.8459 49.3524 62.5873 49.43 63.363C49.5076 64.1388 49.3785 64.9212 49.0557 65.6309C47.5099 68.6254 42.9696 70.7896 38.5131 75.6876C35.2006 79.3535 35.5981 82.0388 37.2765 84.0263C39.8381 86.1551 42.8591 87.6656 46.101 88.4386C48.1562 89.0952 50.26 89.5074 52.4124 89.6752C55.454 89.8961 58.4971 89.8961 61.5416 89.6752C64.4959 89.5512 67.4415 89.2711 70.3661 88.8361C75.5778 88.0411 79.809 86.9811 82.8565 86.6277C84.6732 86.2096 86.5105 85.9888 88.3685 85.9652C88.935 86.0459 89.466 86.2891 89.8971 86.6653C90.3283 87.0416 90.6411 87.5348 90.7976 88.0852C91.3276 89.2336 90.7976 90.2052 89.7376 91.1327C87.5139 93.1337 85.0189 94.8109 82.3265 96.1147C75.387 99.6276 67.7335 101.5 59.956 101.587C47.9232 101.909 35.9165 100.3 24.393 96.8214C24.1466 96.7597 23.8887 96.7597 23.6422 96.8214L3.70097 100.266C3.51546 100.288 3.3364 100.348 3.17483 100.442C3.01325 100.536 2.87258 100.661 2.76145 100.812C2.65032 100.962 2.5711 101.133 2.52866 101.315C2.48622 101.497 2.48145 101.686 2.51466 101.869C2.54786 102.053 2.61833 102.228 2.72174 102.384C2.82514 102.54 2.95929 102.672 3.11592 102.774C3.27256 102.876 3.44837 102.945 3.63253 102.976C3.8167 103.007 4.00532 103 4.1868 102.956L23.7305 100.085C35.4527 104 47.7299 105.997 60.0885 105.999C68.6569 106.026 77.1148 104.06 84.7954 100.262C88.6107 98.4711 92.0195 95.919 94.8124 92.7625C95.5589 91.7544 96.029 90.5688 96.1762 89.323C96.3234 88.0773 96.1425 86.8148 95.6515 85.6605C95.23 84.567 94.5718 83.5803 93.7243 82.7709C92.8768 81.9616 91.8608 81.3496 90.749 80.9788M82.322 81.2438C79.2304 81.5972 74.9506 82.6572 69.6595 83.4522C66.9388 83.885 64.2019 84.1632 61.4489 84.2869H59.4172C61.758 83.2711 64.3197 82.1669 66.0864 81.2836C67.8531 80.4002 68.9086 79.6538 70.4942 78.5055C72.5406 77.2364 74.6591 76.1043 76.8498 75.1091C77.7287 74.5047 78.7368 74.1141 79.7935 73.9684C80.8501 73.8227 81.9263 73.9259 82.936 74.2699C83.5916 74.5715 84.1775 75.0059 84.6564 75.5457C85.1354 76.0855 85.4971 76.7189 85.7185 77.4057C86.0058 78.5645 86.0058 79.7759 85.7185 80.9347L82.322 81.2438ZM95.1215 8.1789C90.95 4.8494 86.1151 2.44993 80.9407 1.14129C75.7663 -0.16736 70.3719 -0.354957 65.1191 0.591065C60.376 1.4695 55.9781 3.67156 52.4331 6.94298C48.8882 10.2144 46.3408 14.4218 45.0851 19.0792C42.3684 28.0831 43.288 37.7931 47.6468 46.1269C49.9869 49.7924 53.1209 52.8851 56.8172 55.1763C60.5135 57.4674 64.6775 58.8985 69.0014 59.3636C77.4853 60.9301 86.2451 59.1064 93.399 54.2845C93.5677 54.1694 93.7119 54.022 93.8233 53.8509C93.9346 53.6798 94.011 53.4883 94.048 53.2875C94.0849 53.0866 94.0817 52.8805 94.0386 52.6809C93.9954 52.4814 93.9132 52.2923 93.7965 52.1247C93.5501 51.7993 93.188 51.5811 92.7851 51.5153C92.3822 51.4495 91.9695 51.5412 91.6324 51.7714C85.0647 55.8844 77.1535 57.2784 69.5756 55.6581C65.9315 55.1917 62.4356 53.9251 59.3385 51.949C56.2415 49.9728 53.6199 47.3361 51.6615 44.2277C48.1256 36.9493 47.54 28.5858 50.0274 20.8856C50.9869 17.0878 53.0059 13.6407 55.849 10.9461C58.6922 8.25154 62.2425 6.42032 66.0864 5.66582C70.6566 4.69468 75.3812 4.70798 79.9459 5.70484C84.5106 6.70169 88.8106 8.65924 92.5599 11.4472C98.2971 16.3011 101.87 24.3748 100.55 37.0374C100.346 38.9483 99.9158 40.8282 99.2688 42.6377C98.6373 44.437 97.7444 46.1335 96.6188 47.6727C96.4621 47.8883 96.3718 48.145 96.3588 48.4112C96.3459 48.6774 96.4109 48.9416 96.546 49.1714C96.6811 49.4012 96.8802 49.5866 97.1191 49.7048C97.358 49.823 97.6262 49.8689 97.8908 49.8369C98.0679 49.8126 98.2382 49.7527 98.3915 49.6609C98.5448 49.569 98.678 49.4471 98.783 49.3025C100.127 47.6025 101.213 45.7141 102.007 43.6977C102.793 41.6837 103.345 39.5814 103.637 37.4349C105.404 23.1823 101.384 13.9161 95.1215 8.1789Z" fill="black"/>
<path fill-rule="evenodd" clip-rule="evenodd" d="M75.7056 29.9307V27.7224C75.3081 23.8887 74.4248 18.9023 74.2923 17.6656C74.3029 17.4796 74.2754 17.2934 74.2114 17.1183C74.1475 16.9433 74.0485 16.7831 73.9206 16.6477C73.7926 16.5122 73.6383 16.4043 73.4672 16.3305C73.2961 16.2568 73.1117 16.2188 72.9253 16.2188C72.739 16.2188 72.5546 16.2568 72.3835 16.3305C72.2123 16.4043 72.058 16.5122 71.9301 16.6477C71.8021 16.7831 71.7031 16.9433 71.6392 17.1183C71.5753 17.2934 71.5478 17.4796 71.5584 17.6656C71.5584 18.8581 70.8075 23.9771 70.6309 27.9035V32.3157C70.649 32.948 70.8966 33.552 71.3273 34.0152C71.758 34.4784 72.3424 34.7692 72.9717 34.8332H78.1745C81.1734 34.8332 83.3774 34.8332 85.9832 34.5682C86.39 34.5689 86.7816 34.4135 87.0774 34.1342C87.3731 33.8548 87.5506 33.4728 87.5732 33.0666C87.5791 32.8635 87.5449 32.6614 87.4726 32.4715C87.4003 32.2817 87.2913 32.108 87.1518 31.9604C87.0124 31.8127 86.8452 31.694 86.6598 31.611C86.4745 31.528 86.2746 31.4823 86.0715 31.4766L75.7056 29.9307Z" fill="black"/>
</g>
<defs>
<clipPath id="clip0_670_29722">
<rect width="106" height="106" fill="white"/>
</clipPath>
</defs>
</svg>
