<svg width="140" height="140" viewBox="0 0 140 140" fill="none" xmlns="http://www.w3.org/2000/svg">
<g clip-path="url(#clip0_654_29658)">
<path fill-rule="evenodd" clip-rule="evenodd" d="M98.5149 21.2324C97.2839 20.9539 96.0925 20.5228 94.9683 19.9491C94.6075 19.7899 94.2883 19.5497 94.0354 19.2473C93.7825 18.9448 93.6027 18.5881 93.5099 18.2049C92.9266 15.2357 94.9099 13.7832 97.4124 13.3749C100.709 12.9534 104.058 13.4795 107.067 14.8916C107.469 15.1159 107.944 15.1712 108.387 15.0454C108.83 14.9196 109.205 14.623 109.429 14.2207C109.653 13.8185 109.709 13.3436 109.583 12.9005C109.457 12.4575 109.16 12.0826 108.758 11.8582C107.194 10.8803 105.485 10.1558 103.695 9.71157L104.162 9.01157C104.461 8.63434 104.714 8.22601 104.92 7.78657C104.959 7.20323 104.959 6.62184 104.92 6.0424V2.37907C105.066 1.9072 105.019 1.39666 104.789 0.959308C104.56 0.521952 104.166 0.193437 103.695 0.045734C103.224 -0.0655826 102.728 0.00467605 102.306 0.242511C101.885 0.480347 101.568 0.868298 101.42 1.32907C100.564 2.4374 99.7905 3.60212 99.0982 4.82323C98.8432 5.27668 98.6657 5.76959 98.5732 6.28157C98.4102 6.76822 98.3122 7.27425 98.2816 7.78657C98.2502 8.21377 98.2502 8.6427 98.2816 9.0699C96.8729 8.99421 95.4608 9.13188 94.0932 9.47823C92.0462 9.97735 90.2723 11.2505 89.1443 13.0301C88.0162 14.8097 87.6219 16.9573 88.0441 19.0216C88.1795 20.2036 88.5791 21.3401 89.2132 22.3468C89.8473 23.3535 90.6998 24.2047 91.7074 24.8374C94.7407 26.4416 97.9957 27.5966 101.367 28.2732C103.345 28.9149 105.264 29.3816 105.264 31.5866C105.264 33.7916 102.937 35.1391 100.376 35.6057C97.2432 36.1891 94.0057 35.8391 91.0657 34.6141C90.2503 34.1876 89.5361 33.5908 88.9716 32.8641C88.4212 32.0197 87.915 31.1475 87.4549 30.2507C87.3675 29.9852 87.2198 29.7434 87.0232 29.5446C86.8267 29.3458 86.5867 29.1952 86.3221 29.1048C86.0576 29.0143 85.7757 28.9865 85.4985 29.0234C85.2214 29.0602 84.9566 29.1609 84.7249 29.3174C84.2843 29.542 83.9507 29.9323 83.7976 30.4026C83.6445 30.8729 83.6843 31.3847 83.9082 31.8257C84.5577 33.288 85.3549 34.6627 86.2999 35.9499C87.0699 36.8638 87.9605 37.6416 88.9716 38.2832C89.8544 38.8121 90.7857 39.238 91.7657 39.5607C91.5516 40.0058 91.3947 40.4762 91.2991 40.9607C91.2386 41.443 91.2386 41.931 91.2991 42.4132V45.9016C91.1591 46.3706 91.2096 46.876 91.4397 47.3081C91.6697 47.7402 92.0607 48.0642 92.528 48.21C92.9953 48.3558 93.5012 48.3116 93.9362 48.087C94.3711 47.8623 94.7 47.4753 94.8516 47.0099C95.5749 46.0066 96.2341 44.9585 96.8291 43.8657C97.0698 43.4197 97.2652 42.9507 97.4124 42.4657C97.4707 41.9835 97.4707 41.4993 97.4124 41.0132V40.9549C99.5124 41.1182 101.63 40.9841 103.695 40.5466C105.777 40.1714 107.669 39.0957 109.055 37.4978C110.442 35.8999 111.241 33.8759 111.319 31.7616C111.402 30.5284 111.197 29.2929 110.721 28.1521C110.245 27.0114 109.512 25.9966 108.577 25.1874C105.542 23.1695 102.112 21.8213 98.5149 21.2324ZM138.777 72.0874C138.587 70.8639 138.116 69.7011 137.4 68.6908C136.684 67.6805 135.744 66.8503 134.652 66.2657C131.275 64.9806 127.669 64.4067 124.059 64.5799C122.799 64.5799 121.559 64.4243 120.337 64.1132C119.975 64.0259 119.636 63.8606 119.344 63.6289C119.051 63.3972 118.813 63.1047 118.646 62.7716C117.427 59.9832 118.996 58.2391 121.329 57.2474C124.428 56.1499 127.774 55.9477 130.983 56.6641C131.19 56.7368 131.409 56.7672 131.628 56.7535C131.846 56.7397 132.06 56.6822 132.256 56.5842C132.452 56.4863 132.626 56.3499 132.768 56.1832C132.91 56.0166 133.017 55.823 133.083 55.6141C133.194 55.2057 133.147 54.7707 132.953 54.3949C132.759 54.0192 132.43 53.7298 132.033 53.5841C130.329 52.982 128.543 52.6475 126.737 52.5924V51.8924C126.795 51.3868 126.795 50.8832 126.737 50.3816C126.769 49.8765 126.769 49.3699 126.737 48.8649C126.737 47.6457 126.153 46.6016 125.862 45.3766C125.915 45.1061 125.907 44.8272 125.84 44.56C125.772 44.2927 125.647 44.0437 125.471 43.8309C125.296 43.618 125.076 43.4466 124.827 43.3289C124.578 43.2112 124.306 43.1501 124.03 43.1501C123.754 43.1501 123.482 43.2112 123.233 43.3289C122.984 43.4466 122.763 43.618 122.588 43.8309C122.413 44.0437 122.287 44.2927 122.22 44.56C122.153 44.8272 122.145 45.1061 122.198 45.3766C121.662 46.5238 121.234 47.708 120.915 48.9291C120.758 49.4412 120.66 49.9696 120.623 50.5041C120.565 51.0252 120.565 51.5463 120.623 52.0674L120.973 53.1757C119.595 53.4227 118.262 53.8749 117.018 54.5174C115.1 55.3936 113.604 56.9892 112.853 58.9594C112.102 60.9296 112.157 63.1162 113.005 65.0466C113.381 66.1909 114.01 67.2354 114.847 68.1021C115.683 68.9688 116.705 69.6352 117.835 70.0516C121.125 70.9674 124.543 71.3991 127.956 71.3349C129.997 71.3349 131.975 71.3349 132.436 73.6566C132.902 75.9899 130.925 77.6116 128.539 78.6032C125.64 79.8358 122.441 80.1809 119.346 79.5949C118.471 79.3616 117.654 78.9532 116.96 78.3699C116.102 77.7026 115.321 76.9415 114.632 76.1007C114.303 75.7966 113.874 75.6217 113.426 75.6083C112.978 75.595 112.54 75.744 112.192 76.028C111.845 76.312 111.612 76.7119 111.536 77.154C111.461 77.5961 111.547 78.0507 111.78 78.4341C112.713 79.7174 113.781 80.8802 114.982 81.9224C115.935 82.6768 116.983 83.2582 118.127 83.6666C119.091 83.9777 120.079 84.1916 121.09 84.3082V84.7749C121.032 85.2571 121.032 85.7413 121.09 86.2274C121.032 86.733 121.032 87.2385 121.09 87.7441C121.09 88.9632 121.673 90.0657 121.965 91.2907C121.903 91.5523 121.898 91.8243 121.95 92.0881C122.003 92.3518 122.112 92.601 122.27 92.8187C122.428 93.0365 122.631 93.2175 122.865 93.3494C123.099 93.4814 123.359 93.5611 123.627 93.5832C123.896 93.6054 124.167 93.5687 124.42 93.4756C124.673 93.3825 124.903 93.2353 125.094 93.0443C125.284 92.8532 125.431 92.6229 125.523 92.3695C125.615 92.116 125.651 91.8454 125.628 91.5766C126.145 90.4099 126.573 89.2082 126.912 87.9716C127.067 87.4816 127.164 86.976 127.203 86.4549C127.262 85.9299 127.262 85.4068 127.203 84.8857V84.1857C129.227 83.9349 131.193 83.3457 133.019 82.4416C135.047 81.6726 136.737 80.2116 137.792 78.317C138.846 76.4223 139.191 74.2158 138.777 72.0874ZM39.6857 46.7766C38.7726 45.0718 37.4688 43.6074 35.8811 42.5033C34.2933 41.3992 32.4667 40.6867 30.5507 40.4241C28.2029 40.0594 25.8214 39.9616 23.4516 40.1324C23.4516 38.4466 23.0432 36.7607 22.8682 35.0749C22.3432 31.2307 21.7657 27.4507 21.2407 23.4374C24.1535 23.2041 27.0644 23.2041 29.9732 23.4374C30.3965 23.4685 30.8152 23.3337 31.1407 23.0615C31.4663 22.7893 31.6731 22.4011 31.7174 21.9791C31.7485 21.5404 31.6075 21.1069 31.3244 20.7704C31.0413 20.434 30.6382 20.221 30.2007 20.1766C27.0702 19.8266 23.9299 19.7099 20.7799 19.8266C20.3603 16.9827 19.9908 14.1317 19.6716 11.2749C19.6467 10.8593 19.4641 10.469 19.1611 10.1835C18.858 9.89809 18.4575 9.73913 18.0412 9.73913C17.6249 9.73913 17.2243 9.89809 16.9212 10.1835C16.6182 10.469 16.4356 10.8593 16.4107 11.2749V20.2407C15.021 20.5426 13.6733 21.0127 12.3974 21.6407C10.1808 22.8167 8.25356 24.4709 6.75532 26.4837C5.25707 28.4965 4.22535 30.8174 3.73491 33.2782C3.42666 35.1935 3.66111 37.1568 4.41169 38.9456C5.16227 40.7344 6.39896 42.2772 7.98158 43.3991C10.7566 45.5306 14.1429 46.7146 17.6416 46.7766H18.1082L19.1582 54.5116C19.7357 58.4141 20.3774 62.3107 21.0132 66.1491H19.8524C15.1797 67.0694 10.336 66.5002 6.00408 64.5216C5.68041 64.3532 5.3134 64.2867 4.95125 64.3308C4.58909 64.3748 4.24874 64.5274 3.97489 64.7685C3.70103 65.0095 3.50649 65.3277 3.41681 65.6814C3.32713 66.035 3.34652 66.4075 3.47241 66.7499C3.62416 67.2152 3.94747 67.6053 4.37657 67.8407C9.29819 70.4529 14.9109 71.4682 20.4357 70.7457H21.6024C22.0107 73.3124 22.4716 75.8091 22.8216 78.3699C22.8085 78.6398 22.8542 78.9093 22.9555 79.1598C23.0567 79.4103 23.2112 79.6358 23.4081 79.8208C23.6051 80.0057 23.8398 80.1458 24.0961 80.2311C24.3525 80.3165 24.6243 80.3453 24.8928 80.3153C25.1614 80.2854 25.4202 80.1975 25.6515 80.0578C25.8827 79.9181 26.0809 79.7298 26.2322 79.506C26.3836 79.2822 26.4846 79.0282 26.5282 78.7615C26.5719 78.4949 26.5571 78.2219 26.4849 77.9616C26.4849 75.1674 26.4849 72.1457 26.0182 69.5849C29.4897 68.3068 32.6594 66.3248 35.3282 63.7632C37.999 61.3399 39.9353 58.2151 40.9166 54.7449C41.5468 52.03 41.1023 49.1768 39.6857 46.7766ZM11.3532 38.9191C10.346 38.2479 9.59219 37.2592 9.21166 36.1102C8.83113 34.9612 8.84577 33.7179 9.25324 32.5782C10.1049 29.7082 11.9657 27.2524 14.4916 25.6541C15.1216 25.2924 15.7827 25.0007 16.4749 24.7791C16.4749 29.3174 16.4749 33.7974 17.1166 38.3357V40.3774C15.0951 40.4566 13.0937 39.9502 11.3532 38.9191ZM34.6282 54.5116C33.9282 56.4366 32.8374 58.2041 31.4257 59.6916C29.7341 61.4649 27.7682 62.9582 25.6099 64.1132C25.6099 59.7499 24.9682 55.3282 24.5599 50.9649C24.5599 49.3899 24.2099 47.8791 24.0349 46.3099C25.7966 46.2943 27.5427 46.4499 29.2732 46.7766C30.3054 46.9083 31.2916 47.2824 32.1514 47.8685C33.0112 48.4545 33.72 49.2357 34.2199 50.1482C34.5983 50.8032 34.8306 51.5322 34.9011 52.2853C34.9716 53.0384 34.8785 53.7978 34.6282 54.5116Z" fill="black"/>
<path fill-rule="evenodd" clip-rule="evenodd" d="M7.27485 87.5043C8.27297 92.8508 10.3321 97.9431 13.3308 102.481C16.3295 107.018 20.2068 110.909 24.734 113.923C37.1015 121.233 51.773 123.601 65.8123 120.556C71.59 119.194 77.0302 116.671 81.8018 113.14C86.5733 109.609 90.5764 105.144 93.5674 100.017C95.6385 96.6698 97.3179 93.0958 98.5724 89.3651C100.921 82.6692 101.104 75.4044 99.0974 68.5984C98.824 67.6003 98.4729 66.6251 98.0474 65.6818C94.0774 56.6828 86.8139 49.5446 77.7474 45.7318C68.7519 42.7512 59.1768 41.9514 49.8115 43.3984C49.3216 43.4571 48.8729 43.7016 48.5581 44.0816C48.2433 44.4615 48.0864 44.9478 48.1198 45.4401C48.1658 45.924 48.3988 46.3709 48.7692 46.6857C49.1396 47.0006 49.6182 47.1585 50.1032 47.1259C58.8532 45.9593 67.7432 46.8926 76.0557 49.8559C83.9306 53.4507 90.1037 59.9605 93.2757 68.0151C97.2365 76.3918 94.384 87.3293 88.504 96.4643C85.9555 100.86 82.5519 104.701 78.4942 107.76C74.4365 110.819 69.8069 113.034 64.879 114.273C52.2737 117.482 38.9235 115.841 27.4698 109.677C12.3965 100.542 8.44151 83.7768 10.6523 78.0193C10.6838 77.8653 10.6838 77.7066 10.6523 77.5526C10.7686 77.3408 10.8397 77.1073 10.8613 76.8667C10.8829 76.6262 10.8544 76.3837 10.7777 76.1547C10.701 75.9256 10.5777 75.7149 10.4156 75.5359C10.2534 75.3568 10.056 75.2133 9.83568 75.1143C9.62543 75.0034 9.3954 74.9351 9.15873 74.9132C8.92206 74.8913 8.68339 74.9163 8.45639 74.9867C8.22938 75.0572 8.01849 75.1717 7.83577 75.3237C7.65305 75.4757 7.50208 75.6622 7.39151 75.8726C6.80818 76.8001 5.99735 78.0776 7.27485 87.5043Z" fill="black"/>
<path fill-rule="evenodd" clip-rule="evenodd" d="M99.0975 92.9185C98.2186 96.858 97.1122 100.737 95.7783 104.556C94.2068 110.096 91.3787 115.2 87.514 119.469C83.6492 123.738 78.8519 127.059 73.495 129.173C65.2933 132.614 56.4208 134.143 47.5425 133.647C38.616 132.854 30.0411 129.79 22.6341 124.745C14.995 119.965 9.46179 112.457 7.15829 103.745C5.747 99.6529 5.34672 95.2799 5.99162 90.9994C5.99162 86.811 3.90329 86.4027 2.56162 88.8994C0.175791 94.021 0.934124 96.7569 2.61996 104.964C4.90741 115.003 10.9444 123.788 19.4958 129.523C27.508 135.301 36.8985 138.872 46.7258 139.877C56.7008 140.507 66.6758 138.728 75.8225 134.697C81.888 132.077 87.2629 128.086 91.5243 123.037C95.7857 117.988 98.8174 112.019 100.381 105.6C102.377 100.923 103.233 95.8387 102.877 90.766C102.644 88.141 100.258 87.5052 99.0975 92.9185Z" fill="black"/>
<path fill-rule="evenodd" clip-rule="evenodd" d="M51.1476 90.5319C54.006 91.6986 56.9693 92.6261 59.8218 93.5011C64.1268 94.6678 68.4901 95.6536 72.7951 96.6978C73.0853 96.7858 73.3925 96.8018 73.6903 96.7444C73.988 96.687 74.2673 96.5579 74.5039 96.3684C74.7406 96.1788 74.9275 95.9345 75.0485 95.6565C75.1695 95.3785 75.221 95.0751 75.1985 94.7728C75.1638 94.4125 75.0219 94.0709 74.7911 93.7922C74.5602 93.5135 74.251 93.3105 73.9035 93.2094C69.7676 91.6344 65.5793 90.2403 61.5076 88.6128C58.8399 87.5783 56.2401 86.3942 53.7085 85.0603C52.6028 84.687 51.5164 84.2587 50.4535 83.7769C51.3137 80.6993 52.3419 77.6712 53.5335 74.7061C55.5168 69.4094 57.7277 64.1711 59.6468 58.9328C59.7438 58.7426 59.8011 58.5348 59.8153 58.3218C59.8294 58.1088 59.8002 57.8952 59.7292 57.6939C59.6583 57.4926 59.5472 57.3078 59.4027 57.1507C59.2582 56.9937 59.0832 56.8676 58.8885 56.7803C58.4946 56.6046 58.0471 56.5919 57.6439 56.7449C57.2406 56.8979 56.9142 57.2042 56.736 57.5969C53.5918 63.4186 49.8701 69.2344 47.1343 75.0503C45.9171 77.753 44.9079 80.5278 44.1068 83.3744C43.9575 83.9739 43.9592 84.6011 44.1119 85.1997C44.2647 85.7984 44.5635 86.3497 44.9818 86.8044C46.8601 88.3211 48.9368 89.5694 51.1476 90.5319Z" fill="black"/>
</g>
<defs>
<clipPath id="clip0_654_29658">
<rect width="140" height="140" fill="white"/>
</clipPath>
</defs>
</svg>
