<svg width="24" height="24" viewBox="0 0 24 24" fill="none" xmlns="http://www.w3.org/2000/svg">
<g clip-path="url(#clip0_204_2369)">
<path d="M20.0156 0H3.98438C1.78387 0 0 1.78387 0 3.98438V19.4156C0 21.6161 1.78387 23.4 3.98438 23.4H20.0156C22.2161 23.4 24 21.6161 24 19.4156V3.98438C24 1.78387 22.2161 0 20.0156 0Z" fill="#00005B"/>
<path d="M9.64152 13.9999H5.92236L5.16561 16.355C5.15591 16.3954 5.13322 16.4315 5.10101 16.4577C5.06881 16.4839 5.02889 16.4988 4.9874 16.5001L3.08877 16.5C2.98127 16.5 2.94371 16.4409 2.97608 16.3228L6.19611 7.08757L6.22827 6.99053L6.23896 6.95735L6.26052 6.88797C6.27121 6.85216 6.2819 6.81419 6.29268 6.77303C6.33486 6.55825 6.35643 6.33991 6.35708 6.121C6.35491 6.1057 6.35632 6.0901 6.36122 6.07543C6.36611 6.06077 6.37435 6.04744 6.38528 6.03651C6.39621 6.02558 6.40954 6.01734 6.4242 6.01245C6.43886 6.00756 6.45447 6.00614 6.46977 6.00832H9.02971C9.10471 6.00832 9.14765 6.03516 9.15852 6.08885L12.8132 16.339C12.8454 16.4464 12.8132 16.5 12.7166 16.5H10.6236C10.5876 16.5039 10.5515 16.4946 10.5219 16.4739C10.4923 16.4532 10.4712 16.4224 10.4626 16.3873L9.64152 13.9999ZM6.50202 12.0142H9.04583L9.00955 11.8945L8.95133 11.7049L8.86611 11.4334L8.70252 10.9209L8.54671 10.4283L8.25683 9.51063C8.17674 9.2573 8.09986 9.00297 8.02621 8.74769L7.9439 8.45744L7.85502 8.13935L7.77383 7.84432H7.75771C7.67713 8.23076 7.57902 8.61334 7.46371 8.99088L7.35496 9.33991L7.0934 10.1837L6.96083 10.6135C6.9369 10.6911 6.91299 10.7679 6.88911 10.8438L6.81786 11.0686L6.74699 11.2881L6.67649 11.5023L6.60636 11.711C6.57143 11.8142 6.53665 11.9152 6.50202 12.0142ZM18.7381 13.0833H15.5664C15.6052 13.3972 15.7094 13.6993 15.8723 13.9703C16.0524 14.2387 16.307 14.4486 16.6048 14.5741C17.0084 14.7488 17.445 14.8344 17.8848 14.8249C18.2336 14.8182 18.5812 14.78 18.9232 14.7109C19.2291 14.6697 19.5289 14.5916 19.816 14.4783C19.8697 14.4354 19.8966 14.4623 19.8966 14.5587V16.0882C19.8993 16.1299 19.8909 16.1716 19.8724 16.209C19.854 16.2382 19.8292 16.263 19.8 16.2814C19.4815 16.4225 19.1463 16.5224 18.8025 16.5786C18.3355 16.6663 17.8608 16.7067 17.3856 16.6993C16.6473 16.6993 16.0249 16.5885 15.5184 16.3669L15.4697 16.3451C14.9828 16.1307 14.5528 15.8054 14.214 15.3952C13.8975 15.0087 13.662 14.5625 13.5216 14.0831C13.3827 13.6099 13.3123 13.1192 13.3125 12.626C13.311 12.0875 13.3952 11.5522 13.5621 11.0402C13.7227 10.5407 13.9767 10.0763 14.3106 9.67169C14.6401 9.27183 15.052 8.9478 15.5181 8.72172C15.9904 8.4911 16.5486 8.40832 17.1925 8.40832C17.7266 8.39495 18.2571 8.49939 18.7462 8.71422C19.1575 8.8896 19.5195 9.16303 19.8007 9.51063C20.0646 9.85094 20.2663 10.2352 20.3964 10.6457C20.5232 11.0412 20.5884 11.4539 20.5896 11.8693C20.5896 12.1055 20.5816 12.3202 20.5656 12.5133L20.5512 12.6787L20.5362 12.8357L20.5273 12.9152L20.5252 12.9319C20.5211 12.9674 20.504 13.0001 20.4773 13.0239C20.4506 13.0476 20.4161 13.0607 20.3804 13.0608L20.3362 13.0617L20.2812 13.0645L20.2384 13.0676L20.1382 13.0761L20.0503 13.0848C20.0264 13.0873 20.0015 13.0897 19.9758 13.0919L19.896 13.0982L19.8108 13.1038L19.7203 13.1085L19.6245 13.1125L19.5745 13.1142L19.4707 13.117C19.3681 13.1195 19.2629 13.1132 19.155 13.1053L18.9913 13.0933C18.9071 13.0871 18.8225 13.0838 18.7381 13.0833ZM15.5665 11.6166H17.759L17.9457 11.6154L18.0726 11.6136L18.1549 11.6118L18.2471 11.6086C18.3297 11.6003 18.4094 11.5739 18.4806 11.5312V11.4347C18.4774 11.3087 18.4557 11.184 18.4162 11.0643C18.3294 10.7897 18.1547 10.5511 17.9192 10.3853C17.6836 10.2195 17.4001 10.1356 17.1122 10.1465C16.8412 10.1302 16.5713 10.193 16.3355 10.3274C16.0996 10.4618 15.9079 10.6619 15.7838 10.9033C15.6735 11.1279 15.6001 11.3687 15.5665 11.6166Z" fill="#9999FF"/>
</g>
<defs>
<clipPath id="clip0_204_2369">
<rect width="24" height="23.4375" fill="white"/>
</clipPath>
</defs>
</svg>
