<svg width="16" height="16" viewBox="0 0 16 16" fill="none" xmlns="http://www.w3.org/2000/svg">
<g clip-path="url(#clip0_204_2372)">
<path d="M8.29102 8.75401C8.32102 8.22376 8.58189 7.75563 8.97664 7.42476C9.36339 7.09951 9.88264 6.90063 10.4528 6.90063C11.0199 6.90063 11.539 7.09938 11.9253 7.42476C12.3206 7.75563 12.5799 8.22376 12.6109 8.75401C12.6409 9.29776 12.4205 9.80526 12.0353 10.1811C11.6405 10.5624 11.0819 10.8033 10.4528 10.8033C9.82314 10.8033 9.26202 10.5639 8.86977 10.1811C8.48302 9.80538 8.26314 9.30063 8.29402 8.75651L8.29102 8.75401Z" fill="#235785"/>
<path d="M4.90566 9.87527C4.90916 10.0828 4.97616 10.4865 5.07566 10.8008C5.28591 11.4678 5.64279 12.0849 6.13691 12.6256C6.64466 13.1838 7.27116 13.6325 7.99316 13.9519C8.75229 14.2856 9.57628 14.4565 10.4313 14.4565C11.2863 14.4554 12.1103 14.2815 12.8693 13.9438C13.5913 13.621 14.218 13.1728 14.7255 12.6116C15.2223 12.0649 15.578 11.4483 15.7869 10.7808C15.8915 10.4492 15.9584 10.1069 15.9863 9.76039C16.0123 9.42414 16.0013 9.08477 15.9534 8.74539C15.8598 8.09144 15.6291 7.46466 15.2763 6.90614C14.9545 6.38739 14.5368 5.93614 14.04 5.55452L14.0415 5.55402L9.04716 1.74077C9.04266 1.73727 9.03866 1.73377 9.03416 1.73077C8.70679 1.48052 8.15366 1.48152 7.79541 1.73177C7.43116 1.98564 7.38916 2.40489 7.71341 2.66877L7.71191 2.66977L9.79716 4.35527L3.44854 4.36164H3.44004C2.91541 4.36214 2.41016 4.70402 2.31129 5.13827C2.20879 5.57839 2.56566 5.94577 3.11279 5.94577L3.11179 5.94777L6.32879 5.94177L0.572535 10.3155C0.565535 10.321 0.557535 10.3265 0.550535 10.332C0.00866032 10.7438 -0.166215 11.4308 0.175035 11.8625C0.522285 12.3028 1.25829 12.3058 1.80591 11.865L4.93816 9.31377C4.93816 9.31377 4.89216 9.65852 4.89616 9.86339L4.90566 9.87527ZM12.9757 11.0276C12.3297 11.6811 11.4237 12.0539 10.4473 12.0539C9.46841 12.0554 8.56241 11.6891 7.91629 11.0361C7.60054 10.7163 7.36916 10.352 7.22529 9.96227C7.08463 9.57875 7.03038 9.16892 7.06641 8.76202C7.10063 8.36501 7.219 7.97984 7.41366 7.63214C7.60204 7.29289 7.86241 6.98464 8.18116 6.72377C8.81028 6.21652 9.60866 5.93877 10.4437 5.93877C11.2823 5.93777 12.0808 6.21052 12.7099 6.71827C13.0287 6.97764 13.288 7.28439 13.4774 7.62364C13.6725 7.9713 13.7907 8.35676 13.8242 8.75402C13.8597 9.16074 13.8055 9.57031 13.6653 9.95377C13.5219 10.3465 13.29 10.7108 12.9737 11.0306L12.9757 11.0276Z" fill="#E87500"/>
</g>
<defs>
<clipPath id="clip0_204_2372">
<rect width="16" height="16" fill="white"/>
</clipPath>
</defs>
</svg>
