<svg width="24" height="24" viewBox="0 0 24 24" fill="none" xmlns="http://www.w3.org/2000/svg">
<path d="M22.565 7.09519C22.565 6.69813 22.4804 6.34011 22.3046 6.04066C22.1354 5.74124 21.8815 5.49389 21.543 5.29861C18.731 3.67776 15.9124 2.05695 13.1004 0.4361C12.3388 -3.39459e-05 11.6097 0.0129903 10.8546 0.455622C9.73501 1.11309 4.12391 4.3287 2.45752 5.29861C1.76751 5.69567 1.43555 6.30757 1.43555 7.10171V16.8918C1.43555 17.2824 1.52016 17.6274 1.6829 17.9268C1.85216 18.2328 2.11253 18.4931 2.45752 18.6949C4.13044 19.6648 9.73501 22.8739 10.8546 23.5379C11.6097 23.9804 12.3453 24 13.1004 23.5574C15.9124 21.9301 18.731 20.3158 21.543 18.6949C21.8945 18.4931 22.1484 18.2393 22.3176 17.9268C22.4804 17.6274 22.565 17.2824 22.565 16.8918V7.09519Z" fill="#9A4993"/>
<path d="M12.0264 11.9578L1.66992 17.9203C1.83918 18.2263 2.09956 18.4867 2.44455 18.6885C4.11747 19.6584 9.72203 22.8675 10.8416 23.5314C11.5967 23.9741 12.3323 23.9936 13.0874 23.551C15.8994 21.9236 18.718 20.3093 21.5301 18.6885C21.8815 18.4867 22.1354 18.2328 22.3047 17.9203L12.0264 11.9578Z" fill="#6A1577"/>
<path d="M8.95996 13.7218C9.56536 14.7763 10.698 15.4859 11.9933 15.4859C13.3017 15.4859 14.4409 14.7698 15.0397 13.7023L12.0259 11.9578L8.95996 13.7218Z" fill="#6A1577"/>
<path d="M22.5651 7.09517C22.5651 6.69811 22.4804 6.3401 22.3047 6.04065L12.0264 11.9577L22.3177 17.9203C22.4804 17.6208 22.5651 17.2759 22.5651 16.8853V7.09517Z" fill="#813084"/>
<path d="M15.0397 13.7022C14.4409 14.7632 13.3017 15.4858 11.9933 15.4858C10.6915 15.4858 9.55884 14.7763 8.95997 13.7217C8.66705 13.2075 8.49779 12.6217 8.49779 11.9902C8.49779 10.057 10.06 8.49471 11.9933 8.49471C13.2822 8.49471 14.4083 9.19772 15.0137 10.2392L18.0666 8.48168C16.8493 6.38569 14.5841 4.97314 11.9868 4.97314C8.10723 4.97314 4.96973 8.11717 4.96973 11.9902C4.96973 13.2596 5.30819 14.4573 5.90056 15.4858C7.1113 17.5883 9.38958 19.0074 11.9933 19.0074C14.6036 19.0074 16.8819 17.5818 18.0926 15.4663L15.0397 13.7022ZM18.8998 10.3304H18.2033V13.6957H18.8998V10.3304ZM20.4425 10.3304H19.746V13.6957H20.4425V10.3304Z" fill="white"/>
<path d="M21.0089 10.8967H17.6436V11.5932H21.0089V10.8967ZM21.0089 12.4329H17.6436V13.1294H21.0089V12.4329Z" fill="white"/>
</svg>
