<svg width="384" height="385" viewBox="0 0 384 385" fill="none" xmlns="http://www.w3.org/2000/svg">
<g clip-path="url(#clip0_947_633)">
<path d="M136.5 387.5C172.2 387.5 201 358.7 201 323V258.5H136.5C100.8 258.5 72 287.3 72 323C72 358.7 100.8 387.5 136.5 387.5Z" fill="#0ACF83"/>
<path d="M72 194C72 158.3 100.8 129.5 136.5 129.5H201V258.5H136.5C100.8 258.5 72 229.7 72 194Z" fill="#A259FF"/>
<path d="M72 65C72 29.3 100.8 0.5 136.5 0.5H201V129.5H136.5C100.8 129.5 72 100.7 72 65Z" fill="#F24E1E"/>
<path d="M201 0.5H265.5C301.2 0.5 330 29.3 330 65C330 100.7 301.2 129.5 265.5 129.5H201V0.5Z" fill="#FF7262"/>
<path d="M330 194C330 229.7 301.2 258.5 265.5 258.5C229.8 258.5 201 229.7 201 194C201 158.3 229.8 129.5 265.5 129.5C301.2 129.5 330 158.3 330 194Z" fill="#1ABCFE"/>
</g>
<defs>
<clipPath id="clip0_947_633">
<rect width="384" height="384" fill="white" transform="translate(0 0.5)"/>
</clipPath>
</defs>
</svg>
