<svg width="672" height="672" viewBox="0 0 672 672" fill="none" xmlns="http://www.w3.org/2000/svg">
<rect x="3" y="3" width="665.753" height="665.234" rx="78" stroke="black" stroke-width="6"/>
<mask id="mask0_959_653" style="mask-type:alpha" maskUnits="userSpaceOnUse" x="74" y="74" width="523" height="525">
<path d="M312.163 289.104C229.68 313.673 84.0194 369.832 77 597.975C115.609 473.374 168.257 457.579 287.594 429.5C406.93 401.421 484.991 365.199 547.327 284.331C609.663 203.462 591.2 75 591.2 75C591.2 141.688 543.817 185.562 498.188 217.151C452.559 248.74 394.646 264.535 312.163 289.104Z" fill="#733C3C" stroke="black" stroke-width="6"/>
</mask>
<g mask="url(#mask0_959_653)">
<path d="M74.0014 597.883L79.9334 598.604C92.9832 537.705 115.472 503.388 149.096 480.686C182.99 457.802 228.462 446.495 288.281 432.42C348.054 418.356 394.428 403.364 434.924 381.014C475.459 358.642 509.957 328.981 546.117 285.764C582.654 242.099 594.608 189.181 597.484 147.378C598.923 126.455 598.093 108.248 596.903 95.2645C596.307 88.7708 595.621 83.5783 595.082 79.9997C594.813 78.2102 594.58 76.8238 594.413 75.8796C594.33 75.4074 594.263 75.0458 594.217 74.7995C594.194 74.6764 594.176 74.5821 594.163 74.5173L594.148 74.4421L594.144 74.4213L594.143 74.4151C594.143 74.4131 594.142 74.4117 591.201 75L594.142 74.4117L588.201 75C588.201 140.082 542.001 183.171 496.48 214.684C454.508 243.742 401.992 259.321 328.338 281.169C322.783 282.817 317.107 284.501 311.307 286.229C269.954 298.547 212.344 318.893 164.207 365.034C115.978 411.262 77.5327 483.111 74.0014 597.883Z" fill="white" stroke="black" stroke-width="6"/>
<path d="M74.008 598.194L79.9986 598.068C80.2076 591.275 80.5401 584.638 80.9906 578.152C86.7142 541.707 112.761 494.955 151.132 454.018C189.506 413.079 239.823 378.373 293.546 365.732C323.184 358.758 349.131 355.704 372.552 353.708C379.843 353.087 386.918 352.568 393.796 352.062C408.927 350.951 423.106 349.909 436.526 348.014C456.148 345.242 474.445 340.617 492.427 331.164C510.412 321.708 527.927 307.504 546.117 285.764C582.654 242.099 594.608 189.181 597.484 147.378C598.923 126.455 598.093 108.248 596.903 95.2645C596.307 88.7708 595.621 83.5783 595.082 79.9997C594.813 78.2102 594.58 76.8238 594.413 75.8796C594.33 75.4074 594.263 75.0458 594.217 74.7995C594.194 74.6764 594.176 74.5821 594.163 74.5173L594.148 74.4421L594.144 74.4213L594.143 74.4151C594.143 74.4131 594.142 74.4117 591.201 75L594.142 74.4117L588.201 75C588.201 140.082 542.001 183.171 496.48 214.684C454.508 243.742 401.991 259.321 328.338 281.169C322.783 282.817 317.107 284.501 311.307 286.229C271.199 298.176 215.8 317.675 168.585 360.931C121.3 404.251 82.4615 471.172 75.0228 577.48C73.8988 584.744 73.5321 591.69 74.008 598.194Z" fill="white" stroke="black" stroke-width="6"/>
<path d="M73.9982 598.049L79.9885 598.206C82.5661 564.695 98.9472 526.187 123.911 493.626C148.876 461.065 182.141 434.815 218.156 425.382C236.303 420.629 258.765 418.232 283.773 416.008C287.813 415.649 291.918 415.294 296.078 414.935C317.578 413.078 340.553 411.093 363.713 407.679C418.978 399.533 475.943 383.172 517.881 340.342C559.806 297.524 578.786 230.916 587.364 175.491C591.664 147.705 593.372 122.574 594.005 104.39C594.322 95.2959 594.37 87.9333 594.339 82.8378C594.324 80.29 594.288 78.3085 594.256 76.9604C594.241 76.2863 594.226 75.7706 594.215 75.4215C594.209 75.2469 594.205 75.114 594.201 75.0238L594.198 74.9207L594.197 74.8934L594.196 74.8859C594.196 74.8838 594.196 74.8824 591.199 75L594.196 74.8824L588.199 75C588.199 91.7673 581.486 110.282 568.435 129.955C555.395 149.612 536.145 170.245 511.387 191.183C461.872 233.059 390.626 275.908 303.925 314.442C221.999 350.853 164.105 403.566 126.901 456.223C89.7521 508.804 73.1003 561.532 73.9982 598.049Z" fill="white" stroke="black" stroke-width="6"/>
<g filter="url(#filter0_f_959_653)">
<path d="M230.262 381.699C212.733 397.694 189.702 417.169 152.463 443.539C172.868 420.686 201.334 399.557 230.262 381.699C274.888 340.978 283.846 322.811 400.753 270.852C574.495 193.634 580.671 154.012 580.671 83.7744C580.671 83.7744 599.975 190.826 522.757 273.309C445.539 355.792 361.301 324.203 347.262 325.958C338.17 327.094 283.436 348.872 230.262 381.699Z" fill="white"/>
<path d="M150.225 441.541L154.197 445.988C191.392 419.648 214.485 400.145 232.077 384.105C258.456 367.837 285.218 354.297 306.527 344.679C317.213 339.855 326.507 336.027 333.676 333.34C340.981 330.601 345.773 329.167 347.635 328.934C348.914 328.775 351.337 328.995 355.249 329.545C356.519 329.724 357.927 329.934 359.452 330.162C362.371 330.597 365.721 331.097 369.364 331.566C380.555 333.006 395.041 334.236 411.56 332.896C444.677 330.211 485.768 317.21 524.947 275.359C564.105 233.532 578.764 185.495 583.646 147.998C586.087 129.247 586.087 113.101 585.476 101.631C585.171 95.8937 584.712 91.3215 584.328 88.1719C584.135 86.5969 583.962 85.3772 583.835 84.5449C583.771 84.1288 583.72 83.8094 583.683 83.591C583.665 83.4817 583.651 83.3977 583.641 83.3394L583.629 83.2712L583.625 83.2517L583.624 83.2457C583.624 83.2436 583.623 83.242 580.671 83.7744L583.623 83.242L577.671 83.7744C577.671 118.819 576.091 145.328 553.546 172.792C530.773 200.535 486.386 229.51 399.535 268.111C341.012 294.121 309.328 311.75 286.651 328.054C270.374 339.756 258.726 350.8 245.234 363.591C240.036 368.52 234.563 373.708 228.447 379.294C199.488 397.191 170.848 418.443 150.225 441.541Z" stroke="black" stroke-width="6"/>
</g>
<path d="M73.9984 598.049L79.9887 598.206C82.5702 564.644 100.742 514.702 132.308 470.511C163.858 426.342 208.452 388.381 263.578 378.045C281.465 374.691 298.321 371.916 314.336 369.28C398.439 355.434 459.376 345.402 524.948 275.36C564.075 233.565 581.36 183.388 588.882 143.784C592.646 123.968 593.974 106.753 594.362 94.4814C594.556 88.3441 594.515 83.4388 594.424 80.0577C594.379 78.367 594.321 77.057 594.274 76.1642C594.251 75.7178 594.23 75.3757 594.215 75.1423C594.208 75.0257 594.202 74.9362 594.197 74.8745L594.192 74.8029L594.191 74.7828L594.19 74.7767C594.19 74.7748 594.19 74.7733 591.199 75L594.19 74.7733L588.199 75C588.199 91.7673 581.486 110.282 568.435 129.955C555.395 149.612 536.145 170.245 511.387 191.183C461.872 233.059 390.626 275.908 303.925 314.442C221.999 350.853 164.105 403.566 126.901 456.223C89.7522 508.804 73.1004 561.532 73.9984 598.049Z" fill="white" stroke="black" stroke-width="6"/>
<g filter="url(#filter1_f_959_653)">
<path d="M161.93 432.512C152.067 442.115 147.317 448.336 145.443 448.805C149.167 444.017 154.825 438.423 161.93 432.512C189.014 406.14 254.657 354.261 405.176 325.958C454.314 316.598 487.658 287.349 531.532 250.495C575.406 213.641 591.2 141.688 591.2 75C591.2 75 617.524 213.641 535.041 297.879C452.558 382.116 264.78 376.852 227.926 392.646C202.242 403.653 178.264 418.922 161.93 432.512Z" fill="white"/>
<path d="M143.075 446.963L137.739 453.823L146.171 451.715C146.946 451.521 147.587 451.119 148.024 450.808C148.501 450.469 148.985 450.053 149.461 449.613C150.41 448.734 151.555 447.539 152.873 446.142C153.23 445.763 153.605 445.365 153.996 444.948C156.515 442.269 159.756 438.819 163.938 434.744C180.049 421.356 203.739 406.276 229.107 395.404C233.365 393.579 240.028 391.979 248.833 390.45C257.579 388.931 268.196 387.52 280.237 385.998C283.127 385.632 286.096 385.261 289.139 384.88C311.413 382.094 337.607 378.818 364.907 373.881C426.815 362.684 495.23 342.825 537.185 299.978C579.118 257.152 593.284 200.627 597.041 155.097C598.922 132.301 598.203 112.169 597.014 97.7326C596.419 90.5117 595.706 84.7089 595.14 80.7022C594.857 78.6986 594.611 77.1436 594.434 76.0844C594.346 75.5547 594.275 75.149 594.226 74.873C594.201 74.7351 594.182 74.6295 594.169 74.5572L594.153 74.4736L594.149 74.4507L594.148 74.4439C594.147 74.4419 594.147 74.4404 591.2 75L594.147 74.4404L588.2 75C588.2 108.129 584.274 142.482 574.949 173.06C565.618 203.658 550.946 230.27 529.602 248.198C528.088 249.47 526.587 250.732 525.098 251.984C483.306 287.128 451.182 314.141 404.616 323.011C253.695 351.39 187.494 403.459 159.921 430.281C152.768 436.24 146.964 441.962 143.075 446.963ZM144.422 446C144.422 446 144.426 445.998 144.433 445.995C144.425 445.999 144.422 446.001 144.422 446Z" stroke="black" stroke-width="6"/>
</g>
<g filter="url(#filter2_f_959_653)">
<path d="M308.653 331.223C264.78 352.282 245.475 366.322 175.277 411.951C217.396 385.626 222.661 389.136 299.879 347.017C413.95 289.104 438.519 369.832 521.002 285.594C603.485 201.356 591.2 75 591.2 75C591.2 141.688 578.915 197.847 535.042 234.701C491.168 271.555 352.527 310.163 308.653 331.223Z" fill="white"/>
<path d="M173.642 409.435L176.867 414.495C197.786 401.42 209.515 395.773 225.698 388.119C226.237 387.864 226.78 387.607 227.329 387.348C243.34 379.779 263.901 370.058 301.277 349.672C329.466 335.366 352.017 329.673 371.242 327.82C387.65 326.239 401.679 327.44 415.034 328.584C417.391 328.785 419.727 328.986 422.051 329.168C437.488 330.381 452.358 330.813 468.637 325.434C484.917 320.055 502.311 308.971 523.146 287.693C564.966 244.983 582.691 191.678 589.988 149.216C593.64 127.968 594.692 109.378 594.83 96.0906C594.899 89.4454 594.74 84.1216 594.563 80.4492C594.474 78.6128 594.381 77.1889 594.309 76.2187C594.273 75.7336 594.243 75.3619 594.221 75.1087C594.21 74.9821 594.202 74.8851 594.196 74.8184L594.188 74.7411L594.186 74.7196L594.186 74.7132C594.186 74.7112 594.185 74.7097 591.2 75L594.185 74.7097L588.2 75C588.2 141.448 575.933 196.434 533.112 232.403C522.464 241.348 505.877 250.535 486.075 259.643C466.326 268.726 443.596 277.635 420.806 286.071C405.994 291.554 391.121 296.849 377.037 301.864C347.961 312.215 322.244 321.371 307.355 328.518C270.178 346.364 250.477 359.243 203.188 390.16C194.391 395.912 184.639 402.287 173.642 409.435Z" stroke="black" stroke-width="6"/>
</g>
<path d="M74.0004 598.049L79.9906 598.206C82.5666 564.717 98.493 528.397 123.491 495.139C148.461 461.917 182.344 431.942 220.549 411.095C268.621 386.698 317.587 378.341 364.767 370.289C373.064 368.873 381.306 367.466 389.478 365.983C443.969 356.096 495.245 342.81 537.185 299.978C579.119 257.152 593.284 200.627 597.042 155.097C598.923 132.301 598.203 112.169 597.014 97.7326C596.419 90.5117 595.706 84.7089 595.141 80.7022C594.858 78.6986 594.611 77.1436 594.435 76.0844C594.346 75.5547 594.276 75.149 594.226 74.873C594.202 74.7351 594.182 74.6295 594.169 74.5572L594.154 74.4736L594.149 74.4507L594.148 74.4439C594.148 74.4419 594.147 74.4404 591.2 75L594.147 74.4404L588.2 75C588.2 141.042 563.858 203.278 520.827 239.423C499.362 257.454 466.928 271.206 433.459 281.633C400.064 292.037 365.98 299.031 341.438 303.706C237.911 323.174 170.571 378.67 129.373 438.325C88.2485 497.875 73.1057 561.667 74.0004 598.049Z" fill="white" stroke="black" stroke-width="6"/>
</g>
<defs>
<filter id="filter0_f_959_653" x="80.5972" y="15.3198" width="575.609" height="500.506" filterUnits="userSpaceOnUse" color-interpolation-filters="sRGB">
<feFlood flood-opacity="0" result="BackgroundImageFix"/>
<feBlend mode="normal" in="SourceGraphic" in2="BackgroundImageFix" result="shape"/>
<feGaussianBlur stdDeviation="33.6951" result="effect1_foregroundBlur_959_653"/>
</filter>
<filter id="filter1_f_959_653" x="109.819" y="53.6638" width="511.594" height="425.394" filterUnits="userSpaceOnUse" color-interpolation-filters="sRGB">
<feFlood flood-opacity="0" result="BackgroundImageFix"/>
<feBlend mode="normal" in="SourceGraphic" in2="BackgroundImageFix" result="shape"/>
<feGaussianBlur stdDeviation="10.1085" result="effect1_foregroundBlur_959_653"/>
</filter>
<filter id="filter2_f_959_653" x="157.968" y="60.3793" width="453.919" height="370.699" filterUnits="userSpaceOnUse" color-interpolation-filters="sRGB">
<feFlood flood-opacity="0" result="BackgroundImageFix"/>
<feBlend mode="normal" in="SourceGraphic" in2="BackgroundImageFix" result="shape"/>
<feGaussianBlur stdDeviation="7.0198" result="effect1_foregroundBlur_959_653"/>
</filter>
</defs>
</svg>
