<svg width="481" height="481" viewBox="0 0 481 481" fill="none" xmlns="http://www.w3.org/2000/svg">
<path d="M240.5 202.618C261.143 202.618 277.978 219.453 277.978 240.497C277.978 260.539 261.143 277.574 240.5 277.574C219.857 277.574 203.022 260.539 203.022 240.497C203.022 219.453 219.857 202.618 240.5 202.618ZM147.707 400.831C160.333 408.446 187.991 396.822 219.857 366.76C209.435 354.935 199.214 342.108 189.594 328.681C173.445 327.124 157.389 324.715 141.494 321.466C131.273 364.355 135.081 393.816 147.707 400.831ZM161.937 285.791L156.125 275.57C153.92 281.382 151.715 287.194 150.313 292.806C155.724 294.008 161.736 295.011 167.949 296.013L161.937 285.791ZM293.009 270.56L309.243 240.497L293.009 210.435C286.997 199.813 280.583 190.393 274.771 180.973C263.949 180.372 252.525 180.372 240.5 180.372C228.475 180.372 217.051 180.372 206.229 180.973C200.417 190.393 194.003 199.813 187.991 210.435L171.757 240.497L187.991 270.56C194.003 281.182 200.417 290.601 206.229 300.021C217.051 300.622 228.475 300.622 240.5 300.622C252.525 300.622 263.949 300.622 274.771 300.021C280.583 290.601 286.997 281.182 293.009 270.56ZM240.5 135.88C236.692 140.289 232.684 144.898 228.675 150.31H252.325C248.316 144.898 244.308 140.289 240.5 135.88ZM240.5 345.115C244.308 340.706 248.316 336.096 252.325 330.685H228.675C232.684 336.096 236.692 340.706 240.5 345.115ZM333.093 80.1639C320.667 72.5481 293.009 84.1722 261.143 114.235C271.565 126.059 281.786 138.886 291.406 152.314C307.84 153.917 324.074 156.322 339.506 159.529C349.727 116.64 345.919 87.1785 333.093 80.1639ZM319.063 195.203L324.875 205.424C327.08 199.612 329.285 193.8 330.688 188.188C325.276 186.986 319.264 185.984 313.051 184.982L319.063 195.203ZM348.124 53.9093C377.585 70.7443 380.792 115.036 368.366 166.744C419.272 181.775 455.948 206.627 455.948 240.497C455.948 274.368 419.272 299.219 368.366 314.251C380.792 365.958 377.585 410.25 348.124 427.085C318.863 443.92 278.98 424.68 240.5 388.004C202.02 424.68 162.137 443.92 132.676 427.085C103.415 410.25 100.208 365.958 112.634 314.251C61.7284 299.219 25.0521 274.368 25.0521 240.497C25.0521 206.627 61.7284 181.775 112.634 166.744C100.208 115.036 103.415 70.7443 132.676 53.9093C162.137 37.0743 202.02 56.3143 240.5 92.9906C278.98 56.3143 318.863 37.0743 348.124 53.9093ZM342.312 240.497C349.126 255.528 355.138 270.56 360.149 285.791C402.236 273.165 425.885 255.128 425.885 240.497C425.885 225.867 402.236 207.829 360.149 195.203C355.138 210.435 349.126 225.466 342.312 240.497ZM138.688 240.497C131.874 225.466 125.862 210.435 120.851 195.203C78.7638 207.829 55.1146 225.867 55.1146 240.497C55.1146 255.128 78.7638 273.165 120.851 285.791C125.862 270.56 131.874 255.528 138.688 240.497ZM319.063 285.791L313.051 296.013C319.264 295.011 325.276 294.008 330.688 292.806C329.285 287.194 327.08 281.382 324.875 275.57L319.063 285.791ZM261.143 366.76C293.009 396.822 320.667 408.446 333.093 400.831C345.919 393.816 349.727 364.355 339.506 321.466C324.074 324.672 307.84 327.077 291.406 328.681C281.786 342.108 271.565 354.935 261.143 366.76ZM161.937 195.203L167.949 184.982C161.736 185.984 155.724 186.986 150.313 188.188C151.715 193.8 153.92 199.612 156.125 205.424L161.937 195.203ZM219.857 114.235C187.991 84.1722 160.333 72.5481 147.707 80.1639C135.081 87.1785 131.273 116.64 141.494 159.529C157.389 156.279 173.445 153.871 189.594 152.314C199.214 138.886 209.435 126.059 219.857 114.235Z" fill="black"/>
</svg>
