<svg width="24" height="24" viewBox="0 0 24 24" fill="none" xmlns="http://www.w3.org/2000/svg">
<g clip-path="url(#clip0_204_2403)">
<path d="M18.375 0H5.625C2.5184 0 0 2.5184 0 5.625V18.375C0 21.4816 2.5184 24 5.625 24H18.375C21.4816 24 24 21.4816 24 18.375V5.625C24 2.5184 21.4816 0 18.375 0Z" fill="#242938"/>
<path d="M12 13.7767C12.966 13.7767 13.749 12.9936 13.749 12.0277C13.749 11.0618 12.966 10.2787 12 10.2787C11.034 10.2787 10.251 11.0618 10.251 12.0277C10.251 12.9936 11.0341 13.7767 12 13.7767Z" fill="#00D8FF"/>
<path d="M12.0002 8.47156C14.3484 8.47156 16.5299 8.8085 18.1747 9.37484C20.1565 10.0571 21.375 11.0912 21.375 12.0277C21.375 13.0035 20.0837 14.1022 17.9555 14.8073C16.3465 15.3403 14.2293 15.6186 12.0002 15.6186C9.71475 15.6186 7.55053 15.3574 5.92341 14.8014C3.86484 14.0978 2.625 12.985 2.625 12.0277C2.625 11.0988 3.78844 10.0726 5.74237 9.39143C7.39331 8.81581 9.62859 8.47156 11.9998 8.47156H12.0002Z" stroke="#00D8FF" stroke-width="0.556938"/>
<path d="M8.90404 10.2598C10.0772 8.22562 11.4588 6.50419 12.7711 5.36231C14.3521 3.98634 15.8568 3.44747 16.6679 3.91519C17.5133 4.40269 17.8199 6.07031 17.3676 8.26612C17.0259 9.92615 16.2089 11.8992 15.0953 13.8303C13.9535 15.8101 12.6462 17.5544 11.3518 18.6858C9.71385 20.1175 8.13032 20.6357 7.3011 20.1575C6.49645 19.6938 6.18876 18.1731 6.57482 16.1401C6.90098 14.4223 7.71951 12.314 8.90366 10.2598H8.90404Z" stroke="#00D8FF" stroke-width="0.556938"/>
<path d="M8.90695 13.8355C7.73048 11.8036 6.92948 9.74649 6.59517 8.0393C6.1927 5.98233 6.47723 4.40968 7.2877 3.94055C8.13229 3.45155 9.73008 4.01874 11.4065 5.5073C12.674 6.63268 13.9755 8.32552 15.0924 10.2547C16.2375 12.2326 17.0956 14.2366 17.4295 15.9229C17.8519 18.0571 17.51 19.6876 16.6815 20.1672C15.8777 20.6326 14.4067 20.1399 12.8382 18.7901C11.5129 17.6497 10.095 15.8877 8.90695 13.8355Z" stroke="#00D8FF" stroke-width="0.556938"/>
</g>
<defs>
<clipPath id="clip0_204_2403">
<rect width="24" height="24" fill="white"/>
</clipPath>
</defs>
</svg>
