<svg width="24" height="24" viewBox="0 0 24 24" fill="none" xmlns="http://www.w3.org/2000/svg">
<path d="M14.5665 3.00527C14.5665 3.00527 19.2293 5.67077 20.4495 9.90527C21.549 13.7303 20.6685 15.5558 20.6685 15.5558C21.231 16.1683 21.6741 16.8805 21.975 17.6558C22.2772 18.1539 22.4547 18.7176 22.4926 19.299C22.5304 19.8804 22.4275 20.4624 22.1925 20.9955C22.1925 20.9955 22.1175 19.4355 19.7925 19.1123C17.6617 18.8123 16.887 20.8868 12.8175 20.7863C10.5626 20.7436 8.35244 20.1499 6.37973 19.0569C4.40703 17.9638 2.73174 16.4047 1.5 14.5155C3.48825 15.6 6.093 17.2838 9.33675 17.025C12.5805 16.7663 13.2578 15.7695 13.2578 15.7695C9.61228 12.8835 6.38499 9.50556 3.66825 5.73227C6.21825 7.86602 12.5348 12.1125 12.3878 12.0045C10.0778 9.74647 7.9639 7.29615 6.069 4.68002C6.069 4.68002 15.546 12.4718 16.3088 12.4223C16.6223 11.7765 18.243 8.43377 14.5657 3.00452L14.5665 3.00527Z" fill="url(#paint0_linear_204_2401)"/>
<defs>
<linearGradient id="paint0_linear_204_2401" x1="12.33" y1="10.2053" x2="11.9335" y2="21.0045" gradientUnits="userSpaceOnUse">
<stop stop-color="#F88535"/>
<stop offset="1" stop-color="#FD2221"/>
</linearGradient>
</defs>
</svg>
