<svg width="24" height="24" viewBox="0 0 24 24" fill="none" xmlns="http://www.w3.org/2000/svg">
<path d="M10.5 7L3 11.9999L10.5 16.9999L16.5 19L17.4 17.4999L19 11V6.99994L16 5.5L10.5 7Z" fill="#D9D9D9"/>
<path d="M10.1098 17H7.49984L2.58984 12L7.49984 7H10.1098L11.4198 4.74L18.2098 3L20.0798 9.74L18.7698 12L20.0798 14.26L18.2098 21L11.4198 19.26L10.1098 17ZM10.2498 16.75L15.3798 18.13L12.4198 13H6.49984L10.2498 16.75ZM17.1198 17.13L18.4998 12L17.1198 6.87L14.1498 12L17.1198 17.13ZM10.2498 7.25L6.49984 11H12.4198L15.3798 5.87L10.2498 7.25Z" fill="black"/>
</svg>
