<svg width="24" height="24" viewBox="0 0 24 24" fill="none" xmlns="http://www.w3.org/2000/svg">
<g clip-path="url(#clip0_676_30252)">
<path d="M20.232 6.56297C20.542 6.17297 20.232 5.92297 19.652 6.13297C16.8079 7.3859 14.2104 9.13673 11.982 11.303C11.632 11.613 11.542 12.193 12.152 12.063C14.242 10.593 18.292 7.70297 20.232 6.56297ZM13.362 7.09297C14.6763 6.18458 15.9229 5.18194 17.092 4.09297C17.302 3.91297 17.042 3.37297 16.542 3.67297C14.7835 4.61881 13.1619 5.79965 11.722 7.18297C11.402 7.55297 11.342 8.06297 11.722 7.97297C12.322 7.60297 12.762 7.48297 13.362 7.09297Z" fill="black"/>
<path d="M23.2024 8.70235C21.2024 3.53235 14.6024 -0.127651 9.62241 0.942349C3.35241 2.32235 -2.34759 11.6423 0.982406 18.0023C1.74142 19.2993 2.76656 20.4208 3.99033 21.293C5.2141 22.1651 6.60874 22.7681 8.08241 23.0623C11.0824 23.7023 19.8624 22.8523 22.8324 17.4823C23.5318 16.1348 23.9274 14.6503 23.9914 13.1334C24.0553 11.6165 23.786 10.104 23.2024 8.70235ZM2.60241 8.21235C3.41871 6.68196 4.54579 5.33902 5.91138 4.26962C7.27697 3.20022 8.85094 2.42796 10.5324 2.00235C9.97819 8.7968 10.2502 15.6334 11.3424 22.3623H11.1224C2.46241 22.6323 -1.59759 15.7923 2.60241 8.21235ZM22.1024 17.1023C19.7224 21.5923 12.4524 22.2423 12.3524 22.2523H12.0424C11.6924 15.5023 11.0424 6.83235 11.1824 1.85235C15.8924 1.28235 20.6724 6.34235 20.6924 6.33235C21.3776 7.34544 21.986 8.40841 22.5124 9.51235C22.9763 10.7363 23.1794 12.0436 23.1088 13.3506C23.0382 14.6576 22.6954 15.9355 22.1024 17.1023Z" fill="black"/>
<path d="M21.9816 13.1814C16.7716 15.7414 15.3616 17.4014 12.3816 19.3714C11.9916 19.6214 12.1516 20.2914 12.5016 20.0814C17.5816 17.5714 19.3616 15.3614 22.2816 13.7614C22.3262 13.7457 22.3669 13.7207 22.401 13.6881C22.4351 13.6554 22.4618 13.6158 22.4794 13.572C22.497 13.5282 22.5051 13.4811 22.5031 13.4339C22.501 13.3868 22.489 13.3406 22.4676 13.2984C22.4459 13.2562 22.4154 13.2192 22.3781 13.1899C22.3408 13.1606 22.2976 13.1397 22.2514 13.1286C22.2053 13.1175 22.1573 13.1164 22.1108 13.1256C22.0642 13.1347 22.0202 13.1537 21.9816 13.1814ZM21.8616 9.94142C22.3616 9.55142 22.0616 9.22142 21.4916 9.34142C18.124 10.8649 14.9813 12.8434 12.1516 15.2214C11.8116 15.5914 11.8616 16.1414 12.3816 15.9414C15.5616 13.6114 20.6116 10.7014 21.8616 9.94142Z" fill="black"/>
</g>
<defs>
<clipPath id="clip0_676_30252">
<rect width="24" height="24" fill="white"/>
</clipPath>
</defs>
</svg>
