<svg width="24" height="24" viewBox="0 0 24 24" fill="none" xmlns="http://www.w3.org/2000/svg">
<g clip-path="url(#clip0_669_29644)">
<path d="M5.87048 6.01793C5.88498 6.09874 5.92743 6.17189 5.9904 6.22457C6.05338 6.27726 6.13287 6.30612 6.21498 6.30612C6.29709 6.30612 6.37658 6.27726 6.43956 6.22457C6.50253 6.17189 6.54498 6.09874 6.55948 6.01793C6.55948 5.53793 6.72948 5.01893 6.77948 4.57993C6.77028 4.02447 6.70325 3.47149 6.57948 2.92993C6.58884 2.83837 6.56208 2.74678 6.50489 2.67467C6.4477 2.60256 6.36461 2.55564 6.27333 2.5439C6.18204 2.53216 6.08979 2.55654 6.01622 2.61184C5.94265 2.66714 5.89358 2.74898 5.87948 2.83993C5.5635 3.8752 5.56102 4.98069 5.87048 6.01793ZM7.16848 8.48693C7.79848 7.79693 6.84848 6.98693 6.16948 6.90693C5.87948 6.93693 5.60548 7.05993 5.38948 7.25693C5.17948 7.42693 4.95048 7.53693 4.93048 7.96693C4.90048 9.01693 6.57948 9.13693 7.16848 8.48693ZM23.9865 8.54693C23.9137 7.9688 23.6242 7.43985 23.1765 7.06693C22.3337 6.46208 21.4342 5.94063 20.4905 5.50993C19.1452 4.82929 17.7445 4.26425 16.3035 3.82093C15.8847 3.6681 15.4341 3.62338 14.9935 3.69093C14.775 3.79262 14.5675 3.91661 14.3745 4.06093C14.1445 4.22093 13.8745 4.42093 13.5745 4.66093C13.5354 4.68286 13.5015 4.71302 13.4751 4.74933C13.4488 4.78564 13.4306 4.82723 13.422 4.87123C13.4133 4.91524 13.4142 4.9606 13.4248 5.0042C13.4353 5.0478 13.4552 5.08859 13.483 5.12375C13.5109 5.15892 13.546 5.18763 13.586 5.20789C13.626 5.22816 13.67 5.2395 13.7148 5.24113C13.7596 5.24276 13.8043 5.23465 13.8456 5.21735C13.887 5.20005 13.9242 5.17397 13.9545 5.14093C14.2445 4.91093 14.5045 4.73093 14.7245 4.58093C14.8845 4.46893 15.0545 4.37559 15.2345 4.30093C15.4745 4.29193 15.7125 4.33693 15.9335 4.43093C16.1235 4.43093 16.3235 4.55093 16.5435 4.63093C16.5435 4.63093 16.2435 5.17093 16.1435 5.38993C16.0656 5.56099 16.015 5.7432 15.9935 5.92993C15.9848 6.08441 16.0088 6.23899 16.064 6.38357C16.1191 6.52814 16.2041 6.65945 16.3135 6.76893C16.6605 7.10893 17.0625 7.38993 17.5025 7.59893L18.8215 8.16793C19.0408 8.28659 19.2741 8.36659 19.5215 8.40793C19.7235 8.43793 19.9295 8.41293 20.1205 8.33793L20.9905 7.80793L21.3795 7.62793H21.4395C21.5061 7.58983 21.5614 7.53459 21.5995 7.46793C21.6345 7.38133 21.6345 7.28452 21.5995 7.19793C21.8895 7.38793 22.5185 7.76793 22.7285 7.91793C22.9385 8.06793 22.4685 8.64793 22.2685 8.91793C21.2663 10.3372 20.1922 11.7043 19.0505 13.0139C17.347 15.016 15.6013 16.9818 13.8145 18.9099C13.1245 19.6399 12.6855 20.1489 12.5955 20.1989C12.1605 20.2689 11.7135 20.2019 11.3165 20.0089C10.1138 19.6081 8.96074 19.0716 7.87948 18.4099C6.60774 17.7165 5.45132 16.83 4.45148 15.7819C4.23148 15.5119 4.06148 15.3019 4.12148 15.1219C4.20348 14.9393 4.30681 14.7696 4.43148 14.6129C4.60148 14.3829 4.83148 14.1029 5.09148 13.7929C5.12096 13.7588 5.14343 13.7192 5.1576 13.6763C5.17177 13.6335 5.17737 13.5883 5.17407 13.5433C5.17078 13.4983 5.15865 13.4544 5.13839 13.4141C5.11813 13.3738 5.09012 13.3379 5.05598 13.3084C5.02184 13.2789 4.98222 13.2565 4.93939 13.2423C4.89657 13.2281 4.85137 13.2225 4.80638 13.2258C4.76139 13.2291 4.71749 13.2413 4.67718 13.2615C4.63688 13.2818 4.60096 13.3098 4.57148 13.3439C4.23148 13.7339 3.95148 14.0739 3.75148 14.3439C3.42676 14.8631 3.17475 15.4243 3.00248 16.0119C2.87854 16.5933 2.81818 17.1865 2.82248 17.7809C2.90548 18.2479 3.13248 18.6779 3.47248 19.0099C4.58625 20.1476 5.85431 21.1231 7.23948 21.9079C8.41988 22.6367 9.68059 23.2267 10.9965 23.6659C11.6365 23.8929 12.3225 23.9659 12.9955 23.8759C13.5145 23.6929 13.9855 23.3959 14.3745 23.0059C15.6932 21.7774 16.9251 20.4589 18.0615 19.0599C20.8695 15.6619 23.7275 11.4949 23.8275 10.7059C23.9759 9.99682 24.0297 9.27117 23.9875 8.54793M21.1395 7.01793L20.7595 7.12793L19.8495 7.49793C19.797 7.50857 19.7429 7.50857 19.6905 7.49793C19.5578 7.44159 19.4333 7.36759 19.3205 7.27793L18.0415 6.62893C17.7263 6.50485 17.4222 6.35431 17.1325 6.17893C17.0425 6.11893 16.9025 6.08893 16.9025 5.97893C16.8807 5.85991 16.8807 5.73794 16.9025 5.61893C16.9405 5.46559 16.9905 5.31593 17.0525 5.16993L17.1125 4.91993C17.7725 5.18993 18.5115 5.51993 19.2505 5.91993C19.9905 6.31993 20.6505 6.65893 21.2495 7.01893L21.1395 7.01793ZM18.2705 17.0899C16.8894 18.7897 15.4148 20.4112 13.8535 21.9469C13.5458 22.2823 13.1803 22.5598 12.7745 22.7659C11.7745 22.9959 9.64748 22.1259 7.71848 21.0569C6.38705 20.3662 5.15936 19.4916 4.07148 18.4589C3.79148 18.1689 3.59148 17.9289 3.58148 17.7289C3.569 17.2651 3.59241 16.8011 3.65148 16.3409L3.71148 16.0109C3.77148 16.1009 3.78148 16.1809 3.85148 16.2709C4.8804 17.4231 6.08002 18.4106 7.40848 19.1989C8.69967 20.0648 10.1102 20.7379 11.5955 21.1969C12.0585 21.3369 12.5515 21.3369 13.0145 21.1969C13.6686 20.6698 14.2801 20.092 14.8435 19.4689C16.5015 17.7289 19.0505 14.9019 20.9785 12.4739C21.8296 11.4413 22.6107 10.3529 23.3165 9.21593C23.2829 9.68673 23.2161 10.1546 23.1165 10.6159C22.9865 11.2649 20.6785 14.2219 18.2705 17.0899Z" fill="black"/>
<path d="M10.2259 10.5152C11.1392 10.7832 12.0652 10.9999 13.0039 11.1652C13.1962 11.2112 13.3968 11.2097 13.5884 11.161C13.78 11.1122 13.9569 11.0176 14.1039 10.8852C14.1973 10.74 14.2363 10.5664 14.2139 10.3952C14.1439 10.0445 14.019 9.70703 13.8439 9.39523C13.4187 8.59947 12.9269 7.8411 12.3739 7.12823C12.6545 5.64718 12.3921 4.11461 11.6349 2.81123C11.2406 2.11138 10.6902 1.51194 10.0264 1.05959C9.36263 0.607246 8.60341 0.314188 7.80786 0.203232C6.73999 0.0159194 5.64455 0.0571232 4.59377 0.324126C3.543 0.59113 2.56077 1.07786 1.71186 1.75223C0.402856 2.94023 -0.376144 4.88923 0.183856 7.86723C0.353064 8.95661 0.869375 9.96229 1.65601 10.7347C2.44264 11.5071 3.45757 12.0049 4.54986 12.1542C5.55823 12.3113 6.58876 12.246 7.56924 11.9629C8.54972 11.6798 9.45643 11.1857 10.2259 10.5152ZM1.32286 7.64723C0.842856 5.18923 1.41286 3.57023 2.47186 2.56123C3.19265 1.97015 4.02885 1.53598 4.92699 1.28647C5.82514 1.03697 6.76547 0.977623 7.68786 1.11223C8.36081 1.18097 9.009 1.40326 9.58251 1.76196C10.156 2.12067 10.6396 2.60622 10.9959 3.18123C11.7375 4.37264 12.0049 5.79911 11.7449 7.17823C11.7243 7.28223 11.7459 7.39013 11.8049 7.47823C11.8049 7.47823 12.4349 8.39723 12.8049 9.05623C13.0255 9.42557 13.2119 9.81223 13.3639 10.2162V10.3862H13.3139C12.9759 10.3611 12.6411 10.3041 12.3139 10.2162C11.4649 10.0062 10.5059 9.66623 10.0959 9.58623C10.026 9.57045 9.95329 9.57322 9.88487 9.59427C9.81645 9.61532 9.75473 9.65392 9.70586 9.70623C9.0275 10.2929 8.22793 10.7225 7.36429 10.9644C6.50064 11.2062 5.59424 11.2543 4.70986 11.1052C3.84951 10.9673 3.05613 10.5569 2.44643 9.93446C1.83673 9.31198 1.44289 8.51026 1.32286 7.64723Z" fill="black"/>
</g>
<defs>
<clipPath id="clip0_669_29644">
<rect width="24" height="24" fill="white"/>
</clipPath>
</defs>
</svg>
