<svg width="24" height="24" viewBox="0 0 24 24" fill="none" xmlns="http://www.w3.org/2000/svg">
<g clip-path="url(#clip0_669_29630)">
<path d="M4.45666 11.1875L3.73066 11.2475C3.65723 11.2607 3.59078 11.2993 3.54291 11.3565C3.49505 11.4137 3.46883 11.4859 3.46883 11.5605C3.46883 11.6351 3.49505 11.7074 3.54291 11.7646C3.59078 11.8218 3.65723 11.8604 3.73066 11.8735C4.04866 11.8735 4.45666 11.8735 4.89366 11.7935C5.22474 11.7752 5.55658 11.7752 5.88766 11.7935C6.30366 11.7735 6.71466 11.8885 7.05966 12.1215C7.15966 12.2015 7.17966 12.3905 7.21966 12.5885C7.29866 13.0065 7.32866 13.4735 7.35866 13.7015C7.44532 14.3082 7.49166 14.9179 7.49766 15.5305H6.93066C6.80518 15.5207 6.67913 15.5207 6.55366 15.5305C6.43119 15.5207 6.30813 15.5207 6.18566 15.5305C5.87766 15.5805 5.59966 15.6695 5.28166 15.7195C5.21917 15.7266 5.16111 15.7552 5.11748 15.8005C5.07385 15.8458 5.04738 15.9048 5.04266 15.9675C5.03879 16.0031 5.04227 16.039 5.0529 16.0731C5.06354 16.1072 5.08108 16.1387 5.10444 16.1658C5.12781 16.1928 5.15649 16.2147 5.1887 16.2301C5.22091 16.2456 5.25596 16.2542 5.29166 16.2555C5.61632 16.3702 5.94732 16.4595 6.28466 16.5235C6.42466 16.5389 6.56399 16.5389 6.70266 16.5235C6.84266 16.5135 6.98166 16.4935 7.11966 16.4635C7.27499 16.4315 7.42732 16.3889 7.57666 16.3355V16.6135C7.50966 17.5795 7.32666 18.5335 7.03066 19.4555C6.93364 19.7581 6.78917 20.0433 6.60266 20.3005C6.46401 20.5036 6.25539 20.6485 6.01666 20.7075C5.91666 20.7075 5.84766 20.6075 5.75866 20.5285C5.66866 20.4485 5.40066 20.1115 5.28166 19.9725C5.16166 19.8325 5.13166 19.7735 5.06266 19.6835H5.13266L5.42066 19.5445C5.50932 19.4864 5.59234 19.4201 5.66866 19.3465C5.84866 19.1639 6.01766 18.9715 6.17566 18.7695C6.22774 18.7439 6.27185 18.7046 6.30322 18.6557C6.33459 18.6069 6.35204 18.5504 6.35368 18.4924C6.35533 18.4343 6.34111 18.377 6.31256 18.3264C6.28401 18.2759 6.2422 18.2341 6.19166 18.2055C6.13025 18.1716 6.05941 18.1589 5.99003 18.1692C5.92064 18.1795 5.85657 18.2123 5.80766 18.2625C5.57966 18.3625 5.36066 18.4225 5.13266 18.5215C5.03987 18.5581 4.94996 18.6016 4.86366 18.6515C4.78032 18.7015 4.70099 18.7575 4.62566 18.8195C4.58299 18.8595 4.54299 18.9029 4.50566 18.9495C4.30472 18.6612 4.11913 18.3624 3.94966 18.0545C3.56566 17.3532 3.23432 16.6279 2.95566 15.8785C2.81493 15.5102 2.71825 15.1266 2.66766 14.7355C2.92232 14.7995 3.18066 14.8295 3.44266 14.8255C3.60799 14.8069 3.77032 14.7735 3.92966 14.7255C4.08632 14.6789 4.23532 14.6159 4.37666 14.5365C4.69547 14.3525 5.00119 14.1467 5.29166 13.9205C5.32837 13.9024 5.36111 13.8771 5.388 13.8462C5.41489 13.8153 5.43539 13.7794 5.44832 13.7405C5.46124 13.7017 5.46633 13.6606 5.4633 13.6198C5.46027 13.5789 5.44918 13.5391 5.43066 13.5025C5.39033 13.432 5.32538 13.3787 5.24824 13.3531C5.17111 13.3274 5.08722 13.3312 5.01266 13.3635C4.58566 13.5035 4.17866 13.5735 3.76066 13.6715C3.60166 13.7215 3.45266 13.7615 3.30366 13.8215C3.07926 13.9127 2.85029 13.9921 2.61766 14.0595C2.63166 13.4185 2.70566 12.7795 2.83766 12.1515C2.84616 12.1162 2.84744 12.0795 2.8414 12.0436C2.83537 12.0077 2.82215 11.9734 2.80253 11.9428C2.78292 11.9122 2.75732 11.8858 2.72727 11.8653C2.69722 11.8448 2.66334 11.8306 2.62766 11.8235C2.55656 11.8091 2.48263 11.8228 2.42145 11.8618C2.36026 11.9008 2.3166 11.962 2.29966 12.0325C2.0858 12.8263 1.97589 13.6445 1.97266 14.4665C1.98466 15.0345 2.08266 15.5965 2.26066 16.1365C2.51466 16.9345 2.82599 17.7095 3.19466 18.4615C3.56466 19.2335 4.01766 19.9635 4.54566 20.6375C4.78066 20.9795 5.06566 21.2845 5.39066 21.5425C5.61866 21.7125 5.90266 21.7905 6.18566 21.7605C6.60709 21.6984 6.99363 21.4911 7.27866 21.1745C7.63066 20.7705 7.88566 20.2915 8.02366 19.7735C8.33402 18.7608 8.51117 17.712 8.55066 16.6535C8.58891 15.6046 8.50908 14.5547 8.31266 13.5235C8.25266 13.2645 8.19266 12.6585 8.05366 12.1915C7.99017 11.9294 7.85231 11.6912 7.65666 11.5055C7.28941 11.2437 6.85507 11.0921 6.40466 11.0685H6.19466L4.45666 11.1875ZM23.4967 16.5635C21.9189 13.9031 20.1901 11.3352 18.3187 8.87254C17.0435 7.20366 15.5146 5.74496 13.7877 4.54954C12.8125 3.87465 11.7743 3.29562 10.6877 2.82054C9.93891 2.51034 9.14832 2.31286 8.34166 2.23454C8.26861 2.23208 8.19734 2.25729 8.14209 2.30513C8.08683 2.35296 8.05168 2.4199 8.04366 2.49254C8.03337 2.52849 8.03337 2.56659 8.04366 2.60254C7.53273 2.9672 7.06327 3.3867 6.64366 3.85354C6.42568 4.10726 6.22617 4.37629 6.04666 4.65854C5.87199 4.93854 5.71966 5.23021 5.58966 5.53354C5.3032 6.24647 5.09985 6.99005 4.98366 7.74954C4.97763 7.8142 4.99444 7.87894 5.03117 7.9325C5.06789 7.98607 5.1222 8.02509 5.18469 8.04279C5.24718 8.06049 5.31389 8.05575 5.37325 8.02941C5.43261 8.00306 5.48087 7.95676 5.50966 7.89854C5.78832 7.20987 6.11966 6.54721 6.50366 5.91054C6.74166 5.50354 6.99066 5.08654 7.24866 4.68854C7.55199 4.24321 7.88332 3.81921 8.24266 3.41654C8.2725 3.48519 8.321 3.54409 8.38266 3.58654C9.93166 4.52854 11.3397 5.68654 12.5657 7.02354C14.4 9.04793 16.0617 11.2222 17.5337 13.5235C18.1207 14.3675 19.3037 16.5035 20.1877 17.9055C20.4757 18.3625 20.7337 18.7495 20.9227 19.0085C21.7377 20.0815 22.5727 20.1415 23.1287 19.8335C23.6092 19.4474 23.9176 18.887 23.9866 18.2744C24.0555 17.6618 23.8794 17.0468 23.4967 16.5635ZM22.7807 18.7395C22.5717 19.0575 22.2147 18.9095 21.7867 18.3425C21.5987 18.0945 21.3597 17.7365 21.0917 17.3485C20.1677 15.8885 18.9547 13.7815 18.3187 12.9865C16.7559 10.6872 15.0113 8.51694 13.1017 6.49654C11.7874 5.14845 10.2929 3.98877 8.66066 3.05054H8.59066L8.77066 2.87054C9.34967 2.97361 9.91387 3.14724 10.4507 3.38754C11.5 3.87371 12.4983 4.4633 13.4307 5.14754C15.0439 6.35339 16.4648 7.79718 17.6447 9.42954C19.4402 11.9107 21.0987 14.4882 22.6127 17.1505C22.7828 17.3751 22.8886 17.6418 22.9185 17.9219C22.9485 18.2021 22.9015 18.4851 22.7827 18.7405" fill="black"/>
<path d="M10.587 8.64271C10.4935 8.30809 10.3251 7.99915 10.0945 7.73927C9.86387 7.47938 9.57715 7.27538 9.25604 7.14271C8.80417 7.0222 8.33027 7.00973 7.87268 7.10632C7.41509 7.20291 6.98666 7.40585 6.62204 7.69871C5.95584 8.22122 5.41582 8.88701 5.04204 9.64671C4.71852 8.89016 4.28298 8.18661 3.75004 7.55971C3.2406 6.98463 2.52874 6.62852 1.76304 6.56571C1.37046 6.55044 0.985194 6.6749 0.675748 6.91697C0.366303 7.15903 0.152741 7.503 0.0730425 7.88771C-0.024625 8.23818 -0.0243416 8.60872 0.0738619 8.95905C0.172065 9.30937 0.364431 9.62607 0.630043 9.87471C0.840043 10.0447 1.09704 10.1447 1.36504 10.1637C1.77304 10.1637 2.21004 10.0137 2.59804 10.0237C2.93704 10.0417 3.27204 10.1087 3.59104 10.2237C3.84238 10.3037 4.08438 10.406 4.31704 10.5307C4.59302 10.6607 4.89765 10.718 5.20201 10.6972C5.50636 10.6764 5.80034 10.5781 6.05604 10.4117L6.49304 10.2717C6.86522 10.1923 7.24763 10.1724 7.62604 10.2127C8.14804 10.3094 8.67471 10.366 9.20604 10.3827C9.50104 10.3597 9.78704 10.2677 10.041 10.1127C10.2848 9.96544 10.4714 9.73995 10.5706 9.473C10.6697 9.20605 10.6755 8.91338 10.587 8.64271ZM3.68104 9.46771C3.36038 9.34488 3.02697 9.25834 2.68704 9.20971C2.35904 9.20971 1.97204 9.26971 1.61404 9.25971C1.49335 9.26332 1.3759 9.22036 1.28604 9.13971C1.17235 9.00385 1.09679 8.84022 1.0671 8.66557C1.0374 8.49092 1.05464 8.31151 1.11704 8.14571C1.19704 7.83771 1.39504 7.54971 1.73304 7.56971C2.26004 7.57371 2.76504 7.77971 3.14404 8.14571C3.63604 8.63571 4.05704 9.19071 4.39604 9.79571C4.16669 9.66777 3.92762 9.55809 3.68104 9.46771ZM9.54404 9.29871C9.3896 9.40722 9.20579 9.46616 9.01704 9.46771C8.59004 9.46771 8.14304 9.40771 7.74504 9.39771C7.28461 9.39544 6.82625 9.45943 6.38404 9.58771C6.13271 9.66704 5.89071 9.76938 5.65804 9.89471C5.94604 9.46971 6.29104 9.08471 6.68204 8.75271C6.97604 8.46292 7.34036 8.25459 7.73922 8.14816C8.13808 8.04174 8.55776 8.0409 8.95704 8.14571C9.21985 8.26828 9.42363 8.48966 9.52404 8.76171C9.61404 8.95171 9.72304 9.16971 9.54404 9.29871Z" fill="black"/>
</g>
<defs>
<clipPath id="clip0_669_29630">
<rect width="24" height="24" fill="white"/>
</clipPath>
</defs>
</svg>
