<svg width="24" height="24" viewBox="0 0 24 24" fill="none" xmlns="http://www.w3.org/2000/svg">
<path d="M3.08065 12.4491C3.09294 12.5278 3.13295 12.5995 3.19346 12.6513C3.25397 12.7031 3.331 12.7316 3.41065 12.7316C3.4903 12.7316 3.56733 12.7031 3.62784 12.6513C3.68835 12.5995 3.72836 12.5278 3.74065 12.4491C3.80965 11.1991 3.88865 9.94909 3.88865 8.67909C3.88865 7.93009 3.88865 7.18209 3.80965 6.44309C3.75965 5.33109 3.69165 4.23809 3.74065 3.15509C5.12024 2.95817 6.51208 2.85959 7.90565 2.86009H12.0107C14.0987 2.89942 16.173 2.95509 18.2337 3.02709C18.2818 3.03262 18.3306 3.0282 18.377 3.01409C18.4234 2.99999 18.4664 2.9765 18.5034 2.94509C18.5403 2.91368 18.5704 2.87502 18.5918 2.8315C18.6132 2.78798 18.6254 2.74053 18.6277 2.69209C18.6358 2.59442 18.6052 2.49747 18.5425 2.4221C18.4799 2.34674 18.3902 2.29897 18.2927 2.28909C16.5297 2.17009 14.7187 1.85509 12.9567 1.71709C11.7581 1.61672 10.5549 1.584 9.35265 1.61909C7.33934 1.6937 5.34109 1.99766 3.39665 2.52509C3.33924 2.54007 3.28734 2.57121 3.2471 2.61482C3.20686 2.65842 3.17998 2.71266 3.16965 2.77109C3.12167 2.79881 3.08073 2.83724 3.05003 2.88338C3.01933 2.92952 2.99969 2.98212 2.99265 3.03709C2.80301 4.13452 2.68144 5.24264 2.62865 6.35509V7.77209C2.62865 8.20609 2.62865 8.75709 2.70665 9.19009C2.79565 10.2931 2.96265 11.3761 3.08065 12.4501M23.4317 19.2231C23.4156 19.1485 23.3766 19.0807 23.3201 19.0294C23.2636 18.9781 23.1925 18.9458 23.1167 18.9371C23.1823 18.8864 23.2281 18.8144 23.2462 18.7335C23.2643 18.6526 23.2535 18.5679 23.2157 18.4941C22.9007 17.7851 22.6057 17.0961 22.2307 16.4071C22.0759 16.1195 21.9118 15.837 21.7387 15.5601C21.5727 15.2815 21.3917 15.0121 21.1967 14.7531C20.7437 14.1331 20.2127 13.5721 19.7887 12.9711C19.9167 11.9861 20.0747 11.0011 20.1927 9.93809C20.2427 9.46609 20.2617 8.95409 20.2817 8.51109C20.3017 8.06809 20.2817 7.52609 20.2817 7.07309V6.35509C20.2241 5.25175 20.1221 4.15118 19.9757 3.05609C19.9731 3.00826 19.9611 2.96141 19.9404 2.91822C19.9197 2.87503 19.8907 2.83635 19.8551 2.80439C19.8194 2.77243 19.7778 2.74783 19.7326 2.73199C19.6874 2.71615 19.6395 2.70939 19.5917 2.71209C19.4916 2.71727 19.3975 2.76138 19.3295 2.835C19.2614 2.90861 19.2249 3.0059 19.2277 3.10609C19.2277 4.20809 19.1397 5.32109 19.0897 6.45309C19.0897 7.19209 19.0307 7.94009 19.0307 8.67809V9.39709C19.0307 10.5981 19.0307 11.7801 19.1297 12.9511C17.4847 12.8531 15.8407 12.7151 14.2067 12.6361C13.0157 12.5861 11.8237 12.5381 10.6327 12.5571C8.62599 12.5998 6.62732 12.7474 4.63665 13.0001C4.54954 13.0077 4.46887 13.0492 4.41188 13.1155C4.35489 13.1818 4.3261 13.2678 4.33165 13.3551C4.34142 13.4412 4.3833 13.5204 4.44892 13.5769C4.51455 13.6335 4.59909 13.6632 4.68565 13.6601H5.06965C4.98165 13.8471 4.87265 14.0341 4.78465 14.2311C4.69565 14.4281 4.55765 14.7631 4.43965 15.0391C4.31165 15.3141 4.19365 15.5891 4.07565 15.8661C3.9158 16.2092 3.78403 16.5647 3.68165 16.9291C3.62804 17.1024 3.62804 17.2878 3.68165 17.4611C3.76385 17.5905 3.87525 17.6987 4.00689 17.7772C4.13854 17.8557 4.28676 17.9023 4.43965 17.9131C5.76665 18.1101 7.10565 18.2091 8.44665 18.2091C9.89465 18.2091 11.5187 18.2091 13.0547 18.1391C14.9047 18.0711 16.6087 17.9431 17.6427 17.8741L18.5687 17.7951C18.6602 17.7897 18.7496 17.765 18.831 17.7226C18.9123 17.6802 18.9838 17.6211 19.0407 17.5491C19.1227 17.3871 19.1687 17.2091 19.1787 17.0271C19.1694 16.737 19.123 16.4494 19.0407 16.1711C18.9517 15.7281 18.8837 15.2751 18.7847 14.8211C18.7209 14.5061 18.6319 14.1968 18.5187 13.8961C18.4879 13.8075 18.4246 13.7338 18.3417 13.6901H19.4247C19.7197 14.3501 19.9957 15.0091 20.3507 15.6591C20.6067 16.1121 20.8917 16.5451 21.1867 16.9691C21.6297 17.6091 22.1127 18.2091 22.5557 18.8491C22.5833 18.892 22.6194 18.929 22.6616 18.9576C22.7039 18.9863 22.7515 19.0062 22.8017 19.0161C22.7643 19.0517 22.7345 19.0945 22.7142 19.1419C22.694 19.1894 22.6836 19.2405 22.6837 19.2921C20.1037 19.3511 17.5237 19.2921 14.9447 19.2221C13.2217 19.2221 11.4987 19.1541 9.77565 19.1541C6.89165 19.1541 4.01565 19.2821 1.13165 19.4491C1.04447 19.4514 0.961659 19.4878 0.900927 19.5504C0.840196 19.613 0.806361 19.6969 0.806654 19.7841C0.811632 19.8704 0.848818 19.9517 0.910853 20.0118C0.972888 20.072 1.05525 20.1067 1.14165 20.1091C3.74165 20.1091 6.31065 20.2961 8.89965 20.3751C10.6227 20.4241 12.3557 20.4441 14.0787 20.4341C16.9737 20.4341 19.8487 20.2661 22.7227 20.0301C25.5967 19.7941 22.7227 20.0801 22.7227 20.1091C22.7427 20.2471 22.7427 20.3848 22.7227 20.5221C22.6247 21.0151 22.0527 21.1721 21.4327 21.2711C20.4241 21.3636 19.4092 21.3636 18.4007 21.2711C16.7857 21.2711 14.0297 21.1721 11.3707 21.1531H7.84665C6.16265 21.1531 4.82365 21.2221 4.34165 21.2221C3.37789 21.2956 2.40866 21.2022 1.47665 20.9461C1.21882 20.8848 0.99072 20.7349 0.832237 20.5225C0.673754 20.3101 0.594968 20.0487 0.609654 19.7841V19.6561C0.678758 19.6543 0.745735 19.6318 0.801901 19.5915C0.858067 19.5512 0.900833 19.495 0.924654 19.4301C1.25799 18.6968 1.63232 17.9844 2.04765 17.2931L2.90365 15.9541C3.33665 15.1271 3.70165 14.3001 4.12465 13.5221C4.16062 13.4841 4.18686 13.4379 4.20116 13.3876C4.21547 13.3372 4.2174 13.2842 4.20679 13.2329C4.19619 13.1817 4.17336 13.1337 4.14026 13.0932C4.10716 13.0527 4.06475 13.0207 4.01665 13.0001C3.94441 12.95 3.85539 12.9303 3.76878 12.9453C3.68216 12.9603 3.6049 13.0087 3.55365 13.0801C3.04165 13.6801 2.49065 14.2801 2.00765 14.9701C1.80832 15.2621 1.62465 15.5638 1.45665 15.8751C1.28965 16.1811 1.14165 16.5051 1.00365 16.8601C1.00365 16.9191 0.0186539 19.3501 0.0186539 19.7551C-0.0421973 20.1745 0.0469005 20.602 0.270256 20.9621C0.49361 21.3223 0.836896 21.5922 1.23965 21.7241C2.25443 22.0812 3.32396 22.2575 4.39965 22.2451C4.88265 22.2451 6.23165 22.3441 7.93465 22.3931H11.4497C14.1177 22.3931 16.8747 22.3341 18.4897 22.3051C19.7497 22.3681 21.0127 22.2521 22.2397 21.9601C22.5615 21.8887 22.8572 21.7294 23.0938 21.4999C23.3304 21.2703 23.4986 20.9796 23.5797 20.6601C23.6097 20.4508 23.6097 20.2408 23.5797 20.0301C23.5797 19.7641 23.4717 19.4891 23.4317 19.2231ZM14.3547 13.8181C14.3347 14.1294 14.3347 14.4411 14.3547 14.7531H12.1587C12.1285 14.4621 12.0825 14.173 12.0207 13.8871H13.5077L14.3547 13.8181ZM11.2037 13.8181C11.1287 14.1033 11.0696 14.3924 11.0267 14.6841H9.55965L8.65365 14.7341C8.65365 14.4181 8.70365 14.1041 8.70365 13.7491L10.0027 13.7981L11.2037 13.8181ZM7.87565 13.7381C7.73165 14.0401 7.60365 14.3488 7.49165 14.6641V14.7831C7.06865 14.7831 6.64565 14.8511 6.22165 14.8611C5.79865 14.8711 5.67065 14.8611 5.39465 14.8611C5.39465 14.7731 5.45465 14.6741 5.49365 14.5861C5.60165 14.2901 5.71965 14.0141 5.85765 13.7291L7.87565 13.7381ZM4.92265 17.0471C4.79544 17.0193 4.67018 16.9832 4.54765 16.9391C4.64232 16.6991 4.75065 16.4658 4.87265 16.2391L5.11865 15.5211C5.46365 15.5211 5.81865 15.6191 6.17265 15.6491C6.52665 15.6791 6.90165 15.6991 7.26565 15.7181V15.9741C7.24565 16.3314 7.24565 16.6891 7.26565 17.0471C6.30065 17.0571 5.46365 17.0671 4.93165 17.0271L4.92265 17.0471ZM8.14165 17.0471C8.23065 16.7521 8.31865 16.4571 8.39765 16.1511C8.39765 16.0331 8.44765 15.9151 8.47665 15.7971C8.82065 15.7971 9.17565 15.7971 9.51965 15.8561H10.9867V15.9541C10.9867 16.2991 11.0567 16.6341 11.0957 16.9391L8.14165 17.0471ZM12.5917 16.9391H12.0017C12.0697 16.6141 12.1387 16.2991 12.1787 15.9541V15.8361H13.0347C13.5767 15.8361 14.1077 15.7861 14.6497 15.7671C14.7577 16.1411 14.9057 16.4961 15.0237 16.8701L12.5917 16.9391ZM18.2727 16.9391H15.8017C15.8217 16.5518 15.8217 16.1644 15.8017 15.7771C16.5597 15.7171 17.3277 15.6491 18.0857 15.5701C18.0857 15.8361 18.1547 16.1021 18.2037 16.3681C18.2537 16.6331 18.2537 16.6931 18.2737 16.8701L18.2727 16.9391ZM17.9577 14.8321H15.6637C15.6371 14.6951 15.601 14.5601 15.5557 14.4281C15.4767 14.2311 15.3787 14.0341 15.2897 13.8481C16.2057 13.8481 17.1207 13.8481 18.0267 13.7881C17.9461 13.8264 17.8813 13.8915 17.8435 13.9724C17.8058 14.0532 17.7973 14.1447 17.8197 14.2311C17.8797 14.3981 17.9187 14.6151 17.9577 14.8211V14.8321Z" fill="black"/>
<path d="M10.4147 11.3866C11.067 11.5674 11.7613 11.5223 12.3847 11.2586C12.9547 11.0126 13.4747 10.6586 13.9097 10.2146C14.1257 9.99797 14.3227 9.76497 14.5007 9.51563C14.6727 9.2583 14.817 8.98597 14.9337 8.69864C14.9549 8.65479 14.9671 8.60717 14.9697 8.55854C14.9722 8.50991 14.9651 8.46126 14.9486 8.41545C14.9321 8.36963 14.9066 8.32756 14.8737 8.2917C14.8407 8.25585 14.801 8.22693 14.7567 8.20663C14.7122 8.18497 14.6638 8.17237 14.6144 8.16955C14.5649 8.16673 14.5154 8.17376 14.4687 8.19022C14.422 8.20669 14.379 8.23227 14.3423 8.26547C14.3056 8.29867 14.2758 8.33883 14.2547 8.38363C14.1381 8.5967 13.9961 8.79482 13.8317 8.97363C13.6584 9.1503 13.4714 9.3113 13.2707 9.45663C12.8737 9.7394 12.4351 9.95869 11.9707 10.1066C11.5607 10.2446 11.1237 10.2716 10.7007 10.1856C9.74483 9.9242 8.90106 9.35653 8.2987 8.56963C8.24346 8.51004 8.16844 8.47257 8.08762 8.46418C8.00679 8.45579 7.92567 8.47706 7.85937 8.52404C7.79307 8.57102 7.7461 8.64049 7.72721 8.71952C7.70832 8.79855 7.7188 8.88176 7.7567 8.95364C8.31127 10.0653 9.25831 10.9318 10.4147 11.3856M8.6327 5.97163C8.73421 5.91085 8.84947 5.87679 8.9677 5.87263C9.11437 5.85568 9.26294 5.86789 9.40487 5.90856C9.5468 5.94924 9.67928 6.01757 9.7947 6.10963C9.86393 6.18151 9.95886 6.22294 10.0586 6.22482C10.1584 6.22669 10.2548 6.18886 10.3267 6.11963C10.3986 6.05041 10.44 5.95548 10.4419 5.85571C10.4438 5.75594 10.4059 5.65951 10.3367 5.58763C10.1976 5.34712 10.0055 5.14144 9.77508 4.98619C9.54464 4.83095 9.28187 4.73021 9.0067 4.69163C8.84784 4.65759 8.68357 4.65759 8.5247 4.69163C8.30374 4.74838 8.10075 4.86019 7.9347 5.01663C7.61376 5.3336 7.4001 5.74308 7.3237 6.18763C7.30212 6.22598 7.28881 6.26842 7.28463 6.31223C7.28045 6.35603 7.28549 6.40023 7.29944 6.44197C7.31338 6.4837 7.33591 6.52205 7.36558 6.55455C7.39525 6.58704 7.4314 6.61296 7.4717 6.63063C7.55016 6.66856 7.64031 6.67443 7.72302 6.64698C7.80573 6.61954 7.87449 6.56094 7.9147 6.48363C8.11204 6.26064 8.35759 6.08555 8.6327 5.97163ZM14.3727 4.34663C14.4472 4.29833 14.4994 4.22243 14.518 4.13562C14.5366 4.04881 14.5199 3.95818 14.4717 3.88363C14.4201 3.81299 14.3435 3.76459 14.2576 3.74826C14.1716 3.73192 14.0826 3.74885 14.0087 3.79563C13.5627 3.95263 13.1387 4.16763 12.7487 4.43563C12.5993 4.5503 12.4807 4.70019 12.4034 4.8719C12.3261 5.04361 12.2925 5.23179 12.3057 5.41963C12.3358 5.65109 12.4475 5.8642 12.6207 6.02063C12.998 6.2913 13.395 6.52763 13.8117 6.72963C13.8465 6.76483 13.8879 6.79277 13.9336 6.81184C13.9792 6.83091 14.0282 6.84073 14.0777 6.84073C14.1272 6.84073 14.1762 6.83091 14.2218 6.81184C14.2675 6.79277 14.3089 6.76483 14.3437 6.72963C14.4124 6.65812 14.4508 6.5628 14.4508 6.46363C14.4508 6.36447 14.4124 6.26915 14.3437 6.19763C13.4677 5.12463 12.9937 5.88263 14.3737 4.34763" fill="black"/>
</svg>
