<svg width="24" height="24" viewBox="0 0 24 24" fill="none" xmlns="http://www.w3.org/2000/svg">
<g clip-path="url(#clip0_669_29655)">
<path fill-rule="evenodd" clip-rule="evenodd" d="M18.7475 11.2965C17.5439 9.38909 15.6538 8.01665 13.4675 7.4625C13.3275 7.4625 13.1775 7.4625 13.0375 7.4125C12.4263 7.19595 11.7754 7.11408 11.1295 7.1725C10.8189 7.21117 10.5179 7.28783 10.2265 7.4025H10.0865C8.96265 7.6454 7.90851 8.14015 7.00354 8.8495C6.49319 9.23547 6.02313 9.67202 5.60054 10.1525C5.33601 10.4967 5.1324 10.8836 4.99854 11.2965C4.96793 11.3705 4.96526 11.453 4.99102 11.5288C5.01677 11.6046 5.0692 11.6685 5.13854 11.7085V11.8285C6.32582 13.7383 8.20796 15.1128 10.3885 15.6625C11.4886 15.9346 12.6361 15.9522 13.744 15.7139C14.8518 15.4756 15.8907 14.9878 16.7815 14.2875C17.2829 13.9022 17.7445 13.4742 18.1665 13.0035C18.4525 12.6595 18.6825 12.2735 18.8485 11.8585C18.8683 11.8064 18.8732 11.7497 18.8626 11.695C18.852 11.6402 18.8264 11.5895 18.7885 11.5485C18.8031 11.4624 18.788 11.3739 18.7475 11.2965ZM12.2645 14.5785C11.8273 14.5742 11.3912 14.5341 10.9605 14.4585C10.7728 14.413 10.5909 14.3459 10.4185 14.2585C9.80843 13.8477 9.34998 13.248 9.11354 12.5515C8.82337 11.6745 8.89166 10.7184 9.30354 9.8915C9.55808 9.36342 9.98237 8.93596 10.5085 8.6775C11.2574 8.57075 12.0177 8.57075 12.7665 8.6775C13.2626 8.88149 13.6973 9.21069 14.028 9.63294C14.3588 10.0552 14.5743 10.556 14.6535 11.0865C14.7318 11.4731 14.7317 11.8716 14.6532 12.2582C14.5748 12.6448 14.4196 13.0117 14.1969 13.3373C13.9741 13.6629 13.6884 13.9405 13.3565 14.1537C13.0246 14.3669 12.6533 14.5113 12.2645 14.5785ZM5.75054 11.3975C5.89521 11.1508 6.06587 10.9232 6.26254 10.7145C6.69321 10.3332 7.15821 9.99883 7.65754 9.7115C7.84487 9.6015 8.03887 9.5045 8.23954 9.4205C7.99699 9.98311 7.87188 10.5893 7.87188 11.202C7.87188 11.8147 7.99699 12.4209 8.23954 12.9835C8.38754 13.2735 8.56154 13.5478 8.76154 13.8065C7.56968 13.2716 6.53352 12.4432 5.75054 11.3975ZM16.1985 13.4835C15.7238 13.7551 15.2226 13.9772 14.7025 14.1465C15.0954 13.7135 15.3888 13.1999 15.5622 12.6416C15.7356 12.0833 15.7849 11.4938 15.7065 10.9145C15.6459 10.4041 15.4963 9.90827 15.2645 9.4495C16.371 9.97581 17.3398 10.7523 18.0945 11.7175C17.9493 11.9829 17.7671 12.2263 17.5535 12.4405C17.1404 12.8356 16.6862 13.1852 16.1985 13.4835ZM11.6715 3.1175C11.6115 3.3715 11.5615 3.63217 11.5215 3.8995C11.4968 4.17695 11.4968 4.45605 11.5215 4.7335C11.5582 5.21483 11.6449 5.6865 11.7815 6.1485C11.7841 6.18286 11.7934 6.21638 11.809 6.24711C11.8246 6.27784 11.8461 6.30516 11.8723 6.32749C11.8986 6.34982 11.929 6.36672 11.9618 6.37719C11.9946 6.38766 12.0292 6.39151 12.0635 6.3885C12.0982 6.38737 12.1323 6.37903 12.1635 6.36402C12.1948 6.34902 12.2226 6.32767 12.2452 6.30133C12.2678 6.275 12.2846 6.24425 12.2946 6.21106C12.3047 6.17786 12.3077 6.14293 12.3035 6.1085C12.3035 5.7065 12.4445 5.3255 12.4945 4.9335V3.9105C12.4945 3.7395 12.4445 3.3585 12.4145 3.0765H12.4845C12.7045 3.0315 12.9065 2.9235 13.0665 2.7665C13.2725 2.56205 13.41 2.29887 13.4603 2.0131C13.5106 1.72732 13.4712 1.43298 13.3475 1.1705C13.2458 0.913866 13.0887 0.6828 12.8875 0.493723C12.6863 0.304645 12.446 0.162197 12.1835 0.0764997C11.7843 -0.0513459 11.3509 -0.0180022 10.9758 0.169408C10.6008 0.356819 10.314 0.683438 10.1765 1.0795C9.81454 2.5555 11.6215 3.1175 11.6715 3.1175ZM11.9425 1.1095C12.0678 1.14523 12.1838 1.20772 12.2826 1.29267C12.3813 1.37761 12.4605 1.48298 12.5145 1.6015C12.5835 1.70388 12.6204 1.82454 12.6204 1.948C12.6204 2.07146 12.5835 2.19212 12.5145 2.2945C12.3769 2.40831 12.2113 2.48318 12.0349 2.51132C11.8585 2.53946 11.6778 2.51984 11.5115 2.4545C11.4128 2.42174 11.3216 2.36965 11.2433 2.30126C11.1649 2.23287 11.101 2.14956 11.0552 2.05619C11.0094 1.96281 10.9826 1.86125 10.9765 1.75743C10.9704 1.65361 10.985 1.54961 11.0195 1.4515C11.0942 1.28064 11.2315 1.14483 11.4031 1.07194C11.5747 0.999044 11.7677 0.994594 11.9425 1.0595V1.1095ZM20.5645 4.5225C20.3435 4.7325 20.1225 4.9435 19.9215 5.1745C19.7055 5.40783 19.5115 5.65883 19.3395 5.9275C19.0762 6.40883 18.8622 6.9105 18.6975 7.4325C18.6781 7.46656 18.6658 7.50421 18.6613 7.54317C18.6568 7.58213 18.6603 7.62159 18.6715 7.65917C18.6828 7.69675 18.7015 7.73166 18.7266 7.7618C18.7517 7.79193 18.7826 7.81667 18.8175 7.8345C18.851 7.85431 18.8881 7.86719 18.9266 7.87238C18.9652 7.87757 19.0043 7.87495 19.0419 7.86469C19.0794 7.85443 19.1144 7.83673 19.1449 7.81265C19.1755 7.78856 19.2008 7.75859 19.2195 7.7245C19.5195 7.3625 19.8415 7.0715 20.1425 6.7205C20.2725 6.5705 20.3835 6.4195 20.4935 6.2685C20.6102 6.1105 20.7175 5.9465 20.8155 5.7765C20.9755 5.5065 21.1255 5.2145 21.2665 4.9335H21.3465C21.5845 5.0215 21.8405 5.0455 22.0895 5.0035C22.4132 4.93865 22.7091 4.7759 22.9371 4.53729C23.1652 4.29868 23.3144 3.99574 23.3645 3.6695C23.4259 3.37352 23.4226 3.06779 23.355 2.77318C23.2873 2.47858 23.1569 2.20205 22.9725 1.9625C22.6685 1.59413 22.2316 1.36031 21.7564 1.31165C21.2812 1.26299 20.806 1.4034 20.4335 1.7025C19.1695 2.8165 20.5145 4.4825 20.5645 4.5225ZM22.1285 2.7455C22.2237 2.85793 22.2929 2.99001 22.3311 3.13228C22.3693 3.27455 22.3756 3.42351 22.3495 3.5685C22.3558 3.71011 22.3188 3.85028 22.2437 3.97045C22.1685 4.09062 22.0586 4.18514 21.9285 4.2415C21.7159 4.26269 21.5015 4.22524 21.3087 4.13322C21.1158 4.0412 20.9518 3.89812 20.8345 3.7195C20.7626 3.62321 20.711 3.51324 20.6831 3.39632C20.6551 3.27941 20.6513 3.15802 20.6719 3.03958C20.6925 2.92114 20.737 2.80816 20.8028 2.70756C20.8686 2.60695 20.9543 2.52084 21.0545 2.4545C21.2379 2.36208 21.449 2.34066 21.6473 2.39437C21.8455 2.44808 22.0169 2.57313 22.1285 2.7455ZM3.48154 4.5225C3.70254 4.7325 3.92354 4.9435 4.12454 5.1745C4.32921 5.42583 4.50987 5.6935 4.66654 5.9775C4.92921 6.45817 5.14321 6.96017 5.30854 7.4835C5.32781 7.51752 5.34001 7.55508 5.34439 7.59394C5.34877 7.63279 5.34526 7.67213 5.33405 7.70959C5.32284 7.74705 5.30417 7.78185 5.27916 7.81191C5.25416 7.84197 5.22333 7.86666 5.18854 7.8845C5.15509 7.90431 5.11799 7.91719 5.07945 7.92238C5.04092 7.92757 5.00173 7.92495 4.96423 7.91469C4.92673 7.90443 4.89167 7.88673 4.86114 7.86265C4.83062 7.83856 4.80525 7.80859 4.78654 7.7745C4.48654 7.4125 4.16454 7.1215 3.86354 6.7705C3.74043 6.62468 3.62333 6.47389 3.51254 6.3185C3.39568 6.16128 3.28816 5.99733 3.19054 5.8275C2.99054 5.5455 2.88054 5.2545 2.73954 4.9735H2.65954C2.42212 5.06081 2.16609 5.08493 1.91654 5.0435C1.59828 4.98139 1.30619 4.82463 1.07851 4.59375C0.850835 4.36286 0.698183 4.0686 0.640541 3.7495C0.572313 3.43838 0.575751 3.11581 0.650595 2.80621C0.725439 2.49662 0.869728 2.2081 1.07254 1.9625C1.37662 1.59413 1.81353 1.36031 2.28871 1.31165C2.76388 1.26299 3.23911 1.4034 3.61154 1.7025C4.87654 2.8165 3.53154 4.4825 3.48154 4.5225ZM1.91654 2.7455C1.82136 2.85793 1.75219 2.99001 1.71399 3.13228C1.67578 3.27455 1.66949 3.42351 1.69554 3.5685C1.68932 3.71011 1.72624 3.85028 1.80142 3.97045C1.87659 4.09062 1.98648 4.18514 2.11654 4.2415C2.32918 4.26269 2.54355 4.22524 2.73641 4.13322C2.92927 4.0412 3.09324 3.89812 3.21054 3.7195C3.28251 3.62321 3.33406 3.51324 3.36203 3.39632C3.39 3.27941 3.3938 3.15802 3.3732 3.03958C3.35261 2.92114 3.30804 2.80816 3.24224 2.70756C3.17644 2.60695 3.09079 2.52084 2.99054 2.4545C2.80714 2.36208 2.59606 2.34066 2.39783 2.39437C2.1996 2.44808 2.0282 2.57313 1.91654 2.7455ZM11.6715 20.8815C11.61 20.6228 11.56 20.3616 11.5215 20.0985C11.4969 19.8214 11.4969 19.5426 11.5215 19.2655C11.5582 18.7842 11.6449 18.3125 11.7815 17.8505C11.7874 17.7814 11.8203 17.7174 11.8731 17.6725C11.926 17.6275 11.9944 17.6052 12.0635 17.6105C12.0982 17.6116 12.1323 17.62 12.1635 17.635C12.1948 17.65 12.2226 17.6713 12.2452 17.6977C12.2678 17.724 12.2846 17.7547 12.2946 17.7879C12.3047 17.8211 12.3077 17.8561 12.3035 17.8905C12.3035 18.2925 12.4445 18.6735 12.4945 19.0655V20.0885C12.4945 20.2595 12.4445 20.6405 12.4145 20.9215H12.4845C12.7045 20.9675 12.9065 21.0755 13.0665 21.2335C13.2722 21.4379 13.4097 21.7009 13.46 21.9864C13.5103 22.272 13.471 22.5661 13.3475 22.8285C13.2437 23.0872 13.0835 23.3196 12.8787 23.5088C12.674 23.6981 12.4297 23.8394 12.1635 23.9225C11.7643 24.0503 11.3309 24.017 10.9558 23.8296C10.5808 23.6422 10.294 23.3156 10.1565 22.9195C9.81454 21.4435 11.6215 20.8815 11.6715 20.8815ZM11.9425 22.8895C12.0678 22.8538 12.1838 22.7913 12.2826 22.7063C12.3813 22.6214 12.4605 22.516 12.5145 22.3975C12.5835 22.2951 12.6204 22.1745 12.6204 22.051C12.6204 21.9275 12.5835 21.8069 12.5145 21.7045C12.3769 21.5907 12.2113 21.5158 12.0349 21.4877C11.8585 21.4595 11.6778 21.4792 11.5115 21.5445C11.4128 21.5773 11.3216 21.6294 11.2433 21.6977C11.1649 21.7661 11.101 21.8494 11.0552 21.9428C11.0094 22.0362 10.9826 22.1377 10.9765 22.2416C10.9704 22.3454 10.985 22.4494 11.0195 22.5475C11.0942 22.7184 11.2315 22.8542 11.4031 22.9271C11.5747 23 11.7677 23.0044 11.9425 22.9395V22.8895ZM20.5645 19.4765C20.3404 19.2691 20.1258 19.0515 19.9215 18.8245C19.7058 18.5911 19.511 18.3391 19.3395 18.0715C19.0771 17.5919 18.8621 17.0879 18.6975 16.5665C18.6781 16.5324 18.6658 16.4948 18.6613 16.4558C18.6568 16.4169 18.6603 16.3774 18.6715 16.3398C18.6828 16.3023 18.7015 16.2673 18.7266 16.2372C18.7517 16.2071 18.7826 16.1823 18.8175 16.1645C18.851 16.1447 18.8881 16.1318 18.9266 16.1266C18.9652 16.1214 19.0043 16.124 19.0419 16.1343C19.0794 16.1446 19.1144 16.1623 19.1449 16.1864C19.1755 16.2104 19.2008 16.2404 19.2195 16.2745C19.5195 16.6365 19.8415 16.9275 20.1425 17.2785C20.2725 17.4285 20.3835 17.5795 20.4935 17.7305C20.6102 17.8885 20.7175 18.0525 20.8155 18.2225C20.9755 18.4925 21.1255 18.7845 21.2665 19.0655H21.3465C21.5845 18.9775 21.8405 18.9535 22.0895 18.9955C22.4132 19.0603 22.7091 19.2231 22.9371 19.4617C23.1652 19.7003 23.3144 20.0033 23.3645 20.3295C23.4259 20.6255 23.4226 20.9312 23.355 21.2258C23.2873 21.5204 23.1569 21.7969 22.9725 22.0365C22.6685 22.4049 22.2316 22.6387 21.7564 22.6873C21.2812 22.736 20.806 22.5956 20.4335 22.2965C19.1695 21.1825 20.5145 19.5165 20.5645 19.4765ZM22.1285 21.2535C22.2237 21.1411 22.2929 21.009 22.3311 20.8667C22.3693 20.7244 22.3756 20.5755 22.3495 20.4305C22.3558 20.2889 22.3188 20.1487 22.2437 20.0286C22.1685 19.9084 22.0586 19.8139 21.9285 19.7575C21.7159 19.7363 21.5015 19.7738 21.3087 19.8658C21.1158 19.9578 20.9518 20.1009 20.8345 20.2795C20.7626 20.3758 20.711 20.4858 20.6831 20.6027C20.6551 20.7196 20.6513 20.841 20.6719 20.9594C20.6925 21.0779 20.737 21.1908 20.8028 21.2914C20.8686 21.3921 20.9543 21.4782 21.0545 21.5445C21.2379 21.6369 21.449 21.6583 21.6473 21.6046C21.8455 21.5509 22.0169 21.4259 22.1285 21.2535ZM3.48154 19.4765C3.70254 19.2665 3.92354 19.0555 4.12454 18.8245C4.32921 18.5732 4.50987 18.3055 4.66654 18.0215C4.92921 17.5402 5.14321 17.0385 5.30854 16.5165C5.32798 16.4824 5.3403 16.4448 5.34477 16.4058C5.34924 16.3669 5.34576 16.3274 5.33454 16.2898C5.32333 16.2522 5.3046 16.2173 5.27951 16.1872C5.25441 16.1571 5.22347 16.1323 5.18854 16.1145C5.15509 16.0947 5.11799 16.0818 5.07945 16.0766C5.04092 16.0714 5.00173 16.074 4.96423 16.0843C4.92673 16.0946 4.89167 16.1123 4.86114 16.1364C4.83062 16.1604 4.80525 16.1904 4.78654 16.2245C4.48654 16.5865 4.16454 16.8775 3.86354 17.2285C3.73354 17.3785 3.62254 17.5295 3.51254 17.6805C3.39568 17.8377 3.28816 18.0017 3.19054 18.1715C3.03054 18.4425 2.88054 18.7335 2.73954 19.0155H2.65954C2.42212 18.9282 2.16609 18.9041 1.91654 18.9455C1.59691 19.0083 1.30383 19.1665 1.07601 19.3993C0.848189 19.6321 0.696349 19.9286 0.640541 20.2495C0.572313 20.5606 0.575751 20.8832 0.650595 21.1928C0.725439 21.5024 0.869728 21.7909 1.07254 22.0365C1.37662 22.4049 1.81353 22.6387 2.28871 22.6873C2.76388 22.736 3.23911 22.5956 3.61154 22.2965C4.87654 21.1825 3.53154 19.5165 3.48154 19.4765ZM1.91654 21.2535C1.82136 21.1411 1.75219 21.009 1.71399 20.8667C1.67578 20.7244 1.66949 20.5755 1.69554 20.4305C1.68932 20.2889 1.72624 20.1487 1.80142 20.0286C1.87659 19.9084 1.98648 19.8139 2.11654 19.7575C2.32918 19.7363 2.54355 19.7738 2.73641 19.8658C2.92927 19.9578 3.09324 20.1009 3.21054 20.2795C3.28251 20.3758 3.33406 20.4858 3.36203 20.6027C3.39 20.7196 3.3938 20.841 3.3732 20.9594C3.35261 21.0779 3.30804 21.1908 3.24224 21.2914C3.17644 21.3921 3.09079 21.4782 2.99054 21.5445C2.80714 21.6369 2.59606 21.6583 2.39783 21.6046C2.1996 21.5509 2.0282 21.4259 1.91654 21.2535Z" fill="black"/>
</g>
<defs>
<clipPath id="clip0_669_29655">
<rect width="24" height="24" fill="white"/>
</clipPath>
</defs>
</svg>
