<svg width="24" height="24" viewBox="0 0 24 24" fill="none" xmlns="http://www.w3.org/2000/svg">
<g clip-path="url(#clip0_669_29664)">
<path fill-rule="evenodd" clip-rule="evenodd" d="M23.9104 15.3488C23.9704 14.8694 24.0004 14.3894 24.0004 13.9088C24.0004 11.3588 23.6804 11.4887 23.0004 11.7287C22.4418 11.925 21.9055 12.1797 21.4004 12.4887C21.0833 12.6928 20.7794 12.9166 20.4904 13.1588C20.1804 13.4288 19.8904 13.7088 19.5904 13.9788C18.7104 13.8288 17.8404 13.6587 16.9504 13.5287C16.5204 13.4687 16.0804 13.4288 15.6404 13.3888H13.3604C12.6004 13.3888 11.5904 13.5887 10.7004 13.6987C11.0784 13.4187 11.4351 13.1154 11.7704 12.7888C12.0197 12.5121 12.2464 12.2188 12.4504 11.9088C13.8504 9.90875 13.6804 10.5788 13.6804 10.2988C13.7504 9.70875 13.8304 9.12875 13.8604 8.52875V7.76875C13.8524 7.52087 13.829 7.27373 13.7904 7.02875C13.7104 6.43875 13.5704 5.87875 13.4604 5.28875C13.4632 5.20817 13.4344 5.12969 13.3803 5.06994C13.3262 5.0102 13.2509 4.9739 13.1704 4.96875C13.0868 4.97205 13.0078 5.00794 12.9504 5.06875C12.9001 5.0666 12.85 5.07532 12.8034 5.0943C12.7568 5.11328 12.7149 5.14209 12.6804 5.17875C12.3004 5.47875 11.9104 5.74875 11.5304 6.05875L11.0704 6.45875C10.9231 6.59675 10.7831 6.74342 10.6504 6.89875C10.4504 7.12875 10.2804 7.35875 10.1104 7.58875C9.1104 7.58875 8.0504 7.49875 7.0104 7.46875H5.5904C5.1104 7.46875 4.6504 7.46875 4.1804 7.52875C3.3404 7.58875 2.5204 7.68875 1.6904 7.78875C1.73278 7.7407 1.77283 7.69064 1.8104 7.63875C1.88409 7.53504 1.94771 7.42454 2.0004 7.30875C2.1204 7.03875 2.1704 6.76875 2.2704 6.48875C2.30123 6.44816 2.32334 6.40163 2.33534 6.35209C2.34734 6.30255 2.34897 6.25107 2.34014 6.20086C2.33131 6.15066 2.3122 6.10283 2.28401 6.06036C2.25582 6.01789 2.21916 5.98171 2.17632 5.95407C2.13349 5.92644 2.08541 5.90795 2.0351 5.89978C1.98479 5.8916 1.93333 5.8939 1.88395 5.90655C1.83457 5.91919 1.78834 5.94191 1.74815 5.97326C1.70796 6.00461 1.67468 6.04393 1.6504 6.08875C1.4304 6.29875 1.2204 6.47875 1.0204 6.69875C0.931624 6.78355 0.848134 6.87372 0.770403 6.96875C0.717737 7.05208 0.67107 7.13875 0.630403 7.22875C0.34598 7.96806 0.213343 8.75708 0.240403 9.54875C0.170403 10.4388 0.140403 11.3387 0.100403 12.2287C0.100403 12.4687 0.000403437 12.9087 0.000403437 13.2787C-0.00475054 13.5153 0.039527 13.7503 0.130403 13.9688C0.215403 14.1088 0.327403 14.2318 0.460403 14.3288C0.282686 15.0771 0.17555 15.8404 0.140403 16.6088C0.127167 17.15 0.153907 17.6915 0.220403 18.2288C0.560403 21.3888 -0.959597 21.2288 4.4004 21.2288C5.1604 21.2288 5.9204 21.2287 6.6704 21.1287C7.8104 21.0587 8.9404 20.9188 10.0704 20.8388H10.1904C11.2404 20.9188 12.2804 21.0588 13.3404 21.1088H15.7104L18.5504 20.8388C18.6368 20.8244 18.7154 20.7798 18.772 20.713C18.8287 20.6461 18.8598 20.5614 18.8598 20.4738C18.8598 20.3861 18.8287 20.3014 18.772 20.2345C18.7154 20.1677 18.6368 20.1231 18.5504 20.1088L15.6704 19.9788C14.8904 19.9788 14.1104 19.9088 13.3304 19.9188C12.5504 19.9288 11.6104 20.0088 10.7504 20.0988C10.8304 19.4988 10.9104 18.9188 10.9504 18.3188V16.5788C10.8704 15.8988 10.7204 15.2388 10.5904 14.5788L15.5904 14.7388C20.5904 14.9288 19.3104 14.4788 19.2804 16.6788C19.2791 17.1254 19.3024 17.5721 19.3504 18.0188C19.4004 18.6788 19.4904 19.3288 19.4804 20.0188C19.4771 20.0654 19.4771 20.1121 19.4804 20.1588C19.4804 20.1588 19.3904 20.2588 19.3504 20.3188C19.2905 20.3803 19.257 20.4629 19.257 20.5487C19.257 20.6346 19.2905 20.7172 19.3504 20.7788C19.4131 20.8364 19.4952 20.8684 19.5804 20.8684C19.6656 20.8684 19.7477 20.8364 19.8104 20.7788C20.3304 20.4088 20.8704 20.0887 21.3804 19.7087C21.6004 19.5487 21.8004 19.3688 22.0104 19.1888C22.2204 19.0088 22.4004 18.8188 22.5904 18.6188C22.7804 18.4188 22.9504 18.1888 23.1404 17.9788C23.9104 17.8588 23.9004 15.4888 23.9104 15.3488ZM11.4504 7.77875C11.6217 7.65475 11.7817 7.51808 11.9304 7.36875C12.0804 7.22075 12.2204 7.06408 12.3504 6.89875C12.4904 6.72875 12.6104 6.53875 12.7404 6.35875C12.7404 6.59875 12.6704 6.83875 12.6604 7.07875C12.6504 7.31875 12.6604 7.57875 12.6604 7.82875C12.6604 8.07875 12.6604 8.32875 12.7304 8.57875C12.7304 9.05875 12.8604 9.57875 12.9204 9.99875H12.8404C12.4104 10.3588 12.0004 10.7087 11.6004 11.1087C11.4404 11.2687 11.2804 11.4388 11.1304 11.6188C11.0011 11.7754 10.8811 11.9387 10.7704 12.1087C10.7704 11.8587 10.8504 11.6087 10.8704 11.3587C10.8856 11.1123 10.8856 10.8652 10.8704 10.6188C10.8686 10.3746 10.8519 10.1308 10.8204 9.88875C10.7504 9.34875 10.6204 8.82875 10.5104 8.29875C10.8337 8.14208 11.1471 7.96875 11.4504 7.77875ZM4.2004 8.70875H5.6204C6.1004 8.70875 6.5604 8.70875 7.0404 8.63875C10.5004 8.41875 9.7904 7.96875 9.6604 9.96875V10.6988C9.6604 10.9388 9.6604 11.1788 9.7104 11.4188C9.7704 11.9788 9.8604 12.5288 9.9104 13.0888C9.9095 13.1389 9.91878 13.1886 9.93769 13.235C9.9566 13.2815 9.98474 13.3235 10.0204 13.3587V13.4288C9.4104 13.4288 8.7904 13.4988 8.1704 13.5188H3.1104C2.71409 13.5424 2.31672 13.5424 1.9204 13.5188C1.74886 13.5031 1.5785 13.4764 1.4104 13.4387C1.3504 13.4387 1.2604 13.4387 1.2504 13.3787V12.2088C1.2004 11.3188 1.1304 10.4388 1.1204 9.54875V8.54875C2.1204 8.58875 3.1504 8.67875 4.2004 8.70875ZM9.9304 20.0788C8.8604 19.9688 7.8004 19.9688 6.7304 19.9688H5.3004C4.8704 19.9688 4.3604 19.9688 3.8804 20.0388C3.0204 20.1088 2.1704 20.2087 1.3204 20.2987C1.3204 19.5087 1.4004 18.7188 1.3904 17.9188C1.3904 17.3988 1.3904 16.8688 1.3304 16.3488C1.2704 15.8288 1.2504 15.2387 1.2204 14.6987C1.8484 14.8047 2.4854 14.8387 3.1204 14.7987C4.5704 14.6887 6.0104 14.6188 7.4504 14.4988C8.2204 14.4288 8.9904 14.3388 9.7504 14.2288C9.79574 14.9981 9.79574 15.7681 9.7504 16.5388V17.3888C9.7504 17.6688 9.7504 17.9588 9.8004 18.2488C9.8004 18.8688 9.9304 19.4688 9.9804 20.0888L9.9304 20.0788ZM21.8104 17.6388C21.4591 17.8988 21.1257 18.1821 20.8104 18.4888C20.6404 18.6588 20.5004 18.8488 20.3504 19.0288C20.4004 18.6588 20.4904 18.2988 20.5104 17.9288C20.5304 17.5588 20.5104 17.3488 20.5104 17.0588C20.5018 16.7777 20.4785 16.4973 20.4404 16.2188C20.3704 15.6687 20.2704 15.1288 20.1904 14.5888C20.5869 14.4338 20.9685 14.243 21.3304 14.0188C21.6404 13.8088 21.9371 13.5821 22.2204 13.3388L22.8604 12.8088L22.7704 13.5688C22.7704 13.8688 22.7704 14.1587 22.7104 14.4587C22.6504 14.7587 22.7104 15.0488 22.7104 15.3488C22.7104 15.8588 22.7104 16.3487 22.7904 16.8787C22.4904 17.1287 22.1404 17.3788 21.8104 17.6388Z" fill="black"/>
<path fill-rule="evenodd" clip-rule="evenodd" d="M14.09 12.6296C14.5305 12.7014 14.9814 12.6741 15.41 12.5496C16.22 12.2496 15.89 11.5496 15.16 11.4096C14.6984 11.3055 14.2152 11.362 13.79 11.5696C13 11.9696 13.47 12.4596 14.09 12.6296ZM3.62002 5.75956C4.06102 5.82456 4.51002 5.79756 4.94002 5.67956C5.75002 5.37956 5.42002 4.67956 4.69002 4.52956C4.22821 4.43023 3.74651 4.48649 3.32002 4.68956C2.53002 5.07956 3.00002 5.58956 3.62002 5.75956ZM16.16 10.8796C16.6005 10.9514 17.0514 10.9241 17.48 10.7996C18.28 10.4996 17.96 9.79956 17.22 9.65956C16.7615 9.56098 16.2832 9.61725 15.86 9.81956C15.06 10.2096 15.54 10.7196 16.16 10.8796ZM5.69002 3.96956C6.12202 4.05956 6.56802 4.05956 7.00002 3.96956C7.80002 3.66956 7.48002 2.96956 6.74002 2.81956C6.28575 2.72015 5.81139 2.77285 5.39002 2.96956C4.59002 3.32956 5.07002 3.83956 5.69002 3.96956ZM18.39 12.6296C18.83 12.7006 19.281 12.6736 19.71 12.5496C20.51 12.2496 20.19 11.5496 19.46 11.4096C18.9984 11.3055 18.5152 11.362 18.09 11.5696C17.3 11.9696 17.77 12.4596 18.39 12.6296ZM7.92002 5.75956C8.36102 5.82456 8.81002 5.79756 9.24002 5.67956C10.04 5.37956 9.72002 4.67956 8.98002 4.52956C8.52147 4.43098 8.04317 4.48725 7.62002 4.68956C6.83002 5.07956 7.30002 5.58956 7.92002 5.75956ZM20.46 10.8796C20.9 10.9506 21.351 10.9236 21.78 10.7996C22.58 10.4996 22.25 9.79956 21.52 9.65956C21.0581 9.56174 20.5769 9.61794 20.15 9.81956C19.36 10.2096 19.84 10.7196 20.46 10.8796ZM10 3.96956C10.432 4.05956 10.878 4.05956 11.31 3.96956C12.11 3.66956 11.79 2.96956 11.05 2.81956C10.5892 2.71862 10.1081 2.77131 9.68002 2.96956C8.89002 3.32956 9.37002 3.83956 10 3.96956Z" fill="black"/>
</g>
<defs>
<clipPath id="clip0_669_29664">
<rect width="24" height="24" fill="white"/>
</clipPath>
</defs>
</svg>
