<svg width="24" height="24" viewBox="0 0 24 24" fill="none" xmlns="http://www.w3.org/2000/svg">
<g clip-path="url(#clip0_676_30261)">
<path fill-rule="evenodd" clip-rule="evenodd" d="M14.6667 14.7541C14.2268 15.3176 13.9183 15.9722 13.7637 16.6701C13.763 16.7435 13.789 16.8147 13.837 16.8702C13.885 16.9257 13.9517 16.9617 14.0244 16.9716C14.0971 16.9814 14.1709 16.9643 14.2319 16.9235C14.293 16.8828 14.337 16.8211 14.3557 16.7501C14.5621 16.2172 14.8802 15.7348 15.2887 15.3351C15.9807 14.7419 16.847 14.3898 17.7567 14.3321C18.5143 14.2122 19.2905 14.3312 19.9773 14.6728C20.6641 15.0144 21.2273 15.5616 21.5887 16.2381C21.6338 16.3053 21.7013 16.3542 21.7791 16.3761C21.857 16.3981 21.9401 16.3917 22.0136 16.3581C22.0872 16.3244 22.1464 16.2657 22.1806 16.1925C22.2149 16.1192 22.222 16.0362 22.2007 15.9581C21.9109 15.2486 21.4432 14.6255 20.8428 14.1491C20.2423 13.6726 19.5294 13.3587 18.7725 13.2377C18.0156 13.1166 17.2403 13.1925 16.5212 13.4579C15.8021 13.7233 15.1634 14.1704 14.6667 14.7541ZM22.6527 20.5121C22.5771 20.4967 22.4985 20.5109 22.4332 20.5518C22.3678 20.5928 22.3207 20.6574 22.3017 20.7321C22.2266 20.9384 22.1145 21.1292 21.9707 21.2951C21.5969 21.7998 21.1025 22.2027 20.5329 22.4672C19.9633 22.7316 19.3365 22.8492 18.7097 22.8091C17.934 22.8457 17.1657 22.6443 16.5076 22.232C15.8496 21.8197 15.3332 21.2161 15.0277 20.5021L16.8037 21.2851C16.869 21.3276 16.9484 21.3424 17.0245 21.3262C17.1007 21.3101 17.1673 21.2644 17.2097 21.1991C17.2522 21.1339 17.2669 21.0545 17.2508 20.9783C17.2347 20.9022 17.189 20.8356 17.1237 20.7931C16.4861 20.2637 15.8161 19.7744 15.1177 19.3281C14.8677 19.1881 14.5667 18.9271 14.1747 19.0381C13.5027 19.1981 13.7237 20.0401 13.0117 21.8061V21.8661C13.0117 22.0371 13.1317 22.1271 13.2817 22.1671C13.3283 22.1969 13.3824 22.2127 13.4377 22.2127C13.493 22.2127 13.5471 22.1969 13.5937 22.1671C13.9117 21.7161 14.1807 21.2311 14.3957 20.7231C14.6242 21.4561 15.0358 22.1187 15.5917 22.6483C16.1475 23.1779 16.8292 23.557 17.5724 23.7498C18.3155 23.9426 19.0955 23.9427 19.8387 23.7501C20.5819 23.5575 21.2637 23.1786 21.8197 22.6491C22.2407 22.2481 23.3247 20.6621 22.6527 20.5121Z" fill="black"/>
<path fill-rule="evenodd" clip-rule="evenodd" d="M23.746 15.8674C23.456 15.6574 23.285 15.8674 22.332 17.6634L20.195 16.5694C20.1322 16.5299 20.0567 16.5155 19.9837 16.5292C19.9107 16.5428 19.8456 16.5835 19.8013 16.6431C19.7569 16.7027 19.7367 16.7768 19.7447 16.8506C19.7526 16.9245 19.7881 16.9926 19.844 17.0414C20.5858 17.755 21.3991 18.3904 22.271 18.9374C22.405 18.9918 22.5526 19.0027 22.6931 18.9686C22.8336 18.9345 22.9599 18.8571 23.054 18.7474C23.144 18.6364 23.174 18.5864 23.676 16.9714C23.886 16.3894 24.248 16.0384 23.746 15.8674ZM11.457 20.9644C10.354 20.9644 9.25403 20.8464 8.17603 20.6124C7.66257 20.4991 7.16883 20.3101 6.71103 20.0514L6.48103 19.9014C-2.54997 15.7364 1.39403 1.94142 9.49003 0.838416C10.316 0.626145 11.1781 0.59544 12.017 0.748416C12.065 0.708401 12.0993 0.654467 12.1152 0.594085C12.1311 0.533703 12.1279 0.469863 12.1059 0.411411C12.0839 0.352959 12.0443 0.302788 11.9926 0.267851C11.9408 0.232913 11.8795 0.214938 11.817 0.216416C6.39003 -0.565584 2.56803 2.86542 0.632028 8.01242C-0.263259 10.4043 -0.205522 13.0487 0.793309 15.3992C1.79214 17.7497 3.65574 19.6267 5.99903 20.6424C7.72443 21.5026 9.65998 21.851 11.577 21.6464C11.6676 21.6305 11.7481 21.5793 11.8009 21.504C11.8537 21.4287 11.8744 21.3355 11.8585 21.2449C11.8426 21.1543 11.7914 21.0738 11.7161 21.021C11.6408 20.9682 11.5476 20.9475 11.457 20.9634" fill="black"/>
<path fill-rule="evenodd" clip-rule="evenodd" d="M12.1099 16.4484C10.4299 16.4868 8.75004 16.366 7.09286 16.0874C6.78736 14.6406 6.66973 13.1604 6.74286 11.6834C10.9299 12.0334 15.1429 11.9494 19.3129 11.4324C20.3159 11.2624 20.1659 10.6194 19.2529 10.6794C18.1089 10.7794 16.6339 10.8194 14.9989 10.8194C15.0506 9.19353 14.8509 7.56939 14.4069 6.00444H17.8979C17.9883 6.00444 18.075 5.96851 18.139 5.90456C18.2029 5.84061 18.2389 5.75388 18.2389 5.66344C18.2389 5.573 18.2029 5.48627 18.139 5.42232C18.075 5.35837 17.9883 5.32244 17.8979 5.32244C16.8949 5.32244 15.5509 5.16244 14.0759 5.03244C13.8259 4.31944 13.5539 3.62744 13.2839 2.92444C13.254 2.85787 13.201 2.80441 13.1347 2.77398C13.0684 2.74355 12.9934 2.73823 12.9234 2.75901C12.8535 2.7798 12.7935 2.82526 12.7546 2.88696C12.7157 2.94866 12.7005 3.02239 12.7119 3.09444C12.8319 3.70744 12.9419 4.32944 13.0619 4.94144C11.2569 4.80144 9.60186 4.71144 7.88586 4.74144C8.28477 3.56958 8.996 2.52884 9.94286 1.73144C9.94286 1.40944 9.72186 1.28944 8.42786 2.20244C7.76621 2.96865 7.24336 3.84445 6.88286 4.79044C6.08986 4.79044 5.34786 4.90044 4.66586 4.99144C3.40186 5.38244 3.39186 5.63344 4.04386 5.83444C4.87319 5.77444 5.70253 5.77444 6.53186 5.83444C6.0836 7.40482 5.80764 9.01933 5.70886 10.6494C4.51486 10.6494 3.43186 10.5594 2.50886 10.4894C1.50486 10.8494 1.50486 11.1014 2.50886 11.2214C3.51186 11.3414 4.51486 11.5024 5.67886 11.6124C5.62483 13.0805 5.77322 14.5489 6.11986 15.9764L3.38186 15.5664C2.61886 15.6664 2.27786 16.2274 4.19386 16.6594C4.53486 16.7594 4.86586 16.8594 5.19686 16.9394C7.01286 17.3614 6.06986 16.6994 7.02286 18.5154C7.20153 18.8628 7.40219 19.1971 7.62486 19.5184C8.08686 20.5214 8.46786 20.4614 8.82886 19.8284C8.21639 19.0872 7.75015 18.2365 7.45486 17.3214C9.02486 17.4874 10.6109 17.4444 12.1699 17.1914C12.2684 17.1835 12.3597 17.1367 12.4238 17.0614C12.4878 16.9861 12.5193 16.8885 12.5114 16.7899C12.5034 16.6914 12.4566 16.6001 12.3813 16.536C12.306 16.472 12.2084 16.4405 12.1099 16.4484ZM7.55486 5.83444C8.87886 5.83444 12.5709 5.99444 13.2629 6.00444C13.5539 7.49944 13.9959 8.36244 14.3369 10.8204C12.6809 10.8204 7.58486 10.6604 6.83286 10.6404C6.92986 9.01944 7.17086 7.41044 7.55486 5.83444Z" fill="black"/>
<path fill-rule="evenodd" clip-rule="evenodd" d="M18.1576 2.89637C17.1302 2.13625 16.0395 1.46547 14.8976 0.891366C14.8194 0.861631 14.7329 0.861736 14.6547 0.89166C14.5765 0.921584 14.512 0.979236 14.4736 1.05363C14.4352 1.12802 14.4254 1.21395 14.4463 1.29505C14.4671 1.37614 14.5171 1.44673 14.5866 1.49337C15.2113 1.86403 15.8133 2.2687 16.3926 2.70737C17.6961 3.59861 18.6831 4.88045 19.2116 6.36837C20.0356 8.02743 20.4352 9.86495 20.3746 11.7164C20.3783 11.7882 20.4076 11.8563 20.4572 11.9084C20.5068 11.9605 20.5733 11.9932 20.6449 12.0004C20.7164 12.0077 20.7882 11.989 20.8472 11.948C20.9063 11.9069 20.9486 11.846 20.9666 11.7764C21.2303 10.1797 21.1134 8.54342 20.6252 7.00054C20.1371 5.45766 19.2917 4.0508 18.1576 2.89637Z" fill="black"/>
</g>
<defs>
<clipPath id="clip0_676_30261">
<rect width="24" height="24" fill="white"/>
</clipPath>
</defs>
</svg>
