<svg width="24" height="24" viewBox="0 0 24 24" fill="none" xmlns="http://www.w3.org/2000/svg">
<g clip-path="url(#clip0_669_29668)">
<path d="M4.46695 17.463C4.32695 17.243 4.15695 17.043 4.00695 16.843C3.86348 16.6643 3.7099 16.494 3.54695 16.333C3.44609 16.2346 3.32727 16.1565 3.19695 16.103C3.16237 16.0842 3.12433 16.0727 3.08514 16.0691C3.04596 16.0655 3.00646 16.0699 2.96904 16.0821C2.93162 16.0942 2.89707 16.1139 2.86748 16.1398C2.8379 16.1658 2.8139 16.1975 2.79695 16.233C2.67695 16.473 2.79695 16.343 3.15695 17.343C3.21695 17.493 3.26695 17.663 3.33695 17.813C3.45695 18.0496 3.59695 18.273 3.75695 18.483C4.03895 18.849 4.37695 19.169 4.75695 19.433C4.7878 19.4657 4.825 19.4917 4.86627 19.5095C4.90754 19.5273 4.95201 19.5365 4.99695 19.5365C5.0419 19.5365 5.08637 19.5273 5.12764 19.5095C5.16891 19.4917 5.20611 19.4657 5.23695 19.433C5.30046 19.3692 5.33612 19.2829 5.33612 19.193C5.33612 19.103 5.30046 19.0167 5.23695 18.953C5.03347 18.6329 4.85302 18.2987 4.69695 17.953C4.63144 17.7846 4.5546 17.6209 4.46695 17.463ZM18.685 17.303C18.545 17.083 18.375 16.883 18.225 16.683C18.0815 16.5043 17.9279 16.334 17.765 16.173C17.6652 16.0752 17.5504 15.9942 17.425 15.933C17.3519 15.8981 17.2681 15.8933 17.1914 15.9195C17.1148 15.9456 17.0515 16.0007 17.015 16.073C16.9806 16.1446 16.976 16.2269 17.0022 16.3019C17.0285 16.3769 17.0834 16.4384 17.155 16.473L17.375 17.173C17.435 17.333 17.485 17.503 17.555 17.653C17.675 17.8896 17.815 18.113 17.975 18.323C18.257 18.689 18.595 19.009 18.975 19.273C19.0398 19.3306 19.1241 19.3612 19.2108 19.3587C19.2975 19.3561 19.3799 19.3206 19.4412 19.2592C19.5025 19.1979 19.5381 19.1155 19.5407 19.0288C19.5432 18.9422 19.5126 18.8578 19.455 18.793C19.2491 18.4759 19.0717 18.1413 18.925 17.793C18.86 17.6227 18.7797 17.4587 18.685 17.303ZM5.34695 16.203C5.46095 16.4276 5.59762 16.6376 5.75695 16.833C6.01195 17.1 6.30495 17.329 6.62695 17.513C6.69177 17.5706 6.77614 17.6012 6.86282 17.5987C6.94949 17.5961 7.03191 17.5606 7.09323 17.4992C7.15454 17.4379 7.19011 17.3555 7.19266 17.2688C7.19522 17.1822 7.16455 17.0978 7.10695 17.033C6.92695 16.753 6.82695 16.453 6.65695 16.173C6.48695 15.893 6.41695 15.833 6.31695 15.663C6.21695 15.493 5.89695 15.163 5.75695 15.013L5.65695 14.883C5.44695 14.753 5.30695 14.773 5.24695 14.883C5.18695 14.993 5.01695 14.843 5.34695 16.203ZM20.015 16.673C20.2743 16.9396 20.5643 17.1663 20.885 17.353C20.9515 17.4148 21.0391 17.4492 21.13 17.4492C21.2208 17.4492 21.3084 17.4148 21.375 17.353C21.4385 17.2892 21.4741 17.2029 21.4741 17.113C21.4741 17.023 21.4385 16.9367 21.375 16.873C21.195 16.593 21.085 16.293 20.915 16.013C20.745 15.733 20.675 15.673 20.575 15.503L20.015 14.843C19.955 14.783 19.935 14.733 19.915 14.723C19.705 14.593 19.575 14.613 19.505 14.723C19.435 14.833 19.275 14.723 19.615 16.063C19.7256 16.281 19.859 16.4843 20.015 16.673Z" fill="black"/>
<path d="M22.1946 12.8522L22.0146 12.6622C21.6512 12.3738 21.2326 12.1628 20.7846 12.0422C19.9083 11.8287 19.0044 11.7511 18.1046 11.8122C17.4634 11.8462 16.8351 12.0059 16.2556 12.2822C15.1906 12.892 14.3626 13.8433 13.9056 14.9822C13.7656 14.5422 13.6356 14.0822 13.5556 13.8222C13.4982 13.6334 13.3951 13.4617 13.2556 13.3222C13.1513 13.2619 13.0354 13.2244 12.9156 13.2122C12.5838 13.1713 12.2498 13.1513 11.9156 13.1522C11.5741 13.1399 11.2338 13.1978 10.9156 13.3222C10.7929 13.4129 10.6896 13.5229 10.6056 13.6522C10.4402 13.9722 10.3069 14.3055 10.2056 14.6522C10.1256 14.9122 10.0566 15.1922 9.99656 15.4522C9.39294 14.1431 8.32344 13.1057 6.99655 12.5422C6.22923 12.2757 5.40855 12.2002 4.60548 12.3222C3.80242 12.4441 3.04116 12.7599 2.38756 13.2422C2.3295 13.2773 2.28325 13.329 2.25473 13.3906C2.2262 13.4522 2.2167 13.5209 2.22744 13.5879C2.23818 13.6549 2.26867 13.7172 2.31501 13.7667C2.36135 13.8163 2.42142 13.851 2.48756 13.8662C2.57535 13.889 2.66857 13.8768 2.74756 13.8322C3.31102 13.4361 3.96307 13.1843 4.64651 13.0989C5.32996 13.0134 6.02392 13.097 6.66755 13.3422C7.27057 13.6416 7.80497 14.0628 8.23699 14.5791C8.66901 15.0955 8.98927 15.6958 9.17756 16.3422C9.29873 16.9683 9.25556 17.6152 9.05226 18.2196C8.84896 18.8241 8.49247 19.3656 8.01756 19.7912C7.54558 20.266 6.96353 20.6167 6.32322 20.8121C5.6829 21.0075 5.00421 21.0416 4.34756 20.9112C3.52068 20.7093 2.75749 20.3036 2.12756 19.7312C1.46692 19.1843 1.00335 18.4362 0.807555 17.6012C0.727027 17.1167 0.761278 16.6201 0.907555 16.1512C1.05381 15.6612 1.27293 15.196 1.55756 14.7712C1.58205 14.7396 1.59974 14.7033 1.60952 14.6645C1.61929 14.6257 1.62095 14.5853 1.61437 14.5459C1.6078 14.5065 1.59314 14.4688 1.57132 14.4353C1.54949 14.4018 1.52097 14.3732 1.48756 14.3512C1.45543 14.3281 1.41905 14.3115 1.38051 14.3025C1.34197 14.2935 1.30202 14.2923 1.26298 14.2988C1.22394 14.3053 1.18658 14.3194 1.15304 14.3405C1.11949 14.3615 1.09044 14.3889 1.06756 14.4212C0.714167 14.8935 0.440542 15.4205 0.257555 15.9812C0.0427667 16.5345 -0.0394289 17.1304 0.017555 17.7212C0.172766 18.7405 0.661615 19.6795 1.40755 20.3912C2.12854 21.1341 3.02673 21.6813 4.01756 21.9812C4.85114 22.1737 5.71964 22.1548 6.54401 21.926C7.36838 21.6972 8.12244 21.2658 8.73756 20.6712C9.30388 20.1781 9.74769 19.56 10.0339 18.8657C10.3201 18.1715 10.4408 17.4202 10.3866 16.6712C10.6966 16.4712 10.2166 16.6712 10.9666 15.1812C11.5266 14.0512 11.0666 14.1812 12.5966 14.2712C12.8366 14.7712 13.2666 15.6912 13.5266 16.1512C13.5266 16.3012 13.4666 16.4512 13.4466 16.6012C13.2911 17.4983 13.4387 18.4215 13.866 19.2255C14.2933 20.0294 14.9761 20.6682 15.8066 21.0412C16.2136 21.2142 16.6396 21.3412 17.0756 21.4212C17.7002 21.5379 18.3302 21.6112 18.9656 21.6412C19.4556 21.6412 19.9656 21.6912 20.5056 21.6412C20.8634 21.6238 21.2185 21.5702 21.5656 21.4812C21.6517 21.4576 21.7255 21.4021 21.772 21.3258C21.8184 21.2496 21.834 21.1585 21.8156 21.0712C21.7942 20.9811 21.738 20.9032 21.6592 20.8545C21.5805 20.8057 21.4857 20.7902 21.3956 20.8112C21.0922 20.8792 20.7856 20.9159 20.4756 20.9212C19.9856 20.9212 19.4756 20.8712 19.0256 20.8312C18.4302 20.7805 17.8389 20.6903 17.2556 20.5612C16.8856 20.4756 16.5266 20.3481 16.1856 20.1812C15.5666 19.8628 15.0697 19.3494 14.7715 18.7205C14.4733 18.0916 14.3904 17.382 14.5356 16.7012C14.6167 15.9998 14.8583 15.3264 15.2415 14.7334C15.6248 14.1403 16.1394 13.6434 16.7456 13.2812C17.31 13.0336 17.9192 12.9046 18.5356 12.9022C19.1893 12.8691 19.8446 12.9195 20.4856 13.0522C20.8916 13.1462 21.2696 13.3382 21.5856 13.6122C21.9366 13.9042 22.2496 14.2402 22.5156 14.6122C22.9121 15.21 23.1527 15.8976 23.2156 16.6122C23.2886 17.3722 23.2556 18.1402 23.1156 18.8922C23.0756 19.0902 23.0256 19.2869 22.9656 19.4822C22.9075 19.6645 22.8268 19.8389 22.7256 20.0012C22.7039 20.0347 22.689 20.0721 22.6818 20.1113C22.6746 20.1506 22.6752 20.1908 22.6836 20.2298C22.6919 20.2688 22.7079 20.3058 22.7305 20.3386C22.7532 20.3715 22.7821 20.3995 22.8156 20.4212C22.849 20.4429 22.8865 20.4577 22.9257 20.4649C22.9649 20.4721 23.0052 20.4715 23.0442 20.4632C23.0832 20.4548 23.1202 20.4389 23.153 20.4162C23.1858 20.3936 23.2139 20.3647 23.2356 20.3312C23.3356 20.1712 23.4256 20.0045 23.5056 19.8312C23.6122 19.5745 23.6986 19.3112 23.7646 19.0412C23.9981 18.0592 24.059 17.0441 23.9446 16.0412C23.6421 14.8466 23.0398 13.749 22.1946 12.8522ZM12.7966 4.7832L12.7766 4.8132L12.7666 4.8332L12.7866 4.7832H12.7966ZM10.2566 8.7232C10.7508 8.47121 11.2857 8.30871 11.8366 8.2432C12.4815 8.14977 13.1397 8.22558 13.7466 8.4632C13.8466 8.4632 13.8466 8.6732 13.8866 8.8832C13.9266 9.0932 13.9666 9.3632 14.0066 9.6632C14.0111 9.71932 14.0295 9.77343 14.0601 9.82067C14.0908 9.86791 14.1326 9.90681 14.182 9.93387C14.2314 9.96093 14.2867 9.97531 14.343 9.97572C14.3993 9.97613 14.4548 9.96255 14.5046 9.9362C14.5646 9.90508 14.6139 9.85677 14.6463 9.79746C14.6788 9.73814 14.6928 9.67051 14.6866 9.6032C14.6833 9.19707 14.6431 8.79207 14.5666 8.3932C14.5433 8.25868 14.4909 8.13085 14.4132 8.0186C14.3355 7.90634 14.2343 7.81237 14.1166 7.7432C13.3915 7.37009 12.5811 7.19421 11.7666 7.2332C10.919 7.23833 10.0928 7.49979 9.39655 7.9832C9.18772 8.23323 9.07121 8.54747 9.06656 8.8732C9.02731 9.53929 9.02731 10.2071 9.06656 10.8732C9.05947 10.9162 9.05947 10.9602 9.06656 11.0032C9.00656 11.7732 9.86655 11.5132 10.9666 11.2832C11.4469 11.1706 11.9349 11.0938 12.4266 11.0532C12.7399 11.0132 13.0532 11.0132 13.3666 11.0532C13.5266 11.0532 14.1366 11.1732 14.3666 11.1932H14.5166C14.5836 11.1939 14.6491 11.1729 14.7032 11.1332C14.7573 11.0935 14.7971 11.0374 14.8166 10.9732C14.8397 10.9055 14.836 10.8315 14.8062 10.7664C14.7765 10.7013 14.7229 10.65 14.6566 10.6232C14.6074 10.6105 14.5557 10.6105 14.5066 10.6232C14.2666 10.6232 13.7166 10.4432 13.5666 10.4032C13.2041 10.305 12.8318 10.248 12.4566 10.2332C11.9189 10.2156 11.3807 10.239 10.8466 10.3032L10.2266 10.3732C10.1695 9.82402 10.1796 9.26995 10.2566 8.7232Z" fill="black"/>
<path d="M22.3147 11.0733C22.1747 10.7033 22.0647 10.4533 22.0647 10.4533L21.6447 9.4533C21.446 8.79397 21.2021 8.14911 20.9147 7.5233C20.6903 7.04932 20.3455 6.64246 19.9147 6.3433C19.706 6.19176 19.489 6.05188 19.2647 5.9243C19.0734 5.84066 18.8715 5.78346 18.6647 5.7543H18.2347C18.1564 5.72204 18.0876 5.67043 18.0347 5.6043C17.9647 5.6543 17.9147 5.3843 17.8447 5.2143C17.5547 4.5443 17.1857 3.4443 16.9657 2.9043C16.8912 2.70557 16.7753 2.52492 16.6257 2.3743C16.3772 2.17895 16.0859 2.0453 15.7757 1.9843C15.4073 1.90962 15.0313 1.87941 14.6557 1.8943C14.2833 1.87105 13.9095 1.90136 13.5457 1.9843C13.408 2.02613 13.2802 2.09558 13.1702 2.18842C13.0601 2.28126 12.9702 2.39555 12.9057 2.5243C12.8677 2.62763 12.8444 2.7343 12.8357 2.8443V4.3943C12.831 4.52785 12.8039 4.65966 12.7557 4.7843C12.7557 4.7843 12.7557 4.8443 12.6957 4.8543H12.3057C11.9724 4.8843 11.6391 4.8843 11.3057 4.8543V3.5543C11.3042 3.21855 11.2707 2.88371 11.2057 2.5543C11.1433 2.42524 11.0538 2.31112 10.9434 2.21968C10.833 2.12823 10.7042 2.0616 10.5657 2.0243C10.2362 1.96457 9.89998 1.9511 9.56674 1.9843C9.19129 1.97527 8.81593 2.00543 8.44674 2.0743C8.15816 2.13804 7.88583 2.26059 7.64674 2.4343C7.49325 2.58446 7.38572 2.77524 7.33674 2.9843C7.18674 3.5143 6.97674 4.6043 6.77674 5.2743C6.77674 5.4243 6.65674 5.6043 6.64674 5.6343C6.58283 5.70397 6.50428 5.75861 6.41674 5.7943C6.30674 5.7943 6.19674 5.7943 5.98674 5.8443C5.78385 5.85908 5.58464 5.90635 5.39674 5.9843C5.17674 6.11297 4.96341 6.25297 4.75674 6.4043C4.32812 6.69307 3.9832 7.08973 3.75674 7.5543C3.47035 8.19182 3.22355 8.8464 3.01774 9.5143L2.45774 10.9843C2.43098 11.0587 2.43367 11.1406 2.46528 11.2131C2.49688 11.2856 2.555 11.3432 2.62774 11.3743C2.66775 11.388 2.7102 11.393 2.7523 11.3891C2.7944 11.3852 2.8352 11.3724 2.87202 11.3517C2.90885 11.3309 2.94087 11.3026 2.96598 11.2686C2.99109 11.2345 3.00873 11.1956 3.01774 11.1543L3.64774 9.7543C3.85841 9.14563 4.11174 8.55563 4.40774 7.9843C4.58084 7.64364 4.84361 7.35667 5.16774 7.1543C5.35433 7.0268 5.54797 6.90995 5.74774 6.8043C5.85656 6.76119 5.97111 6.73424 6.08774 6.7243C6.27441 6.7163 6.46107 6.6963 6.64774 6.6643C6.86566 6.59758 7.06682 6.48507 7.23774 6.3343C7.43158 6.09956 7.5746 5.82715 7.65774 5.5343C7.85774 4.9343 8.07774 4.0443 8.23774 3.5343C8.23774 3.4343 8.30774 3.3343 8.32774 3.2643C8.4748 3.19171 8.63427 3.1476 8.79774 3.1343C9.05388 3.12021 9.3106 3.12021 9.56674 3.1343C10.5667 3.1343 10.2967 2.5443 10.2267 5.3643C10.2179 5.51172 10.2611 5.65758 10.3488 5.77639C10.4365 5.89519 10.5632 5.9794 10.7067 6.0143C11.0641 6.1043 11.4274 6.15097 11.7967 6.1543C12.2991 6.18298 12.8022 6.1116 13.2767 5.9443C13.4931 5.85182 13.6725 5.68998 13.7867 5.4843C13.9207 5.2373 13.9987 4.9643 14.0167 4.6843C14.0467 4.2543 14.0467 3.8243 14.0167 3.3943C13.9997 3.30278 13.9763 3.21256 13.9467 3.1243C14.1167 3.2243 14.5167 2.9943 14.6667 2.9943C14.9624 2.95944 15.2611 2.95944 15.5567 2.9943C15.6747 3.01963 15.7881 3.05963 15.8967 3.1143C15.8967 3.1843 15.9867 3.3043 16.0267 3.4143C16.2667 3.9643 16.5957 4.8643 16.8757 5.4143C16.9857 5.7003 17.1447 5.9643 17.3457 6.1943C17.5257 6.3473 17.7327 6.4663 17.9557 6.5443C18.1057 6.5443 18.2457 6.5443 18.5257 6.6043C18.6384 6.61297 18.7484 6.6363 18.8557 6.6743C19.0257 6.7543 19.1657 6.8743 19.4157 7.0243C19.7277 7.2243 19.9827 7.5043 20.1557 7.8343C20.4437 8.42097 20.6937 9.0243 20.9057 9.6443L21.3657 10.6443L21.5257 11.0443C21.5957 11.7543 22.5857 12.0943 22.3157 11.0743" fill="black"/>
</g>
<defs>
<clipPath id="clip0_669_29668">
<rect width="24" height="24" fill="white"/>
</clipPath>
</defs>
</svg>
