<svg width="24" height="24" viewBox="0 0 24 24" fill="none" xmlns="http://www.w3.org/2000/svg">
<g clip-path="url(#clip0_669_29672)">
<path fill-rule="evenodd" clip-rule="evenodd" d="M23.8697 15.191C23.9997 13.087 23.9997 2.73698 23.9997 2.63598C23.8697 1.48598 22.6887 1.63598 20.9967 1.31598C17.1327 0.643976 16.7427 0.653976 7.6027 0.924976C7.1527 0.924976 7.3027 1.04498 5.9017 2.22598C4.7025 3.13593 3.54972 4.10548 2.4477 5.13098C0.0256999 7.57198 0.2057 7.29198 0.2157 7.50198C0.2157 7.5895 0.250467 7.67343 0.312354 7.73532C0.374241 7.79721 0.458178 7.83198 0.5457 7.83198C1.1757 7.83198 1.6267 6.94198 2.9587 5.64098C4.2897 4.33898 7.5527 1.81698 7.6127 1.75698C7.7727 2.01698 15.9717 1.28698 22.2877 2.53698C22.4777 2.53698 22.3777 2.53698 22.0277 2.82698C17.8837 5.88098 16.2417 6.60098 15.1707 7.53198C13.566 7.26307 11.9427 7.1193 10.3157 7.10198C7.7027 7.10198 0.2057 7.85198 0.1457 7.92198C0.0641346 8.41834 0.02732 8.92103 0.0356997 9.42398C-0.0243003 20.826 -0.0943003 22.187 0.6057 22.898C0.9657 23.278 1.7977 23.038 2.0977 23.078C2.5977 23.138 3.0977 23.158 3.5987 23.168C10.1957 23.288 8.9147 22.698 15.1407 23.168C15.5807 23.258 16.0107 23.328 16.2817 23.058C17.9337 21.416 18.1437 22.648 23.5797 17.222C24.0597 16.762 23.8397 15.672 23.8697 15.191ZM15.0597 22.086L6.9827 22.156C5.3307 22.156 1.0967 21.986 1.0467 22.026C0.6067 20.735 0.6467 9.64398 0.6667 8.50198C1.2767 8.50198 3.1587 8.29198 3.2587 8.28198C10.1957 8.15198 13.0187 8.18198 15.0807 8.71198C15.2407 12.897 14.8397 13.838 15.0597 22.086ZM22.7197 16.13L22.3697 16.84C18.0947 21.135 17.4437 20.555 15.7527 22.066C15.9727 9.24298 15.9327 8.71298 15.8027 8.46198C16.9927 7.30198 17.6747 7.27198 22.4897 3.35698C22.4897 3.35698 22.6397 3.28698 22.7497 3.21698C22.7497 3.64698 22.8897 4.14798 22.8897 4.21798C22.8197 19.403 22.7297 12.697 22.7197 16.13Z" fill="black"/>
<path fill-rule="evenodd" clip-rule="evenodd" d="M7.72293 3.40824C7.72293 3.11824 7.72293 2.26824 7.57293 2.20724C7.42293 2.14624 6.97193 2.36724 6.99193 2.80724C6.85193 5.81124 6.92193 5.61024 6.86193 6.58124C6.86193 7.02124 7.53193 7.33224 7.74193 6.77124L7.72293 3.40824ZM16.2409 16.9312L22.1269 16.8412C22.5369 16.5712 22.6069 16.1512 22.1869 16.1412H16.2409C15.8409 16.2312 15.7509 16.7312 16.2409 16.9312ZM7.60193 16.2612C7.75193 11.7272 7.72193 10.5652 7.74193 8.57424C7.67193 8.19424 6.93193 8.06324 6.74193 8.81424C6.63875 11.3934 6.66879 13.9762 6.83193 16.5522C6.74193 16.6122 2.89793 20.2652 1.58593 21.5572C1.35593 21.8872 1.58593 22.0372 2.17593 21.9272C8.04293 17.1322 6.98193 17.6532 7.63193 17.3522C7.73193 17.2922 7.41193 17.3522 7.63193 17.3522C7.94193 17.3522 9.47393 17.3522 14.5289 16.9722C14.9389 16.8922 15.1199 16.4022 14.5289 16.1322C10.8559 16.0922 9.98493 16.1012 7.60193 16.2612Z" fill="black"/>
<path fill-rule="evenodd" clip-rule="evenodd" d="M7.66299 17.3314C7.76299 17.2714 7.44299 17.3314 7.66299 17.3314Z" fill="black"/>
</g>
<defs>
<clipPath id="clip0_669_29672">
<rect width="24" height="24" fill="white"/>
</clipPath>
</defs>
</svg>
