<svg width="24" height="24" viewBox="0 0 24 24" fill="none" xmlns="http://www.w3.org/2000/svg">
<path fill-rule="evenodd" clip-rule="evenodd" d="M7.53125 14.1915C7.83625 14.4035 8.09724 14.6715 8.30124 14.9815C8.67124 15.5015 8.96124 16.0915 9.30124 16.6015C9.35846 16.6873 9.44656 16.7476 9.54716 16.7699C9.64776 16.7923 9.75311 16.775 9.84124 16.7215C9.92793 16.6678 9.99008 16.5821 10.0144 16.4831C10.0387 16.384 10.0232 16.2793 9.97124 16.1915C9.61124 15.5515 9.32125 14.8015 8.90125 14.1915C8.69905 13.8782 8.44941 13.5982 8.16125 13.3615C7.90917 13.1209 7.59202 12.9596 7.24912 12.8976C6.90621 12.8355 6.55264 12.8755 6.23224 13.0125C5.47869 13.4541 4.86781 14.1029 4.47225 14.8815C4.08325 15.5815 3.67325 16.3015 3.28425 17.0405C2.89425 17.7805 2.52425 18.4605 2.09425 19.1495C1.53815 20.059 0.866187 20.8923 0.0952452 21.6285C0.0340691 21.6935 0 21.7793 0 21.8685C0 21.9578 0.0340691 22.0436 0.0952452 22.1085C0.158973 22.1721 0.245275 22.2077 0.335245 22.2077C0.425215 22.2077 0.511517 22.1721 0.575245 22.1085C1.48115 21.4156 2.29415 20.609 2.99425 19.7085C3.50758 19.0459 3.98391 18.3565 4.42324 17.6405C4.86324 16.9305 5.25324 16.1905 5.65324 15.4905C5.86088 14.9084 6.22781 14.3963 6.71224 14.0125C6.85169 13.96 7.00338 13.949 7.14893 13.981C7.29449 14.0129 7.42764 14.0864 7.53225 14.1925" fill="black"/>
<path fill-rule="evenodd" clip-rule="evenodd" d="M15.2071 8.46526C14.9697 8.57585 14.7478 8.71705 14.5471 8.88526C13.438 10.0743 12.5118 11.4217 11.7991 12.8833C11.7991 12.9833 11.7491 13.0933 11.7191 13.1933C11.7091 13.2333 11.7091 13.2733 11.7191 13.3133C11.4283 14.5246 11.071 15.7191 10.6491 16.8913C10.3271 17.6813 9.9291 18.4373 9.4601 19.1503C8.75492 20.2427 7.98766 21.2937 7.1621 22.2983C7.12941 22.3291 7.10337 22.3663 7.08557 22.4076C7.06777 22.4488 7.05859 22.4933 7.05859 22.5383C7.05859 22.5832 7.06777 22.6277 7.08557 22.6689C7.10337 22.7102 7.12941 22.7474 7.1621 22.7783C7.22704 22.8394 7.31288 22.8735 7.4021 22.8735C7.49131 22.8735 7.57716 22.8394 7.6421 22.7783C8.53315 21.7906 9.36717 20.7529 10.1401 19.6703C10.6741 18.9353 11.1401 18.1523 11.5301 17.3303C11.9214 16.4263 12.2544 15.5003 12.5291 14.5523C12.7358 14.7696 12.9658 14.9596 13.2191 15.1223C13.4821 15.2815 13.7768 15.381 14.0825 15.4139C14.3882 15.4467 14.6973 15.412 14.9881 15.3123C15.1768 15.2423 15.3534 15.1489 15.5181 15.0323C15.6814 14.9149 15.8311 14.7816 15.9671 14.6323L16.3771 14.8723C16.9251 15.0963 17.5141 15.2023 18.1061 15.1823C18.5393 15.1486 18.9628 15.0368 19.3561 14.8523C19.8351 16.0423 20.3551 17.2413 20.8641 18.4003C21.519 19.86 22.352 21.2331 23.3441 22.4883C23.4118 22.551 23.4995 22.5877 23.5916 22.5918C23.6838 22.596 23.7745 22.5673 23.8475 22.511C23.9205 22.4546 23.9712 22.3742 23.9906 22.284C24.0099 22.1938 23.9966 22.0996 23.9531 22.0183C23.0552 20.7798 22.3101 19.4374 21.7341 18.0203C20.8141 15.8723 20.1241 13.5933 19.2351 11.4443C19.0151 10.9343 18.7851 10.4443 18.5251 9.93426C18.0361 9.33008 17.4605 8.80138 16.8171 8.36526C16.6687 8.25606 16.4912 8.19341 16.3071 8.18526H16.1471C15.8271 8.25526 15.5138 8.34859 15.2071 8.46526ZM18.0761 14.1823C17.6417 14.1279 17.2231 13.9849 16.8461 13.7623C16.6523 13.6284 16.4654 13.4849 16.2861 13.3323C16.1848 13.2748 16.0779 13.2279 15.9671 13.1923C15.8542 13.1606 15.7349 13.1587 15.621 13.1867C15.5072 13.2148 15.4024 13.2718 15.3171 13.3523C15.2284 13.4403 15.1451 13.5336 15.0671 13.6323C14.9764 13.7489 14.8731 13.8523 14.7571 13.9423C14.6716 14.0285 14.5696 14.0965 14.4571 14.1423C14.2969 14.2105 14.1228 14.2397 13.9492 14.2275C13.7755 14.2154 13.6072 14.1621 13.4581 14.0723C13.2441 13.9651 13.0429 13.8343 12.8581 13.6823C12.8581 13.5623 12.9381 13.4323 12.9881 13.3023C13.8602 11.9073 14.901 10.6253 16.0871 9.48526C16.0871 9.65526 17.8961 11.4843 18.0861 11.9243C18.4161 12.6343 18.7061 13.3633 18.9961 14.0923C18.6971 14.1803 18.3861 14.2103 18.0761 14.1823ZM14.8581 6.22726C14.9081 6.49726 14.9581 6.88726 15.0181 7.22626C15.2681 7.67626 15.8981 8.03626 16.0871 7.04626V6.91626C16.6309 6.88793 17.1703 6.80417 17.6971 6.66626C17.9704 6.59226 18.2368 6.49559 18.4961 6.37626C18.7494 6.25026 18.9961 6.11026 19.2361 5.95626C19.7859 5.58087 20.2891 5.14145 20.7351 4.64726C21.9841 3.52726 21.8941 4.01726 19.1751 2.56826C18.7251 2.30626 18.2621 2.06959 17.7861 1.85826C16.9511 1.49696 16.0695 1.25492 15.1671 1.13926C15.1244 1.12726 15.0797 1.12399 15.0358 1.12965C14.9918 1.1353 14.9494 1.14976 14.9111 1.17216C14.8728 1.19456 14.8395 1.22444 14.813 1.26003C14.7866 1.29561 14.7675 1.33616 14.7571 1.37926C14.7404 1.44709 14.7472 1.51857 14.7762 1.58209C14.8053 1.64562 14.8549 1.69748 14.9171 1.72926C14.8387 1.74764 14.769 1.79248 14.7199 1.85624C14.6707 1.92 14.645 1.99876 14.6471 2.07926C14.6471 2.95926 14.5771 3.81826 14.6471 4.69726C14.6871 5.20726 14.7781 5.71726 14.8581 6.22726ZM16.9851 2.87826C17.4331 3.14159 17.8964 3.37493 18.3751 3.57826C18.9351 3.81293 19.5114 3.99626 20.1041 4.12826C19.8474 4.28826 19.5841 4.43493 19.3141 4.56826C19.0141 4.72826 18.6941 4.83826 18.3841 4.97826C18.0741 5.11826 17.7651 5.24726 17.4651 5.39726C17.0012 5.6294 16.5314 5.84948 16.0561 6.05726C16.0472 5.76296 16.0238 5.46927 15.9861 5.17726C15.9572 4.8411 15.9071 4.5071 15.8361 4.17726C15.6861 3.42826 15.4761 2.71826 15.3061 1.97926V1.89926C15.8761 2.20926 16.4261 2.55926 16.9861 2.87926" fill="black"/>
</svg>
