<svg width="24" height="24" viewBox="0 0 24 24" fill="none" xmlns="http://www.w3.org/2000/svg">
<g clip-path="url(#clip0_669_29620)">
<path d="M11.4946 11.6416C11.6712 11.8256 11.8576 11.9986 12.0536 12.1606C12.3626 12.4396 12.6716 12.6586 12.9406 12.9376C12.9726 12.9792 13.0142 13.0126 13.0618 13.0349C13.1094 13.0572 13.1617 13.0678 13.2142 13.0659C13.2667 13.0639 13.318 13.0494 13.3639 13.0236C13.4097 12.9978 13.4486 12.9615 13.4776 12.9176C13.5119 12.8633 13.5285 12.7997 13.5251 12.7355C13.5216 12.6714 13.4984 12.6099 13.4586 12.5596C13.2762 12.1866 13.0628 11.8297 12.8206 11.4926C12.7151 11.3504 12.5984 11.217 12.4716 11.0936C12.3475 10.964 12.2108 10.847 12.0636 10.7446L11.8036 10.5946C12.4641 9.97054 12.9715 9.2024 13.2863 8.35003C13.6012 7.49766 13.7148 6.58409 13.6186 5.68055C13.4086 2.86855 11.5046 0.206553 8.11555 0.256553C4.19755 0.386553 2.02355 3.10755 1.93455 5.82955C1.89607 6.90351 2.19583 7.96243 2.79153 8.85687C3.38722 9.7513 4.24876 10.4361 5.25455 10.8146C4.35346 11.3548 3.50537 11.9789 2.72155 12.6786C2.07442 13.235 1.5044 13.8754 1.02655 14.5826C0.603133 15.1774 0.30149 15.8502 0.138969 16.562C-0.0235521 17.2739 -0.0437452 18.0109 0.079551 18.7306C0.0889849 18.7744 0.107238 18.8158 0.133198 18.8523C0.159157 18.8888 0.19228 18.9196 0.230547 18.9429C0.268815 18.9662 0.311425 18.9815 0.355782 18.9878C0.400138 18.9941 0.445313 18.9913 0.488551 18.9796C0.570564 18.9649 0.64398 18.9197 0.694061 18.8531C0.744142 18.7865 0.76718 18.7034 0.758551 18.6206C0.709698 17.3616 1.12861 16.129 1.93455 15.1606C2.39188 14.5392 2.89355 13.9546 3.43955 13.4066C4.2484 12.5833 5.10737 11.8108 6.01155 11.0936C6.60455 11.2536 7.21255 11.3476 7.82655 11.3736C7.86406 11.3761 7.9017 11.3711 7.93723 11.3588C7.97277 11.3465 8.00546 11.3272 8.03336 11.302C8.06127 11.2768 8.08381 11.2463 8.09965 11.2122C8.11549 11.1781 8.1243 11.1411 8.12555 11.1036C8.12848 11.0299 8.10323 10.9578 8.05493 10.9021C8.00663 10.8464 7.93891 10.8111 7.86555 10.8036C4.39655 10.5156 2.81155 8.30255 2.88155 6.04855H2.96155C3.44466 6.27247 3.96515 6.40472 4.49655 6.43855C4.72188 6.46255 4.94788 6.46255 5.17455 6.43855C5.39855 6.40522 5.61788 6.35189 5.83255 6.27855C6.34855 6.09331 6.81542 5.79267 7.19755 5.39955C7.24068 5.34647 7.26505 5.28062 7.26686 5.21225C7.26867 5.14389 7.24781 5.07684 7.20755 5.02155C7.46422 5.17555 7.73022 5.31155 8.00555 5.42955C8.48655 5.65555 8.99155 5.82655 9.51055 5.93855C10.5756 6.14192 11.6668 6.16894 12.7406 6.01855C12.8906 8.80955 11.2856 10.7936 9.00255 11.1026C8.92925 11.1229 8.86558 11.1686 8.82296 11.2316C8.78034 11.2946 8.76157 11.3708 8.76999 11.4464C8.77842 11.522 8.8135 11.5921 8.86895 11.6442C8.92439 11.6963 8.99657 11.7269 9.07255 11.7306C9.77373 11.6764 10.4545 11.4688 11.0666 11.1226C11.1966 11.3026 11.3356 11.4716 11.4946 11.6406M6.75055 4.92155C6.44451 5.10274 6.10569 5.22169 5.75355 5.27155C5.58355 5.27155 5.41355 5.27155 5.23455 5.35155L4.45755 5.46155C4.01682 5.54048 3.56911 5.57366 3.12155 5.56055C3.08906 5.54388 3.05307 5.53519 3.01655 5.53519C2.98003 5.53519 2.94404 5.54388 2.91155 5.56055C3.00179 4.90774 3.2255 4.28051 3.56872 3.71792C3.91195 3.15534 4.36735 2.66946 4.90655 2.29055C5.32917 3.16335 5.92611 3.94032 6.66055 4.57355C6.79055 4.68355 6.93055 4.77355 7.06955 4.87355C7.01688 4.85144 6.95912 4.84432 6.90265 4.85296C6.84618 4.86161 6.7932 4.88569 6.74955 4.92255M9.73955 4.92255C8.85275 4.66182 8.01441 4.25819 7.25755 3.72755C6.54724 3.24294 5.92949 2.635 5.43355 1.93255C6.27651 1.52885 7.20097 1.32425 8.13555 1.33455C10.7766 1.24455 12.3026 3.20855 12.6716 5.37255C11.6892 5.37581 10.7117 5.23429 9.77055 4.95255L9.73955 4.92255Z" fill="black"/>
<path d="M8.39464 13.2564C8.40251 13.2146 8.40108 13.1716 8.39044 13.1305C8.37981 13.0894 8.36023 13.0511 8.33312 13.0184C8.306 12.9857 8.272 12.9593 8.23355 12.9413C8.19509 12.9232 8.15313 12.9138 8.11064 12.9138C8.06815 12.9138 8.02619 12.9232 7.98773 12.9413C7.94928 12.9593 7.91528 12.9857 7.88817 13.0184C7.86105 13.0511 7.84147 13.0894 7.83084 13.1305C7.8202 13.1716 7.81877 13.2146 7.82664 13.2564C7.72664 13.7654 7.61664 14.2534 7.55664 14.7924V16.1184C7.60664 16.6364 7.69664 17.1154 7.76664 17.6534C7.76949 17.7414 7.80643 17.825 7.86967 17.8863C7.93291 17.9477 8.01751 17.9821 8.10564 17.9824C8.19107 17.9795 8.27206 17.9436 8.33156 17.8823C8.39106 17.8209 8.42443 17.7388 8.42464 17.6534C8.47464 17.1354 8.54464 16.6564 8.58464 16.1184V14.8124C8.54464 14.2634 8.45464 13.7654 8.39464 13.2564ZM22.9606 15.6394C23.1196 15.5294 23.2586 15.4094 23.2986 15.3794C23.5085 15.1998 23.6788 14.9786 23.7989 14.7299C23.9191 14.4812 23.9864 14.2104 23.9966 13.9344C24.0294 13.3938 23.8589 12.8606 23.5186 12.4394C23.3023 12.1897 23.0462 11.9775 22.7606 11.8114C22.6382 11.7341 22.5078 11.6704 22.3716 11.6214C22.2332 11.5689 22.0893 11.532 21.9426 11.5114C21.7097 11.4548 21.4674 11.4488 21.232 11.4936C20.9966 11.5385 20.7735 11.6332 20.5776 11.7714C20.3739 11.9558 20.2049 12.1753 20.0786 12.4194C19.9853 12.602 19.869 12.7684 19.7296 12.9184C19.6435 12.8501 19.5537 12.7867 19.4606 12.7284L17.9756 11.2734C17.9217 11.222 17.8501 11.1934 17.7756 11.1934C17.7012 11.1934 17.6296 11.222 17.5756 11.2734C17.5499 11.3117 17.5268 11.3518 17.5066 11.3934C17.4558 11.3616 17.3971 11.3448 17.3371 11.3448C17.2772 11.3448 17.2185 11.3616 17.1676 11.3934C16.9376 11.5924 16.1106 12.2004 15.6726 12.6484C15.4996 12.8047 15.3718 13.0047 15.3026 13.2274C15.2926 13.3314 15.3176 13.4374 15.3726 13.5264C15.4626 13.6864 15.7726 13.9744 15.8326 14.0844C16.0016 14.3874 16.0706 14.7364 16.0306 15.0814C16.0272 15.2184 15.9784 15.3505 15.8919 15.4569C15.8054 15.5633 15.6861 15.638 15.5526 15.6694C15.3778 15.6986 15.1982 15.6778 15.0346 15.6094C14.7256 15.4803 14.434 15.313 14.1666 15.1114C13.9873 14.9513 13.7938 14.8077 13.5886 14.6824C13.4467 14.6008 13.2792 14.5758 13.1196 14.6124C12.6903 14.7247 12.2901 14.9279 11.9461 15.2083C11.6021 15.4886 11.3223 15.8396 11.1256 16.2374C10.9065 16.6766 10.821 17.1705 10.8796 17.6578C10.9383 18.1452 11.1385 18.6047 11.4556 18.9794C12.307 20.1603 13.2789 21.2495 14.3556 22.2294C15.1171 22.8971 16.0109 23.3966 16.9786 23.6954C17.3796 23.7954 17.8036 23.7374 18.1646 23.5354C18.7816 23.1696 19.3368 22.7086 19.8096 22.1694C20.0296 21.922 20.2356 21.663 20.4276 21.3924C20.5088 21.275 20.5463 21.1328 20.5335 20.9907C20.5207 20.8485 20.4585 20.7154 20.3576 20.6144C20.0833 20.3883 19.8563 20.1103 19.6896 19.7964C19.6355 19.7006 19.6131 19.5902 19.6257 19.481C19.6383 19.3717 19.6852 19.2693 19.7596 19.1884C19.8455 19.1121 19.9475 19.0563 20.058 19.0251C20.1685 18.994 20.2846 18.9882 20.3976 19.0084C20.7146 19.0394 21.0226 19.1304 21.3046 19.2784C21.4246 19.3284 21.7436 19.5884 21.9126 19.6574C22.0186 19.7074 22.1356 19.7274 22.2526 19.7174C22.4169 19.6842 22.5666 19.6002 22.6806 19.4774C22.8346 19.3034 22.9776 19.1207 23.1096 18.9294C23.4746 18.5394 23.6926 18.0364 23.7276 17.5034C23.6976 16.9787 23.4902 16.4798 23.1396 16.0884C23.1096 15.9884 23.0206 15.8084 22.9606 15.6394ZM21.8826 15.8394C22.0513 16.122 22.244 16.3877 22.4606 16.6364C22.6756 16.8734 22.8056 17.1754 22.8296 17.4934C22.7875 17.8052 22.6354 18.0918 22.4006 18.3014L22.1306 18.6304C21.8821 18.3883 21.5845 18.2024 21.2579 18.0854C20.9313 17.9685 20.5833 17.9231 20.2376 17.9524C19.7869 17.9566 19.3564 18.1397 19.0406 18.4614C18.8533 18.6459 18.7184 18.8771 18.6501 19.1311C18.5817 19.3851 18.5822 19.6527 18.6516 19.9064C18.7996 20.3744 19.0596 20.7994 19.4096 21.1424C19.3023 21.2424 19.1893 21.3357 19.0706 21.4224C18.7893 21.753 18.477 22.052 18.1336 22.3194C17.8636 22.5294 17.5856 22.7374 17.3266 22.6584C16.4924 22.3949 15.724 21.9565 15.0726 21.3724C14.0357 20.4714 13.0911 19.4695 12.2526 18.3814C12.048 18.158 11.9096 17.882 11.8531 17.5844C11.7966 17.2867 11.8241 16.9792 11.9326 16.6964C12.058 16.4331 12.2358 16.1982 12.4553 16.0061C12.6747 15.814 12.9311 15.6688 13.2086 15.5794C13.6956 15.9394 14.2246 16.2364 14.7836 16.4674C15.1036 16.5864 15.4496 16.6074 15.7806 16.5274C16.0181 16.4803 16.2375 16.3674 16.4138 16.2015C16.5901 16.0356 16.7162 15.8235 16.7776 15.5894C16.9237 14.9868 16.8309 14.351 16.5186 13.8154C16.4686 13.7354 16.2186 13.4554 16.0996 13.3264C16.2416 13.1724 16.3946 13.0294 16.5586 12.8974C16.9776 12.5194 17.4756 12.1204 17.6546 11.9704C17.7026 11.9318 17.7375 11.8794 17.7546 11.8204L18.9706 13.1474C19.1106 13.3034 19.2606 13.4494 19.4206 13.5854C19.4801 13.6233 19.5491 13.6434 19.6196 13.6434C19.6902 13.6434 19.7592 13.6233 19.8186 13.5854C20.4666 13.2174 20.5366 12.5884 20.9646 12.2794C21.0925 12.2076 21.2336 12.1626 21.3794 12.1471C21.5252 12.1316 21.6726 12.146 21.8126 12.1894C21.906 12.2027 21.9956 12.2294 22.0816 12.2694C22.1716 12.3054 22.2583 12.3487 22.3416 12.3994L22.6396 12.6294L22.8996 12.8974C23.1096 13.1844 23.1996 13.5424 23.1486 13.8944C23.1445 14.0523 23.1057 14.2074 23.035 14.3488C22.9643 14.4901 22.8635 14.6142 22.7396 14.7124C22.5223 14.8117 22.2996 14.8984 22.0716 14.9724C21.9913 15.0084 21.9201 15.0619 21.8632 15.1291C21.8062 15.1962 21.7651 15.2752 21.7426 15.3604C21.7253 15.5262 21.7603 15.6933 21.8426 15.8384L21.8826 15.8394Z" fill="black"/>
</g>
<defs>
<clipPath id="clip0_669_29620">
<rect width="24" height="24" fill="white"/>
</clipPath>
</defs>
</svg>
