<svg width="24" height="24" viewBox="0 0 24 24" fill="none" xmlns="http://www.w3.org/2000/svg">
<g clip-path="url(#clip0_669_29636)">
<path d="M12.9151 13.4345C13.2306 13.1565 13.5993 12.9456 13.9988 12.8146C14.3983 12.6836 14.8203 12.6353 15.2391 12.6725C15.276 12.6771 15.3134 12.6744 15.3491 12.6645C15.3849 12.6547 15.4184 12.6379 15.4477 12.6151C15.477 12.5923 15.5016 12.564 15.5199 12.5317C15.5382 12.4994 15.55 12.4638 15.5546 12.427C15.5592 12.3902 15.5565 12.3528 15.5467 12.317C15.5368 12.2812 15.52 12.2477 15.4972 12.2184C15.4744 12.1891 15.4461 12.1646 15.4138 12.1462C15.3815 12.1279 15.346 12.1161 15.3091 12.1115C14.8087 12.0385 14.2987 12.0675 13.8098 12.1968C13.3209 12.326 12.8631 12.5528 12.4641 12.8635C11.6255 13.4827 11.0498 14.3941 10.8511 15.4175C10.6702 16.3115 10.7715 17.2396 11.1411 18.0735C11.434 18.669 11.9323 19.1386 12.5441 19.3955C13.4701 19.7855 14.4971 19.8625 15.4701 19.6155C16.4205 19.3809 17.281 18.8726 17.9451 18.1535C18.2967 17.7861 18.5639 17.3466 18.7283 16.8655C18.8927 16.3843 18.9503 15.8732 18.8971 15.3675C18.841 14.8725 18.6751 14.3963 18.4116 13.9735C18.1482 13.5507 17.7937 13.192 17.3741 12.9235C17.3029 12.8799 17.2178 12.8649 17.1359 12.8817C17.0541 12.8984 16.9816 12.9455 16.9331 13.0135C16.9091 13.048 16.8924 13.0869 16.8839 13.1281C16.8754 13.1692 16.8754 13.2116 16.8838 13.2528C16.8922 13.2939 16.9089 13.333 16.9329 13.3675C16.9568 13.402 16.9875 13.4312 17.0231 13.4535C17.3365 13.6762 17.5964 13.9658 17.7841 14.3013C17.9718 14.6369 18.0826 15.0099 18.1085 15.3935C18.1343 15.7771 18.0746 16.1616 17.9336 16.5193C17.7925 16.8769 17.5738 17.1988 17.2931 17.4615C16.7197 18.0115 16.006 18.3931 15.2301 18.5645C14.4729 18.7372 13.6804 18.6673 12.9651 18.3645C12.7269 18.2635 12.5138 18.1115 12.3406 17.9192C12.1675 17.7269 12.0387 17.499 11.9631 17.2515C11.7715 16.6917 11.7133 16.0948 11.7931 15.5085C11.9025 14.7037 12.3014 13.9664 12.9151 13.4345Z" fill="black"/>
<path d="M23.637 17.161C23.4401 16.871 23.1655 16.6422 22.8448 16.5008C22.524 16.3593 22.17 16.3109 21.823 16.361C21.6864 16.3796 21.553 16.4096 21.423 16.451C21.5903 14.9274 21.1549 13.3988 20.21 12.192C19.22 11.042 17.93 10.192 16.483 9.73696C14.4169 9.16629 12.3149 8.73466 10.191 8.44496C8.81202 8.17345 7.41614 7.99604 6.01304 7.91396C4.6193 7.81563 3.22129 7.79226 1.82504 7.84396C1.77261 7.84354 1.72093 7.85642 1.67484 7.8814C1.62874 7.90638 1.58973 7.94264 1.56146 7.98679C1.53319 8.03095 1.51658 8.08155 1.51318 8.13387C1.50979 8.18619 1.51972 8.23852 1.54204 8.28596C1.56804 8.34401 1.61076 8.393 1.66473 8.42666C1.7187 8.46032 1.78147 8.47714 1.84504 8.47496C3.23638 8.45496 4.62571 8.50496 6.01304 8.62496C6.86404 8.69496 7.71604 8.80496 8.53804 8.94496C8.41312 9.26898 8.3223 9.60512 8.26704 9.94796C8.23886 10.1647 8.29626 10.3839 8.42704 10.559C8.63104 10.81 8.90204 10.998 9.20904 11.1C9.75838 11.25 10.316 11.3533 10.882 11.41C11.104 11.4546 11.3277 11.4813 11.553 11.49C11.7245 11.4788 11.8901 11.4237 12.034 11.33C12.247 11.17 12.413 10.955 12.515 10.71C12.6384 10.3826 12.735 10.0483 12.805 9.70696C13.965 9.89496 15.105 10.187 16.212 10.579C17.4836 10.9923 18.6126 11.7563 19.469 12.783C19.8893 13.3515 20.1843 14.0027 20.3344 14.6935C20.4846 15.3844 20.4865 16.0993 20.34 16.791C20.107 18.2205 19.3319 19.5052 18.176 20.378C17.589 20.778 16.929 21.058 16.232 21.2C15.5266 21.3644 14.7994 21.415 14.078 21.35C13.211 21.2855 12.3693 21.0286 11.614 20.598C10.8564 20.1843 10.2232 19.5757 9.78004 18.835C9.45209 18.3362 9.18929 17.7975 8.99804 17.232C8.8208 16.6794 8.76285 16.0956 8.82804 15.519C8.84117 15.4269 8.82258 15.333 8.77533 15.2529C8.72808 15.1728 8.65498 15.1111 8.56804 15.078L0.722043 12.361C0.722043 12.161 0.782043 9.53596 0.782043 9.53596C0.784799 9.49886 0.779857 9.46159 0.767528 9.42648C0.755199 9.39138 0.735748 9.35921 0.710396 9.33198C0.685044 9.30475 0.654338 9.28305 0.620205 9.26825C0.586072 9.25345 0.549247 9.24586 0.512043 9.24596C0.439483 9.24591 0.369738 9.27404 0.317506 9.3244C0.265274 9.37477 0.234634 9.44345 0.232043 9.51596L0.0820429 11.67C0.0413762 11.936 0.0143762 12.2033 0.00104285 12.472C-0.00467988 12.5501 0.013245 12.6281 0.052484 12.6959C0.0917229 12.7636 0.150458 12.818 0.221043 12.852L7.91604 15.858C7.87492 16.4453 7.93582 17.0354 8.09604 17.602C8.29104 18.247 8.57104 18.864 8.92804 19.435C9.43539 20.3059 10.156 21.0334 11.022 21.549C11.9052 22.0633 12.8903 22.378 13.908 22.471C14.735 22.549 15.57 22.501 16.383 22.331C17.2171 22.1465 18.0089 21.8066 18.717 21.329C19.133 21.029 19.507 20.675 19.829 20.277L19.949 20.477C20.0674 20.6391 20.217 20.7758 20.3891 20.879C20.5612 20.9823 20.7523 21.0499 20.951 21.078C21.25 21.109 21.551 21.089 21.843 21.018C22.3118 20.9126 22.7484 20.6962 23.116 20.387C23.504 20.054 23.781 19.61 23.907 19.115C23.9999 18.7883 24.0239 18.446 23.9774 18.1096C23.9309 17.7732 23.815 17.4502 23.637 17.161ZM11.814 10.148C11.734 10.288 11.714 10.559 11.584 10.518L9.67004 10.138C9.47437 10.1219 9.28377 10.0675 9.10904 9.97796C9.10904 9.36696 9.24904 9.38696 9.20904 9.03596C9.47904 9.09596 9.75904 9.13596 10.03 9.18596C10.682 9.33596 11.373 9.45596 12.034 9.58696C11.9711 9.78768 11.8977 9.98495 11.814 10.178V10.148ZM22.945 18.855C22.8686 19.151 22.709 19.4189 22.485 19.627C22.2543 19.8631 21.9733 20.0442 21.663 20.157C21.5083 20.2168 21.3467 20.2571 21.182 20.277C21.0459 20.2876 20.9091 20.2671 20.782 20.217C20.6879 20.1689 20.6029 20.1045 20.531 20.027C20.4428 19.9338 20.3625 19.8335 20.291 19.727C20.7901 18.9425 21.1302 18.0676 21.292 17.152H21.372C21.5207 17.1153 21.671 17.0986 21.823 17.102C22.0293 17.099 22.2323 17.1535 22.4093 17.2595C22.5863 17.3655 22.7303 17.5187 22.825 17.702C22.9205 17.8766 22.9803 18.0684 23.0009 18.2664C23.0215 18.4644 23.0025 18.6644 22.945 18.855ZM9.37004 3.73596C9.49004 3.80596 9.62004 3.85596 9.67004 3.89596C9.77497 3.99186 9.84822 4.11742 9.88004 4.25596C9.95138 4.48929 9.99804 4.72663 10.02 4.96796C10.0173 5.01008 10.023 5.05232 10.0367 5.09225C10.0504 5.13217 10.0718 5.169 10.0998 5.2006C10.1278 5.2322 10.1617 5.25796 10.1997 5.27638C10.2377 5.29481 10.2789 5.30554 10.321 5.30796C10.4043 5.31072 10.4853 5.28093 10.5469 5.22492C10.6085 5.1689 10.6459 5.09107 10.651 5.00796C10.742 4.62096 10.766 4.22096 10.721 3.82596C10.676 3.59365 10.5728 3.37656 10.421 3.19496C10.331 3.10496 9.90104 2.99496 9.72004 2.85496C9.74004 2.78496 9.76671 2.71796 9.80004 2.65396C9.94004 2.39396 10.1 2.15296 10.21 1.94196C10.2535 1.8822 10.2717 1.80766 10.2604 1.7346C10.2492 1.66154 10.2095 1.59588 10.15 1.55196C10.121 1.52908 10.0875 1.51242 10.0517 1.50301C10.0159 1.4936 9.97859 1.49165 9.94201 1.49728C9.90544 1.50291 9.87042 1.51599 9.83912 1.53572C9.80781 1.55545 9.7809 1.5814 9.76004 1.61196C9.56004 1.80196 9.26904 2.02196 9.03904 2.25296C8.91774 2.38633 8.81329 2.53411 8.72804 2.69296C8.68235 2.82321 8.678 2.96439 8.71559 3.0972C8.75318 3.23001 8.83087 3.34798 8.93804 3.43496C9.06871 3.55496 9.21238 3.65496 9.36904 3.73496M13.307 6.11096C13.8924 5.90905 14.4509 5.63636 14.97 5.29896C15.1322 5.18499 15.2661 5.03546 15.3616 4.8618C15.4571 4.68813 15.5117 4.49493 15.521 4.29696C15.5017 4.12545 15.4509 3.95898 15.371 3.80596L17.034 2.96396C17.1055 2.94514 17.1666 2.89885 17.2041 2.83516C17.2415 2.77147 17.2523 2.69556 17.234 2.62396C17.213 2.55175 17.1648 2.49052 17.0995 2.4532C17.0342 2.41589 16.9569 2.4054 16.884 2.42396L15.03 2.81396C14.85 2.86063 14.673 2.91729 14.499 2.98396C14.4253 3.0231 14.3605 3.0772 14.3088 3.1428C14.2572 3.20841 14.2198 3.28407 14.199 3.36496C14.1641 3.50651 14.1641 3.65441 14.199 3.79596C14.239 3.93329 14.2957 4.06329 14.369 4.18596C14.369 4.24596 14.469 4.29596 14.479 4.35696C14.489 4.41696 14.479 4.46696 14.399 4.52696C14.2917 4.65624 14.171 4.77389 14.039 4.87796C13.667 5.15796 13.257 5.38896 13.036 5.54896C12.9989 5.56703 12.9657 5.59235 12.9384 5.62343C12.9112 5.65452 12.8904 5.69074 12.8774 5.72997C12.8643 5.7692 12.8592 5.81064 12.8625 5.85185C12.8657 5.89307 12.8771 5.93322 12.896 5.96996C12.9344 6.04045 12.9978 6.09397 13.0737 6.1199C13.1497 6.14583 13.2326 6.14228 13.306 6.10996" fill="black"/>
</g>
<defs>
<clipPath id="clip0_669_29636">
<rect width="24" height="24" fill="white"/>
</clipPath>
</defs>
</svg>
