<svg width="24" height="24" viewBox="0 0 24 24" fill="none" xmlns="http://www.w3.org/2000/svg">
<g clip-path="url(#clip0_676_30256)">
<path fill-rule="evenodd" clip-rule="evenodd" d="M23.085 15.8638C22.8681 15.4276 22.5693 15.0372 22.205 14.7138C21.7858 14.3394 21.2699 14.0902 20.716 13.9948C20.2003 13.8997 19.6716 13.8997 19.156 13.9948C18.896 13.9948 18.656 14.1048 18.407 14.1748C18.157 14.2448 17.707 14.3948 17.407 14.5248C17.3569 14.5378 17.3107 14.5628 17.2723 14.5977C17.234 14.6325 17.2047 14.6761 17.187 14.7248L16.687 14.0248C15.8819 12.9878 14.8015 12.198 13.569 11.7458C13.2136 11.6507 12.8389 11.6554 12.486 11.7595C12.1331 11.8636 11.8158 12.063 11.569 12.3358C11.437 12.4792 11.341 12.6519 11.2888 12.8396C11.2366 13.0274 11.2298 13.2249 11.269 13.4158C11.42 13.9188 11.668 14.3868 11.999 14.7948C12.506 15.4633 13.1092 16.053 13.789 16.5448C14.0723 16.7428 14.3656 16.9258 14.669 17.0938H14.319C13.9539 17.0416 13.5816 17.0779 13.2336 17.1997C12.8855 17.3216 12.5718 17.5253 12.319 17.7938C11.929 18.3038 11.939 19.1038 13.009 19.9928C13.397 20.2888 13.838 20.5058 14.309 20.6328C14.789 20.7728 15.309 20.8428 15.748 20.9328C16.148 20.9828 16.535 21.1078 16.888 21.3028C17.324 21.5575 17.7306 21.8538 18.108 22.1918C18.707 22.7218 19.257 23.3118 19.797 23.8718C19.8652 23.9479 19.9606 23.9942 20.0626 24.0006C20.1646 24.0071 20.2651 23.9733 20.3424 23.9065C20.4197 23.8396 20.4677 23.7451 20.476 23.6432C20.4844 23.5414 20.4524 23.4403 20.387 23.3618C19.887 22.7218 19.387 22.0618 18.817 21.4618C18.4285 21.035 17.9998 20.6465 17.537 20.3018C17.2733 20.1114 16.9837 19.9599 16.677 19.8518C16.137 19.6791 15.5873 19.5461 15.028 19.4528C14.5725 19.3961 14.1353 19.239 13.748 18.9928C13.5772 18.8814 13.4227 18.7467 13.289 18.5928C13.289 18.5228 13.169 18.4728 13.209 18.4228C13.3421 18.2762 13.5065 18.1614 13.69 18.087C13.8735 18.0126 14.0713 17.9804 14.269 17.9928L15.798 17.8928C15.8513 17.8894 15.9032 17.8742 15.9499 17.8482C15.9966 17.8223 16.0369 17.7863 16.068 17.7428C16.1283 17.743 16.1874 17.7249 16.2373 17.691C16.2873 17.6571 16.3258 17.6089 16.348 17.5528C16.3659 17.5115 16.3755 17.4671 16.3761 17.4221C16.3768 17.3771 16.3685 17.3325 16.3518 17.2907C16.335 17.2489 16.3101 17.2109 16.2786 17.1788C16.2471 17.1467 16.2094 17.1212 16.168 17.1038C15.5088 16.7663 14.8996 16.3389 14.358 15.8338C13.822 15.3242 13.3644 14.7382 13 14.0948C12.91 13.9548 12.77 13.7348 12.65 13.5048C12.5902 13.417 12.5399 13.3232 12.5 13.2248C12.6539 13.079 12.8502 12.9859 13.0605 12.9589C13.2708 12.9319 13.4842 12.9725 13.67 13.0748C14.5386 13.4417 15.3291 13.9711 15.999 14.6348L16.879 15.6348C16.9193 15.7071 16.9815 15.7647 17.0566 15.7994C17.1318 15.8341 17.216 15.8441 17.2972 15.8278C17.3783 15.8116 17.4523 15.77 17.5083 15.7091C17.5643 15.6482 17.5996 15.571 17.609 15.4888C17.6141 15.434 17.6079 15.3787 17.5907 15.3263C17.5735 15.274 17.5457 15.2258 17.509 15.1848H17.569L18.428 15.0548C18.704 15.0401 18.9806 15.0401 19.258 15.0548C19.655 15.0678 20.048 15.1348 20.428 15.2548C20.772 15.3588 21.092 15.5318 21.367 15.7648C22.2507 16.6656 22.8908 17.7765 23.227 18.9928C23.2612 19.0894 23.3304 19.1697 23.4209 19.2178C23.5115 19.266 23.6167 19.2784 23.716 19.2528C23.7662 19.2392 23.813 19.2154 23.8536 19.183C23.8943 19.1505 23.9278 19.1101 23.9522 19.0641C23.9766 19.0182 23.9912 18.9678 23.9953 18.9159C23.9994 18.8641 23.9928 18.812 23.976 18.7628C23.802 17.7628 23.503 16.7898 23.086 15.8638M1.50297 0.0807834C1.22894 0.151733 0.97309 0.280045 0.752338 0.457235C0.531587 0.634425 0.350963 0.856456 0.222409 1.10865C0.0938547 1.36084 0.020299 1.63745 0.00660515 1.92019C-0.0070887 2.20292 0.0393912 2.48535 0.142972 2.74878C1.17297 5.18878 5.00297 3.46878 4.00297 1.25878C3.79433 0.79705 3.42793 0.424815 2.96955 0.208912C2.51117 -0.0069913 1.99083 -0.0524196 1.50197 0.0807834M2.70197 2.86878C2.70197 2.86878 1.58197 3.68878 1.21197 2.38878C1.18585 2.27234 1.18368 2.1518 1.2056 2.03449C1.22752 1.91718 1.27307 1.80556 1.33948 1.70641C1.4059 1.60726 1.49178 1.52265 1.59192 1.45773C1.69205 1.39282 1.80435 1.34894 1.92197 1.32878C2.12377 1.2612 2.34299 1.26731 2.54071 1.34603C2.73843 1.42475 2.90185 1.57099 3.00197 1.75878C3.07039 1.84679 3.11744 1.94948 3.13941 2.05876C3.16139 2.16804 3.15768 2.28094 3.1286 2.38855C3.09952 2.49616 3.04584 2.59555 2.97181 2.67888C2.89778 2.76222 2.80541 2.82722 2.70197 2.86878ZM1.50297 6.50778C1.22882 6.57871 0.97285 6.70705 0.752007 6.88431C0.531164 7.06156 0.350481 7.2837 0.221914 7.53601C0.0933467 7.78833 0.0198261 8.06506 0.00621722 8.34792C-0.0073917 8.63077 0.0392213 8.91329 0.142972 9.17678C1.17297 11.6158 5.00297 9.89678 4.00297 7.68678C3.79634 7.22355 3.43047 6.84975 2.97176 6.63324C2.51306 6.41674 1.99193 6.37287 1.50297 6.50778ZM1.21297 8.81578C1.18685 8.69934 1.18468 8.5788 1.2066 8.46149C1.22852 8.34418 1.27407 8.23256 1.34048 8.13341C1.4069 8.03426 1.49278 7.94965 1.59292 7.88473C1.69305 7.81982 1.80535 7.77594 1.92297 7.75578C2.12477 7.6882 2.34399 7.69431 2.54171 7.77303C2.73943 7.85175 2.90285 7.99799 3.00297 8.18578C3.67297 9.28578 1.62297 10.2558 1.21297 8.81578ZM1.50297 12.9948C1.23594 13.0669 0.986764 13.1935 0.771183 13.3668C0.555602 13.5401 0.378305 13.7562 0.250494 14.0015C0.122683 14.2468 0.0471372 14.5159 0.0286302 14.7919C0.0101231 15.0678 0.049057 15.3446 0.142972 15.6048C1.14297 18.0438 4.95297 16.3248 3.99297 14.1148C3.77639 13.6647 3.40782 13.3055 2.95227 13.1006C2.49672 12.8957 1.98345 12.8582 1.50297 12.9948ZM2.70297 15.7748C2.70297 15.7748 1.58297 16.5948 1.21297 15.2948C1.18685 15.1783 1.18468 15.0578 1.2066 14.9405C1.22852 14.8232 1.27407 14.7116 1.34048 14.6124C1.4069 14.5133 1.49278 14.4287 1.59292 14.3637C1.69305 14.2988 1.80535 14.2549 1.92297 14.2348C2.11912 14.163 2.33414 14.1616 2.53119 14.2309C2.72823 14.3002 2.89502 14.436 3.00297 14.6148C3.07139 14.7028 3.11844 14.8055 3.14041 14.9148C3.16239 15.024 3.15868 15.1369 3.1296 15.2445C3.10052 15.3522 3.04684 15.4515 2.97281 15.5349C2.89878 15.6182 2.80641 15.6832 2.70297 15.7248V15.7748ZM11.25 1.25978C11.0439 0.800797 10.6812 0.430079 10.2269 0.213904C9.77255 -0.00227171 9.25614 -0.0498114 8.76997 0.0797834C8.49578 0.150803 8.23981 0.27925 8.01898 0.456623C7.79816 0.633996 7.61754 0.856249 7.48906 1.10867C7.36058 1.36109 7.28718 1.63792 7.27372 1.92084C7.26026 2.20376 7.30704 2.4863 7.41097 2.74978C8.43097 5.18778 12.219 3.46978 11.25 1.25978ZM9.18997 1.32978C9.3932 1.26159 9.61398 1.26734 9.81339 1.346C10.0128 1.42467 10.178 1.57121 10.28 1.75978C10.94 2.85978 8.87997 3.82878 8.46997 2.38978C8.44539 2.27273 8.44466 2.15192 8.46781 2.03457C8.49097 1.91722 8.53754 1.80575 8.60475 1.7068C8.67196 1.60786 8.75842 1.52348 8.85897 1.4587C8.95952 1.39392 9.0721 1.35008 9.18997 1.32978ZM11.25 7.68678C11.1196 7.39353 10.924 7.1339 10.6781 6.92763C10.4322 6.72136 10.1425 6.5739 9.83107 6.49647C9.51962 6.41904 9.1946 6.41368 8.88076 6.4808C8.56691 6.54791 8.27252 6.68574 8.01997 6.88378C7.68704 7.15096 7.44833 7.51765 7.33875 7.93023C7.22918 8.34281 7.25448 8.77962 7.41097 9.17678C8.43097 11.6158 12.219 9.89678 11.25 7.68678ZM9.18997 7.75678C9.3932 7.68859 9.61398 7.69434 9.81339 7.773C10.0128 7.85167 10.178 7.99821 10.28 8.18678C10.94 9.28678 8.87997 10.2568 8.46997 8.81678C8.44539 8.69973 8.44466 8.57892 8.46781 8.46157C8.49097 8.34422 8.53754 8.23275 8.60475 8.1338C8.67196 8.03486 8.75842 7.95048 8.85897 7.8857C8.95952 7.82092 9.0721 7.77708 9.18997 7.75678Z" fill="black"/>
<path fill-rule="evenodd" clip-rule="evenodd" d="M8.77 12.9954C8.49716 13.0666 8.24247 13.1948 8.02265 13.3714C7.80283 13.5481 7.62284 13.7692 7.49451 14.0203C7.36617 14.2714 7.29239 14.5468 7.278 14.8284C7.26361 15.11 7.30893 15.3915 7.411 15.6544C8.411 18.0934 12.219 16.3744 11.25 14.1644C11.0454 13.7045 10.6825 13.3335 10.2273 13.1187C9.77214 12.904 9.25498 12.8609 8.77 12.9954ZM8.47 15.2934C8.44542 15.1763 8.44468 15.0555 8.46784 14.9382C8.491 14.8208 8.53757 14.7093 8.60478 14.6104C8.67199 14.5115 8.75845 14.4271 8.859 14.3623C8.95955 14.2975 9.07212 14.2537 9.19 14.2334C9.39323 14.1652 9.61401 14.1709 9.81342 14.2496C10.0128 14.3283 10.1781 14.4748 10.28 14.6634C10.94 15.7234 8.88 16.6734 8.47 15.2434V15.2934ZM18.517 1.25938C18.3082 0.793221 17.9389 0.417608 17.4763 0.201007C17.0137 -0.0155948 16.4887 -0.0587605 15.997 0.0793778C15.7229 0.150511 15.467 0.279041 15.2463 0.456462C15.0256 0.633884 14.8451 0.856152 14.7167 1.10856C14.5883 1.36097 14.515 1.63776 14.5016 1.92062C14.4882 2.20348 14.5351 2.48597 14.639 2.74938C15.699 5.18738 19.477 3.46938 18.517 1.25938ZM16.447 1.32938C16.6501 1.2591 16.8716 1.26383 17.0716 1.3427C17.2715 1.42156 17.4366 1.56937 17.537 1.75938C18.197 2.85938 16.147 3.82838 15.738 2.38938C15.7119 2.27293 15.7097 2.15239 15.7316 2.03509C15.7535 1.91778 15.7991 1.80616 15.8655 1.707C15.9319 1.60785 16.0178 1.52325 16.1179 1.45833C16.2181 1.39341 16.3294 1.34954 16.447 1.32938ZM18.517 7.68638C18.3099 7.21885 17.9408 6.84193 17.4777 6.62508C17.0146 6.40824 16.4887 6.36608 15.997 6.50638C15.7228 6.5774 15.4668 6.70584 15.246 6.88322C15.0252 7.06059 14.8446 7.28284 14.7161 7.53526C14.5876 7.78768 14.5142 8.06452 14.5007 8.34743C14.4873 8.63035 14.5341 8.9129 14.638 9.17638C15.698 11.6154 19.487 9.89638 18.517 7.68638ZM16.447 7.75638C16.6501 7.6861 16.8716 7.69083 17.0716 7.7697C17.2715 7.84856 17.4366 7.99637 17.537 8.18638C18.197 9.28638 16.147 10.2564 15.738 8.81638C15.7119 8.69993 15.7097 8.57939 15.7316 8.46209C15.7535 8.34478 15.7991 8.23316 15.8655 8.134C15.9319 8.03485 16.0178 7.95025 16.1179 7.88533C16.2181 7.82041 16.3294 7.77654 16.447 7.75638Z" fill="black"/>
</g>
<defs>
<clipPath id="clip0_676_30256">
<rect width="24" height="24" fill="white"/>
</clipPath>
</defs>
</svg>
