<svg width="1878" height="149" viewBox="0 0 1878 149" fill="none" xmlns="http://www.w3.org/2000/svg">
<rect width="1877.71" height="148.379" rx="8" fill="white"/>
<path d="M695.803 50.4024C693.172 47.3982 691.723 43.5409 691.723 39.5479H679.829V87.277C679.739 89.8605 678.649 92.308 676.79 94.1034C674.93 95.8987 672.445 96.9013 669.86 96.8998C664.394 96.8998 659.852 92.4348 659.852 86.892C659.852 80.2716 666.242 75.3062 672.824 77.3462V65.183C659.544 63.4124 647.92 73.728 647.92 86.892C647.92 99.7096 658.543 108.832 669.821 108.832C681.908 108.832 691.723 99.0168 691.723 86.892V62.6811C696.546 66.1447 702.336 68.003 708.274 67.9929V56.0991C708.274 56.0991 701.038 56.4455 695.803 50.4024Z" fill="#004E42"/>
<path d="M792.309 35.6982H824.642C836.959 35.6982 846.967 45.706 846.967 58.0231V90.3558C846.967 96.2767 844.615 101.955 840.428 106.142C836.241 110.329 830.563 112.681 824.642 112.681H792.309C779.992 112.681 769.984 102.673 769.984 90.3558V58.0231C769.984 52.1022 772.336 46.4238 776.523 42.2371C780.71 38.0503 786.388 35.6982 792.309 35.6982ZM791.539 43.3965C787.864 43.3965 784.34 44.8564 781.741 47.4551C779.143 50.0537 777.683 53.5783 777.683 57.2533V91.1256C777.683 98.7853 783.88 104.982 791.539 104.982H825.412C829.087 104.982 832.611 103.523 835.21 100.924C837.809 98.3252 839.269 94.8006 839.269 91.1256V57.2533C839.269 49.5936 833.071 43.3965 825.412 43.3965H791.539ZM828.683 49.1702C829.96 49.1702 831.183 49.6771 832.086 50.5794C832.988 51.4817 833.495 52.7055 833.495 53.9816C833.495 55.2576 832.988 56.4814 832.086 57.3837C831.183 58.2861 829.96 58.793 828.683 58.793C827.407 58.793 826.184 58.2861 825.281 57.3837C824.379 56.4814 823.872 55.2576 823.872 53.9816C823.872 52.7055 824.379 51.4817 825.281 50.5794C826.184 49.6771 827.407 49.1702 828.683 49.1702ZM808.476 54.9438C813.58 54.9438 818.475 56.9715 822.084 60.5808C825.694 64.19 827.721 69.0852 827.721 74.1895C827.721 79.2937 825.694 84.1889 822.084 87.7982C818.475 91.4074 813.58 93.4351 808.476 93.4351C803.371 93.4351 798.476 91.4074 794.867 87.7982C791.258 84.1889 789.23 79.2937 789.23 74.1895C789.23 69.0852 791.258 64.19 794.867 60.5808C798.476 56.9715 803.371 54.9438 808.476 54.9438ZM808.476 62.6421C805.413 62.6421 802.476 63.8587 800.31 66.0242C798.145 68.1898 796.928 71.1269 796.928 74.1895C796.928 77.252 798.145 80.1891 800.31 82.3547C802.476 84.5202 805.413 85.7368 808.476 85.7368C811.538 85.7368 814.475 84.5202 816.641 82.3547C818.806 80.1891 820.023 77.252 820.023 74.1895C820.023 71.1269 818.806 68.1898 816.641 66.0242C814.475 63.8587 811.538 62.6421 808.476 62.6421Z" fill="#004E42"/>
<path d="M965.797 39.5479C967.839 39.5479 969.797 40.3589 971.24 41.8026C972.684 43.2463 973.495 45.2044 973.495 47.2461V101.134C973.495 103.175 972.684 105.134 971.24 106.577C969.797 108.021 967.839 108.832 965.797 108.832H911.909C909.867 108.832 907.909 108.021 906.466 106.577C905.022 105.134 904.211 103.175 904.211 101.134V47.2461C904.211 45.2044 905.022 43.2463 906.466 41.8026C907.909 40.3589 909.867 39.5479 911.909 39.5479H965.797ZM963.872 99.2092V78.8089C963.872 75.4809 962.55 72.2892 960.197 69.936C957.844 67.5828 954.652 66.2607 951.324 66.2607C948.052 66.2607 944.242 68.2623 942.394 71.2646V66.9921H931.655V99.2092H942.394V80.2331C942.394 77.2692 944.781 74.8443 947.744 74.8443C949.174 74.8443 950.544 75.412 951.555 76.4226C952.566 77.4332 953.133 78.8039 953.133 80.2331V99.2092H963.872ZM919.146 60.949C920.861 60.949 922.505 60.2677 923.718 59.055C924.931 57.8423 925.612 56.1975 925.612 54.4824C925.612 50.9028 922.725 47.9774 919.146 47.9774C917.42 47.9774 915.766 48.6628 914.546 49.8827C913.326 51.1026 912.641 52.7572 912.641 54.4824C912.641 58.0621 915.566 60.949 919.146 60.949ZM924.496 99.2092V66.9921H913.834V99.2092H924.496Z" fill="#004E42"/>
<path d="M1069.23 35.8516C1048.06 35.8516 1030.74 53.1341 1030.74 74.4198C1030.74 93.6654 1044.83 109.639 1063.23 112.526V85.5822H1053.45V74.4198H1063.23V65.9132C1063.23 56.2519 1068.96 50.9401 1077.78 50.9401C1081.97 50.9401 1086.36 51.6715 1086.36 51.6715V61.1788H1081.51C1076.74 61.1788 1075.24 64.1426 1075.24 67.1834V74.4198H1085.94L1084.21 85.5822H1075.24V112.526C1084.31 111.094 1092.57 106.466 1098.52 99.4778C1104.48 92.4899 1107.75 83.6024 1107.72 74.4198C1107.72 53.1341 1090.4 35.8516 1069.23 35.8516Z" fill="#004E42"/>
<g clip-path="url(#clip0_210_643)">
<path d="M1190.73 91.8425L1214.93 77.8525L1190.73 63.8624V91.8425ZM1244.64 55.3285C1245.24 57.5202 1245.66 60.4581 1245.94 64.1888C1246.27 67.9195 1246.41 71.1372 1246.41 73.9352L1246.69 77.8525C1246.69 88.0652 1245.94 95.5732 1244.64 100.376C1243.47 104.573 1240.77 107.278 1236.57 108.444C1234.38 109.05 1230.37 109.47 1224.21 109.75C1218.15 110.076 1212.6 110.216 1207.47 110.216L1200.06 110.496C1180.52 110.496 1168.34 109.75 1163.54 108.444C1159.34 107.278 1156.64 104.573 1155.47 100.376C1154.87 98.1847 1154.45 95.2468 1154.17 91.5161C1153.84 87.7854 1153.7 84.5677 1153.7 81.7697L1153.42 77.8525C1153.42 67.6397 1154.17 60.1317 1155.47 55.3285C1156.64 51.1314 1159.34 48.4267 1163.54 47.2609C1165.73 46.6546 1169.74 46.2349 1175.9 45.9551C1181.96 45.6287 1187.51 45.4888 1192.64 45.4888L1200.06 45.209C1219.59 45.209 1231.77 45.9551 1236.57 47.2609C1240.77 48.4267 1243.47 51.1314 1244.64 55.3285Z" fill="#004E42"/>
</g>
<defs>
<clipPath id="clip0_210_643">
<rect width="92.3789" height="92.3789" fill="white" transform="translate(1153.42 28)"/>
</clipPath>
</defs>
</svg>
