<svg xmlns="http://www.w3.org/2000/svg" fill="none" viewBox="0 0 24 24" id="Calendar--Streamline-Ultimate.svg"><desc>Calendar Streamline Icon: https://streamlinehq.com</desc><path fill="#ff808c" d="M0.5 7.5v-4c0 -0.26522 0.105357 -0.51957 0.292893 -0.70711C0.98043 2.60536 1.23478 2.5 1.5 2.5h21c0.2652 0 0.5196 0.10536 0.7071 0.29289 0.1875 0.18754 0.2929 0.44189 0.2929 0.70711v4H0.5Z" stroke-width="1"></path><path fill="#ffbfc5" d="M0.5 5V3.5c0 -0.26522 0.105357 -0.51957 0.292893 -0.70711C0.98043 2.60536 1.23478 2.5 1.5 2.5h21c0.2652 0 0.5196 0.10536 0.7071 0.29289 0.1875 0.18754 0.2929 0.44189 0.2929 0.70711V5H0.5Z" stroke-width="1"></path><path fill="#ffffff" d="M0.5 7.5h23v15c0 0.2652 -0.1054 0.5196 -0.2929 0.7071s-0.4419 0.2929 -0.7071 0.2929h-21c-0.26522 0 -0.51957 -0.1054 -0.707107 -0.2929C0.605357 23.0196 0.5 22.7652 0.5 22.5v-15Z" stroke-width="1"></path><path stroke="#191919" stroke-linecap="round" stroke-linejoin="round" d="M22.5 2.501h-21c-0.552285 0 -1 0.44772 -1 1v19c0 0.5523 0.447715 1 1 1h21c0.5523 0 1 -0.4477 1 -1v-19c0 -0.55228 -0.4477 -1 -1 -1Z" stroke-width="1"></path><path stroke="#191919" stroke-linecap="round" stroke-linejoin="round" d="M5.5 0.501v5" stroke-width="1"></path><path stroke="#191919" stroke-linecap="round" stroke-linejoin="round" d="M18.5 0.501v5" stroke-width="1"></path><path stroke="#191919" stroke-linecap="round" stroke-linejoin="round" d="M0.5 7.501h23" stroke-width="1"></path></svg>