<svg width="180" height="76" viewBox="0 0 180 76" fill="none" xmlns="http://www.w3.org/2000/svg">
<path d="M41.5 28V30H32.5C32.2348 30 31.9804 30.1054 31.7929 30.2929C31.6054 30.4804 31.5 30.7348 31.5 31V43H29.5C29.2348 43 28.9804 42.8946 28.7929 42.7071C28.6054 42.5196 28.5 42.2652 28.5 42V28C28.5 27.7348 28.6054 27.4804 28.7929 27.2929C28.9804 27.1054 29.2348 27 29.5 27H40.5C40.7652 27 41.0196 27.1054 41.2071 27.2929C41.3946 27.4804 41.5 27.7348 41.5 28Z" fill="#E3E3E3" stroke="#191919" stroke-linecap="round" stroke-linejoin="round"/>
<path d="M44.5 31V33H35.5C35.2348 33 34.9804 33.1054 34.7929 33.2929C34.6054 33.4804 34.5 33.7348 34.5 34V46H32.5C32.2348 46 31.9804 45.8946 31.7929 45.7071C31.6054 45.5196 31.5 45.2652 31.5 45V31C31.5 30.7348 31.6054 30.4804 31.7929 30.2929C31.9804 30.1054 32.2348 30 32.5 30H43.5C43.7652 30 44.0196 30.1054 44.2071 30.2929C44.3946 30.4804 44.5 30.7348 44.5 31Z" fill="#E3E3E3" stroke="#191919" stroke-linecap="round" stroke-linejoin="round"/>
<path d="M46.5 33H35.5C34.9477 33 34.5 33.4477 34.5 34V48C34.5 48.5523 34.9477 49 35.5 49H46.5C47.0523 49 47.5 48.5523 47.5 48V34C47.5 33.4477 47.0523 33 46.5 33Z" fill="#E3E3E3"/>
<path d="M47.255 33.366C47.1639 33.2531 47.049 33.1618 46.9185 33.0985C46.7879 33.0352 46.645 33.0016 46.5 33H35.5C35.2348 33 34.9804 33.1054 34.7929 33.2929C34.6054 33.4804 34.5 33.7348 34.5 34V46.121L47.255 33.366Z" fill="white"/>
<path d="M46.5 33H35.5C34.9477 33 34.5 33.4477 34.5 34V48C34.5 48.5523 34.9477 49 35.5 49H46.5C47.0523 49 47.5 48.5523 47.5 48V34C47.5 33.4477 47.0523 33 46.5 33Z" stroke="#191919" stroke-linecap="round" stroke-linejoin="round"/>
<path d="M36.5 37L36.866 37.732C36.9002 37.8008 36.9504 37.8604 37.0122 37.906C37.0741 37.9515 37.1459 37.9817 37.2217 37.994C37.2975 38.0063 37.3752 38.0004 37.4483 37.9768C37.5214 37.9531 37.5878 37.9124 37.642 37.858L39.5 36" stroke="#191919" stroke-linecap="round" stroke-linejoin="round"/>
<path d="M41.5 37H45.5" stroke="#191919" stroke-linecap="round" stroke-linejoin="round"/>
<path d="M36.5 42L36.866 42.732C36.9002 42.8008 36.9504 42.8604 37.0122 42.906C37.0741 42.9515 37.1459 42.9817 37.2217 42.994C37.2975 43.0063 37.3752 43.0004 37.4483 42.9768C37.5214 42.9531 37.5878 42.9124 37.642 42.858L39.5 41" stroke="#191919" stroke-linecap="round" stroke-linejoin="round"/>
<path d="M41.5 42H45.5" stroke="#191919" stroke-linecap="round" stroke-linejoin="round"/>
<path d="M41.5 45H43.5" stroke="#191919" stroke-linecap="round" stroke-linejoin="round"/>
<g clip-path="url(#clip0_164_2771)">
<path d="M101.27 27.71V41.43H94.41C94.1501 41.43 93.9008 41.5333 93.717 41.717C93.5332 41.9007 93.43 42.1501 93.43 42.41V49.27H79.71C79.4501 49.27 79.2008 49.1667 79.017 48.983C78.8333 48.7992 78.73 48.5499 78.73 48.29V27.71C78.73 27.4501 78.8333 27.2008 79.017 27.017C79.2008 26.8333 79.4501 26.73 79.71 26.73H100.29C100.55 26.73 100.799 26.8333 100.983 27.017C101.167 27.2008 101.27 27.4501 101.27 27.71Z" fill="#FFEF5E"/>
<path d="M101.27 41.43L93.43 49.27V42.41C93.43 42.1501 93.5333 41.9008 93.717 41.717C93.9007 41.5332 94.1501 41.43 94.41 41.43H101.27Z" fill="#FFBC44"/>
<path d="M101.27 27.71V41.43H94.41C94.1501 41.43 93.9008 41.5333 93.717 41.717C93.5332 41.9007 93.43 42.1501 93.43 42.41V49.27H79.71C79.4501 49.27 79.2008 49.1667 79.017 48.983C78.8333 48.7992 78.73 48.5499 78.73 48.29V27.71C78.73 27.4501 78.8333 27.2008 79.017 27.017C79.2008 26.8333 79.4501 26.73 79.71 26.73H100.29C100.55 26.73 100.799 26.8333 100.983 27.017C101.167 27.2008 101.27 27.4501 101.27 27.71Z" stroke="#191919" stroke-linecap="round" stroke-linejoin="round"/>
<path d="M101.27 41.43L93.43 49.27V42.41C93.43 42.1501 93.5333 41.9008 93.717 41.717C93.9007 41.5332 94.1501 41.43 94.41 41.43H101.27Z" stroke="#191919" stroke-linecap="round" stroke-linejoin="round"/>
<path d="M83.14 35.9959L84.12 35.0159C84.38 34.7562 84.7325 34.6103 85.1 34.6103C85.4675 34.6103 85.82 34.7562 86.08 35.0159C86.34 35.2756 86.6925 35.4215 87.06 35.4215C87.4275 35.4215 87.78 35.2756 88.04 35.0159C88.3 34.7562 88.6525 34.6103 89.02 34.6103C89.3875 34.6103 89.74 34.7562 90 35.0159C90.26 35.2756 90.6125 35.4215 90.98 35.4215C91.3475 35.4215 91.7 35.2756 91.96 35.0159C92.22 34.7562 92.5725 34.6103 92.94 34.6103C93.3075 34.6103 93.66 34.7562 93.92 35.0159C94.18 35.2756 94.5325 35.4215 94.9 35.4215C95.2675 35.4215 95.62 35.2756 95.88 35.0159L96.86 34.0359" stroke="#191919" stroke-linecap="round" stroke-linejoin="round"/>
<path d="M83.14 40.8959L84.12 39.9159C84.38 39.6562 84.7325 39.5103 85.1 39.5103C85.4675 39.5103 85.82 39.6562 86.08 39.9159C86.34 40.1756 86.6925 40.3215 87.06 40.3215C87.4275 40.3215 87.78 40.1756 88.04 39.9159" stroke="#191919" stroke-linecap="round" stroke-linejoin="round"/>
</g>
<g clip-path="url(#clip1_164_2771)">
<path d="M130.5 33.5V29.5C130.5 29.2348 130.605 28.9804 130.793 28.7929C130.98 28.6054 131.235 28.5 131.5 28.5H152.5C152.765 28.5 153.02 28.6054 153.207 28.7929C153.395 28.9804 153.5 29.2348 153.5 29.5V33.5H130.5Z" fill="#FF808C"/>
<path d="M130.5 31V29.5C130.5 29.2348 130.605 28.9804 130.793 28.7929C130.98 28.6054 131.235 28.5 131.5 28.5H152.5C152.765 28.5 153.02 28.6054 153.207 28.7929C153.395 28.9804 153.5 29.2348 153.5 29.5V31H130.5Z" fill="#FFBFC5"/>
<path d="M130.5 33.5H153.5V48.5C153.5 48.7652 153.395 49.0196 153.207 49.2071C153.02 49.3946 152.765 49.5 152.5 49.5H131.5C131.235 49.5 130.98 49.3946 130.793 49.2071C130.605 49.0196 130.5 48.7652 130.5 48.5V33.5Z" fill="white"/>
<path d="M152.5 28.501H131.5C130.948 28.501 130.5 28.9487 130.5 29.501V48.501C130.5 49.0533 130.948 49.501 131.5 49.501H152.5C153.052 49.501 153.5 49.0533 153.5 48.501V29.501C153.5 28.9487 153.052 28.501 152.5 28.501Z" stroke="#191919" stroke-linecap="round" stroke-linejoin="round"/>
<path d="M135.5 26.501V31.501" stroke="#191919" stroke-linecap="round" stroke-linejoin="round"/>
<path d="M148.5 26.501V31.501" stroke="#191919" stroke-linecap="round" stroke-linejoin="round"/>
<path d="M130.5 33.501H153.5" stroke="#191919" stroke-linecap="round" stroke-linejoin="round"/>
</g>
<defs>
<clipPath id="clip0_164_2771">
<rect width="24" height="24" fill="white" transform="translate(78 26)"/>
</clipPath>
<clipPath id="clip1_164_2771">
<rect width="24" height="24" fill="white" transform="translate(130 26)"/>
</clipPath>
</defs>
</svg>
