<svg xmlns="http://www.w3.org/2000/svg" fill="none" viewBox="0 0 24 24" id="Task-List-Multiple--Streamline-Ultimate.svg"><desc>Task List Multiple Streamline Icon: https://streamlinehq.com</desc><path fill="#e3e3e3" stroke="#191919" stroke-linecap="round" stroke-linejoin="round" d="M15.5 2v2h-9c-0.26522 0 -0.51957 0.10536 -0.70711 0.29289C5.60536 4.48043 5.5 4.73478 5.5 5v12h-2c-0.26522 0 -0.51957 -0.1054 -0.70711 -0.2929C2.60536 16.5196 2.5 16.2652 2.5 16V2c0 -0.26522 0.10536 -0.51957 0.29289 -0.70711C2.98043 1.10536 3.23478 1 3.5 1h11c0.2652 0 0.5196 0.10536 0.7071 0.29289 0.1875 0.18754 0.2929 0.44189 0.2929 0.70711Z" stroke-width="1"></path><path fill="#e3e3e3" stroke="#191919" stroke-linecap="round" stroke-linejoin="round" d="M18.5 5v2h-9c-0.26522 0 -0.51957 0.10536 -0.70711 0.29289C8.60536 7.48043 8.5 7.73478 8.5 8v12h-2c-0.26522 0 -0.51957 -0.1054 -0.70711 -0.2929C5.60536 19.5196 5.5 19.2652 5.5 19V5c0 -0.26522 0.10536 -0.51957 0.29289 -0.70711C5.98043 4.10536 6.23478 4 6.5 4h11c0.2652 0 0.5196 0.10536 0.7071 0.29289 0.1875 0.18754 0.2929 0.44189 0.2929 0.70711Z" stroke-width="1"></path><path fill="#e3e3e3" d="M20.5 7h-11c-0.55228 0 -1 0.44772 -1 1v14c0 0.5523 0.44772 1 1 1h11c0.5523 0 1 -0.4477 1 -1V8c0 -0.55228 -0.4477 -1 -1 -1Z" stroke-width="1"></path><path fill="#ffffff" d="M21.255 7.366c-0.0911 -0.11288 -0.206 -0.20423 -0.3365 -0.2675 -0.1306 -0.06328 -0.2735 -0.09691 -0.4185 -0.0985h-11c-0.26522 0 -0.51957 0.10536 -0.70711 0.29289C8.60536 7.48043 8.5 7.73478 8.5 8v12.121L21.255 7.366Z" stroke-width="1"></path><path stroke="#191919" stroke-linecap="round" stroke-linejoin="round" d="M20.5 7h-11c-0.55228 0 -1 0.44772 -1 1v14c0 0.5523 0.44772 1 1 1h11c0.5523 0 1 -0.4477 1 -1V8c0 -0.55228 -0.4477 -1 -1 -1Z" stroke-width="1"></path><path stroke="#191919" stroke-linecap="round" stroke-linejoin="round" d="m10.5 11 0.366 0.732c0.0342 0.0688 0.0844 0.1284 0.1462 0.174 0.0619 0.0455 0.1337 0.0757 0.2095 0.088 0.0758 0.0123 0.1535 0.0064 0.2266 -0.0172 0.0731 -0.0237 0.1395 -0.0644 0.1937 -0.1188L13.5 10" stroke-width="1"></path><path stroke="#191919" stroke-linecap="round" stroke-linejoin="round" d="M15.5 11h4" stroke-width="1"></path><path stroke="#191919" stroke-linecap="round" stroke-linejoin="round" d="m10.5 16 0.366 0.732c0.0342 0.0688 0.0844 0.1284 0.1462 0.174 0.0619 0.0455 0.1337 0.0757 0.2095 0.088 0.0758 0.0123 0.1535 0.0064 0.2266 -0.0172 0.0731 -0.0237 0.1395 -0.0644 0.1937 -0.1188L13.5 15" stroke-width="1"></path><path stroke="#191919" stroke-linecap="round" stroke-linejoin="round" d="M15.5 16h4" stroke-width="1"></path><path stroke="#191919" stroke-linecap="round" stroke-linejoin="round" d="M15.5 19h2" stroke-width="1"></path></svg>