<svg xmlns="http://www.w3.org/2000/svg" fill="none" viewBox="0 0 24 24" id="Notes-Paper-Text--Streamline-Ultimate.svg"><desc>Notes Paper Text Streamline Icon: https://streamlinehq.com</desc><path fill="#ffef5e" d="M23.27 1.71V15.43H16.41C16.1501 15.43 15.9008 15.5333 15.717 15.717S15.43 16.1501 15.43 16.41V23.27H1.71C1.4501 23.27 1.2008 23.1667 1.017 22.983C0.8333 22.7992 0.73 22.5499 0.73 22.29V1.71C0.73 1.4501 0.8333 1.2008 1.017 1.017C1.2008 0.8333 1.4501 0.73 1.71 0.73H22.29C22.5499 0.73 22.7992 0.8333 22.983 1.017C23.1667 1.2008 23.27 1.4501 23.27 1.71Z" stroke-width="1"></path><path fill="#ffbc44" d="M23.27 15.43L15.43 23.27V16.41C15.43 16.1501 15.5333 15.9008 15.717 15.717S16.1501 15.43 16.41 15.43H23.27Z" stroke-width="1"></path><path stroke="#191919" stroke-linecap="round" stroke-linejoin="round" d="M23.27 1.71V15.43H16.41C16.1501 15.43 15.9008 15.5333 15.717 15.717S15.43 16.1501 15.43 16.41V23.27H1.71C1.4501 23.27 1.2008 23.1667 1.017 22.983C0.8333 22.7992 0.73 22.5499 0.73 22.29V1.71C0.73 1.4501 0.8333 1.2008 1.017 1.017C1.2008 0.8333 1.4501 0.73 1.71 0.73H22.29C22.5499 0.73 22.7992 0.8333 22.983 1.017C23.1667 1.2008 23.27 1.4501 23.27 1.71Z" stroke-width="1"></path><path stroke="#191919" stroke-linecap="round" stroke-linejoin="round" d="M23.27 15.43L15.43 23.27V16.41C15.43 16.1501 15.5333 15.9008 15.717 15.717S16.1501 15.43 16.41 15.43H23.27Z" stroke-width="1"></path><path stroke="#191919" stroke-linecap="round" stroke-linejoin="round" d="M5.14 9.9959L6.12 9.0159C6.38 8.7562 6.7325 8.6103 7.1 8.6103C7.4675 8.6103 7.82 8.7562 8.08 9.0159S8.6925 9.4215 9.06 9.4215C9.4275 9.4215 9.78 9.2756 10.04 9.0159C10.3 8.7562 10.6525 8.6103 11.02 8.6103S11.74 8.7562 12 9.0159S12.6125 9.4215 12.98 9.4215S13.7 9.2756 13.96 9.0159S14.5725 8.6103 14.94 8.6103S15.66 8.7562 15.92 9.0159S16.5325 9.4215 16.9 9.4215S17.62 9.2756 17.88 9.0159L18.86 8.0359" stroke-width="1"></path><path stroke="#191919" stroke-linecap="round" stroke-linejoin="round" d="M5.14 14.8959L6.12 13.9159C6.38 13.6562 6.7325 13.5103 7.1 13.5103C7.4675 13.5103 7.82 13.6562 8.08 13.9159S8.6925 14.3215 9.06 14.3215C9.4275 14.3215 9.78 14.1756 10.04 13.9159" stroke-width="1"></path></svg>