<svg width="24" height="24" viewBox="0 0 24 24" fill="none" xmlns="http://www.w3.org/2000/svg">
<g clip-path="url(#clip0_701_29661)">
<path fill-rule="evenodd" clip-rule="evenodd" d="M22.4327 1.72953C22.6865 1.58618 22.9188 1.40775 23.1227 1.19953C23.3327 0.98953 23.4727 0.72953 23.6127 0.57953C23.6703 0.514715 23.701 0.430342 23.6984 0.343668C23.6959 0.256994 23.6603 0.17457 23.599 0.113256C23.5377 0.0519415 23.4553 0.0163707 23.3686 0.0138192C23.2819 0.0112678 23.1975 0.0419286 23.1327 0.0995299C22.9027 0.266197 22.6927 0.456197 22.5027 0.66953C22.3127 0.87953 22.1827 1.13953 22.0427 1.28953C22.0095 1.32192 21.9842 1.36157 21.9689 1.40537C21.9536 1.44917 21.9487 1.49593 21.9545 1.54197C21.9603 1.588 21.9767 1.63206 22.0024 1.67068C22.0282 1.7093 22.0625 1.74142 22.1027 1.76453C22.1548 1.79303 22.2144 1.80486 22.2734 1.79842C22.3324 1.79198 22.388 1.76759 22.4327 1.72853M22.9027 3.57953C22.6174 3.40034 22.2895 3.30025 21.9527 3.28953C21.8746 3.27803 21.795 3.29783 21.7313 3.34464C21.6677 3.39145 21.6251 3.46148 21.6127 3.53953C21.6012 3.6177 21.621 3.69726 21.6678 3.76092C21.7146 3.82458 21.7847 3.8672 21.8627 3.87953C21.9461 3.90886 22.0227 3.94886 22.0927 3.99953C22.2227 4.08353 22.3461 4.17686 22.4627 4.27953C22.6727 4.42953 22.9027 4.55953 23.0827 4.69953C23.1134 4.73067 23.15 4.7554 23.1904 4.77228C23.2307 4.78916 23.274 4.79785 23.3177 4.79785C23.3615 4.79785 23.4048 4.78916 23.4451 4.77228C23.4854 4.7554 23.522 4.73067 23.5527 4.69953C23.6162 4.6358 23.6519 4.5495 23.6519 4.45953C23.6519 4.36956 23.6162 4.28326 23.5527 4.21953C23.37 3.97431 23.1508 3.75848 22.9027 3.57953ZM18.7007 4.62953C18.8807 4.45953 19.1007 4.32953 19.2907 4.15953C19.4807 3.98953 19.6307 3.79953 19.8307 3.63953C19.8645 3.62082 19.8943 3.59553 19.9182 3.56516C19.9421 3.53479 19.9597 3.49995 19.9699 3.46269C19.9802 3.42542 19.9829 3.38648 19.9779 3.34816C19.9728 3.30984 19.9602 3.2729 19.9407 3.23953C19.8992 3.17248 19.8337 3.12378 19.7575 3.10334C19.6813 3.08291 19.6002 3.09227 19.5307 3.12953C19.2566 3.22611 18.9974 3.36076 18.7607 3.52953C18.5481 3.7202 18.3614 3.93353 18.2007 4.16953C18.1372 4.23326 18.1016 4.31956 18.1016 4.40953C18.1016 4.4995 18.1372 4.5858 18.2007 4.64953C18.2346 4.68152 18.2746 4.70642 18.3182 4.72276C18.3619 4.73911 18.4084 4.74656 18.4549 4.7447C18.5015 4.74284 18.5472 4.73169 18.5895 4.71191C18.6317 4.69214 18.6695 4.66413 18.7007 4.62953ZM19.1707 1.08953C19.3207 1.25953 19.5107 1.38953 19.6107 1.50953C19.6304 1.54369 19.6566 1.57364 19.6879 1.59765C19.7192 1.62167 19.7549 1.63929 19.7929 1.64951C19.831 1.65973 19.8707 1.66234 19.9098 1.65719C19.9489 1.65205 19.9866 1.63925 20.0207 1.61953C20.088 1.57813 20.1363 1.51185 20.155 1.43509C20.1737 1.35832 20.1614 1.27727 20.1207 1.20953C20.0476 0.97602 19.9361 0.756338 19.7907 0.55953C19.6286 0.36785 19.4318 0.208406 19.2107 0.0895299C19.175 0.0629754 19.1342 0.0439379 19.0909 0.0335648C19.0475 0.0231917 19.0026 0.0216976 18.9586 0.0291728C18.9147 0.0366479 18.8728 0.0529374 18.8353 0.0770596C18.7979 0.101182 18.7657 0.132637 18.7407 0.16953C18.6887 0.241497 18.6669 0.330959 18.68 0.418788C18.6931 0.506618 18.74 0.585845 18.8107 0.63953C18.9207 0.73953 19.0107 0.92953 19.1707 1.08953Z" fill="black"/>
<path fill-rule="evenodd" clip-rule="evenodd" d="M21.5121 9.99307V5.61107C21.5121 5.53151 21.4805 5.4552 21.4242 5.39894C21.3679 5.34268 21.2916 5.31107 21.2121 5.31107C21.1325 5.31107 21.0562 5.34268 20.9999 5.39894C20.9437 5.4552 20.9121 5.53151 20.9121 5.61107L20.8421 7.66107C20.7754 8.6607 20.7287 9.66157 20.7021 10.6631C20.6521 12.1431 20.6221 13.5941 20.5721 15.1851C20.5721 16.3151 20.5121 17.4751 20.4521 18.6361C20.4021 19.3961 20.3421 20.1571 20.2421 20.8971C20.2242 21.0995 20.1599 21.295 20.0541 21.4684C19.9483 21.6419 19.8039 21.7886 19.6321 21.8971C18.9289 22.2125 18.159 22.3502 17.3901 22.2981L11.7581 22.3981C11.2181 22.3981 10.2381 22.4481 9.38707 22.3981C8.9384 22.4241 8.49144 22.3236 8.09707 22.1081C7.88237 21.8989 7.72678 21.6367 7.64607 21.3481C7.54607 20.9767 7.48274 20.6001 7.45607 20.2181C8.29217 19.8014 9.07178 19.2798 9.77607 18.6661C10.3122 18.246 10.6698 17.6387 10.7771 16.9661C10.857 16.4554 10.761 15.9326 10.5048 15.4837C10.2486 15.0347 9.84741 14.6861 9.36707 14.4951C8.89191 14.3454 8.38223 14.3454 7.90707 14.4951V11.6031C7.90707 10.1431 8.05707 8.60207 8.12707 7.37107C8.19707 6.14107 8.23707 4.97107 8.24707 4.54107C8.24307 4.1844 8.27307 3.83074 8.33707 3.48007C8.37442 3.21485 8.49731 2.96907 8.68707 2.78007C8.91207 2.60407 9.17107 2.47507 9.44707 2.40007V2.56007C9.49707 2.84007 9.59707 3.16007 9.62707 3.39007C9.71107 3.77007 9.83807 4.14007 10.0071 4.49007C10.1517 4.8434 10.3317 5.17674 10.5471 5.49007C10.6542 5.61045 10.7985 5.69144 10.9571 5.72007C11.3637 5.80007 11.7741 5.8334 12.1881 5.82007H13.3581C14.0081 5.82007 14.6491 5.69007 15.0991 5.62007C15.5491 5.55007 15.8291 5.51007 16.1991 5.48007C16.4331 5.46007 16.6667 5.46007 16.9001 5.48007C16.9435 5.48565 16.9875 5.48255 17.0297 5.47095C17.0719 5.45935 17.1113 5.43948 17.1458 5.4125C17.1802 5.38551 17.2089 5.35195 17.2302 5.31377C17.2516 5.27558 17.2651 5.23353 17.2701 5.19007C17.2848 5.1441 17.2896 5.09552 17.2843 5.04755C17.2789 4.99957 17.2634 4.95328 17.2388 4.91172C17.2143 4.87016 17.1812 4.83426 17.1418 4.8064C17.1023 4.77854 17.0575 4.75934 17.0101 4.75007C16.745 4.71145 16.4779 4.68808 16.2101 4.68007H13.2281C10.9781 4.68007 11.4181 4.93007 10.8781 4.05007C10.7087 3.79473 10.5647 3.52344 10.4481 3.24007C10.3881 3.01007 10.2281 2.71007 10.1381 2.42007C10.13 2.36369 10.13 2.30645 10.1381 2.25007C10.7981 2.1234 11.4647 2.06007 12.1381 2.06007L15.8501 1.99007L17.5201 1.91907C17.6102 1.91907 17.6967 1.88325 17.7605 1.81949C17.8243 1.75572 17.8601 1.66924 17.8601 1.57907C17.8601 1.4889 17.8243 1.40242 17.7605 1.33865C17.6967 1.27489 17.6102 1.23907 17.5201 1.23907H15.8401L12.1581 1.15907C11.3321 1.11182 10.5035 1.15541 9.68707 1.28907C9.07707 1.37907 8.50007 1.61907 8.00707 1.98907C7.69107 2.25107 7.45707 2.59907 7.33607 2.98907C7.20184 3.4949 7.1379 4.0168 7.14607 4.54007V9.95307C6.19329 9.90957 5.2437 10.0916 4.37453 10.4843C3.50536 10.877 2.74115 11.4693 2.14407 12.2131C1.48033 12.9698 0.97352 13.8509 0.653073 14.8051C0.338013 15.7721 0.225676 16.7937 0.323073 17.8061C0.426073 18.8501 0.613073 19.8841 0.883073 20.8971C1.15483 21.9006 1.53018 22.8732 2.00307 23.7991C2.02144 23.8398 2.04766 23.8765 2.08022 23.9071C2.11278 23.9377 2.15105 23.9615 2.19284 23.9773C2.23463 23.9931 2.27913 24.0005 2.32378 23.9991C2.36843 23.9977 2.41237 23.9875 2.45307 23.9691C2.53354 23.9302 2.59544 23.8611 2.62539 23.7769C2.65533 23.6927 2.65091 23.6001 2.61307 23.5191C2.23476 22.5967 1.95325 21.6376 1.77307 20.6571C1.58029 19.6673 1.4666 18.6638 1.43307 17.6561C1.39307 16.7981 1.51307 15.9401 1.78307 15.1251C2.03633 14.299 2.43231 13.5236 2.95307 12.8341C3.43242 12.1522 4.06311 11.5905 4.79575 11.1931C5.52839 10.7956 6.3431 10.5731 7.17607 10.5431C7.17607 11.9831 7.25607 13.4341 7.35607 14.6451V14.7051C6.73798 15.025 6.21405 15.5007 5.83607 16.0851C5.78966 16.15 5.77096 16.2308 5.78409 16.3096C5.79722 16.3883 5.8411 16.4587 5.90607 16.5051C5.97105 16.5515 6.05181 16.5702 6.13057 16.5571C6.20934 16.5439 6.27966 16.5 6.32607 16.4351C6.5846 16.0695 6.92592 15.7702 7.32216 15.5616C7.7184 15.3531 8.15834 15.2412 8.60607 15.2351C9.29607 15.2351 9.74607 15.8351 9.60607 16.9051C9.60607 17.3651 9.12607 17.7761 8.60607 18.1861C7.79074 18.8174 6.93741 19.3911 6.04607 19.9071C5.81485 20.1249 5.64293 20.398 5.54652 20.7007C5.45012 21.0034 5.43241 21.3256 5.49507 21.6371C5.55307 22.4411 5.88507 23.2001 6.43507 23.7891C6.5027 23.8487 6.59127 23.8791 6.68129 23.8735C6.7713 23.8679 6.8554 23.8267 6.91507 23.7591C6.97475 23.6914 7.00511 23.6029 6.99948 23.5129C6.99386 23.4228 6.9527 23.3387 6.88507 23.2791C6.56767 22.8812 6.37928 22.3959 6.34507 21.8881C6.28958 21.594 6.28958 21.2921 6.34507 20.9981C6.34507 20.8681 6.40507 20.7681 6.49507 20.7181L6.72507 20.5981C6.74507 20.9361 6.79507 21.2694 6.87507 21.5981C6.98207 22.0161 7.19507 22.3981 7.49507 22.7081C7.88013 23.0038 8.34297 23.181 8.82707 23.2181C9.77174 23.3127 10.7184 23.3594 11.6671 23.3581C12.4681 23.3581 13.3991 23.4181 14.5091 23.4381H17.3401C18.3075 23.4957 19.2739 23.3101 20.1511 22.8981C20.4732 22.7049 20.7453 22.4386 20.9453 22.1207C21.1453 21.8027 21.2675 21.4421 21.3021 21.0681C21.4021 20.2981 21.4721 19.5071 21.5021 18.7161C21.5521 17.5361 21.5021 16.3561 21.5021 15.2151C21.5821 13.3751 21.5221 11.6931 21.5121 9.99307Z" fill="black"/>
<path fill-rule="evenodd" clip-rule="evenodd" d="M17.4798 13.3652C17.8019 12.619 17.9292 11.8031 17.8498 10.9942C17.8056 10.4334 17.6046 9.89629 17.2698 9.44423C17.1109 9.26664 16.9253 9.11483 16.7198 8.99423C16.4113 8.80318 16.0735 8.66432 15.7198 8.58323C15.4866 8.51557 15.2495 8.46214 15.0098 8.42323C14.8298 8.40842 14.6488 8.40842 14.4688 8.42323C14.1356 8.3514 13.7888 8.37567 13.4688 8.49323C12.8188 8.74217 12.2338 9.13538 11.7578 9.64322C11.2865 10.1728 10.9745 10.8249 10.8578 11.5242C10.724 12.2257 10.7757 12.9499 11.0078 13.6252C11.2328 14.1792 11.6148 14.6552 12.1078 14.9952C12.4178 15.1902 12.7558 15.3382 13.1078 15.4362C12.7578 15.5862 12.3978 15.7462 12.1778 15.8662C12.1415 15.8824 12.1088 15.9057 12.0815 15.9346C12.0543 15.9636 12.0331 15.9976 12.0191 16.0349C12.0052 16.0721 11.9988 16.1117 12.0002 16.1514C12.0017 16.1911 12.0111 16.2302 12.0278 16.2662C12.0605 16.337 12.1196 16.3923 12.1924 16.4203C12.2652 16.4483 12.346 16.4468 12.4178 16.4162C12.6178 16.3462 12.9378 16.2562 13.2678 16.1762C13.5408 16.1102 13.8182 16.0634 14.0978 16.0362C14.3998 15.9842 14.7035 15.9709 15.0088 15.9962C15.3115 16.0369 15.6081 16.1036 15.8988 16.1962C16.5268 16.3842 17.1288 16.6492 17.6908 16.9862C17.9415 17.1216 18.1748 17.2816 18.3908 17.4662C18.6108 17.6332 18.8008 17.8362 18.9508 18.0672C18.9934 18.1466 19.065 18.2066 19.1507 18.2345C19.2364 18.2625 19.3296 18.2563 19.4108 18.2172C19.4904 18.1748 19.5498 18.1025 19.5761 18.0162C19.6023 17.93 19.5932 17.8368 19.5508 17.7572C19.4019 17.4376 19.2027 17.1438 18.9608 16.8872C18.725 16.6355 18.471 16.4015 18.2008 16.1872C17.608 15.7317 16.9504 15.3673 16.2498 15.1062L15.9498 15.0262C16.6259 14.653 17.1628 14.0705 17.4798 13.3662M11.9378 13.1762C11.7354 12.6863 11.6663 12.1515 11.7378 11.6262C11.7778 11.0882 11.9728 10.5742 12.2978 10.1452C13.2978 8.93523 13.9678 8.78523 15.5488 9.29523C15.7681 9.36189 15.9748 9.45523 16.1688 9.57523C16.3438 9.68223 16.4938 9.82523 16.6098 9.99523C16.8778 10.4172 16.9948 10.9182 16.9398 11.4152C16.9156 11.9401 16.7828 12.4543 16.5498 12.9252C16.3045 13.4155 15.9132 13.8176 15.4298 14.0762C14.9491 14.3354 14.4026 14.4468 13.8588 14.3962C13.4509 14.3623 13.0585 14.2246 12.7188 13.9962C12.3812 13.8086 12.1087 13.5226 11.9378 13.1762Z" fill="black"/>
</g>
<defs>
<clipPath id="clip0_701_29661">
<rect width="24" height="24" fill="white"/>
</clipPath>
</defs>
</svg>
