<svg width="24" height="24" viewBox="0 0 24 24" fill="none" xmlns="http://www.w3.org/2000/svg">
<g clip-path="url(#clip0_669_29699)">
<path fill-rule="evenodd" clip-rule="evenodd" d="M6.30344 21.2587C6.19784 21.0439 6.06691 20.8425 5.91344 20.6587C5.60765 20.3501 5.24853 20.0994 4.85344 19.9187C5.09463 19.8368 5.31525 19.7036 5.50021 19.5285C5.68517 19.3533 5.83009 19.1403 5.92506 18.9039C6.02002 18.6675 6.06279 18.4134 6.05043 18.159C6.03807 17.9045 5.97087 17.6558 5.85344 17.4297C5.63777 16.9264 5.2681 16.5043 4.79754 16.2242C4.32698 15.9441 3.77974 15.8203 3.23444 15.8707C2.8649 15.9451 2.51674 16.1013 2.2156 16.328C1.91447 16.5548 1.66803 16.8461 1.49444 17.1807C1.30666 17.5307 1.22731 17.9286 1.26649 18.3237C1.30567 18.7189 1.46161 19.0935 1.71444 19.3997C1.92144 19.6197 2.17944 19.7887 2.46444 19.8897C2.02675 20.0777 1.63203 20.3529 1.30444 20.6987C1.15132 20.8825 1.02072 21.0839 0.915439 21.2987C0.810301 21.5217 0.733051 21.7568 0.685439 21.9987C0.571979 22.5137 0.521609 23.0406 0.535439 23.5677C0.531595 23.6697 0.564996 23.7696 0.629405 23.8487C0.693813 23.9278 0.784824 23.9808 0.885439 23.9977C0.938031 24.0047 0.991488 24.0012 1.0427 23.9873C1.09391 23.9735 1.14185 23.9495 1.18373 23.917C1.22561 23.8844 1.26059 23.8438 1.28663 23.7976C1.31268 23.7514 1.32927 23.7004 1.33544 23.6477C1.54477 23.0737 1.80477 22.5237 2.11544 21.9977L2.37544 21.4877C2.46544 21.3077 2.52544 21.1277 2.62544 20.9577C2.75411 20.7431 2.90411 20.5434 3.07544 20.3587C3.12313 20.3255 3.1612 20.2802 3.18578 20.2276C3.21036 20.1749 3.2206 20.1166 3.21544 20.0587C3.44477 20.1087 3.67777 20.1354 3.91444 20.1387C3.91444 20.1387 3.96444 20.1387 3.99444 20.0887C4.01573 20.1807 4.06887 20.2622 4.14444 20.3187C4.31444 20.5034 4.46444 20.7034 4.59444 20.9187C4.69444 21.0887 4.75444 21.2687 4.84444 21.4487L5.10444 21.9587C5.41711 22.4901 5.67677 23.0464 5.88344 23.6277C5.88939 23.6811 5.9063 23.7327 5.93311 23.7792C5.95991 23.8257 5.99604 23.8662 6.03922 23.8981C6.08241 23.9301 6.13172 23.9527 6.18407 23.9647C6.23642 23.9767 6.29067 23.9777 6.34344 23.9677C6.4507 23.9528 6.54771 23.8961 6.61329 23.8099C6.67886 23.7237 6.70768 23.6151 6.69344 23.5077C6.70407 22.9798 6.65034 22.4526 6.53344 21.9377C6.48426 21.7027 6.40705 21.4754 6.30344 21.2587ZM3.07444 19.2077C2.85696 19.1187 2.672 18.9651 2.54444 18.7677C2.46683 18.617 2.43495 18.4469 2.45272 18.2783C2.47048 18.1097 2.53712 17.95 2.64444 17.8187C2.73421 17.6661 2.85563 17.5345 3.00052 17.4327C3.14541 17.331 3.31042 17.2614 3.48444 17.2287C3.75931 17.1822 4.04184 17.2239 4.29154 17.3479C4.54125 17.4719 4.74529 17.6717 4.87444 17.9187C5.31444 18.7187 4.57444 19.8277 3.07444 19.2077ZM14.5404 21.2587C14.4348 21.0439 14.3039 20.8425 14.1504 20.6587C13.8447 20.3501 13.4855 20.0994 13.0904 19.9187C13.3358 19.8419 13.5615 19.7125 13.7518 19.5396C13.942 19.3668 14.0924 19.1545 14.1923 18.9176C14.2922 18.6807 14.3394 18.4249 14.3304 18.1679C14.3215 17.911 14.2566 17.6591 14.1404 17.4297C13.9247 16.9262 13.5549 16.504 13.0841 16.2239C12.6134 15.9438 12.0659 15.8201 11.5204 15.8707C11.1421 15.9382 10.7842 16.0913 10.4741 16.3184C10.164 16.5454 9.91 16.8404 9.73144 17.1807C9.54907 17.5345 9.47639 17.9346 9.5227 18.3299C9.56902 18.7252 9.73223 19.0977 9.99144 19.3997C10.1988 19.6205 10.456 19.7885 10.7414 19.8897C10.3038 20.0777 9.90903 20.3529 9.58144 20.6987C9.42797 20.8825 9.29703 21.0839 9.19144 21.2987C9.08932 21.509 9.01213 21.7305 8.96144 21.9587C8.84798 22.4737 8.79761 23.0006 8.81144 23.5277C8.79703 23.6362 8.82555 23.7461 8.89093 23.8339C8.9563 23.9216 9.05336 23.9804 9.16144 23.9977C9.21403 24.0047 9.26749 24.0012 9.3187 23.9873C9.36991 23.9735 9.41785 23.9495 9.45973 23.917C9.50161 23.8844 9.53659 23.8438 9.56263 23.7976C9.58868 23.7514 9.60527 23.7004 9.61144 23.6477C9.80777 23.0765 10.0554 22.5243 10.3514 21.9977L10.6114 21.4877C10.7014 21.3077 10.7614 21.1277 10.8614 20.9577C10.9908 20.7431 11.1408 20.5434 11.3114 20.3587C11.3591 20.3255 11.3972 20.2802 11.4218 20.2276C11.4464 20.1749 11.4566 20.1166 11.4514 20.0587C11.6821 20.1087 11.9154 20.1354 12.1514 20.1387C12.1514 20.1387 12.2014 20.1387 12.2314 20.0887C12.2527 20.1807 12.3059 20.2622 12.3814 20.3187C12.5514 20.5034 12.7011 20.7034 12.8304 20.9187C12.9304 21.0887 12.9904 21.2687 13.0804 21.4487L13.3404 21.9587C13.6531 22.4901 13.9131 23.0464 14.1204 23.6277C14.1264 23.6811 14.1433 23.7327 14.1701 23.7792C14.1969 23.8257 14.233 23.8662 14.2762 23.8981C14.3194 23.9301 14.3687 23.9527 14.4211 23.9647C14.4734 23.9767 14.5277 23.9777 14.5804 23.9677C14.6875 23.9526 14.7843 23.8957 14.8496 23.8096C14.915 23.7234 14.9437 23.6149 14.9294 23.5077C14.9401 22.9798 14.8863 22.4526 14.7694 21.9377C14.7203 21.7027 14.643 21.4744 14.5394 21.2577M11.3094 19.2077C11.092 19.1187 10.907 18.9651 10.7794 18.7677C10.7018 18.617 10.67 18.4469 10.6877 18.2783C10.7055 18.1097 10.7721 17.95 10.8794 17.8187C10.9692 17.6661 11.0906 17.5345 11.2355 17.4327C11.3804 17.331 11.5454 17.2614 11.7194 17.2287C11.9943 17.1822 12.2768 17.2239 12.5265 17.3479C12.7762 17.4719 12.9803 17.6717 13.1094 17.9187C13.5494 18.7287 12.8094 19.8177 11.3094 19.2077ZM22.7764 21.2587C22.6708 21.0439 22.5399 20.8425 22.3864 20.6587C22.0986 20.3559 21.7602 20.1055 21.3864 19.9187C21.6276 19.8368 21.8482 19.7036 22.0332 19.5285C22.2182 19.3533 22.3631 19.1403 22.4581 18.9039C22.553 18.6675 22.5958 18.4134 22.5834 18.159C22.5711 17.9045 22.5039 17.6558 22.3864 17.4297C22.1708 16.9264 21.8011 16.5043 21.3305 16.2242C20.86 15.9441 20.3127 15.8203 19.7674 15.8707C19.3907 15.9395 19.0346 16.0932 18.7262 16.3202C18.4177 16.5472 18.1651 16.8415 17.9874 17.1807C17.7997 17.5307 17.7203 17.9286 17.7595 18.3237C17.7987 18.7189 17.9546 19.0935 18.2074 19.3997C18.4172 19.6177 18.6736 19.7852 18.9574 19.8897C18.5175 20.0789 18.1198 20.3539 17.7874 20.6987C17.6343 20.8825 17.5037 21.0839 17.3984 21.2987C17.2963 21.509 17.2191 21.7305 17.1684 21.9587C17.0449 22.4725 16.9844 22.9994 16.9884 23.5277C16.974 23.6362 17.0026 23.7461 17.0679 23.8339C17.1333 23.9216 17.2304 23.9804 17.3384 23.9977C17.391 24.0047 17.4445 24.0012 17.4957 23.9873C17.5469 23.9735 17.5948 23.9495 17.6367 23.917C17.6786 23.8844 17.7136 23.8438 17.7396 23.7976C17.7657 23.7514 17.7823 23.7004 17.7884 23.6477C18.004 23.0744 18.2718 22.5221 18.5884 21.9977L18.8484 21.4877C18.9384 21.3077 18.9984 21.1277 19.0984 20.9577C19.2271 20.7431 19.3771 20.5434 19.5484 20.3587C19.5959 20.3254 19.6338 20.2801 19.6582 20.2274C19.6826 20.1747 19.6927 20.1165 19.6874 20.0587C19.9208 20.1094 20.1574 20.1361 20.3974 20.1387L20.4674 20.0887C20.4851 20.1822 20.539 20.2649 20.6174 20.3187C20.7874 20.5034 20.9374 20.7034 21.0674 20.9187C21.1674 21.0887 21.2274 21.2687 21.3174 21.4487L21.5774 21.9587C21.8901 22.4901 22.1498 23.0464 22.3564 23.6277C22.3624 23.6811 22.3793 23.7327 22.4061 23.7792C22.4329 23.8257 22.469 23.8662 22.5122 23.8981C22.5554 23.9301 22.6047 23.9527 22.6571 23.9647C22.7094 23.9767 22.7637 23.9777 22.8164 23.9677C22.9237 23.9528 23.0207 23.8961 23.0863 23.8099C23.1519 23.7237 23.1807 23.6151 23.1664 23.5077C23.1722 22.9723 23.1117 22.4383 22.9864 21.9177C22.9422 21.6904 22.8717 21.4699 22.7764 21.2587ZM19.5574 19.2077C19.34 19.1187 19.155 18.9651 19.0274 18.7677C18.9498 18.617 18.918 18.4469 18.9357 18.2783C18.9535 18.1097 19.0201 17.95 19.1274 17.8187C19.2172 17.6661 19.3386 17.5345 19.4835 17.4327C19.6284 17.331 19.7934 17.2614 19.9674 17.2287C20.2423 17.1822 20.5248 17.2239 20.7745 17.3479C21.0242 17.4719 21.2283 17.6717 21.3574 17.9187C21.4313 18.0344 21.4774 18.1656 21.4921 18.3021C21.5068 18.4385 21.4898 18.5765 21.4424 18.7053C21.3949 18.8341 21.3184 18.9501 21.2186 19.0444C21.1189 19.1387 20.9987 19.2086 20.8674 19.2487C20.5874 19.3587 20.8674 19.3987 20.3974 19.3987C20.1093 19.3791 19.826 19.314 19.5574 19.2077ZM16.2384 6.73473C16.1219 6.47231 15.9705 6.22677 15.7884 6.00473C15.37 5.53773 14.8642 5.15723 14.2994 4.88473C14.6047 4.61859 14.8367 4.27866 14.9732 3.89737C15.1098 3.51608 15.1464 3.10617 15.0794 2.70673C15.0342 2.07343 14.7891 1.47082 14.3796 0.985639C13.9701 0.500453 13.4171 0.157709 12.8004 0.00673345C12.1869 -0.0316502 11.5743 0.0945784 11.026 0.372361C10.4776 0.650143 10.0134 1.06939 9.68144 1.58673C9.49252 1.8431 9.35914 2.13605 9.28983 2.44687C9.22052 2.7577 9.2168 3.07956 9.27891 3.3919C9.34103 3.70424 9.4676 4.00019 9.65055 4.26085C9.8335 4.52151 10.0688 4.74115 10.3414 4.90573H10.4414C9.93304 5.25418 9.46661 5.6602 9.05144 6.11573C8.75744 6.43673 8.51144 6.80073 8.32144 7.19473C8.12506 7.55178 8.00348 7.94508 7.9641 8.35066C7.92473 8.75624 7.9684 9.16559 8.09244 9.55373C8.12051 9.6557 8.18781 9.74241 8.27964 9.79488C8.37147 9.84735 8.48034 9.86132 8.58244 9.83373C8.68701 9.80559 8.7762 9.73721 8.83053 9.64353C8.88487 9.54985 8.89993 9.43848 8.87244 9.33373C8.8647 9.07657 8.92325 8.82174 9.04244 8.59373C9.17244 8.3324 9.32244 8.0824 9.49244 7.84373C9.65244 7.59373 9.83244 7.34373 9.99244 7.07373C10.3814 6.47473 10.6914 5.86473 10.9914 5.40473C10.9914 5.40473 10.9914 5.32473 11.0514 5.27473C11.3754 5.38473 11.7114 5.46173 12.0514 5.50473C12.0981 5.51261 12.1458 5.51123 12.1919 5.50067C12.2379 5.49011 12.2815 5.47058 12.32 5.44318C12.3586 5.41579 12.3913 5.38107 12.4165 5.34102C12.4416 5.30096 12.4586 5.25635 12.4664 5.20973C12.4743 5.16311 12.4729 5.1154 12.4624 5.06931C12.4518 5.02323 12.4323 4.97967 12.4049 4.94114C12.3775 4.9026 12.3428 4.86984 12.3027 4.84472C12.2627 4.8196 12.2181 4.80261 12.1714 4.79473C11.9281 4.74036 11.6904 4.66336 11.4614 4.56473C11.25 4.47289 11.0542 4.34837 10.8814 4.19573C10.6583 4.02051 10.4992 3.77663 10.4287 3.50185C10.3582 3.22708 10.3803 2.93672 10.4914 2.67573C10.643 2.35363 10.8777 2.07781 11.1714 1.87673C11.5639 1.52925 12.077 1.34971 12.6004 1.37673C12.9628 1.44361 13.2939 1.62576 13.5444 1.89605C13.7948 2.16634 13.9513 2.51032 13.9904 2.87673C14.1404 3.62673 13.9304 4.42573 13.0504 4.49573C12.9919 4.48651 12.9321 4.49008 12.8751 4.50619C12.8181 4.5223 12.7652 4.55058 12.7202 4.58907C12.6752 4.62756 12.639 4.67535 12.6142 4.72915C12.5894 4.78296 12.5766 4.84149 12.5766 4.90073C12.5766 4.95997 12.5894 5.01851 12.6142 5.07231C12.639 5.12612 12.6752 5.17391 12.7202 5.2124C12.7652 5.25089 12.8181 5.27917 12.8751 5.29528C12.9321 5.31139 12.9919 5.31496 13.0504 5.30573C13.2588 5.29777 13.4646 5.25728 13.6604 5.18573C13.663 5.23428 13.6759 5.28171 13.6983 5.32483C13.7207 5.36796 13.7522 5.40578 13.7904 5.43573C14.1574 5.82673 14.4634 6.27173 14.7004 6.75473L14.9994 7.33473C15.3764 8.00773 15.6464 8.73673 15.7994 9.49373C15.8211 9.59339 15.8782 9.68178 15.9603 9.74239C16.0423 9.803 16.1435 9.8317 16.2452 9.82313C16.3468 9.81456 16.4418 9.7693 16.5125 9.69581C16.5832 9.62232 16.6248 9.52561 16.6294 9.42373C16.6662 8.79077 16.6225 8.15571 16.4994 7.53373C16.4462 7.25733 16.3589 6.98861 16.2394 6.73373" fill="black"/>
<path fill-rule="evenodd" clip-rule="evenodd" d="M14.7695 12.2131L12.7695 13.4721L12.6195 13.5921C12.6895 13.1621 12.7595 12.7221 12.7995 12.2821C12.8148 12.0621 12.8148 11.8421 12.7995 11.6221C12.8148 11.4021 12.8148 11.1824 12.7995 10.9631C12.7395 10.4431 12.6195 9.96309 12.5695 9.43309C12.578 9.38137 12.5755 9.32842 12.562 9.27776C12.5486 9.2271 12.5245 9.17987 12.4914 9.13922C12.4583 9.09856 12.417 9.0654 12.3701 9.04193C12.3232 9.01846 12.2719 9.00522 12.2195 9.00309C12.1256 8.99755 12.0333 9.02898 11.9623 9.09066C11.8912 9.15233 11.8472 9.23935 11.8395 9.33309C11.6728 9.84525 11.549 10.3704 11.4695 10.9031C11.4541 11.1295 11.4541 11.3567 11.4695 11.5831C11.4715 11.8071 11.4882 12.0304 11.5195 12.2531C11.5195 12.6331 11.6295 13.0031 11.6995 13.3831C11.5795 13.2931 11.4495 13.2131 11.3195 13.1331C10.7495 12.7831 10.1705 12.4831 9.5905 12.1331C9.51624 12.0761 9.42237 12.0509 9.32954 12.0631C9.23671 12.0753 9.15252 12.1238 9.0955 12.1981C9.03848 12.2724 9.01329 12.3662 9.02548 12.4591C9.03767 12.5519 9.08624 12.6361 9.1605 12.6931L11.1605 14.6411C11.3452 14.8431 11.5418 15.0331 11.7505 15.2111C11.8581 15.2989 11.9876 15.3556 12.1251 15.375C12.2626 15.3944 12.4028 15.3758 12.5305 15.3211C12.6952 15.2411 12.8448 15.1378 12.9795 15.0111C13.1995 14.8111 13.3895 14.5411 13.5595 14.3711L15.2585 12.8321C15.302 12.8005 15.3386 12.7605 15.3663 12.7145C15.3939 12.6684 15.412 12.6173 15.4195 12.5641C15.427 12.5109 15.4237 12.4567 15.4097 12.4048C15.3958 12.353 15.3716 12.3044 15.3385 12.2621C15.2688 12.1811 15.1701 12.1306 15.0637 12.1212C14.9572 12.1119 14.8513 12.1445 14.7685 12.2121M6.8725 12.5021C6.4625 12.7121 6.0625 12.9221 5.6825 13.1521C5.4025 13.3014 5.1325 13.4681 4.8725 13.6521H4.8125C4.91584 13.2281 5.0425 12.8114 5.1925 12.4021C5.3125 12.1321 5.4325 11.8621 5.5625 11.6021C5.69317 11.3554 5.8365 11.1158 5.9925 10.8831C6.30808 10.2754 6.74752 9.74054 7.2825 9.31309C7.34197 9.27545 7.38947 9.22163 7.41943 9.15795C7.44939 9.09426 7.46056 9.02335 7.45164 8.95354C7.44271 8.88373 7.41406 8.81791 7.36905 8.76381C7.32404 8.70971 7.26453 8.66956 7.1975 8.64809C7.15163 8.63504 7.10357 8.6315 7.05628 8.63769C7.00899 8.64388 6.96347 8.65967 6.9225 8.68409C6.14294 8.98869 5.45439 9.48788 4.9225 10.1341C4.68895 10.4098 4.49384 10.716 4.3425 11.0441C4.19117 11.3641 4.0745 11.6971 3.9925 12.0431C3.88475 12.4722 3.82109 12.9111 3.8025 13.3531L1.8045 11.7531C1.77106 11.7195 1.73132 11.6929 1.68756 11.6747C1.6438 11.6566 1.59688 11.6472 1.5495 11.6472C1.50212 11.6472 1.45521 11.6566 1.41145 11.6747C1.36769 11.6929 1.32795 11.7195 1.2945 11.7531C1.23196 11.8213 1.19727 11.9105 1.19727 12.0031C1.19727 12.0957 1.23196 12.1849 1.2945 12.2531L3.2145 14.6011L3.7535 15.1211C3.6935 15.1911 3.9735 15.3211 4.0535 15.3611C4.16366 15.4209 4.28838 15.4486 4.4135 15.4411C4.64432 15.4348 4.86905 15.3656 5.0635 15.2411C5.30817 15.0511 5.5345 14.8411 5.7425 14.6111C5.9125 14.3998 6.0925 14.1964 6.2825 14.0011L7.2825 13.1721C7.36056 13.1076 7.412 13.0165 7.42692 12.9164C7.44183 12.8163 7.41918 12.7142 7.3633 12.6297C7.30743 12.5453 7.2223 12.4845 7.1243 12.4591C7.0263 12.4337 6.92236 12.4454 6.8325 12.4921L6.8725 12.5021ZM23.3355 11.7331C23.3029 11.6998 23.264 11.6734 23.2211 11.6554C23.1782 11.6373 23.1321 11.628 23.0855 11.628C23.0389 11.628 22.9928 11.6373 22.9499 11.6554C22.907 11.6734 22.8681 11.6998 22.8355 11.7331L20.8355 13.3331C20.812 12.8916 20.7484 12.4531 20.6455 12.0231C20.5614 11.6779 20.4407 11.3427 20.2855 11.0231C20.1328 10.6981 19.9418 10.3926 19.7165 10.1131C19.1786 9.47353 18.4918 8.97594 17.7165 8.66409C17.6334 8.62204 17.5373 8.61355 17.4481 8.64039C17.3588 8.66723 17.2834 8.72734 17.2372 8.80828C17.1911 8.88922 17.1779 8.98479 17.2003 9.07522C17.2227 9.16565 17.2789 9.24401 17.3575 9.29409C17.8995 9.71909 18.3455 10.2541 18.6675 10.8641C18.8075 11.1131 18.9475 11.3631 19.0775 11.6231C19.2075 11.8831 19.3275 12.1531 19.4475 12.4231C19.5675 12.6931 19.6965 13.2531 19.8165 13.6721H19.7665C19.4965 13.4921 19.2365 13.3221 18.9565 13.1721C18.6765 13.0221 18.1665 12.7321 17.7565 12.5221C17.7003 12.487 17.6364 12.4661 17.5703 12.4611C17.5042 12.4561 17.4379 12.4672 17.3771 12.4935C17.3162 12.5197 17.2626 12.5603 17.2209 12.6118C17.1792 12.6633 17.1506 12.7241 17.1375 12.7891C17.1225 12.868 17.1317 12.9497 17.1638 13.0233C17.1959 13.097 17.2495 13.1593 17.3175 13.2021L18.3175 14.0321C18.5275 14.2121 18.7275 14.4121 18.9275 14.6121C19.1322 14.8448 19.3588 15.0548 19.6075 15.2421C19.7975 15.3651 20.0185 15.4351 20.2465 15.4421C20.3717 15.4502 20.4965 15.4224 20.6065 15.3621C20.6965 15.3621 20.9765 15.1921 20.9065 15.1221L21.4565 14.6021L23.3645 12.2521C23.3991 12.2172 23.426 12.1754 23.4434 12.1295C23.4608 12.0835 23.4683 12.0345 23.4655 11.9854C23.4627 11.9364 23.4495 11.8884 23.427 11.8448C23.4044 11.8012 23.3729 11.7628 23.3345 11.7321" fill="black"/>
</g>
<defs>
<clipPath id="clip0_669_29699">
<rect width="24" height="24" fill="white"/>
</clipPath>
</defs>
</svg>
