<svg width="24" height="24" viewBox="0 0 24 24" fill="none" xmlns="http://www.w3.org/2000/svg">
<g clip-path="url(#clip0_699_32283)">
<path fill-rule="evenodd" clip-rule="evenodd" d="M22.5851 13.2242C21.8446 12.98 21.0676 12.865 20.2881 12.8842C19.1891 12.8842 18.0511 13.0142 17.0821 13.0442L11.5501 13.2042C9.74312 13.2742 7.88612 13.3542 6.04912 13.4942C4.8223 13.5892 3.5997 13.7323 2.38412 13.9232C2.34066 13.9293 2.29886 13.944 2.26116 13.9664C2.22346 13.9889 2.19061 14.0186 2.16454 14.0539C2.13847 14.0892 2.11969 14.1293 2.10932 14.172C2.09894 14.2146 2.09718 14.2589 2.10412 14.3022C2.10896 14.3453 2.12254 14.387 2.14401 14.4247C2.16548 14.4625 2.1944 14.4954 2.22901 14.5216C2.26362 14.5478 2.3032 14.5667 2.34534 14.5771C2.38747 14.5875 2.43129 14.5892 2.47412 14.5822C3.65212 14.4222 4.87012 14.3222 6.09812 14.2622C7.92612 14.1822 9.78312 14.1822 11.5701 14.1722H17.1021C18.0521 14.1722 19.1891 14.0622 20.2681 14.0822C20.9081 14.0852 21.5451 14.1862 22.1551 14.3822C22.4751 14.5022 22.6851 14.5922 22.7251 14.7422C22.7651 14.8922 22.6651 14.8622 22.6051 14.9312C22.1891 15.3212 21.6621 15.5732 21.0971 15.6502C20.4345 15.7482 19.7688 15.8015 19.1001 15.8102H15.9441L5.89912 16.1002C5.08012 16.1002 4.17112 16.2402 3.29312 16.2302C2.74699 16.2414 2.20208 16.174 1.67512 16.0302C1.22512 15.9002 0.936116 15.6902 0.856116 15.4102C0.830568 15.2394 0.854696 15.0649 0.925622 14.9074C0.996547 14.75 1.11127 14.6162 1.25612 14.5222C1.33221 14.458 1.38008 14.3665 1.38943 14.2674C1.39878 14.1683 1.36887 14.0695 1.30612 13.9922C1.27164 13.9568 1.23044 13.9287 1.18492 13.9095C1.13941 13.8903 1.09051 13.8804 1.04112 13.8804C0.991719 13.8804 0.942823 13.8903 0.89731 13.9095C0.851797 13.9287 0.810589 13.9568 0.776116 13.9922C0.496018 14.1631 0.274431 14.4151 0.140683 14.7147C0.00693431 15.0144 -0.0326685 15.3475 0.0271159 15.6702C0.128359 15.968 0.304676 16.2348 0.539047 16.4446C0.773418 16.6545 1.05793 16.8003 1.36512 16.8682C1.96261 17.0428 2.58072 17.137 3.20312 17.1482C4.10112 17.1482 5.03012 17.0982 5.85912 17.0882H11.0211C10.9511 17.5182 10.8711 17.9472 10.8111 18.3762C10.3221 18.6762 9.81312 18.9662 9.33412 19.2852C9.07412 19.4552 8.82412 19.6352 8.57412 19.8242C8.32512 20.0142 8.08612 20.2142 7.86612 20.4232C7.34214 20.9401 6.84864 21.487 6.38812 22.0612C6.35713 22.0919 6.33252 22.1284 6.31573 22.1686C6.29894 22.2089 6.2903 22.2521 6.2903 22.2957C6.2903 22.3393 6.29894 22.3825 6.31573 22.4227C6.33252 22.463 6.35713 22.4995 6.38812 22.5302C6.41795 22.561 6.45369 22.5856 6.49321 22.6023C6.53272 22.6191 6.5752 22.6277 6.61812 22.6277C6.66103 22.6277 6.70351 22.6191 6.74302 22.6023C6.78254 22.5856 6.81828 22.561 6.84812 22.5302C7.42712 22.1202 8.03612 21.7612 8.63512 21.3522C9.13118 20.9984 9.60787 20.6182 10.0631 20.2132C10.2931 20.0132 10.5131 19.7932 10.7321 19.5842V20.2042C10.7321 20.8922 10.8121 21.5612 10.8621 22.2002C10.8523 22.2549 10.8546 22.3111 10.8688 22.3649C10.8831 22.4186 10.9089 22.4686 10.9446 22.5112C10.9803 22.5539 11.0249 22.5882 11.0752 22.6117C11.1256 22.6353 11.1805 22.6474 11.2361 22.6474C11.2917 22.6474 11.3466 22.6353 11.397 22.6117C11.4474 22.5882 11.492 22.5539 11.5276 22.5112C11.5633 22.4686 11.5892 22.4186 11.6034 22.3649C11.6177 22.3111 11.62 22.2549 11.6101 22.2002C11.7001 21.5312 11.8301 20.8822 11.9201 20.2032L11.9801 19.5642C12.2101 19.8342 12.4301 20.1142 12.6691 20.3842L13.1791 20.9122C13.3581 21.0922 13.5481 21.2522 13.7371 21.4122C14.1971 21.7822 14.6761 22.0912 15.1451 22.4102C15.175 22.441 15.2107 22.4656 15.2502 22.4823C15.2897 22.4991 15.3322 22.5077 15.3751 22.5077C15.418 22.5077 15.4605 22.4991 15.5 22.4823C15.5395 22.4656 15.5753 22.441 15.6051 22.4102C15.6373 22.3811 15.663 22.3456 15.6806 22.306C15.6982 22.2664 15.7073 22.2235 15.7073 22.1802C15.7073 22.1368 15.6982 22.094 15.6806 22.0544C15.663 22.0147 15.6373 21.9793 15.6051 21.9502C15.2651 21.4522 14.9451 20.9522 14.6061 20.4932C14.4261 20.3032 14.2561 20.1232 14.0761 19.9532C13.8904 19.7822 13.6976 19.619 13.4981 19.4642C13.0181 19.0952 12.4991 18.7752 12.0501 18.4662C12.0223 17.9777 11.9689 17.4911 11.8901 17.0082H19.1201C19.8487 16.9978 20.5757 16.9377 21.2961 16.8282C21.8296 16.7695 22.3423 16.5885 22.7945 16.2994C23.2466 16.0103 23.626 15.6208 23.9031 15.1612C24.1531 14.5612 23.9941 13.7432 22.5851 13.2242ZM7.81612 8.98019L9.81312 10.3982C9.8718 10.4391 9.9416 10.461 10.0131 10.461C10.0846 10.461 10.1544 10.4391 10.2131 10.3982C10.2165 10.4703 10.2408 10.5398 10.2831 10.5982C10.3557 10.6676 10.4522 10.7063 10.5526 10.7063C10.653 10.7063 10.7495 10.6676 10.8221 10.5982C11.1812 10.3008 11.4777 9.93514 11.6944 9.52233C11.9111 9.10953 12.0437 8.65782 12.0845 8.19339C12.1254 7.72895 12.0736 7.26103 11.9323 6.81675C11.7909 6.37246 11.5628 5.96065 11.2611 5.60519C10.7188 4.81388 9.9097 4.24423 8.98187 4.00038C8.05405 3.75654 7.06945 3.8548 6.20812 4.27719C5.66119 4.57436 5.18354 4.98419 4.80672 5.47962C4.42989 5.97504 4.16247 6.54477 4.02212 7.15119C3.86753 7.75454 3.86691 8.38705 4.02031 8.99071C4.17371 9.59436 4.47623 10.1498 4.90012 10.6062C5.46761 11.1702 6.21124 11.5228 7.00712 11.6052C7.75204 11.6812 8.50443 11.5819 9.20412 11.3152C9.28642 11.2856 9.35416 11.2255 9.39327 11.1473C9.43237 11.069 9.43984 10.9788 9.41412 10.8952C9.3905 10.8124 9.33545 10.7421 9.26072 10.6993C9.18599 10.6565 9.09749 10.6446 9.01412 10.6662C8.40935 10.8495 7.77038 10.8906 7.14712 10.7862C6.57114 10.6923 6.04351 10.4073 5.64912 9.97719C5.3253 9.58189 5.14234 9.09001 5.12912 8.57919H6.12912C8.01612 8.43919 7.33712 8.59919 7.81612 8.97919M10.3821 9.97719C10.367 9.90873 10.3323 9.84617 10.2821 9.79719L8.55512 7.98119C8.39842 7.80484 8.23147 7.63788 8.05512 7.48119H7.98512C8.09845 7.28119 8.19845 7.07519 8.28512 6.86319C8.36245 6.69719 8.42912 6.52719 8.48512 6.35319C8.53845 6.17585 8.58178 5.99619 8.61512 5.81419V5.16519C9.31894 5.32328 9.95073 5.70967 10.4121 6.26419C10.8888 6.76677 11.152 7.4346 11.1464 8.12724C11.1408 8.81988 10.8668 9.48337 10.3821 9.97819M5.22012 7.59219C5.21685 7.54558 5.21685 7.4988 5.22012 7.45219C5.32793 7.03254 5.51983 6.63915 5.78421 6.29588C6.04858 5.9526 6.37991 5.66659 6.75812 5.45519C7.01812 5.31519 7.30312 5.22519 7.59612 5.18519C7.53612 5.29519 7.47612 5.40519 7.42612 5.51519C7.29197 5.83654 7.19176 6.17102 7.12712 6.51319C7.08217 6.7746 7.05212 7.03836 7.03712 7.30319C6.81437 7.28825 6.59087 7.28825 6.36812 7.30319C5.98012 7.37652 5.59745 7.47285 5.22012 7.59219ZM14.7161 6.49319C14.5161 6.49319 14.3161 6.49319 14.1861 8.35119C14.171 8.56392 14.171 8.77746 14.1861 8.99019C14.1948 9.20752 14.2181 9.42385 14.2561 9.63919C14.4961 11.3462 14.6261 11.5162 14.9461 11.4962C15.2661 11.4762 15.3161 11.2862 15.4351 9.58919C15.4503 9.37613 15.4503 9.16225 15.4351 8.94919C15.4288 8.73546 15.4087 8.52235 15.3751 8.31119C15.1251 6.46319 14.9061 6.48319 14.7161 6.49319ZM17.7121 3.72719C17.6684 3.72445 17.6247 3.7307 17.5835 3.74556C17.5423 3.76041 17.5047 3.78355 17.4728 3.81354C17.4409 3.84353 17.4156 3.87974 17.3982 3.91993C17.3809 3.96012 17.372 4.00343 17.3721 4.04719C17.2521 4.87619 17.0921 5.68419 17.0021 6.52319C17.0021 6.88319 16.9421 7.24319 16.9321 7.60219C16.9221 7.96219 16.9321 8.32119 16.9321 8.68019C16.9321 9.52919 17.0721 10.3582 17.1821 11.1962C17.1898 11.2961 17.2356 11.3892 17.3101 11.4562C17.3846 11.5233 17.482 11.5591 17.5821 11.5562C17.6316 11.5537 17.6801 11.5412 17.7248 11.5196C17.7694 11.498 17.8092 11.4676 17.8418 11.4303C17.8745 11.393 17.8993 11.3495 17.9148 11.3024C17.9303 11.2553 17.9362 11.2056 17.9321 11.1562C17.9321 10.3082 18.0711 9.47919 18.1311 8.62019C18.1311 8.06119 18.2011 7.49219 18.2011 6.93319C18.2011 5.93419 18.0811 5.01519 18.0211 4.06719C18.0214 3.98198 17.9898 3.89975 17.9324 3.83679C17.875 3.77382 17.797 3.73471 17.7121 3.72719Z" fill="black"/>
<path fill-rule="evenodd" clip-rule="evenodd" d="M1.09523 13.6024C1.09253 13.6452 1.09848 13.6882 1.11272 13.7287C1.12696 13.7692 1.14921 13.8064 1.17813 13.8381C1.20706 13.8698 1.24207 13.8954 1.28109 13.9133C1.3201 13.9312 1.36232 13.9411 1.40523 13.9424C1.44883 13.945 1.49249 13.9386 1.53354 13.9237C1.57458 13.9088 1.61214 13.8856 1.64389 13.8556C1.67565 13.8257 1.70094 13.7895 1.71819 13.7494C1.73545 13.7093 1.74431 13.666 1.74423 13.6224C1.89423 12.1444 2.05423 10.6264 2.08423 9.18837V6.54237C2.08423 5.21437 1.94423 3.90638 1.92423 2.54838C1.90966 2.45943 1.86395 2.37856 1.79526 2.32021C1.72656 2.26185 1.63937 2.22982 1.54923 2.22982C1.4591 2.22982 1.37191 2.26185 1.30321 2.32021C1.23452 2.37856 1.18881 2.45943 1.17423 2.54838C1.0218 3.83863 0.918724 5.13424 0.865234 6.43237V9.74837C0.925234 11.0364 1.02523 12.3144 1.09523 13.6024ZM2.23323 2.27838C2.71323 2.33838 3.23223 2.36838 3.69123 2.39838C4.79923 2.39838 5.90823 2.39837 7.03623 2.46837C9.03323 2.55838 11.0302 2.64838 13.0272 2.65838C14.3752 2.65838 15.7132 2.65838 17.0222 2.59838L20.7862 2.64838C20.9562 2.64838 21.7852 2.50837 21.6552 2.70837C21.7582 2.95237 21.8152 3.21238 21.8252 3.47738V10.3674C21.8252 11.1064 21.8252 11.8344 21.8852 12.5634C21.8864 12.6137 21.8979 12.6632 21.9189 12.7089C21.9398 12.7546 21.9699 12.7955 22.0073 12.8292C22.0446 12.8629 22.0884 12.8886 22.1361 12.9048C22.1837 12.921 22.2341 12.9273 22.2842 12.9234C22.3324 12.9221 22.3798 12.9112 22.4237 12.8913C22.4675 12.8713 22.507 12.8428 22.5396 12.8074C22.5722 12.772 22.5974 12.7303 22.6137 12.685C22.6299 12.6396 22.6369 12.5915 22.6342 12.5434V10.3774C22.6942 8.67937 22.7942 6.97237 22.8242 5.28437C22.9242 4.55571 22.9806 3.82337 22.9932 3.08737C22.9567 2.69304 22.8189 2.31483 22.5932 1.98937C22.4704 1.8162 22.2956 1.68661 22.0942 1.61937C21.7067 1.51555 21.3074 1.46178 20.9062 1.45938C20.1472 1.45938 19.3682 1.37937 18.5992 1.35938H17.0422L7.01623 1.55938C5.89823 1.55938 4.78923 1.65938 3.68123 1.66938C3.21123 1.66938 2.74223 1.66938 2.27323 1.61937C2.22985 1.61379 2.18578 1.61689 2.14361 1.62849C2.10143 1.64009 2.06198 1.65996 2.02755 1.68695C1.99312 1.71393 1.9644 1.74749 1.94306 1.78568C1.92172 1.82386 1.90818 1.86591 1.90323 1.90938C1.89912 1.95565 1.90453 2.00228 1.91914 2.04638C1.93375 2.09048 1.95723 2.13112 1.98816 2.16579C2.01908 2.20047 2.05678 2.22843 2.09893 2.24797C2.14108 2.2675 2.18679 2.27719 2.23323 2.27838Z" fill="black"/>
</g>
<defs>
<clipPath id="clip0_699_32283">
<rect width="24" height="24" fill="white"/>
</clipPath>
</defs>
</svg>
