<svg width="24" height="24" viewBox="0 0 24 24" fill="none" xmlns="http://www.w3.org/2000/svg">
<g clip-path="url(#clip0_669_29697)">
<path fill-rule="evenodd" clip-rule="evenodd" d="M16.8407 4.83982C16.0939 4.5761 15.367 4.25894 14.6657 3.89082C14.4857 3.78082 14.3057 3.65082 14.1267 3.52182C14.0846 3.56662 14.0445 3.61333 14.0067 3.66182C13.5413 4.1194 13.0296 4.52726 12.4797 4.87882C12.4468 4.91157 12.4076 4.93726 12.3645 4.95429C12.3213 4.97132 12.2751 4.97934 12.2288 4.97785C12.1824 4.97637 12.1368 4.96541 12.0948 4.94564C12.0529 4.92588 12.0154 4.89774 11.9847 4.86295C11.954 4.82815 11.9308 4.78745 11.9164 4.74333C11.902 4.69922 11.8968 4.65263 11.9011 4.60644C11.9054 4.56025 11.9192 4.51542 11.9414 4.47473C11.9637 4.43403 11.9941 4.39833 12.0307 4.36982C12.4007 3.90082 12.6997 3.37182 13.0287 2.87282L13.1187 2.73282L13.0287 2.65282C12.4726 2.08907 11.962 1.48218 11.5017 0.837818C11.4645 0.802332 11.4349 0.759662 11.4146 0.712393C11.3944 0.665124 11.384 0.614239 11.384 0.562819C11.384 0.511398 11.3944 0.460513 11.4146 0.413244C11.4349 0.365975 11.4645 0.323306 11.5017 0.287819C11.537 0.252142 11.5791 0.22382 11.6254 0.204493C11.6718 0.185165 11.7215 0.175213 11.7717 0.175213C11.8219 0.175213 11.8716 0.185165 11.918 0.204493C11.9643 0.22382 12.0064 0.252142 12.0417 0.287819C12.3607 0.587819 12.6897 0.85782 13.0387 1.12682C13.3887 1.39682 13.5787 1.52682 13.8477 1.71582L13.9377 1.60582C14.3367 1.11682 14.7457 0.65782 15.1347 0.17882C15.1686 0.125877 15.2149 0.082037 15.2697 0.0511284C15.3244 0.0202198 15.3859 0.00318184 15.4487 0.0015049C15.5115 -0.000172047 15.5738 0.0135625 15.6301 0.0415077C15.6864 0.069453 15.735 0.11076 15.7717 0.161819C15.8148 0.224008 15.8389 0.297395 15.841 0.373035C15.8432 0.448676 15.8232 0.523302 15.7837 0.587818C15.5237 1.15682 15.2637 1.73582 14.9447 2.30482L14.8347 2.46482L15.0747 2.63382C15.7337 3.15282 16.3617 3.70182 17.0707 4.20082C17.1108 4.22096 17.1466 4.24885 17.1758 4.28288C17.2051 4.3169 17.2274 4.35639 17.2413 4.39907C17.2553 4.44174 17.2606 4.48675 17.2571 4.53151C17.2536 4.57626 17.2412 4.61987 17.2207 4.65982C17.1867 4.72809 17.1308 4.78296 17.0619 4.8156C16.9929 4.84825 16.9151 4.85678 16.8407 4.83982ZM23.5377 10.3878C23.5777 10.4082 23.6133 10.4362 23.6424 10.4703C23.6716 10.5044 23.6937 10.5439 23.7076 10.5866C23.7215 10.6293 23.7268 10.6743 23.7233 10.719C23.7198 10.7637 23.7076 10.8073 23.6872 10.8473C23.6668 10.8873 23.6388 10.9229 23.6047 10.952C23.5706 10.9812 23.5311 11.0034 23.4884 11.0172C23.4457 11.0311 23.4008 11.0365 23.356 11.033C23.3113 11.0295 23.2677 11.0172 23.2277 10.9968C22.4777 10.7188 21.7527 10.3862 21.0527 9.99882C20.864 9.88421 20.6808 9.76074 20.5037 9.62882C20.4692 9.67995 20.429 9.72693 20.3837 9.76882C19.9214 10.236 19.4094 10.6511 18.8567 11.0068C18.793 11.07 18.7069 11.1055 18.6172 11.1055C18.5275 11.1055 18.4414 11.07 18.3777 11.0068C18.3446 10.9762 18.3182 10.9391 18.3002 10.8978C18.2821 10.8565 18.2728 10.8119 18.2728 10.7668C18.2728 10.7217 18.2821 10.6772 18.3002 10.6359C18.3182 10.5946 18.3446 10.5574 18.3777 10.5268C18.7577 10.0488 19.0567 9.52982 19.3757 9.02082L19.4757 8.88082L19.3757 8.80082C18.8418 8.24654 18.3545 7.64919 17.9187 7.01482C17.8816 6.97935 17.8522 6.93674 17.832 6.88956C17.8119 6.84238 17.8015 6.79162 17.8015 6.74032C17.8015 6.68902 17.8119 6.63825 17.832 6.59108C17.8522 6.5439 17.8816 6.50129 17.9187 6.46582C17.9918 6.39315 18.0906 6.35236 18.1937 6.35236C18.2968 6.35236 18.3956 6.39315 18.4687 6.46582C18.7867 6.76582 19.1067 7.03482 19.4657 7.30382C19.8257 7.57382 20.0047 7.70382 20.2737 7.90382L20.3637 7.78382C20.7637 7.29382 21.1827 6.78482 21.5617 6.35582C21.6171 6.27108 21.7032 6.21118 21.8019 6.18879C21.9006 6.16639 22.0042 6.18326 22.0907 6.23582C22.1754 6.29129 22.236 6.37684 22.2601 6.47521C22.2842 6.57358 22.2702 6.67743 22.2207 6.76582C21.9507 7.33382 21.6907 7.91282 21.3717 8.48182C21.3717 8.48182 21.3017 8.58182 21.2717 8.64182L21.5017 8.81182C22.1607 9.33982 22.7987 9.88882 23.5377 10.3878ZM18.3377 11.5658C18.4764 11.613 18.5958 11.7043 18.6777 11.8258C18.7677 11.9348 18.8977 12.2438 18.9377 12.2938C18.9777 12.3438 19.0867 12.6138 19.1467 12.7838C19.262 13.1105 19.3587 13.4428 19.4367 13.7808L19.5757 14.0008C19.6757 14.3668 19.6757 14.7528 19.5757 15.1178C19.4557 15.7578 19.1557 16.5548 19.0957 16.8548C18.9167 17.5138 18.7877 18.1918 18.6177 18.8508C18.5077 19.2998 18.3877 19.7388 18.2577 20.1878C17.9652 21.3136 17.6326 22.4287 17.2607 23.5308C17.2371 23.619 17.18 23.6946 17.1016 23.7413C17.0231 23.788 16.9295 23.8022 16.8407 23.7808C16.7609 23.7512 16.6915 23.6991 16.6407 23.6308C16.6443 23.6702 16.64 23.71 16.6282 23.7477C16.6163 23.7855 16.5971 23.8205 16.5717 23.8508C16.5424 23.8914 16.5049 23.9255 16.4616 23.9508C16.4183 23.9761 16.3703 23.9921 16.3205 23.9977C16.2707 24.0034 16.2202 23.9985 16.1724 23.9836C16.1246 23.9686 16.0804 23.9438 16.0427 23.9108C15.4437 23.4808 14.8357 23.0618 14.2167 22.6628C13.3587 22.0938 12.4507 21.5748 11.5717 21.0358C10.9837 20.6768 10.4047 20.2878 9.8157 19.9288C9.16704 19.5262 8.5417 19.0902 7.9397 18.6208C7.83592 18.5378 7.7536 18.4311 7.69965 18.3096C7.6457 18.1881 7.62172 18.0555 7.6297 17.9228L7.0907 16.7748C7.00537 16.5882 6.9387 16.3952 6.8907 16.1958C6.86199 16.0942 6.85697 15.9874 6.87604 15.8835C6.89511 15.7797 6.93776 15.6816 7.0007 15.5968C7.2357 15.3648 7.5137 15.1818 7.8197 15.0588C8.40488 14.8772 9.00641 14.7533 9.6157 14.6888C9.66953 14.6687 9.7272 14.6611 9.78439 14.6666C9.84158 14.672 9.89679 14.6903 9.94588 14.7201C9.99497 14.75 10.0367 14.7906 10.0678 14.8388C10.0989 14.8871 10.1187 14.9418 10.1257 14.9988C10.1539 15.0955 10.1437 15.1993 10.0971 15.2886C10.0505 15.3779 9.97116 15.4457 9.8757 15.4778C9.5757 15.5978 9.1867 15.7868 8.7877 15.9868C8.1187 16.3058 8.2587 16.1068 8.3877 17.3638L8.8377 17.2738C9.2177 17.1738 9.5957 17.0638 9.9757 16.9338C10.3547 16.8048 10.9737 16.5548 11.5217 16.3558C11.4367 15.8179 11.279 15.2941 11.0527 14.7988C10.6947 14.014 10.2673 13.2627 9.7757 12.5538C9.2667 11.7348 8.6777 10.9268 8.0687 10.1088C7.4847 9.30682 6.85937 8.53815 6.1927 7.80282C5.32062 6.81123 4.31263 5.94801 3.1987 5.23882C3.11653 5.22884 3.04111 5.18835 2.9874 5.12538C2.93368 5.0624 2.90559 4.98153 2.9087 4.89882C2.90862 4.85375 2.91777 4.80914 2.93559 4.76774C2.95341 4.72634 2.97953 4.68903 3.01232 4.65811C3.04511 4.62719 3.08389 4.60331 3.12627 4.58796C3.16864 4.5726 3.21371 4.56609 3.2587 4.56882C4.20221 4.54528 5.14615 4.59208 6.0827 4.70882C6.73401 4.77132 7.3769 4.90238 8.0007 5.09982C8.84972 5.40125 9.65506 5.81384 10.3957 6.32682C11.1289 6.8458 11.7988 7.44892 12.3917 8.12382C14.0301 10.0942 15.2826 12.3557 16.0837 14.7898L18.0797 13.9218L18.4097 13.8018C17.1417 12.3548 18.2797 12.5948 17.0217 12.9938C16.9765 13.0182 16.9269 13.0333 16.8758 13.0384C16.8247 13.0436 16.7731 13.0386 16.724 13.0237C16.6748 13.0088 16.6291 12.9844 16.5894 12.9518C16.5497 12.9192 16.5169 12.8791 16.4927 12.8338C16.4492 12.743 16.4415 12.6392 16.4711 12.543C16.5008 12.4468 16.5656 12.3653 16.6527 12.3148C16.9634 12.0442 17.296 11.8048 17.6507 11.5968C17.8693 11.5057 18.1131 11.495 18.3387 11.5668M15.5847 15.8368C15.5376 15.8559 15.4872 15.8654 15.4364 15.8647C15.3856 15.864 15.3355 15.8532 15.2889 15.8327C15.2424 15.8123 15.2005 15.7828 15.1656 15.7459C15.1306 15.7089 15.1035 15.6654 15.0857 15.6178C15.0504 15.5211 15.0548 15.4144 15.0979 15.3209C15.141 15.2275 15.2193 15.1548 15.3157 15.1188C14.5139 13.2608 13.4662 11.5189 12.2007 9.93982C11.4381 8.98617 10.5597 8.13125 9.5857 7.39482C8.9457 6.90582 8.2537 6.49082 7.5207 6.15782C6.9907 5.91782 6.4417 5.73449 5.8737 5.60782C5.5537 5.52882 5.2347 5.51882 4.8757 5.46882C5.89771 6.10145 6.84214 6.85156 7.6897 7.70382C8.42581 8.46198 9.09372 9.28348 9.6857 10.1588C10.0717 10.7368 10.4277 11.3325 10.7537 11.9458C11.2047 12.7458 11.5857 13.5838 11.8917 14.4508C12.1041 15.0458 12.2349 15.6668 12.2807 16.2968C12.2838 16.3656 12.2676 16.4338 12.2341 16.4938C12.2005 16.5539 12.1509 16.6034 12.0907 16.6368C12.0937 16.6817 12.0862 16.7266 12.0689 16.7681C12.0515 16.8096 12.0248 16.8465 11.9907 16.8758C11.4535 17.1708 10.9079 17.4502 10.3547 17.7138C10.031 17.8771 9.69773 18.0207 9.3567 18.1438C9.8657 18.4428 10.4537 18.7418 10.5637 18.8118C11.5617 19.4998 12.6497 20.1888 13.6477 20.9278C14.6572 21.6718 15.6328 22.4606 16.5717 23.2918C16.6202 23.3421 16.6546 23.4041 16.6717 23.4718C16.6622 23.429 16.6622 23.3846 16.6717 23.3418C17.0017 21.7548 17.1807 20.1578 17.4497 18.5618C17.5697 17.8718 17.7297 17.1938 17.8897 16.5158L18.3377 14.9988L15.5847 15.8368ZM2.5607 18.6308C4.5567 18.0418 5.5547 19.0908 5.5547 20.5568C5.5861 21.0507 5.43292 21.5386 5.1249 21.9259C4.81687 22.3132 4.37595 22.5722 3.8877 22.6528C3.4083 22.628 2.94153 22.4903 2.52536 22.251C2.10919 22.0118 1.75538 21.6776 1.4927 21.2758C1.29508 20.9762 1.19736 20.6217 1.21352 20.2632C1.22969 19.9047 1.35892 19.5604 1.5827 19.2798C1.8377 18.9728 2.1777 18.7468 2.5607 18.6308ZM2.7207 20.7968C3.0237 21.1268 3.4407 21.3298 3.8877 21.3658C4.3077 21.3658 4.5067 20.9258 4.5467 20.5068C4.7067 19.1198 3.6477 19.1498 3.0097 19.3798C2.76041 19.4596 2.54543 19.6214 2.3997 19.8388C2.2107 20.1978 2.4507 20.5268 2.7207 20.7968ZM4.6457 13.0628C4.6779 13.5518 4.52906 14.0356 4.22754 14.422C3.92602 14.8083 3.4929 15.0702 3.0107 15.1578C2.52099 15.1477 2.04121 15.0178 1.61326 14.7795C1.18531 14.5412 0.822223 14.2018 0.555704 13.7908C0.359476 13.4902 0.263463 13.1351 0.281427 12.7766C0.299391 12.418 0.43041 12.0743 0.655704 11.7948C0.919704 11.4968 1.2677 11.2848 1.6527 11.1858C3.6387 10.5478 4.6257 11.5958 4.6457 13.0628ZM1.4937 12.3438C1.2737 12.7038 1.4937 13.0328 1.7837 13.3418C2.0867 13.6718 2.5037 13.8788 2.9507 13.9208C3.3697 13.9208 3.5697 13.4808 3.6087 13.0528C3.8187 11.2158 1.8727 11.6948 1.4937 12.3438Z" fill="black"/>
</g>
<defs>
<clipPath id="clip0_669_29697">
<rect width="24" height="24" fill="white" transform="matrix(1 0 0 -1 0 24)"/>
</clipPath>
</defs>
</svg>
