<svg width="24" height="24" viewBox="0 0 24 24" fill="none" xmlns="http://www.w3.org/2000/svg">
<path fill-rule="evenodd" clip-rule="evenodd" d="M21.032 20.8308C21.5199 20.5463 21.9349 20.1522 22.2442 19.6796C22.5535 19.207 22.7486 18.6689 22.814 18.1079C22.9497 17.0092 22.747 15.8953 22.233 14.9148C21.758 14.0106 21.0174 13.2736 20.111 12.8028C19.1803 12.3419 18.1166 12.225 17.108 12.4729C16.2763 12.6504 15.4787 12.961 14.746 13.3929C14.236 13.7009 13.788 14.1019 13.425 14.5749C13.0557 15.1168 12.799 15.7273 12.67 16.3702C12.541 17.0131 12.5423 17.6754 12.674 18.3178C12.7711 18.9604 13.0089 19.5735 13.3706 20.1134C13.7322 20.6533 14.2087 21.1066 14.766 21.4409C15.3837 21.7653 16.0702 21.9368 16.768 21.9409C17.7479 21.9463 18.7231 21.8047 19.661 21.5209C19.6952 21.5149 19.7276 21.5009 19.7554 21.4801C19.7832 21.4592 19.8057 21.4321 19.821 21.4008C19.951 21.6908 20.071 21.9708 20.231 22.2508C20.313 22.4082 20.4096 22.5552 20.521 22.6918C20.621 22.8218 20.741 22.9518 20.861 23.0818C21.141 23.3718 21.452 23.6329 21.763 23.9129C21.8001 23.9478 21.8451 23.9733 21.8941 23.9873C21.9431 24.0013 21.9948 24.0034 22.0447 23.9935C22.0947 23.9835 22.1416 23.9617 22.1815 23.9299C22.2214 23.8982 22.2531 23.8573 22.274 23.8108C22.2992 23.7526 22.306 23.6879 22.2933 23.6257C22.2806 23.5634 22.249 23.5066 22.203 23.4628C22.003 23.1128 21.823 22.7729 21.613 22.4619C21.533 22.3218 21.433 22.1819 21.333 22.0419C21.2343 21.9052 21.1271 21.775 21.012 21.6518C20.8263 21.4571 20.6328 21.27 20.432 21.0908C20.6413 21.0275 20.8413 20.9408 21.032 20.8308ZM16.768 21.2608C16.1939 21.2232 15.6359 21.0556 15.136 20.7709C14.7044 20.4737 14.343 20.0859 14.0768 19.6346C13.8106 19.1833 13.6462 18.6793 13.595 18.1578C13.5055 17.6474 13.5187 17.1242 13.6337 16.6189C13.7488 16.1136 13.9634 15.6363 14.265 15.2148C14.626 14.7558 15.085 14.3838 15.607 14.1248C16.1614 13.8513 16.7456 13.6429 17.348 13.5039C18.1199 13.3027 18.9379 13.377 19.661 13.7139C20.4063 14.0664 21.0222 14.6438 21.422 15.3649C21.904 16.1609 22.118 17.0908 22.032 18.0178C22.0007 18.4681 21.864 18.9047 21.633 19.2924C21.402 19.6801 21.083 20.008 20.702 20.2499C20.5296 20.3587 20.3446 20.446 20.151 20.5099C19.03 20.8799 18.82 21.4209 16.788 21.2599L16.768 21.2608Z" fill="black"/>
<path fill-rule="evenodd" clip-rule="evenodd" d="M12.4845 20.74C12.0245 20.74 11.0935 20.8 10.0725 20.8H6.43853L4.43653 20.75L3.38653 20.62C2.53553 20.45 2.21453 20.109 2.21453 19.618C2.4427 18.4748 2.77784 17.3555 3.21553 16.275C3.51953 15.039 3.72353 13.78 3.82553 12.512C3.94553 11.133 3.94553 9.746 3.82553 8.368C3.63553 6.366 3.27553 4.304 2.96553 2.292C2.95358 2.23753 2.92505 2.1881 2.88386 2.15049C2.84268 2.11289 2.79086 2.08897 2.73553 2.082C4.53653 1.852 6.36853 1.532 8.21053 1.322C9.47489 1.16164 10.7493 1.09446 12.0235 1.121C12.2935 1.121 13.0245 1.061 13.7255 1.071C14.0555 1.071 14.3555 1.071 14.4755 1.151C15.2765 1.811 16.1275 2.562 16.9185 3.353C17.4205 3.87967 17.8942 4.43033 18.3395 5.005C18.3995 5.075 18.3395 5.245 18.3395 5.405V6.115L18.2795 10.8C18.2928 10.8739 18.3316 10.9408 18.3891 10.989C18.4467 11.0372 18.5194 11.0637 18.5945 11.0637C18.6696 11.0637 18.7423 11.0372 18.7999 10.989C18.8575 10.9408 18.8963 10.8739 18.9095 10.8L19.1805 6.126C19.1991 5.79259 19.1991 5.45841 19.1805 5.125C19.2028 4.87224 19.1507 4.61848 19.0305 4.395C18.4589 3.63948 17.8368 2.92351 17.1685 2.252C16.5229 1.57507 15.8413 0.933466 15.1265 0.33C14.7976 0.119929 14.4167 0.00565558 14.0265 0C13.2955 0 12.3345 0.06 12.0235 0C11.0176 0.0245738 10.0146 0.118127 9.02153 0.28C6.71853 0.59 4.43653 1.171 2.21453 1.551C2.1496 1.57339 2.09432 1.61737 2.05792 1.67562C2.02152 1.73386 2.0062 1.80283 2.01453 1.871C2.02663 1.94462 2.06663 2.01075 2.12623 2.05563C2.18583 2.10052 2.26043 2.12071 2.33453 2.112H2.53453C2.48209 2.13343 2.43808 2.1714 2.4092 2.22014C2.38032 2.26887 2.36814 2.32571 2.37453 2.382C2.59453 4.384 2.86453 6.386 2.95453 8.388C3.02853 9.724 2.98453 11.063 2.82453 12.392C2.75453 13.002 2.66453 13.612 2.55453 14.213C2.44453 14.813 2.28453 15.414 2.14453 16.015C1.84453 17.266 1.14453 18.607 1.14453 19.618C1.14453 20.629 1.61453 21.32 3.14553 21.62L4.37653 21.71H6.37953C7.01953 21.71 8.60153 21.65 10.0335 21.59C11.0335 21.59 12.0345 21.5 12.4855 21.44C12.5272 21.4375 12.5679 21.4266 12.6053 21.408C12.6426 21.3894 12.6758 21.3635 12.7029 21.3317C12.73 21.3 12.7504 21.2631 12.7628 21.2233C12.7753 21.1835 12.7796 21.1415 12.7755 21.1C12.7811 21.0572 12.7779 21.0136 12.7662 20.9721C12.7545 20.9305 12.7345 20.8917 12.7074 20.8581C12.6803 20.8244 12.6467 20.7966 12.6085 20.7764C12.5704 20.7561 12.5276 20.7437 12.4845 20.74Z" fill="black"/>
<path fill-rule="evenodd" clip-rule="evenodd" d="M15.5275 11.4295C15.604 11.4253 15.6765 11.3938 15.7317 11.3408C15.787 11.2877 15.8214 11.2166 15.8286 11.1403C15.8359 11.0641 15.8155 10.9877 15.7713 10.9252C15.7271 10.8626 15.6619 10.818 15.5875 10.7995C15.0475 10.7195 14.5065 10.6795 13.9655 10.6495H13.7555C13.7479 10.2299 13.6874 9.81297 13.5755 9.4085C13.5212 9.22452 13.4475 9.04684 13.3555 8.8785C13.2696 8.7029 13.1585 8.54084 13.0255 8.3975C12.8521 8.24899 12.6642 8.11833 12.4645 8.0075C12.6889 7.7491 12.86 7.44897 12.9681 7.12429C13.0762 6.79962 13.1192 6.4568 13.0945 6.1155C13.1016 5.79966 13.0455 5.4856 12.9294 5.19179C12.8133 4.89797 12.6397 4.63032 12.4187 4.40457C12.1977 4.17882 11.9338 3.99954 11.6425 3.87725C11.3512 3.75497 11.0384 3.69215 10.7225 3.6925C10.051 3.67291 9.39872 3.91807 8.90634 4.3751C8.41396 4.83213 8.12095 5.46439 8.09054 6.1355C8.08195 6.52709 8.17855 6.91382 8.37026 7.25539C8.56198 7.59695 8.84179 7.88085 9.18054 8.0775C8.92187 8.20416 8.67854 8.3575 8.45054 8.5375C8.17832 8.75003 7.94778 9.01109 7.77054 9.3075C7.45308 9.81426 7.34548 10.4247 7.47054 11.0095C6.94954 11.1095 6.46854 11.2295 5.92854 11.3695C5.8928 11.3755 5.85863 11.3886 5.82807 11.4081C5.79751 11.4275 5.77118 11.453 5.75065 11.4828C5.73012 11.5127 5.71581 11.5464 5.70858 11.5819C5.70134 11.6174 5.70133 11.654 5.70854 11.6895C5.72283 11.7586 5.76271 11.8198 5.8202 11.8608C5.87768 11.9018 5.94852 11.9195 6.01854 11.9105C6.56854 11.8405 7.11854 11.8005 7.67954 11.7605C8.24054 11.7205 8.97154 11.7605 9.62154 11.7605C10.2715 11.7605 10.9225 11.7005 11.6235 11.6905C12.5335 11.6205 13.4655 11.5205 14.3865 11.4805C14.7665 11.4445 15.1465 11.4278 15.5265 11.4305M10.7415 4.7645C11.1208 4.75586 11.4881 4.89721 11.7637 5.15785C12.0393 5.41849 12.201 5.77736 12.2135 6.1565C12.5435 8.8585 8.81954 8.1585 9.00054 6.1565C9.05743 5.74573 9.26968 5.37242 9.59357 5.11346C9.91746 4.8545 10.3283 4.7296 10.7415 4.7645ZM11.5625 10.5905C10.8125 10.5905 10.0515 10.5905 9.30054 10.7105C8.91054 10.7105 8.52054 10.8205 8.13954 10.8805C8.17754 10.6175 8.27754 10.3675 8.42954 10.1505C8.51954 10.0305 8.61954 9.9205 8.71954 9.8005L9.17954 9.2495C9.46054 8.9395 9.71054 8.6285 9.95054 8.3685C11.3425 8.6485 11.3525 8.6285 11.8225 8.4185C11.9325 8.5785 12.0425 8.7285 12.1325 8.8885C12.2225 9.0485 12.2325 9.0885 12.2925 9.1785C12.3525 9.2685 12.4525 9.4685 12.5425 9.6095C12.7345 9.93216 12.9049 10.2655 13.0535 10.6095L11.5625 10.5905ZM12.0735 13.5025C12.0749 13.461 12.0679 13.4196 12.0529 13.3808C12.0379 13.342 12.0153 13.3067 11.9864 13.2768C11.9574 13.2469 11.9228 13.2232 11.8845 13.207C11.8462 13.1908 11.8051 13.1825 11.7635 13.1825C11.1635 13.1125 10.5925 13.0325 10.0025 12.9825H9.22154C8.73154 12.9825 8.22054 13.0325 7.74954 13.1025C7.02954 13.2125 6.33954 13.4025 5.61754 13.4925C5.54328 13.4925 5.47206 13.522 5.41955 13.5745C5.36704 13.627 5.33754 13.6982 5.33754 13.7725C5.33754 13.8468 5.36704 13.918 5.41955 13.9705C5.47206 14.023 5.54328 14.0525 5.61754 14.0525C6.35354 14.1192 7.09087 14.1458 7.82954 14.1325C8.30954 14.1325 8.83054 14.0525 9.26154 14.0325L11.7335 13.8525C11.7803 13.8575 11.8275 13.8518 11.8718 13.8358C11.916 13.8198 11.956 13.794 11.9887 13.7602C12.0215 13.7265 12.0461 13.6858 12.0608 13.6411C12.0755 13.5965 12.0799 13.5491 12.0735 13.5025ZM8.71054 15.3435H7.93054C7.67454 15.3595 7.42087 15.3895 7.16954 15.4335C6.57954 15.5435 6.02854 15.7135 5.45754 15.8335C5.384 15.8411 5.31613 15.8765 5.2678 15.9324C5.21948 15.9883 5.19434 16.0606 5.19754 16.1345C5.20007 16.1713 5.20985 16.2072 5.22632 16.2402C5.24279 16.2733 5.26562 16.3027 5.29349 16.3269C5.32137 16.351 5.35375 16.3694 5.38877 16.381C5.42378 16.3926 5.46075 16.3972 5.49754 16.3945C6.15754 16.3945 6.82954 16.4745 7.49954 16.4445C7.87954 16.4445 8.26954 16.3845 8.65054 16.3645C9.21956 16.3033 9.79351 16.3033 10.3625 16.3645C10.4445 16.3799 10.5292 16.3637 10.5997 16.3192C10.6702 16.2747 10.7212 16.2051 10.7425 16.1245C10.7528 16.0837 10.7547 16.0413 10.7481 15.9998C10.7415 15.9583 10.7265 15.9185 10.7041 15.883C10.6816 15.8474 10.6522 15.8168 10.6175 15.793C10.5829 15.7692 10.5438 15.7527 10.5025 15.7445C9.92536 15.5331 9.32284 15.3986 8.71054 15.3445" fill="black"/>
</svg>
