<svg width="24" height="24" viewBox="0 0 24 24" fill="none" xmlns="http://www.w3.org/2000/svg">
<g clip-path="url(#clip0_669_29688)">
<path fill-rule="evenodd" clip-rule="evenodd" d="M15.4071 3.5696C15.5517 3.3776 15.6817 3.17694 15.7971 2.9676C16.4991 1.7756 16.5091 1.7056 16.3191 1.5056C16.1291 1.3056 15.9891 1.1246 14.8561 2.2056C14.7361 2.31894 14.6294 2.44294 14.5361 2.5776C14.4401 2.7076 14.3564 2.84427 14.2851 2.9876C13.6441 4.4606 14.0651 4.5206 14.0851 4.5306C14.1051 4.5406 14.3251 4.8926 15.4071 3.5696ZM15.8181 21.0026C15.7104 20.7971 15.5832 20.6026 15.4381 20.4216C14.3551 19.0996 14.1451 19.4196 14.1151 19.4196C14.0851 19.4196 13.6741 19.4896 14.3151 20.9626C14.3851 21.1113 14.4684 21.2513 14.5651 21.3826C14.6611 21.5106 14.7647 21.6313 14.8761 21.7446C16.0081 22.8266 16.2291 22.5556 16.3491 22.4446C16.4691 22.3346 16.5191 22.1646 15.8181 21.0026ZM22.4001 7.3766C22.5941 7.2566 22.7781 7.12327 22.9521 6.9766C23.9541 6.0536 24.0041 5.9736 23.8931 5.7336C23.7831 5.4936 23.6831 5.2826 22.2801 5.9636C22.1378 6.03745 22.0009 6.12098 21.8701 6.2136C21.7401 6.31094 21.6197 6.41794 21.5091 6.5346C20.4471 7.7476 20.8281 7.9276 20.8481 7.9476C20.8681 7.9676 20.9771 8.3076 22.4001 7.3766ZM23.0421 17.9166C22.8669 17.7627 22.6829 17.6191 22.4911 17.4866C21.0681 16.5546 20.9581 16.9246 20.9381 16.9446C20.9181 16.9646 20.5381 17.1446 21.5991 18.3576C21.7091 18.4729 21.8257 18.5796 21.9491 18.6776C22.0844 18.7709 22.2251 18.8546 22.3711 18.9286C23.7731 19.6096 23.9041 19.2886 23.9741 19.1586C24.0441 19.0286 24.0441 18.8086 23.0421 17.9166ZM7.30207 2.8576C7.37541 3.07827 7.46541 3.29194 7.57207 3.4986C8.36407 4.9716 8.63407 4.7416 8.66407 4.7316C8.69407 4.7216 9.11507 4.7316 8.77407 3.1786C8.7359 3.02009 8.68231 2.86568 8.61407 2.7176C8.54982 2.56886 8.46933 2.42767 8.37407 2.2966C7.48207 1.0146 7.21007 1.2346 7.08007 1.2946C6.95007 1.3546 6.87007 1.5946 7.30007 2.8576M8.69407 19.2396C8.69407 19.2396 8.39407 18.9596 7.59207 20.4716C7.49315 20.6801 7.40634 20.8941 7.33207 21.1126C6.88107 22.4156 6.88107 22.4956 7.11207 22.6556C7.34207 22.8156 7.51207 22.9556 8.40407 21.6536C8.49607 21.5203 8.57607 21.3803 8.64407 21.2336C8.71207 21.0843 8.76541 20.9306 8.80407 20.7726C9.14507 19.2196 8.72407 19.2496 8.69407 19.2396ZM0.930074 6.7756C1.04607 6.97827 1.17941 7.16827 1.33007 7.3456C2.44207 8.6496 2.65307 8.3496 2.67307 8.3496C2.69307 8.3496 3.11307 8.2696 2.44307 6.8166C2.37148 6.66728 2.28398 6.52613 2.18207 6.3956C2.08874 6.24494 1.98174 6.10494 1.86107 5.9756C0.699074 4.9706 0.488074 5.2216 0.378074 5.3316C0.268074 5.4416 0.208074 5.6116 0.929074 6.7746M1.05007 17.4856C0.90074 17.6656 0.767074 17.8559 0.649074 18.0566C-0.0729262 19.2296 -0.0829262 19.2996 0.0980738 19.5096C0.279074 19.7196 0.418074 19.8906 1.58007 18.8386C1.69807 18.7279 1.80507 18.6079 1.90107 18.4786C2.00107 18.3486 2.08774 18.2116 2.16107 18.0676C2.83307 16.6046 2.42207 16.5446 2.39207 16.5246C2.36207 16.5046 2.16307 16.1936 1.05007 17.4856ZM10.8481 15.1316C10.8481 15.3716 10.8481 15.6216 10.9181 15.8626C10.9233 15.9618 10.9671 16.055 11.0402 16.1223C11.1132 16.1896 11.2098 16.2256 11.3091 16.2226C11.4092 16.2177 11.5036 16.1745 11.5726 16.1019C11.6417 16.0293 11.6802 15.9328 11.6801 15.8326V15.1616C12.0201 15.1409 12.3541 15.0843 12.6821 14.9916C12.9575 14.9323 13.2178 14.8173 13.4471 14.6536C13.6763 14.4899 13.8697 14.281 14.0152 14.0398C14.1606 13.7986 14.2552 13.5301 14.293 13.2509C14.3308 12.9718 14.3111 12.6878 14.2351 12.4166C14.1778 12.163 14.0553 11.9288 13.8795 11.7372C13.7037 11.5456 13.4808 11.4034 13.2331 11.3246C12.8166 11.2268 12.3872 11.1964 11.9611 11.2346V9.9506C12.3661 9.9626 12.7651 10.0436 13.1431 10.1906C13.2014 10.2222 13.2679 10.2355 13.3339 10.2287C13.3999 10.2219 13.4624 10.1954 13.5131 10.1526C13.5469 10.1242 13.5747 10.0893 13.5948 10.05C13.6149 10.0106 13.6269 9.96766 13.6301 9.9236C13.6354 9.85702 13.6203 9.7904 13.5869 9.73255C13.5535 9.6747 13.5034 9.62834 13.4431 9.5996C12.9775 9.34741 12.4674 9.18781 11.9411 9.1296V7.6656C11.9481 7.62194 11.946 7.57728 11.935 7.53446C11.9239 7.49164 11.904 7.45158 11.8767 7.41681C11.8493 7.38204 11.8151 7.35332 11.7761 7.33246C11.7371 7.3116 11.6942 7.29905 11.6501 7.2956C11.5614 7.28717 11.4729 7.31388 11.4038 7.36998C11.3346 7.42608 11.2902 7.5071 11.2801 7.5956C11.1791 8.0966 11.1091 8.5976 11.0191 9.1186C10.8164 9.12344 10.6149 9.15026 10.4181 9.1986C10.1978 9.24032 9.98803 9.32563 9.80116 9.44953C9.61429 9.57343 9.45407 9.73343 9.32989 9.92011C9.20571 10.1068 9.12009 10.3164 9.07805 10.5366C9.036 10.7569 9.03839 10.9833 9.08507 11.2026C9.1099 11.4658 9.20873 11.7165 9.37012 11.9259C9.53151 12.1352 9.74888 12.2946 9.99707 12.3856C10.2371 12.4556 10.4871 12.4936 10.7381 12.4956V12.9656C10.7381 13.3876 10.8181 13.8076 10.8581 14.2186C10.3019 14.2214 9.76002 14.0423 9.31507 13.7086C9.24245 13.6389 9.14571 13.6 9.04507 13.6C8.94444 13.6 8.84769 13.6389 8.77507 13.7086C8.7394 13.7439 8.71108 13.786 8.69175 13.8323C8.67242 13.8787 8.66247 13.9284 8.66247 13.9786C8.66247 14.0288 8.67242 14.0785 8.69175 14.1249C8.71108 14.1712 8.7394 14.2133 8.77507 14.2486C9.34833 14.7656 10.078 15.0761 10.8481 15.1306M12.6721 12.5156C12.8321 12.5156 12.9621 12.5856 13.0121 12.7556C13.2731 13.5576 12.5721 13.9886 11.7901 14.1586L11.8301 12.9866V12.5256H12.0201C12.2374 12.4989 12.4547 12.4956 12.6721 12.5156ZM10.0971 10.9826C9.96707 10.4716 10.3071 10.2006 10.7581 10.0606C10.7581 10.2006 10.6981 10.3306 10.6881 10.4706C10.6781 10.6116 10.6881 11.0026 10.6381 11.2626H10.4381C10.3587 11.2587 10.2827 11.2294 10.2213 11.179C10.1599 11.1286 10.1163 11.0597 10.0971 10.9826Z" fill="black"/>
<path fill-rule="evenodd" clip-rule="evenodd" d="M21.0379 15.9232C21.9637 15.127 22.6852 14.1206 23.1419 12.9882C23.1769 12.9081 23.1832 12.8184 23.16 12.7341C23.1367 12.6499 23.0851 12.5762 23.014 12.5255C22.9428 12.4747 22.8564 12.45 22.7692 12.4554C22.6819 12.4608 22.5992 12.496 22.5349 12.5552C22.4995 12.5902 22.471 12.6316 22.4509 12.6772C21.8753 13.918 20.9488 14.9631 19.7859 15.6832C18.6658 16.3269 17.4621 16.8125 16.2089 17.1262C16.874 16.5843 17.4083 15.8993 17.7719 15.1222C18.329 13.9027 18.4865 12.5385 18.2219 11.2242C17.9105 9.88488 17.2861 8.63848 16.3999 7.58716C18.8726 8.78997 21.1656 10.3315 23.2129 12.1672C23.2847 12.2388 23.3819 12.279 23.4834 12.279C23.5848 12.279 23.6821 12.2388 23.7539 12.1672C23.8212 12.095 23.8587 11.9999 23.8587 11.9012C23.8587 11.8024 23.8212 11.7074 23.7539 11.6352C21.3199 9.30116 18.2039 6.75516 14.8069 5.62316C12.4229 4.76316 9.80687 4.79116 7.44287 5.70316C6.77887 5.98116 6.1442 6.3155 5.53887 6.70616C4.9362 7.08683 4.3652 7.51083 3.82587 7.97816C3.27978 8.46355 2.76758 8.98577 2.29287 9.54116C1.83287 10.1052 1.42187 10.7032 1.05987 11.3352C1.03629 11.3724 1.02042 11.414 1.01319 11.4575C1.00596 11.501 1.00752 11.5455 1.01777 11.5884C1.02802 11.6313 1.04677 11.6717 1.07289 11.7072C1.09901 11.7427 1.13199 11.7726 1.16987 11.7952C1.2072 11.8191 1.24896 11.8352 1.29266 11.8426C1.33636 11.85 1.38111 11.8485 1.42423 11.8383C1.46734 11.828 1.50795 11.8091 1.54363 11.7828C1.5793 11.7565 1.60931 11.7233 1.63187 11.6852C2.00254 11.1025 2.4232 10.5582 2.89387 10.0522C3.36254 9.55216 3.86687 9.09116 4.40687 8.66916C4.93429 8.26275 5.49004 7.89448 6.06987 7.56716C6.18387 7.50383 6.30054 7.44716 6.41987 7.39716C5.93729 7.92068 5.53278 8.51109 5.21887 9.15016C4.68704 10.3867 4.48645 11.7405 4.63687 13.0782C4.72792 14.4365 5.26709 15.7262 6.16987 16.7452C6.21654 16.7718 6.25987 16.8018 6.29987 16.8352C5.68753 16.6553 5.09383 16.4172 4.52687 16.1242C3.14037 15.3773 2.0722 14.1524 1.52087 12.6772C1.48738 12.5959 1.42456 12.5303 1.3449 12.4932C1.26524 12.4562 1.17456 12.4504 1.09087 12.4772C1.04934 12.4907 1.01093 12.5124 0.977838 12.5409C0.944751 12.5694 0.917655 12.6042 0.89812 12.6433C0.878586 12.6824 0.867002 12.7249 0.864041 12.7685C0.861079 12.8121 0.866799 12.8558 0.880869 12.8972C1.39134 14.5968 2.50188 16.0531 4.00587 16.9952C5.5046 17.9001 7.17797 18.4774 8.91587 18.6892C10.3689 18.8932 11.8379 18.9672 13.3039 18.9092C14.3239 18.8572 15.3339 18.6792 16.3099 18.3792C18.0318 17.8779 19.6375 17.0435 21.0379 15.9232ZM5.68887 12.9882C5.60127 11.8447 5.81179 10.698 6.29987 9.66016C6.78826 8.7063 7.51592 7.89556 8.41165 7.30729C9.30737 6.71903 10.3405 6.37337 11.4099 6.30416C12.0863 6.30496 12.7555 6.44301 13.3771 6.70995C13.9986 6.97689 14.5595 7.36717 15.0259 7.85716C16.0548 8.82728 16.791 10.0665 17.1509 11.4342C17.4104 12.5281 17.3119 13.6764 16.8699 14.7102C16.4688 15.7588 15.6796 16.6128 14.6659 17.0952C14.3439 17.2388 14.0082 17.3494 13.6639 17.4252C12.2109 17.6252 10.7379 17.6252 9.28487 17.4252C8.82762 17.3267 8.38139 17.1826 7.95287 16.9952C7.52406 16.8001 7.13904 16.5206 6.82087 16.1732C6.09744 15.2678 5.69851 14.146 5.68787 12.9872" fill="black"/>
</g>
<defs>
<clipPath id="clip0_669_29688">
<rect width="24" height="24" fill="white"/>
</clipPath>
</defs>
</svg>
