<svg width="24" height="24" viewBox="0 0 24 24" fill="none" xmlns="http://www.w3.org/2000/svg">
<g clip-path="url(#clip0_669_29682)">
<path d="M10.7738 22.0982C11.4973 20.9268 12.5791 20.02 13.8588 19.5122C14.7388 19.0892 15.6588 18.7542 16.6048 18.5132C17.7048 18.1502 18.8518 17.9482 20.0098 17.9142C20.4498 17.8442 20.4098 17.2652 19.8898 17.2252C18.7377 17.0754 17.5682 17.1296 16.4348 17.3852C15.7788 17.5119 15.1398 17.6986 14.5178 17.9452C13.889 18.193 13.2869 18.504 12.7208 18.8732C11.486 19.5832 10.5126 20.6719 9.94484 21.9782C9.80484 22.4982 10.5638 22.4582 10.7738 22.0982Z" fill="black"/>
<path d="M18.4616 14.2501C16.4219 13.433 14.2646 12.9476 12.0716 12.8121V12.7621C12.9993 10.8225 13.7899 8.82026 14.4376 6.77009C15.013 5.18636 14.9916 3.44723 14.3776 1.87809C13.9186 0.93809 14.1776 0.93809 13.7286 0.52909C13.2494 0.139387 12.6366 -0.0469431 12.0216 0.0100896C11.3068 0.0677151 10.6022 0.215556 9.92457 0.45009C8.61044 0.93174 7.35697 1.56502 6.18957 2.33709C5.01299 3.05253 3.89753 3.86396 2.85457 4.76309C2.79339 4.82803 2.75933 4.91387 2.75933 5.00309C2.75933 5.0923 2.79339 5.17815 2.85457 5.24309C2.9183 5.3066 3.0046 5.34226 3.09457 5.34226C3.18454 5.34226 3.27084 5.3066 3.33457 5.24309C4.37413 4.43512 5.47589 3.71053 6.62957 3.07609C7.7532 2.39821 8.9528 1.85513 10.2036 1.45809C10.8132 1.26969 11.4442 1.15881 12.0816 1.12809C12.3946 1.10109 12.7076 1.19009 12.9596 1.37809C13.0196 1.37809 12.9596 1.50809 12.9596 1.57809C12.9196 1.70542 12.8629 1.82542 12.7896 1.93809C12.6344 2.16499 12.4608 2.37872 12.2706 2.57709C11.244 3.35385 10.1235 3.99794 8.93557 4.49409C6.44957 5.69209 3.59357 6.89009 3.46357 6.92009C3.26242 6.96385 3.05915 6.99723 2.85457 7.02009H2.50457C2.42457 7.02009 2.50457 6.79009 2.58457 6.54009C2.60546 6.49501 2.61482 6.44544 2.61182 6.39585C2.60881 6.34625 2.59354 6.29818 2.56737 6.25595C2.5412 6.21371 2.50494 6.17864 2.46187 6.15388C2.41879 6.12912 2.37024 6.11545 2.32057 6.11409C2.26084 6.11184 2.20179 6.12749 2.15102 6.15903C2.10024 6.19056 2.06004 6.23655 2.03557 6.29109C1.90186 6.54697 1.83203 6.83139 1.83203 7.12009C1.83203 7.40879 1.90186 7.69321 2.03557 7.94909C2.70204 9.35326 3.77786 10.5229 5.12157 11.3041C6.88542 12.3688 8.8115 13.138 10.8236 13.5811C9.6946 15.5854 8.85717 17.7404 8.33657 19.9811C8.02657 21.5291 8.16657 22.8671 8.84657 23.5161C9.09757 23.7066 9.3839 23.8453 9.68894 23.9243C9.99398 24.0033 10.3117 24.0209 10.6236 23.9761C12.5758 23.6979 14.4707 23.1077 16.2356 22.2281C18.0198 21.4449 19.6972 20.4382 21.2276 19.2321C21.9476 18.5831 22.2266 17.9541 22.1576 17.5551C21.9376 16.3371 20.5386 15.1181 18.4616 14.2501ZM5.54157 10.6651C4.29574 9.97832 3.28347 8.93505 2.63457 7.66909C2.94124 7.70442 3.24757 7.70442 3.55357 7.66909C5.86048 6.91372 8.12104 6.02352 10.3236 5.00309C11.3255 4.59018 12.261 4.03148 13.0996 3.34509C13.3936 3.04809 13.6456 2.71209 13.8496 2.34709C14.2136 3.34209 14.2726 4.42309 14.0186 5.45209C13.387 7.82878 12.4893 10.1266 11.3426 12.3021C11.2726 12.4621 11.2126 12.6021 11.1726 12.7221C9.19443 12.3525 7.29227 11.6574 5.54157 10.6651ZM20.2786 18.5131C18.4891 19.8329 16.5353 20.914 14.4666 21.7291C13.2924 22.2351 12.0626 22.6003 10.8026 22.8171C10.4057 22.9218 9.98452 22.8829 9.61357 22.7071C9.29357 22.5271 9.26357 22.0381 9.24357 21.5391C9.25114 20.7428 9.36207 19.9508 9.57357 19.1831C10.0432 17.3797 10.7131 15.6346 11.5706 13.9801L11.7206 13.7101C13.8856 13.8651 16.0106 14.3701 18.0116 15.2081C19.1839 15.5915 20.1978 16.3494 20.8976 17.3651C21.0076 17.4551 21.0886 17.8551 20.2786 18.5131Z" fill="black"/>
</g>
<defs>
<clipPath id="clip0_669_29682">
<rect width="24" height="24" fill="white"/>
</clipPath>
</defs>
</svg>
