<svg width="24" height="24" viewBox="0 0 24 24" fill="none" xmlns="http://www.w3.org/2000/svg">
<g clip-path="url(#clip0_699_32271)">
<path fill-rule="evenodd" clip-rule="evenodd" d="M0.719028 17.5534C0.907534 16.88 1.12034 16.2135 1.35703 15.5554C1.70703 14.6064 2.09703 13.6874 2.50703 12.7484C2.98697 11.6282 3.49277 10.5193 4.02403 9.42244C4.82403 7.75444 5.65203 6.15644 6.48203 4.52844C7.04871 3.38078 7.76383 2.31263 8.60903 1.35144C9.23575 0.604607 10.1268 0.128812 11.096 0.0234375C11.406 0.0294375 11.709 0.103437 11.986 0.243437C12.3472 0.412452 12.6831 0.630878 12.984 0.892438C13.5523 1.40023 14.0738 1.95815 14.542 2.55944C15.019 3.14566 15.4563 3.76303 15.851 4.40744C16.979 6.24644 17.978 7.72444 18.977 9.49244C19.577 10.4914 20.206 11.6594 20.875 13.0184C21.185 13.6184 21.644 14.7064 22.083 15.7954C22.523 16.8834 22.973 18.0024 23.153 18.6214C23.4297 19.2414 23.6624 19.8774 23.851 20.5294C23.9905 21.0363 24.0313 21.5652 23.971 22.0874C23.883 22.4514 23.671 22.7724 23.371 22.9974C22.593 23.6654 21.854 23.7254 20.066 23.7154C18.278 23.7054 16.18 23.6154 15.291 23.6154L7.12103 23.6654C6.12103 23.6654 5.12303 23.8854 4.17403 23.9454C3.71136 23.9854 3.2487 23.9854 2.78603 23.9454C2.42086 23.9251 2.05903 23.8647 1.70703 23.7654C1.40003 23.6654 1.12403 23.4864 0.90703 23.2454C0.335287 22.5882 0.0137463 21.7504 -0.00097084 20.8794C0.0769672 19.7415 0.319489 18.6208 0.719028 17.5524M1.81703 22.4564C1.91903 22.5564 2.04703 22.6264 2.18703 22.6564C2.43703 22.7064 2.67603 22.7164 2.91603 22.7464C3.30791 22.7815 3.70215 22.7815 4.09403 22.7464C5.09403 22.6864 6.09203 22.4764 7.09103 22.4464L15.301 22.3664C16.191 22.3664 18.378 22.4564 20.076 22.4564C21.774 22.4564 23.002 22.4564 22.613 20.8084C22.443 20.1904 22.2297 19.5878 21.973 19.0004C21.783 18.3804 21.384 17.3024 20.975 16.2434C20.566 15.1844 20.115 14.1264 19.826 13.5464C19.2414 12.3714 18.6252 11.2123 17.978 10.0704C16.979 8.30244 15.98 6.84444 14.852 5.01644C14.4834 4.41444 14.0737 3.8421 13.623 3.29944C13.189 2.75677 12.7097 2.25744 12.185 1.80144C12.0117 1.6421 11.8217 1.50544 11.615 1.39144C11.4771 1.30618 11.3182 1.26116 11.156 1.26144C10.4923 1.36843 9.89514 1.72645 9.48803 2.26144C8.72803 3.14144 8.08603 4.11944 7.58003 5.16744C6.76103 6.77544 5.92203 8.37344 5.12303 10.0214C4.60303 11.0804 4.12403 12.1694 3.59503 13.2984C3.19503 14.2064 2.79503 15.1054 2.45603 16.0344C2.21603 16.6398 2.00603 17.2558 1.82603 17.8824C1.46603 18.8454 1.24503 19.8544 1.16803 20.8794C1.19429 21.4649 1.42379 22.0219 1.81703 22.4564Z" fill="black"/>
<path fill-rule="evenodd" clip-rule="evenodd" d="M7.88973 13.0079C8.53131 12.7796 9.22446 12.738 9.88873 12.8879L10.6077 13.0579C10.6077 12.8379 10.5177 12.6179 10.4677 12.3879L10.4077 12.1779C9.99773 12.0899 9.60773 11.9239 9.25873 11.6889C8.82721 11.4097 8.47295 11.0264 8.22862 10.5743C7.98429 10.1222 7.85777 9.61579 7.86073 9.10187C7.87768 8.47277 8.0988 7.86625 8.49073 7.37387C10.0777 5.29687 12.4857 6.50487 12.7247 6.63487C13.1513 6.86702 13.515 7.19925 13.7849 7.603C14.0547 8.00676 14.2224 8.46998 14.2737 8.95287C14.2959 9.63365 14.0802 10.3009 13.6637 10.8399C13.2757 11.3469 12.7677 11.7479 12.1857 12.0089C11.8827 12.1329 11.5627 12.2109 11.2367 12.2389C11.3467 12.5589 11.4567 12.8779 11.5567 13.2379C11.7297 13.2529 11.9037 13.2529 12.0767 13.2379C12.654 13.1781 13.2137 13.0048 13.7237 12.7279C14.1732 12.4503 14.5095 12.0222 14.6727 11.5199C14.6928 11.4345 14.7305 11.3543 14.7833 11.2843C14.8362 11.2143 14.9031 11.1561 14.9797 11.1135C15.0564 11.0709 15.1411 11.0447 15.2284 11.0367C15.3157 11.0287 15.4038 11.039 15.4869 11.0669C15.57 11.0949 15.6464 11.1399 15.7111 11.1991C15.7758 11.2582 15.8275 11.3303 15.8628 11.4106C15.8981 11.4909 15.9162 11.5776 15.916 11.6653C15.9158 11.753 15.8973 11.8397 15.8617 11.9199C15.6481 12.7363 15.1434 13.4465 14.4427 13.9169C13.7874 14.3178 13.0566 14.5795 12.2957 14.6859H11.9357C12.0157 15.0259 12.0957 15.3659 12.1457 15.6849C12.2657 16.4839 12.0257 15.6849 13.1447 16.4139C13.7483 17.0164 14.2089 17.7467 14.4927 18.5509C14.8281 19.2957 15.0052 20.102 15.0127 20.9189C15.0009 21.0623 14.9469 21.1991 14.8576 21.3119C14.7683 21.4248 14.6476 21.5087 14.5107 21.5532C14.3738 21.5976 14.2268 21.6006 14.0882 21.5618C13.9496 21.5229 13.8256 21.444 13.7317 21.3349C13.6705 21.2626 13.6241 21.1789 13.5953 21.0886C13.5665 20.9984 13.5557 20.9033 13.5637 20.8089C13.4767 20.2389 13.2907 19.6879 13.0147 19.1809C12.8337 18.6769 12.5627 18.2099 12.2147 17.8019C12.1507 17.741 12.0698 17.7008 11.9826 17.6865C11.8953 17.6722 11.8058 17.6845 11.7257 17.7219C11.3757 17.9519 11.0431 18.2052 10.7277 18.4819C10.2317 18.8619 9.68773 19.1739 9.10873 19.4099C8.49664 19.6684 7.83582 19.7912 7.17173 19.7699C7.0807 19.7806 6.98842 19.772 6.90097 19.7445C6.81351 19.7171 6.73287 19.6714 6.66435 19.6105C6.59582 19.5496 6.54098 19.4749 6.50342 19.3913C6.46586 19.3077 6.44644 19.217 6.44644 19.1254C6.44644 19.0337 6.46586 18.9431 6.50342 18.8595C6.54098 18.7758 6.59582 18.7011 6.66435 18.6402C6.73287 18.5793 6.81351 18.5337 6.90097 18.5062C6.98842 18.4787 7.0807 18.4701 7.17173 18.4809C7.64525 18.4536 8.10783 18.3276 8.52973 18.1109C8.97973 17.8909 9.39973 17.6119 9.77873 17.2829C11.3067 16.0139 11.1767 16.5429 11.0667 15.8239C11.0307 15.4285 10.9741 15.0359 10.8967 14.6459C10.4867 14.5859 10.0777 14.4759 9.53873 14.3559C9.14465 14.2636 8.73252 14.2843 8.34973 14.4159C7.96873 14.5419 7.62473 14.7619 7.35073 15.0559C7.28967 15.1262 7.2152 15.1835 7.13168 15.2247C7.04816 15.2658 6.95727 15.2899 6.86434 15.2955C6.7714 15.3011 6.67828 15.2881 6.59044 15.2572C6.50259 15.2264 6.42178 15.1783 6.35273 15.1159C6.21112 14.9924 6.12423 14.8178 6.11111 14.6303C6.09799 14.4429 6.1597 14.2579 6.28273 14.1159C6.71897 13.6194 7.27143 13.2387 7.89073 13.0079M11.7267 11.0099C12.1239 10.8211 12.4676 10.5362 12.7267 10.1809C12.9998 9.85452 13.1388 9.43674 13.1157 9.01187C13.0774 8.71581 12.966 8.43395 12.7916 8.19165C12.6172 7.94936 12.3853 7.75424 12.1167 7.62387C10.8777 6.91387 8.89073 7.43387 8.89073 9.11187C8.90027 9.44111 8.99097 9.76289 9.15478 10.0486C9.31859 10.3344 9.55044 10.5753 9.82973 10.7499C10.099 10.9484 10.4137 11.0762 10.7451 11.1216C11.0765 11.1671 11.414 11.1286 11.7267 11.0099Z" fill="black"/>
<path fill-rule="evenodd" clip-rule="evenodd" d="M15.5205 15.3655C15.7471 15.1398 16.0245 14.9718 16.3295 14.8755C16.3887 14.8618 16.4502 14.8618 16.5095 14.8755H16.6985C17.0421 14.8979 17.3697 15.0292 17.6337 15.2503C17.8977 15.4715 18.0843 15.7711 18.1665 16.1055C18.2158 16.4629 18.1262 16.8256 17.9162 17.1189C17.7061 17.4123 17.3917 17.614 17.0375 17.6825C16.7805 17.7501 16.5121 17.7618 16.2503 17.717C15.9884 17.6721 15.7392 17.5717 15.5195 17.4225C15.3312 17.2977 15.1872 17.1166 15.1081 16.9049C15.0291 16.6933 15.0191 16.4622 15.0795 16.2445C15.1391 15.9155 15.2918 15.6104 15.5195 15.3655M16.3285 16.6545C16.4555 16.6938 16.5914 16.6938 16.7185 16.6545C16.9585 16.5745 17.0985 16.4345 17.0685 16.2745C17.0385 16.1145 16.8285 16.0045 16.5785 16.0045H16.4685C16.4045 16.0425 16.3445 16.0858 16.2885 16.1345C16.1972 16.24 16.1352 16.3676 16.1085 16.5045C16.0785 16.6045 16.2185 16.6245 16.3285 16.6545Z" fill="black"/>
</g>
<defs>
<clipPath id="clip0_699_32271">
<rect width="24" height="24" fill="white" transform="matrix(-1 0 0 1 24 0)"/>
</clipPath>
</defs>
</svg>
