<svg width="24" height="24" viewBox="0 0 24 24" fill="none" xmlns="http://www.w3.org/2000/svg">
<path fill-rule="evenodd" clip-rule="evenodd" d="M11.2419 10.8843C11.3478 10.9877 11.4735 11.0684 11.6116 11.1216C11.7496 11.1748 11.897 11.1993 12.0448 11.1937C12.1926 11.1881 12.3378 11.1524 12.4714 11.0889C12.605 11.0254 12.7242 10.9354 12.8219 10.8243C12.9448 10.6133 12.9862 10.3645 12.9383 10.125C12.8904 9.88556 12.7565 9.67188 12.5619 9.52432C11.5719 8.97432 10.3619 9.97432 11.2419 10.8843Z" fill="black"/>
<path fill-rule="evenodd" clip-rule="evenodd" d="M6.72072 12.6239C7.67672 13.0399 8.68772 13.3159 9.72072 13.4439C11.2717 13.6339 15.1727 13.6839 16.6027 13.0539C17.0823 12.8892 17.4895 12.5624 17.7542 12.1298C18.0188 11.6972 18.1244 11.1859 18.0527 10.6839C17.8127 9.06388 14.8027 2.68288 13.9527 2.27288C13.7827 2.19288 13.2927 2.19288 13.4827 2.72288C14.4107 4.04588 15.1827 5.47288 15.7827 6.97288C16.2947 8.22829 16.7289 9.51406 17.0827 10.8229C17.1167 11.0129 17.0957 11.2069 17.0227 11.3839C16.8408 11.7046 16.5498 11.9495 16.2027 12.0739C15.0927 12.5239 11.3227 12.4739 9.88172 12.2939C8.95344 12.1878 8.0446 11.9522 7.18172 11.5939C6.04172 11.0939 6.89172 10.1239 7.38172 8.98388C8.07172 7.36388 11.3817 1.37188 12.5817 1.85288C12.6545 1.87163 12.7317 1.86329 12.7988 1.8294C12.8659 1.79552 12.9184 1.7384 12.9465 1.66868C12.9747 1.59896 12.9765 1.52139 12.9517 1.45042C12.9269 1.37944 12.8772 1.3199 12.8117 1.28288C10.7117 0.352877 5.55172 9.52288 5.51172 10.9729C5.51608 11.3399 5.63506 11.6963 5.85202 11.9924C6.06898 12.2884 6.37206 12.5092 6.72072 12.6239Z" fill="black"/>
<path fill-rule="evenodd" clip-rule="evenodd" d="M11.8214 7.97309C12.3814 8.26309 12.5714 7.13309 12.5914 6.49309C12.5886 5.73128 12.4497 4.9761 12.1814 4.26309C12.1014 4.13309 11.7614 4.01309 11.6114 4.46309C11.3394 5.09245 11.2561 5.78725 11.3714 6.46309C11.4114 7.35309 11.5214 7.86309 11.8214 7.97309ZM3.29044 17.3651C2.31044 15.2551 0.980438 7.39309 1.22044 6.67309C1.37044 6.27309 1.03044 5.93309 4.12044 5.29309C4.91044 5.11909 5.71344 5.01209 6.52044 4.97309C6.60186 4.95918 6.67574 4.91691 6.72901 4.85378C6.78227 4.79064 6.81149 4.71069 6.81149 4.62809C6.81149 4.54549 6.78227 4.46554 6.72901 4.4024C6.67574 4.33927 6.60186 4.297 6.52044 4.28309C5.6711 4.28842 4.82444 4.34509 3.98044 4.45309C0.530438 4.97309 0.540438 5.48309 0.190438 6.25309C-0.449562 7.74309 1.24044 14.7151 2.74044 17.6351C2.78283 17.6957 2.84551 17.7392 2.91717 17.7577C2.98882 17.7762 3.06472 17.7684 3.13114 17.7358C3.19757 17.7032 3.25014 17.6479 3.27935 17.5799C3.30857 17.5119 3.3125 17.4357 3.29044 17.3651ZM19.9834 5.30309C20.9349 5.4902 21.8029 5.9732 22.4634 6.68309C22.7334 7.68309 22.0034 14.8451 21.4034 17.4051C21.3883 17.4905 21.4054 17.5784 21.4515 17.6519C21.4975 17.7254 21.5692 17.7791 21.6526 17.8028C21.736 17.8265 21.8252 17.8183 21.903 17.7799C21.9807 17.7416 22.0415 17.6757 22.0734 17.5951C22.7079 15.4275 23.1727 13.2138 23.4634 10.9741C23.7404 9.42409 23.7634 7.84009 23.5334 6.28409C23.4235 6.05425 23.2587 5.85504 23.0534 5.70409C21.5434 4.45309 19.4534 4.33309 17.4634 4.33309C17.4232 4.33175 17.3831 4.33852 17.3456 4.35299C17.308 4.36747 17.2737 4.38935 17.2448 4.41734C17.2159 4.44533 17.1929 4.47886 17.1772 4.51593C17.1615 4.55299 17.1534 4.59284 17.1534 4.63309C17.1334 5.18309 17.8934 4.77309 19.9834 5.30309ZM23.9834 18.8851C23.7634 17.9751 21.6534 18.0251 21.9834 18.7651C21.999 18.8073 22.0228 18.8459 22.0534 18.8788C22.084 18.9118 22.1208 18.9383 22.1617 18.9569C22.2026 18.9755 22.2468 18.9858 22.2918 18.9872C22.3367 18.9886 22.3814 18.9811 22.4234 18.9651C22.7224 18.8735 23.0453 18.9022 23.3234 19.0451C23.3212 19.4992 23.2113 19.9462 23.0027 20.3495C22.794 20.7528 22.4927 21.1009 22.1234 21.3651C21.8334 21.5151 6.06044 21.8951 2.12044 21.3051C1.49044 20.6651 0.980438 19.2151 1.12044 19.3051C15.6224 18.2251 21.0534 19.4151 21.1234 18.7051C21.1089 18.6044 21.0583 18.5124 20.9811 18.4462C20.9038 18.38 20.8052 18.344 20.7034 18.3451C18.4534 18.1751 4.19044 17.5651 1.10044 18.2151C0.734017 18.2591 0.399783 18.446 0.170438 18.7351C-0.369562 19.7351 0.480438 21.3851 1.23044 22.1651C2.49044 23.4651 22.0134 22.3451 22.4234 22.1651C22.9555 21.8103 23.3815 21.3179 23.6562 20.7404C23.9308 20.1629 24.0439 19.5217 23.9834 18.8851Z" fill="black"/>
</svg>
