<svg width="24" height="24" viewBox="0 0 24 24" fill="none" xmlns="http://www.w3.org/2000/svg">
<g clip-path="url(#clip0_669_29680)">
<path fill-rule="evenodd" clip-rule="evenodd" d="M2.26822 1.66818C2.39822 1.76818 2.54822 1.86718 2.68722 1.95718L3.13522 2.21618C4.36122 2.92318 4.47122 3.13318 4.75022 2.86418C4.88022 2.73418 5.13922 2.45518 3.86322 1.24918C3.71494 1.10879 3.55466 0.981635 3.38422 0.869183C3.22052 0.754564 3.04315 0.660839 2.85622 0.590183C2.85622 0.590183 1.21122 0.00318339 1.07222 0.501183C0.942216 0.791183 1.07222 0.791183 2.26822 1.66818ZM7.05222 5.16618C6.98212 5.01194 6.90229 4.8623 6.81322 4.71818C5.81622 3.35218 5.57722 3.72118 5.54722 3.72118C5.51722 3.72118 5.24822 3.81118 5.69722 5.28618C5.69722 5.42618 5.80722 5.57518 5.86722 5.71418C5.92722 5.85418 6.00622 5.99418 6.08622 6.12418C6.78322 7.34918 6.86322 7.41918 7.14222 7.32918C7.42222 7.23918 7.60122 7.24918 7.21222 5.67518C7.17411 5.5011 7.12056 5.33076 7.05222 5.16618ZM9.32522 14.8752C9.40855 14.7719 9.47522 14.6585 9.52522 14.5352C9.73422 13.9972 10.1132 12.6522 10.1922 12.4232C10.2206 12.3408 10.2214 12.2513 10.1943 12.1685C10.1672 12.0856 10.1138 12.0139 10.0422 11.9642C9.94697 11.925 9.8401 11.9251 9.74493 11.9645C9.64976 12.0038 9.57401 12.0792 9.53422 12.1742C9.53422 12.2442 9.38422 12.4622 9.25522 12.7322C9.17522 12.3722 9.11522 12.0142 9.03622 11.6552C8.85119 10.884 8.61807 10.1252 8.33822 9.38318C8.32472 9.32952 8.29833 9.27996 8.26134 9.23881C8.22435 9.19766 8.17787 9.16615 8.12594 9.14704C8.07401 9.12792 8.0182 9.12177 7.96336 9.12911C7.90851 9.13646 7.85629 9.15708 7.81122 9.18918C7.75796 9.22907 7.718 9.28412 7.69659 9.34711C7.67517 9.41011 7.6733 9.47811 7.69122 9.54218C7.81022 10.4292 7.82022 11.3262 7.90022 12.2232C7.90022 12.6122 8.01022 13.0012 8.07022 13.3892C8.12422 13.7925 8.20022 14.1915 8.29822 14.5862C8.34535 14.7621 8.45573 14.9145 8.60822 15.0142C8.72354 15.0849 8.86121 15.1098 8.99398 15.0838C9.12676 15.0579 9.24496 14.9831 9.32522 14.8742M11.8572 9.97118C11.9251 9.901 11.9854 9.82392 12.0372 9.74118C12.0812 9.64518 12.1175 9.54552 12.1462 9.44218C12.4652 8.37618 12.3762 8.29618 12.2062 8.18618C12.0362 8.07618 11.7972 8.02618 11.0792 8.86418C11.0072 8.95085 10.9442 9.04418 10.8902 9.14418C10.8355 9.24085 10.7955 9.34352 10.7702 9.45218C10.7702 9.56218 10.5512 10.5792 10.8502 10.7182C10.9202 10.7582 11.1302 10.8982 11.8572 9.97118ZM14.2392 7.60918C14.3419 7.57318 14.4419 7.52985 14.5392 7.47918L14.8172 7.28918C15.7542 6.56218 15.7142 6.41218 15.6252 6.22318C15.5352 6.03318 15.3652 5.89318 14.2692 6.22318C14.1492 6.25652 14.0329 6.29985 13.9202 6.35318C13.8089 6.41318 13.7059 6.48618 13.6112 6.57218C13.3622 6.80118 12.7642 7.49918 12.9832 7.76818C13.0332 7.83818 13.0332 7.97918 14.2392 7.60918ZM23.7392 4.85718C23.4493 4.1491 22.8999 3.57853 22.2032 3.26218C21.5461 2.95938 20.8205 2.83586 20.1002 2.90418C19.6688 2.93624 19.2487 3.05739 18.8664 3.25999C18.4842 3.46258 18.1481 3.74222 17.8793 4.08125C17.6106 4.42028 17.415 4.81134 17.305 5.22974C17.195 5.64815 17.173 6.08482 17.2402 6.51218C17.6382 9.75218 22.3732 10.3692 23.5792 8.05718C23.825 7.56362 23.9661 7.02458 23.9936 6.4739C24.0211 5.92322 23.9345 5.3728 23.7392 4.85718ZM22.7422 7.63818C21.9742 9.38318 18.4462 8.90418 18.3262 6.42218C18.2929 6.14926 18.3163 5.87239 18.3952 5.60898C18.474 5.34557 18.6065 5.10132 18.7843 4.89159C18.962 4.68186 19.1813 4.51119 19.4283 4.39031C19.6752 4.26942 19.9445 4.20095 20.2192 4.18918C20.7125 4.14541 21.2089 4.22443 21.6642 4.41918C22.0972 4.58818 22.4522 4.91118 22.6612 5.32618C22.8277 5.68752 22.918 6.07924 22.9266 6.47698C22.9352 6.87473 22.8619 7.26999 22.7112 7.63818H22.7422ZM6.96322 19.2112C6.83322 18.4932 6.63322 17.8152 6.48422 17.1072C6.48032 17.0626 6.46768 17.0193 6.44701 16.9797C6.42635 16.94 6.39807 16.9049 6.3638 16.8762C6.32952 16.8475 6.28993 16.8258 6.24727 16.8124C6.20462 16.799 6.15974 16.7942 6.11522 16.7982C6.07018 16.8008 6.02616 16.8127 5.98589 16.8331C5.94562 16.8534 5.90995 16.8818 5.88109 16.9165C5.85222 16.9512 5.83077 16.9914 5.81807 17.0347C5.80536 17.078 5.80167 17.1234 5.80722 17.1682C5.80722 17.9942 5.71722 18.8122 5.74722 19.6392V20.1182C5.23822 20.0482 4.68022 19.9382 4.06222 19.9382C3.78322 19.9382 3.49422 19.8882 3.21522 19.8782C2.93522 19.8682 2.65722 19.8782 2.37822 19.8782C1.71022 19.8782 1.07222 19.9782 0.384216 19.9682C0.318858 19.9555 0.251171 19.9635 0.190586 19.9911C0.130001 20.0187 0.0795341 20.0645 0.046216 20.1222C0.0238202 20.1604 0.0101601 20.2031 0.00621604 20.2472C-0.00228728 20.2904 -0.00206429 20.3348 0.00687188 20.3779C0.0158081 20.421 0.0332768 20.4619 0.0582497 20.4982C0.0832227 20.5344 0.115195 20.5653 0.152285 20.589C0.189374 20.6127 0.230832 20.6287 0.274216 20.6362C0.928216 20.8395 1.59288 20.9955 2.26822 21.1042C2.56722 21.1042 2.85622 21.1642 3.14522 21.1742C3.43422 21.1842 3.71322 21.1742 4.00222 21.1742C4.62022 21.1742 5.21822 21.0542 5.81622 20.9842C5.81194 21.0374 5.81194 21.0909 5.81622 21.1442C5.91622 21.8822 6.07622 22.5902 6.19622 23.3172C6.20377 23.4176 6.24896 23.5116 6.32274 23.5801C6.39652 23.6487 6.49347 23.687 6.59422 23.6872C6.6576 23.7024 6.72385 23.7011 6.78659 23.6834C6.84933 23.6656 6.90645 23.6321 6.95245 23.5859C6.99845 23.5397 7.03179 23.4824 7.04926 23.4196C7.06674 23.3568 7.06775 23.2905 7.05222 23.2272C7.05222 22.5002 7.14222 21.7822 7.13222 21.0552V20.1282C7.09144 19.8198 7.03469 19.5137 6.96222 19.2112M21.5062 20.2072C20.0602 20.1272 18.6152 20.0272 17.1602 19.9782H15.2962C14.6682 19.9782 14.0302 19.9382 13.4322 19.9382C11.9862 19.9982 10.5522 20.1282 9.10622 20.2082C9.01639 20.2082 8.93021 20.2437 8.8665 20.3071C8.8028 20.3704 8.76674 20.4564 8.76622 20.5462C8.76488 20.5904 8.77242 20.6343 8.78841 20.6755C8.80439 20.7167 8.82848 20.7543 8.85926 20.786C8.89004 20.8177 8.92687 20.8429 8.96758 20.8601C9.00828 20.8773 9.05203 20.8862 9.09622 20.8862C10.5412 20.9852 11.9862 21.1142 13.4422 21.1742H17.1602C18.6152 21.1142 20.0502 21.0242 21.5052 20.9542C21.6057 20.9542 21.702 20.9144 21.7732 20.8436C21.8444 20.7728 21.8847 20.6766 21.8852 20.5762C21.88 20.4781 21.8379 20.3857 21.7675 20.3173C21.697 20.2489 21.6044 20.2096 21.5062 20.2072Z" fill="black"/>
</g>
<defs>
<clipPath id="clip0_669_29680">
<rect width="24" height="24" fill="white"/>
</clipPath>
</defs>
</svg>
