<svg width="24" height="24" viewBox="0 0 24 24" fill="none" xmlns="http://www.w3.org/2000/svg">
<g clip-path="url(#clip0_699_32289)">
<path d="M14.1848 17.6619C14.1043 17.6619 14.0269 17.6932 13.969 17.7492C13.9112 17.8052 13.8774 17.8815 13.8748 17.9619V18.7329C12.3118 18.6629 10.7498 18.5029 9.19776 18.4029C8.10576 18.3429 7.02376 18.2829 6.02276 18.2929C4.44276 18.3249 2.86676 18.4629 1.30576 18.7029C1.19576 16.3399 1.13576 12.9049 1.18576 9.74993C1.18576 6.12493 1.35576 2.86993 1.83576 2.09793C1.92576 1.95793 2.19676 1.87793 2.54776 1.76793C3.38398 1.54943 4.23862 1.40883 5.10076 1.34793C6.98633 1.17194 8.8842 1.17194 10.7698 1.34793C11.2884 1.39926 11.7991 1.4926 12.3018 1.62793C12.6518 1.72793 12.9228 1.81793 13.0128 1.96793C13.0728 2.09926 13.1128 2.23593 13.1328 2.37793C13.1941 2.62993 13.2408 2.88393 13.2728 3.13993C13.2876 3.23028 13.3362 3.31159 13.4089 3.36733C13.4815 3.42306 13.5727 3.44902 13.6638 3.43993C13.7532 3.42513 13.8334 3.37621 13.8875 3.30347C13.9416 3.23073 13.9653 3.13984 13.9538 3.04993C13.9193 2.71319 13.8659 2.37866 13.7938 2.04793C13.7711 1.88244 13.7168 1.72286 13.6338 1.57793C13.4301 1.28803 13.1339 1.07607 12.7938 0.976931C12.17 0.790984 11.5285 0.670336 10.8798 0.616931C8.60347 0.333214 6.30272 0.303029 4.01976 0.526931C3.20142 0.587796 2.39562 0.762825 1.62576 1.04693C1.38176 1.16193 1.17176 1.33693 1.01576 1.55693C0.462765 2.36993 0.112765 5.84493 0.0127646 9.72993C-0.0672354 14.9879 0.242765 20.9269 0.552765 21.8679C0.689349 22.1464 0.88485 22.3919 1.12573 22.5874C1.3666 22.7829 1.64709 22.9236 1.94776 22.9999C3.74776 23.4879 5.61276 23.6899 7.47576 23.5999C9.32518 23.6121 11.1656 23.3424 12.9338 22.7999C13.4478 22.6469 13.8978 22.3299 14.2158 21.8979C14.3488 21.4909 14.4198 21.0649 14.4258 20.6359C14.4258 19.9759 14.4858 19.0639 14.4858 17.9919C14.49 17.9501 14.4853 17.9078 14.4722 17.8679C14.459 17.828 14.4375 17.7912 14.4093 17.7601C14.381 17.729 14.3464 17.7042 14.3079 17.6873C14.2694 17.6704 14.2278 17.6617 14.1858 17.6619M13.6158 21.5179C13.3712 21.8023 13.0404 21.999 12.6738 22.0779C10.9784 22.5417 9.22222 22.7443 7.46576 22.6789C5.7211 22.7252 3.98004 22.4961 2.30676 21.9999C1.94676 21.8599 1.65676 21.7499 1.58676 21.5489C1.4483 20.8353 1.3677 20.1116 1.34576 19.3849C2.73776 19.3849 4.10977 19.3849 5.47177 19.4449L8.59676 19.5249C10.3521 19.5249 12.0948 19.4949 13.8248 19.4349V20.2169C13.8048 20.6569 13.7348 21.0939 13.6148 21.5189" fill="black"/>
<path d="M13.373 4.6511C12.4134 4.52902 11.4461 4.47888 10.479 4.5011C8.13658 4.4138 5.79099 4.52755 3.468 4.8411C3.008 4.9411 2.908 5.1821 2.868 5.3021C2.69672 5.95605 2.60903 6.62908 2.607 7.3051C2.58 7.7311 2.627 8.1581 2.747 8.5671C2.79578 8.72685 2.88951 8.86918 3.017 8.9771C3.923 9.2151 4.855 9.3431 5.791 9.3581C7.975 9.4981 10.879 9.5781 11.901 9.5981C12.401 9.61743 12.8983 9.59076 13.393 9.5181C13.723 9.4741 14.026 9.3101 14.244 9.0581C14.3473 8.91786 14.4096 8.75168 14.424 8.5781C14.4799 7.91126 14.4799 7.24093 14.424 6.5741C14.4018 6.15837 14.3245 5.74744 14.194 5.3521C14.1275 5.17108 14.0217 5.00712 13.884 4.8721C13.7325 4.761 13.5578 4.68478 13.373 4.6511ZM13.303 8.3281C13.303 8.3281 13.013 8.3881 12.873 8.3981H5.861C5.05634 8.4181 4.255 8.3781 3.457 8.2781C3.41778 8.20284 3.39077 8.12183 3.377 8.03809C3.31844 7.7849 3.28825 7.52597 3.287 7.2661C3.267 6.72476 3.30367 6.18743 3.397 5.6541C3.40076 5.60417 3.40076 5.55402 3.397 5.5041C3.797 5.4041 6.792 5.3841 9.406 5.4441C10.698 5.4441 11.89 5.5441 12.651 5.6441C12.891 5.6441 13.201 5.7141 13.201 5.7141V6.2341C13.277 6.93076 13.3103 7.62876 13.301 8.3281M16.438 12.0321C16.3752 11.8522 16.2687 11.6907 16.128 11.5621C15.967 11.4562 15.7859 11.3847 15.596 11.3521C14.6407 11.2198 13.6761 11.1663 12.712 11.1921C7.825 11.1921 6.272 11.3321 5.642 11.5421C5.211 11.6821 5.11 11.8821 5.08 11.9921C4.91159 12.6468 4.82096 13.3191 4.81 13.9951C4.787 14.4181 4.838 14.8421 4.96 15.2471C5.02 15.4151 5.132 15.5591 5.28 15.6571C6.179 15.8771 7.1 15.9881 8.025 15.9881C10.208 16.1381 13.123 16.2181 14.145 16.2381C14.64 16.2591 15.137 16.2281 15.626 16.1481C15.957 16.1041 16.262 15.9451 16.488 15.6981C16.5845 15.5506 16.646 15.383 16.668 15.2081C16.7239 14.5413 16.7239 13.8709 16.668 13.2041C16.6404 12.8054 16.5632 12.4117 16.438 12.0321ZM15.536 14.9871H15.486C15.3648 15.0186 15.2409 15.0387 15.116 15.0471H8.095C7.293 15.0941 6.489 15.0741 5.691 14.9871C5.65083 14.9113 5.62058 14.8306 5.601 14.7471C5.54571 14.4969 5.51887 14.2413 5.521 13.9851C5.53434 13.3958 5.57767 12.8084 5.651 12.2231C6.051 12.1331 9.046 12.1031 11.661 12.1631C12.952 12.1631 14.555 12.2931 15.316 12.3431C15.466 12.3431 15.456 12.8131 15.476 12.9631C15.563 13.6341 15.583 14.3131 15.536 14.9871ZM16.187 6.3941C16.567 6.4981 16.951 6.58143 17.339 6.6441C17.5023 6.6601 17.6657 6.6601 17.829 6.6441C17.993 6.6541 18.1567 6.6541 18.32 6.6441C18.761 6.5841 19.152 6.4941 19.472 6.4441C19.518 6.4441 19.5635 6.43504 19.6059 6.41745C19.6484 6.39986 19.687 6.37408 19.7195 6.34158C19.752 6.30908 19.7778 6.2705 19.7954 6.22803C19.813 6.18557 19.822 6.14006 19.822 6.09409C19.8197 6.00284 19.7817 5.91611 19.7164 5.85241C19.651 5.7887 19.5633 5.75307 19.472 5.7531C19.152 5.6931 18.761 5.6031 18.32 5.5531C17.9881 5.50513 17.6509 5.50513 17.319 5.5531C16.9308 5.61578 16.5463 5.69923 16.167 5.8031C16.0874 5.8031 16.0111 5.8347 15.9549 5.89096C15.8986 5.94722 15.867 6.02353 15.867 6.1031C15.867 6.18266 15.8986 6.25897 15.9549 6.31523C16.0111 6.37149 16.0874 6.4031 16.167 6.4031L16.187 6.3941ZM20.694 13.2041C21.034 13.1541 21.324 13.0641 21.585 13.0041C21.6753 13.0041 21.7619 12.9682 21.8258 12.9044C21.8896 12.8405 21.9255 12.7539 21.9255 12.6636C21.9255 12.5733 21.8896 12.4867 21.8258 12.4228C21.7619 12.359 21.6753 12.3231 21.585 12.3231C21.325 12.2631 21.035 12.1731 20.694 12.1131C20.564 12.1031 20.434 12.1031 20.304 12.1131C20.1775 12.0979 20.0496 12.0979 19.923 12.1131C19.6203 12.1758 19.3233 12.2591 19.032 12.3631C18.9524 12.3631 18.8761 12.3947 18.8199 12.451C18.7636 12.5072 18.732 12.5835 18.732 12.6631C18.732 12.7427 18.7636 12.819 18.8199 12.8752C18.8761 12.9315 18.9524 12.9631 19.032 12.9631C19.3227 13.0678 19.6193 13.1514 19.922 13.2141C20.0493 13.2241 20.1763 13.2241 20.303 13.2141C20.433 13.2208 20.5633 13.2174 20.694 13.2041ZM20.043 8.9781C20.764 8.9781 21.485 8.82809 22.206 8.7481C22.2964 8.7481 22.3832 8.71217 22.4471 8.64822C22.5111 8.58427 22.547 8.49753 22.547 8.4071C22.547 8.31666 22.5111 8.22992 22.4471 8.16597C22.3832 8.10202 22.2964 8.0661 22.206 8.0661C21.486 7.9761 20.764 7.8261 20.043 7.7861C19.7564 7.76548 19.4686 7.76548 19.182 7.7861C18.9876 7.79334 18.7937 7.81002 18.601 7.8361C18.371 7.8361 18 7.9461 17.659 7.9761C17.487 8.0061 17.311 8.0061 17.139 7.9761C17.1022 7.96034 17.0626 7.95199 17.0225 7.95152C16.9825 7.95106 16.9427 7.9585 16.9055 7.9734C16.8683 7.9883 16.8344 8.01039 16.8058 8.03839C16.7771 8.06639 16.7543 8.09976 16.7385 8.1366C16.7067 8.21099 16.7057 8.29498 16.7358 8.37009C16.7659 8.44519 16.8246 8.50527 16.899 8.5371C17.0763 8.6251 17.263 8.6851 17.459 8.7171C17.849 8.8071 18.32 8.8371 18.601 8.8771C18.882 8.9171 18.981 8.8771 19.181 8.9371C19.4677 8.9671 19.755 8.98043 20.043 8.9771M23.709 14.5061C23.368 14.4461 22.967 14.3561 22.537 14.3061C22.3702 14.2956 22.2028 14.2956 22.036 14.3061C21.8696 14.2922 21.7024 14.2922 21.536 14.3061C21.095 14.3661 20.704 14.4861 20.363 14.5561C20.291 14.5685 20.2256 14.606 20.1786 14.6619C20.1315 14.7178 20.1056 14.7885 20.1056 14.8616C20.1056 14.9347 20.1315 15.0054 20.1786 15.0613C20.2256 15.1172 20.291 15.1547 20.363 15.1671C20.704 15.2371 21.095 15.3571 21.535 15.4171C21.7017 15.4271 21.8687 15.4271 22.036 15.4171H22.536C22.967 15.3671 23.368 15.2771 23.708 15.2171C23.7894 15.2032 23.8633 15.1609 23.9166 15.0978C23.9698 15.0346 23.9991 14.9547 23.9991 14.8721C23.9991 14.7895 23.9698 14.7095 23.9166 14.6464C23.8633 14.5833 23.7894 14.541 23.708 14.5271L23.709 14.5061Z" fill="black"/>
</g>
<defs>
<clipPath id="clip0_699_32289">
<rect width="24" height="24" fill="white"/>
</clipPath>
</defs>
</svg>
