<svg width="24" height="24" viewBox="0 0 24 24" fill="none" xmlns="http://www.w3.org/2000/svg">
<g clip-path="url(#clip0_700_29655)">
<path fill-rule="evenodd" clip-rule="evenodd" d="M7.80661 7.77352C7.77413 7.76699 7.74057 7.76824 7.70866 7.77716C7.67676 7.78608 7.64742 7.80243 7.62304 7.82486C7.59866 7.84729 7.57993 7.87517 7.56838 7.90622C7.55684 7.93727 7.5528 7.97061 7.55661 8.00352C7.46661 8.56252 7.34761 9.12152 7.20761 9.67052C6.86761 10.9685 6.42861 12.2575 6.08961 13.5455C5.98961 13.9355 5.69961 14.4545 5.58961 14.9335C5.51961 15.1985 5.51961 15.4775 5.58961 15.7435C5.77761 16.1775 6.11361 16.5315 6.53961 16.7415C7.39361 17.1135 8.29361 17.3715 9.21561 17.5105C9.88461 17.6605 10.5436 17.8105 11.2126 17.9305C11.6626 18.0205 12.1216 18.0905 12.5706 18.1505C12.9253 18.2065 13.2816 18.2232 13.6396 18.2005C13.9386 18.1705 14.2226 18.0555 14.4586 17.8705C14.7886 17.5685 15.0366 17.1865 15.1776 16.7605C15.4109 15.9099 15.5943 15.0479 15.7276 14.1745C15.9266 13.4255 16.3456 11.9175 16.5456 11.1785C16.6307 10.882 16.6843 10.5773 16.7056 10.2695C16.7186 10.0083 16.6486 9.74959 16.5056 9.53052C16.3155 9.28045 16.0692 9.07867 15.7866 8.94152C15.426 8.76063 15.0481 8.61657 14.6586 8.51152C14.0479 8.30952 13.4286 8.13986 12.8006 8.00252C11.3426 7.71252 9.80461 7.54252 8.38661 7.27352C8.32075 7.26403 8.2537 7.2792 8.19833 7.31611C8.14297 7.35302 8.10318 7.40908 8.08661 7.47352C8.0747 7.53968 8.08887 7.60789 8.12616 7.66382C8.16345 7.71976 8.22096 7.75907 8.28661 7.77352C8.89561 7.90352 9.51461 8.01352 10.1336 8.11352C9.98361 8.71152 9.82361 9.30152 9.66461 9.89052L7.66761 9.71052C7.78761 9.15052 7.89761 8.59252 7.96761 8.02252C7.97696 7.9684 7.96573 7.91274 7.93612 7.86647C7.90651 7.82021 7.86067 7.7867 7.80761 7.77252M7.00861 12.4665C7.65987 12.543 8.30674 12.6532 8.94661 12.7965C8.94661 12.9355 8.87661 13.0655 8.84661 13.2055C8.77661 13.5055 8.71661 13.8045 8.64661 14.1035C7.93761 14.0435 7.24861 14.0335 6.56961 14.0435C6.61961 13.9035 6.66961 13.7635 6.69961 13.6445C6.78961 13.2545 6.89961 12.8655 7.00961 12.4655M6.29061 15.4615C6.22198 15.2674 6.22198 15.0556 6.29061 14.8615C6.29061 14.7515 6.35061 14.6515 6.39061 14.5415L7.63961 14.7215L8.45861 14.8815C8.35861 15.3215 8.24861 15.7615 8.12861 16.1905C8.11497 16.2439 8.11934 16.3003 8.14104 16.3509C8.16274 16.4015 8.20055 16.4436 8.24861 16.4705C7.9094 16.4053 7.57549 16.315 7.24961 16.2005C7.04365 16.1526 6.85047 16.0607 6.68324 15.9313C6.51601 15.8019 6.37868 15.6379 6.28061 15.4505L6.29061 15.4615ZM14.0006 17.1785C13.8572 17.2771 13.6855 17.3263 13.5116 17.3185C13.264 17.3198 13.0168 17.2998 12.7726 17.2585C12.221 17.1867 11.6715 17.1 11.1246 16.9985C10.5753 16.8985 10.0059 16.7889 9.41661 16.6695C9.13661 16.6095 8.77761 16.5595 8.41861 16.4895C8.46769 16.491 8.51605 16.4775 8.55718 16.4507C8.59831 16.4238 8.63022 16.3851 8.64861 16.3395C8.81861 15.8905 8.98761 15.4515 9.14761 15.0015L10.0166 15.1515C11.2046 15.3615 12.4126 15.5615 13.5316 15.8315C13.5631 15.8407 13.5961 15.8436 13.6288 15.84C13.6614 15.8365 13.693 15.8265 13.7218 15.8107C13.7506 15.7949 13.776 15.7736 13.7966 15.748C13.8171 15.7224 13.8324 15.693 13.8416 15.6615C13.8602 15.6141 13.8625 15.5619 13.8482 15.513C13.8339 15.4642 13.8038 15.4214 13.7626 15.3915C13.7361 15.3707 13.7048 15.357 13.6716 15.3515C12.8616 15.0515 12.0136 14.7715 11.1346 14.5415C10.7646 14.4415 10.3956 14.3625 10.0166 14.2925C9.81661 14.2925 9.61661 14.2325 9.40661 14.2025C9.48661 13.9625 9.56661 13.7325 9.63661 13.5035C9.70661 13.2735 9.73661 13.1435 9.77661 12.9735L10.3766 13.1035L11.7336 13.4035C12.8226 13.6435 13.9016 13.8935 14.9396 14.1735C14.8296 14.7325 14.7396 15.4515 14.5496 16.1105C14.4677 16.51 14.2778 16.8794 14.0006 17.1785ZM15.0006 13.6635C14.1706 13.3435 13.3116 13.0235 12.4336 12.7545C12.0236 12.6345 11.6236 12.5245 11.2046 12.4245C10.7856 12.3245 10.3756 12.2545 9.95661 12.1945C10.0466 11.7955 10.1366 11.4065 10.2066 11.0065C10.2106 10.9165 10.2106 10.8265 10.2066 10.7365L11.6036 11.0465L13.0426 11.3265L15.5586 11.8165L15.0006 13.6635ZM12.6806 8.60252C13.2906 8.74252 13.8996 8.90252 14.4986 9.09152C14.8419 9.20086 15.1749 9.33752 15.4976 9.50152C15.6716 9.59452 15.8246 9.72352 15.9466 9.88052C16.0046 9.98022 16.0291 10.0959 16.0166 10.2105C15.9893 10.4619 15.9359 10.7079 15.8566 10.9485L15.7566 11.2485C14.9076 10.9885 14.0586 10.7285 13.1896 10.5195C12.5059 10.352 11.8164 10.2086 11.1226 10.0895L10.3536 9.98952C10.4436 9.39052 10.5236 8.79152 10.6036 8.20252C11.2926 8.32252 12.0016 8.45252 12.6806 8.60252ZM9.30561 11.2485C9.23561 11.5285 9.16561 11.8285 9.10561 12.1175C8.44132 12.0572 7.77463 12.0272 7.10761 12.0275C7.27761 11.4075 7.42761 10.7895 7.57761 10.1705L9.48461 10.5695L9.30561 11.2485ZM16.2956 6.53452C16.0898 6.51036 15.8862 6.47024 15.6866 6.41452C15.7666 6.21452 15.8866 5.98452 15.9966 5.73552C16.5666 4.46752 16.9256 3.09952 15.9966 2.08052C15.9756 2.05491 15.9497 2.0337 15.9205 2.01808C15.8913 2.00246 15.8593 1.99275 15.8264 1.9895C15.7598 1.98294 15.6933 2.00309 15.6416 2.04552C15.5899 2.08796 15.5572 2.1492 15.5506 2.21577C15.544 2.28235 15.5642 2.3488 15.6066 2.40052C16.6056 3.72852 14.9976 5.20652 14.6786 6.39452C14.3596 7.58252 17.4246 7.59352 18.5226 7.24452L20.1706 6.78452C20.5906 6.59452 20.3406 6.10452 20.0906 6.15452C18.0536 6.65452 17.9936 6.78452 16.2956 6.53452Z" fill="black"/>
<path fill-rule="evenodd" clip-rule="evenodd" d="M17.0942 1.39066C15.8262 1.13166 16.4052 1.28166 7.90618 0.222656C7.83631 0.223937 7.76926 0.250401 7.71735 0.297179C7.66544 0.343957 7.63217 0.407905 7.62366 0.477259C7.61514 0.546614 7.63195 0.616711 7.671 0.674659C7.71004 0.732607 7.7687 0.774509 7.83618 0.792656C15.7462 1.85066 15.9962 1.86066 16.9942 2.08066C17.9942 2.30066 20.1202 5.00666 20.6302 6.00566C20.7458 6.18361 20.8019 6.39374 20.7902 6.60566C20.5202 8.02266 19.4112 12.1377 19.0822 13.0757C18.7522 14.0157 18.4522 14.6947 18.1832 15.5237C18.0732 15.8437 17.1842 19.7377 16.0462 20.1177C14.4782 20.6467 12.8802 19.9677 11.3122 19.9077C10.3132 19.9077 8.31618 19.7677 7.03718 19.5677C2.04418 18.7587 2.26418 18.8687 0.985176 18.0497C2.42318 16.5217 3.75218 12.6967 4.47118 10.5097C5.09944 8.03942 5.58623 5.53535 5.92918 3.00966C6.00918 2.56966 6.71818 0.302656 6.00918 0.532656C5.70918 0.622656 5.74918 1.07266 5.71918 1.26166C5.51918 2.50966 4.65118 7.35366 4.47118 8.15266C3.70576 11.1438 2.54344 14.0189 1.01518 16.7017C0.829842 16.9617 0.630176 17.2113 0.416176 17.4507C0.256176 17.6107 0.122843 17.7907 0.0161758 17.9907C-0.0145376 18.1321 -0.00130612 18.2795 0.054098 18.4132C0.109502 18.5469 0.204433 18.6604 0.326176 18.7387C0.867176 19.1487 1.47118 19.4697 2.11418 19.6887C5.11418 20.3707 8.16918 20.7917 11.2422 20.9467C12.8302 21.0067 14.5082 21.7257 16.3252 21.1067C17.9832 20.5367 18.8622 16.4617 19.0422 15.8927C19.3022 15.0637 19.6322 14.2647 19.9012 13.4457C20.1712 12.6267 21.2792 8.45266 21.5592 6.82466C21.8292 5.37666 18.3732 1.66066 17.0942 1.39166" fill="black"/>
<path fill-rule="evenodd" clip-rule="evenodd" d="M23.1377 7.58448C22.8577 9.00248 21.3697 14.6445 21.0397 15.5745C20.7097 16.5025 20.4107 17.2015 20.1407 18.0305C20.0307 18.3505 19.1427 22.2355 18.0037 22.6145C16.4357 23.1445 14.8377 22.4645 13.2697 22.4045C12.2717 22.4045 10.2737 22.2645 8.99566 22.0655C4.23166 21.2965 4.21166 21.4955 3.11366 20.7975C2.46366 20.4375 2.21366 21.0775 2.60366 21.4165C3.04366 21.7565 3.55666 21.9925 4.10166 22.1055C7.10174 22.7924 10.1559 23.2166 13.2297 23.3735C14.8177 23.4335 16.5057 24.1435 18.3137 23.5335C20.1217 22.9245 20.8507 18.8895 20.9897 18.3105C21.2497 17.4915 21.5797 16.6925 21.8497 15.8735C22.1187 15.0545 23.6867 9.41148 23.9857 7.81348C24.1157 7.00548 23.3367 6.76548 23.1377 7.58348" fill="black"/>
</g>
<defs>
<clipPath id="clip0_700_29655">
<rect width="24" height="24" fill="white"/>
</clipPath>
</defs>
</svg>
