<svg width="24" height="24" viewBox="0 0 24 24" fill="none" xmlns="http://www.w3.org/2000/svg">
<g clip-path="url(#clip0_699_32287)">
<path d="M13.9245 3.64168C14.1485 3.75268 14.3885 3.83068 14.6345 3.87168C16.1185 4.18268 15.4065 4.27268 17.0305 4.10168C17.4855 4.08368 17.9185 3.90168 18.2525 3.59168C18.5045 3.30968 18.6705 2.96168 18.7325 2.58968C18.8022 2.13132 18.8022 1.66505 18.7325 1.20668C18.7298 0.971414 18.7064 0.736838 18.6625 0.505685C18.633 0.426639 18.5863 0.355136 18.5257 0.296339C18.4652 0.237542 18.3924 0.192916 18.3125 0.165685C17.8492 0.0393078 17.3693 -0.0153264 16.8895 0.00368485C15.8875 0.00368485 14.8355 0.283685 13.8835 0.243685C13.8406 0.239578 13.7973 0.244187 13.7562 0.257234C13.7151 0.270281 13.6771 0.291498 13.6444 0.319611C13.6117 0.347723 13.585 0.382152 13.566 0.420829C13.5469 0.459506 13.5359 0.501635 13.5335 0.544685C13.5292 0.56445 13.5292 0.58492 13.5335 0.604685C13.4129 1.15735 13.3229 1.71502 13.2635 2.27768C13.2425 2.58568 13.3045 2.89368 13.4435 3.16968C13.5555 3.36968 13.7225 3.53268 13.9235 3.64068M14.1135 0.915685C14.9755 0.975685 15.9675 0.855685 16.8785 0.915685C17.1417 0.931677 17.4032 0.968459 17.6605 1.02568C17.6892 1.42302 17.6892 1.82035 17.6605 2.21768C17.6386 2.45224 17.5482 2.67517 17.4005 2.85868C17.2495 3.02868 16.9185 3.04868 16.5785 3.06868C15.9785 3.09402 15.3805 3.07402 14.7845 3.00868C14.643 2.99533 14.5027 2.97194 14.3645 2.93868C14.281 2.92169 14.2062 2.87562 14.1535 2.80868C14.0427 2.58548 14.011 2.33127 14.0635 2.08768C14.0569 1.69635 14.0735 1.30568 14.1135 0.915685ZM23.6835 10.6557C23.4535 10.3757 22.9915 10.0247 22.8615 9.87368L19.9655 7.21868C19.9123 7.17377 19.8448 7.14949 19.7752 7.15027C19.7055 7.15106 19.6385 7.17685 19.5864 7.22295C19.5342 7.26905 19.5004 7.33237 19.491 7.40135C19.4817 7.47034 19.4975 7.54038 19.5355 7.59868L22.0595 10.6057L22.3095 10.7957C21.8895 10.7157 21.4695 10.6557 21.0375 10.6157C20.6075 10.5757 20.4375 10.5657 20.1365 10.5657H19.2345C18.6712 10.641 18.1169 10.7577 17.5715 10.9157C17.5715 10.8457 17.5715 10.7757 17.5215 10.7057C17.4191 10.3924 17.2455 10.1072 17.0142 9.87238C16.7829 9.6376 16.5002 9.45971 16.1885 9.35268C16.2485 8.76169 16.3085 8.17068 16.3485 7.57968V5.76568C16.3485 5.46568 16.2985 5.29568 16.2685 5.06468C16.0285 4.37268 15.4465 4.47368 15.3665 5.06468C15.3665 5.29468 15.3165 5.52468 15.2965 5.76568C15.2765 6.00668 15.2965 6.36668 15.2965 6.66768V7.57968C15.2965 8.14968 15.3965 8.72168 15.4465 9.29268C15.0343 9.33522 14.644 9.49875 14.3245 9.76268C13.9945 10.0527 13.7775 10.4507 13.7145 10.8857C13.1272 10.783 12.5351 10.7096 11.9405 10.6657H11.0285C10.7237 10.6702 10.4193 10.6903 10.1165 10.7257C9.53552 10.7857 8.96452 10.8957 8.39352 11.0057C8.37409 10.918 8.35073 10.8313 8.32352 10.7457C8.21196 10.3428 7.97699 9.98509 7.65162 9.72268C7.32625 9.46027 6.92684 9.3064 6.50952 9.28268C6.02222 9.29878 5.55378 9.47484 5.17652 9.78368C4.85124 10.0647 4.63528 10.4513 4.56652 10.8757C4.17552 10.8757 3.78452 10.7757 3.38352 10.7457H2.03052C1.49052 10.8157 1.02852 10.9357 0.447518 11.0457C0.405561 11.0381 0.362451 11.0398 0.321217 11.0506C0.279982 11.0615 0.241624 11.0812 0.208838 11.1085C0.176051 11.1357 0.149632 11.1698 0.131437 11.2084C0.113242 11.247 0.103712 11.289 0.103518 11.3317C0.10336 11.3744 0.112655 11.4167 0.130738 11.4554C0.148821 11.4942 0.175245 11.5284 0.208117 11.5558C0.24099 11.5831 0.279498 11.6028 0.320886 11.6135C0.362273 11.6242 0.405516 11.6256 0.447518 11.6177C0.978518 11.6677 1.44952 11.7577 2.02052 11.7977C2.24452 11.813 2.46852 11.813 2.69252 11.7977H3.36252C3.77452 11.7977 4.18552 11.6977 4.58552 11.6377C4.67295 11.9431 4.85101 12.2149 5.09615 12.417C5.3413 12.6191 5.642 12.7421 5.95852 12.7697C5.953 12.7927 5.953 12.8167 5.95852 12.8397C5.85518 13.4837 5.80852 14.1317 5.81852 14.7837C5.82852 15.1557 5.85852 15.5264 5.90852 15.8957V16.1357C6.21852 16.9777 6.54952 16.9677 6.91052 16.1357V15.6557C6.90693 15.2693 6.8735 14.8839 6.81052 14.5027C6.72052 13.9327 6.56052 13.3907 6.47952 12.8297C6.53441 12.8135 6.58301 12.7808 6.61877 12.7361C6.65453 12.6914 6.67573 12.6368 6.67952 12.5797C6.68237 12.5415 6.67764 12.5031 6.66559 12.4668C6.65354 12.4304 6.63441 12.3968 6.60931 12.3679C6.58421 12.339 6.55363 12.3154 6.51934 12.2983C6.48505 12.2813 6.44772 12.2712 6.40952 12.2687C5.66752 12.1687 5.40752 11.7077 5.40752 11.2667C5.43631 11.1305 5.49812 11.0034 5.58752 10.8967C5.69303 10.7585 5.82979 10.6473 5.98658 10.5722C6.14337 10.4972 6.31573 10.4603 6.48952 10.4647C6.69682 10.4652 6.89882 10.5302 7.06759 10.6506C7.23635 10.771 7.36352 10.9409 7.43152 11.1367C7.61152 11.5467 7.65152 12.0377 7.21152 12.2487C7.13049 12.2818 7.06596 12.3458 7.03211 12.4266C6.99826 12.5073 6.99787 12.5982 7.03102 12.6792C7.06417 12.7602 7.12815 12.8247 7.20888 12.8586C7.28962 12.8924 7.38049 12.8928 7.46152 12.8597C7.70646 12.7805 7.92264 12.6309 8.08305 12.4296C8.24347 12.2282 8.34102 11.9841 8.36352 11.7277C9.04452 11.7277 9.70552 11.8277 10.3675 11.8377H11.7895C12.4315 11.8377 13.0525 11.7577 13.6835 11.7377C13.8038 12.114 14.0521 12.4364 14.3853 12.6486C14.7185 12.8609 15.1156 12.9498 15.5075 12.8997C15.5451 12.9024 15.5829 12.8975 15.6185 12.8853C15.6542 12.873 15.687 12.8537 15.715 12.8285C15.743 12.8033 15.7656 12.7727 15.7815 12.7385C15.7974 12.7044 15.8063 12.6674 15.8075 12.6297C15.8104 12.5915 15.8056 12.5531 15.7936 12.5168C15.7815 12.4804 15.7624 12.4468 15.7373 12.4179C15.7122 12.389 15.6816 12.3654 15.6473 12.3483C15.613 12.3313 15.5757 12.3212 15.5375 12.3187C14.7955 12.2187 14.4855 11.7577 14.5355 11.3167C14.5702 11.1807 14.6302 11.0574 14.7155 10.9467C14.8221 10.8097 14.9591 10.6994 15.1156 10.6244C15.2722 10.5494 15.444 10.5119 15.6175 10.5147C15.8248 10.5152 16.0268 10.5802 16.1956 10.7006C16.3643 10.821 16.4915 10.9909 16.5595 11.1867C16.7495 11.5967 16.7795 12.0887 16.3395 12.2987C16.2603 12.3336 16.198 12.3983 16.166 12.4787C16.134 12.5591 16.1349 12.6489 16.1685 12.7287C16.2036 12.808 16.2676 12.8709 16.3476 12.9046C16.4275 12.9382 16.5173 12.94 16.5985 12.9097C16.8494 12.8279 17.0698 12.6723 17.2307 12.4631C17.3917 12.254 17.4857 12.0012 17.5005 11.7377H22.4005C22.1805 12.0377 21.9505 12.3487 21.6995 12.6397C21.4631 12.9323 21.2051 13.2068 20.9275 13.4607C20.7369 13.6347 20.5332 13.7917 20.3165 13.9317C19.9865 14.1617 19.6355 14.3617 19.3145 14.5727C19.2681 14.5989 19.2287 14.636 19.1998 14.6807C19.1708 14.7254 19.1531 14.7765 19.1482 14.8296C19.1433 14.8827 19.1513 14.9361 19.1716 14.9854C19.1918 15.0347 19.2237 15.0784 19.2645 15.1127C19.3144 15.1535 19.3755 15.1783 19.4397 15.1839C19.504 15.1894 19.5684 15.1754 19.6245 15.1437C20.0055 14.9637 20.3865 14.7937 20.7475 14.5937C21.0102 14.4584 21.2605 14.3047 21.4985 14.1327C21.8539 13.884 22.1879 13.61 22.5005 13.3107C22.8005 13.0207 23.0715 12.6997 23.3425 12.3887C23.4971 12.2071 23.6407 12.0164 23.7725 11.8177C23.8628 11.6742 23.9052 11.5058 23.8935 11.3367C23.9095 11.0916 23.8348 10.8492 23.6835 10.6557ZM9.64552 17.8097C9.16752 17.4951 8.62143 17.299 8.05252 17.2377C6.55668 17.1349 5.05475 17.1616 3.56352 17.3177C3.06018 17.3457 2.55918 17.3994 2.06052 17.4787C2.01843 17.4846 1.97792 17.4987 1.94129 17.5203C1.90467 17.5419 1.87265 17.5704 1.84707 17.6044C1.82149 17.6383 1.80284 17.677 1.79219 17.7181C1.78155 17.7593 1.77911 17.8021 1.78502 17.8442C1.79093 17.8863 1.80507 17.9268 1.82663 17.9634C1.8482 18 1.87677 18.032 1.91071 18.0576C1.94465 18.0832 1.9833 18.1019 2.02444 18.1125C2.06559 18.1232 2.10843 18.1256 2.15052 18.1197C2.64252 18.0397 3.11252 18.0397 3.59352 18.0397H5.80952C6.51252 18.0077 7.21752 18.0477 7.91352 18.1597C8.32352 18.2187 8.71552 18.3727 9.05552 18.6107C9.28445 18.8847 9.44323 19.2104 9.51815 19.5596C9.59306 19.9087 9.58187 20.2708 9.48552 20.6147C9.42729 21.3867 9.11826 22.1186 8.60552 22.6987C8.38461 22.8511 8.12192 22.9315 7.85352 22.9287C7.30552 22.9587 6.75752 22.9587 6.20952 22.9287L4.55652 22.8687C3.55452 22.8187 3.00352 22.6387 2.69352 22.2387C2.19252 21.5667 2.38252 20.4647 2.52352 18.9917C2.53304 18.952 2.53406 18.9107 2.52652 18.8705C2.51897 18.8304 2.50302 18.7923 2.47972 18.7587C2.45642 18.7251 2.4263 18.6969 2.39132 18.6758C2.35633 18.6547 2.31729 18.6412 2.27673 18.6362C2.23618 18.6313 2.19504 18.6349 2.156 18.647C2.11696 18.659 2.08091 18.6792 2.0502 18.7061C2.0195 18.7331 1.99483 18.7662 1.97783 18.8034C1.96082 18.8405 1.95186 18.8808 1.95152 18.9217C1.69152 20.6147 1.52152 21.8777 2.06152 22.6887C2.35943 23.0377 2.72956 23.3179 3.14635 23.5099C3.56314 23.7019 4.01664 23.8011 4.47552 23.8007L6.18852 23.9507C6.88385 24.0167 7.57885 24.0167 8.27352 23.9507C8.63852 23.8907 8.98352 23.7397 9.27452 23.5107C10.1104 22.5817 10.5682 21.3733 10.5575 20.1237C10.5925 19.6939 10.5285 19.2619 10.3704 18.8607C10.2123 18.4596 9.96432 18.1 9.64552 17.8097Z" fill="black"/>
</g>
<defs>
<clipPath id="clip0_699_32287">
<rect width="24" height="24" fill="white"/>
</clipPath>
</defs>
</svg>
