<svg width="24" height="24" viewBox="0 0 24 24" fill="none" xmlns="http://www.w3.org/2000/svg">
<g clip-path="url(#clip0_699_32281)">
<path d="M16.8455 14.4371C16.6105 14.2978 16.3379 14.2354 16.0657 14.2587C15.7935 14.282 15.5354 14.3898 15.3275 14.5671C15.2075 14.6571 15.0975 14.7571 14.9975 14.8471C15.0029 14.7671 15.0029 14.6871 14.9975 14.6071C14.9709 14.3754 14.8865 14.1541 14.7519 13.9636C14.6173 13.7731 14.437 13.6196 14.2275 13.5171C13.9258 13.4419 13.6103 13.4419 13.3085 13.5171C13.0815 13.5551 12.8685 13.6521 12.6895 13.7971C12.6995 12.9924 12.6595 12.1901 12.5695 11.3901C12.5012 10.6312 12.3192 9.88685 12.0295 9.18208C11.8506 8.80999 11.5465 8.51266 11.1705 8.34208C10.9719 8.24371 10.7532 8.19254 10.5315 8.19254C10.3099 8.19254 10.0912 8.24371 9.89254 8.34208C9.50709 8.56001 9.22054 8.9182 9.09254 9.34208C8.89195 10.0498 8.80752 10.7853 8.84254 11.5201V14.2371C8.84254 14.8471 8.84254 15.4671 8.93254 16.0661C8.93254 16.3361 9.01254 16.6751 9.06254 17.0151C8.85254 16.8851 8.66254 16.7851 8.63254 16.7551C7.93524 15.9811 7.03587 15.417 6.03554 15.1261C5.76031 15.0797 5.47747 15.1191 5.22541 15.2389C4.97334 15.3588 4.76426 15.5533 4.62654 15.7961C4.45661 16.0814 4.39954 16.4199 4.46654 16.7451C4.60854 17.3151 4.83354 17.8601 5.13654 18.3631C5.68654 19.4331 6.44554 20.1621 6.92454 21.0411C7.26484 21.6237 7.41841 22.2965 7.36454 22.9691C7.36041 23.008 7.3642 23.0473 7.37567 23.0847C7.38714 23.1221 7.40605 23.1568 7.43127 23.1867C7.4565 23.2166 7.48751 23.2411 7.52244 23.2587C7.55737 23.2763 7.5955 23.2866 7.63454 23.2891C7.67812 23.2936 7.72216 23.2885 7.76355 23.2741C7.80495 23.2598 7.8427 23.2365 7.87416 23.206C7.90561 23.1755 7.93 23.1385 7.94562 23.0976C7.96123 23.0566 7.96769 23.0128 7.96454 22.9691C8.0241 22.3879 7.95233 21.8008 7.75454 21.2511C7.34454 20.1211 6.43454 19.2531 5.81554 18.0241C5.60229 17.6391 5.42809 17.2337 5.29554 16.8141C5.25546 16.7228 5.23477 16.6242 5.23477 16.5246C5.23477 16.4249 5.25546 16.3263 5.29554 16.2351C5.39144 16.0929 5.53823 15.9929 5.70567 15.9557C5.8731 15.9185 6.04843 15.9469 6.19554 16.0351C6.85154 16.3751 7.44054 16.8331 7.93354 17.3851C8.29354 17.7817 8.68354 18.1477 9.10354 18.4831C9.16911 18.5444 9.24916 18.588 9.3362 18.6098C9.42323 18.6317 9.5144 18.6311 9.60115 18.6082C9.6879 18.5852 9.76739 18.5405 9.83218 18.4784C9.89696 18.4163 9.94491 18.3388 9.97154 18.2531C10.0485 17.9975 10.0823 17.7308 10.0715 17.4641C10.0715 16.9541 9.94154 16.3851 9.92154 15.9861C9.90154 15.5861 9.92154 15.0961 9.92154 14.6561V11.5001C9.92287 11.0541 9.95954 10.6107 10.0315 10.1701C10.0915 9.84108 10.1515 9.51108 10.3915 9.38208C10.4384 9.35984 10.4897 9.34831 10.5415 9.34831C10.5934 9.34831 10.6447 9.35984 10.6915 9.38208C10.8123 9.43849 10.9108 9.53349 10.9715 9.65208C11.2115 10.2461 11.3705 10.8721 11.4415 11.5101C11.5389 12.5301 11.5785 13.5524 11.5605 14.5771C11.5605 14.9871 11.6305 16.1651 11.6605 16.6551C11.6518 16.7511 11.67 16.8477 11.7131 16.9341C11.7561 17.0204 11.8224 17.093 11.9043 17.1439C11.9863 17.1947 12.0808 17.2217 12.1773 17.222C12.2737 17.2222 12.3683 17.1956 12.4505 17.1451C12.9695 16.9951 12.6295 16.6251 12.9195 15.5851C13.2895 14.2671 13.9185 14.4171 13.9185 14.5871C14.0019 14.8231 14.0519 15.0664 14.0685 15.3171C14.1285 15.9561 14.0685 16.6151 14.0685 16.7451C14.0739 16.8851 14.0972 17.0217 14.1385 17.1551C14.1796 17.2702 14.2615 17.3662 14.3685 17.4251C14.4416 17.4604 14.5223 17.4766 14.6033 17.4723C14.6843 17.4679 14.7629 17.4431 14.8317 17.4002C14.9005 17.3572 14.9573 17.2976 14.9968 17.2267C15.0363 17.1559 15.0572 17.0762 15.0575 16.9951C15.0359 16.654 15.0906 16.3124 15.2175 15.9951C15.3585 15.6901 15.5755 15.4251 15.8475 15.2261C15.9206 15.1592 16.0126 15.1165 16.1109 15.104C16.2092 15.0915 16.309 15.1097 16.3965 15.1561C16.5035 15.2152 16.5954 15.2984 16.6648 15.399C16.7342 15.4997 16.7793 15.615 16.7965 15.7361C16.8965 16.3761 16.9305 17.0261 16.8965 17.6741C16.8365 19.2331 16.5065 20.6711 16.5265 22.3901C16.5312 22.4769 16.5691 22.5587 16.6322 22.6185C16.6954 22.6783 16.7791 22.7116 16.866 22.7116C16.953 22.7116 17.0367 22.6783 17.0998 22.6185C17.163 22.5587 17.2008 22.4769 17.2055 22.3901C17.2055 20.6811 17.5855 19.2631 17.6855 17.7141C17.7305 17.0141 17.7075 16.3111 17.6155 15.6161C17.5801 15.3756 17.493 15.1456 17.36 14.942C17.2271 14.7385 17.0515 14.5662 16.8455 14.4371ZM1.09054 6.39408L1.04054 6.32408L2.31854 4.91608C2.66854 5.21608 3.16854 5.65508 3.53854 5.91508C3.73554 6.07708 3.97454 6.18008 4.22754 6.21508C4.36162 6.22311 4.49477 6.18807 4.60754 6.11508C4.89154 5.81175 5.13454 5.47841 5.33654 5.11508C5.94654 4.11608 6.86454 2.59808 7.42454 1.91808C7.45601 1.87945 7.49309 1.84575 7.53454 1.81808C8.03454 1.98808 8.63354 2.08808 9.09254 2.20808L9.03254 2.37808C7.84841 4.4825 6.55463 6.52331 5.15654 8.49208C5.12168 8.53719 5.09837 8.59014 5.08864 8.64631C5.0789 8.70248 5.08304 8.76018 5.10068 8.81439C5.11832 8.8686 5.14894 8.91768 5.18987 8.95736C5.2308 8.99704 5.28081 9.02612 5.33554 9.04208C5.40067 9.06013 5.46971 9.05835 5.53383 9.03698C5.59796 9.0156 5.65425 8.9756 5.69554 8.92208C6.76554 7.61308 8.43354 5.13508 9.42254 3.57708C9.80254 2.97708 10.0825 2.50708 10.1925 2.27808C10.2471 2.18891 10.28 2.0882 10.2887 1.98401C10.2974 1.87983 10.2816 1.77506 10.2425 1.67808C10.1175 1.49825 9.93357 1.36774 9.72254 1.30908C9.22254 1.12908 8.03354 0.829081 7.50454 0.709081C7.30679 0.70655 7.11158 0.753759 6.93685 0.846368C6.76211 0.938978 6.61345 1.07402 6.50454 1.23908C5.73742 2.30294 5.02742 3.40683 4.37754 4.54608C4.29183 4.68784 4.21502 4.83479 4.14754 4.98608C3.71754 4.71608 3.08754 4.17608 2.77854 3.98608C2.69228 3.90803 2.59109 3.8483 2.48109 3.81048C2.37108 3.77267 2.25455 3.75756 2.13854 3.76608C2.0516 3.78801 1.97216 3.83291 1.90854 3.89608C1.74854 3.98608 1.10054 4.78608 0.630536 5.36608C0.416708 5.60526 0.219576 5.85886 0.0405356 6.12508C0.00265322 6.21434 -0.0090009 6.31254 0.00693934 6.40818C0.0228796 6.50382 0.0657536 6.59294 0.130536 6.66508C0.355869 6.90641 0.595869 7.13241 0.850536 7.34308C1.70954 8.07308 3.09854 9.15208 3.73754 9.61108L4.06754 9.84108C4.15782 9.87481 4.25725 9.87481 4.34754 9.84108C5.21654 9.60108 3.57754 8.98208 1.09054 6.39408ZM23.7995 6.88408C23.2259 6.25478 22.6084 5.66697 21.9515 5.12508C21.8889 5.08188 21.8288 5.03513 21.7715 4.98508L21.8715 4.76508C22.2415 4.05608 22.8705 2.93708 23.1405 2.36808C23.23 2.19124 23.2779 1.99627 23.2805 1.79808C23.2719 1.71303 23.2417 1.63161 23.1927 1.56158C23.1437 1.49155 23.0775 1.43526 23.0005 1.39808C22.3949 1.11417 21.7615 0.893664 21.1105 0.740081C20.9683 0.706089 20.8204 0.703695 20.6772 0.733067C20.5339 0.762439 20.3989 0.822863 20.2815 0.910081C20.0215 1.20008 19.0225 2.70908 18.5035 3.39808C18.1735 2.98808 17.5535 2.27908 17.2435 1.98908C17.127 1.8513 16.9753 1.74763 16.8045 1.68908C16.7472 1.68926 16.6909 1.70391 16.6408 1.73168C16.5907 1.75945 16.5484 1.79944 16.5179 1.84792C16.4873 1.89641 16.4696 1.95182 16.4662 2.00902C16.4628 2.06621 16.4739 2.12334 16.4985 2.17508C16.5204 2.22055 16.5535 2.25976 16.5945 2.28908L16.7345 2.44908C17.1845 2.97908 18.3235 4.33708 18.3735 4.35708C18.4529 4.39784 18.5439 4.41014 18.6312 4.39194C18.7186 4.37375 18.797 4.32614 18.8535 4.25708L19.0235 3.98708C19.4525 3.41808 20.4015 2.09908 20.7715 1.67008C21.1995 1.89708 21.6565 2.06508 22.1295 2.17008C21.7695 2.86908 21.0305 4.02708 20.7515 4.59708C20.6375 4.80808 20.5895 5.04708 20.6115 5.28708C20.6925 5.46408 20.8085 5.62308 20.9515 5.75608C21.3615 6.14608 22.2795 6.93508 22.7195 7.44408L21.4005 8.47308C20.808 7.73716 20.1382 7.06699 19.4025 6.47408C19.2981 6.42028 19.1796 6.40005 19.0633 6.41616C18.9469 6.43227 18.8384 6.48393 18.7525 6.56408C18.7025 6.56408 18.6125 6.70408 18.4825 6.84408C18.1135 7.28408 17.3945 8.19308 16.9245 8.74208C16.8821 8.78978 16.8352 8.83331 16.7845 8.87208C16.6113 8.82758 16.4436 8.76385 16.2845 8.68208C15.9655 8.47208 15.6355 8.22208 15.4355 8.06208C15.9855 7.35308 17.2745 5.85508 17.3345 5.68508C17.3743 5.57523 17.3743 5.45493 17.3345 5.34508C17.2249 5.19743 17.0851 5.07473 16.9245 4.98508C16.0724 4.39725 15.2794 3.72812 14.5565 2.98708L14.6565 2.86708L15.9455 1.52908C15.9743 1.50113 15.9971 1.4677 16.0127 1.43077C16.0283 1.39384 16.0363 1.35417 16.0363 1.31408C16.0363 1.274 16.0283 1.23432 16.0127 1.19739C15.9971 1.16046 15.9743 1.12704 15.9455 1.09908C15.8556 1.05303 15.753 1.03788 15.6536 1.05595C15.5542 1.07402 15.4635 1.12432 15.3955 1.19908C15.1355 1.43908 14.5965 2.07908 14.2575 2.36808C14.1775 2.43808 13.9375 2.58808 13.8675 2.73808C13.836 2.79645 13.8195 2.86175 13.8195 2.92808C13.8195 2.99442 13.836 3.05971 13.8675 3.11808C14.1545 3.59108 14.5275 4.00808 14.9665 4.34608C15.5065 4.80608 16.1055 5.25608 16.4155 5.53608C16.0255 5.98508 15.0255 7.03408 14.5965 7.53308C14.5055 7.63461 14.4251 7.74519 14.3565 7.86308C14.318 7.93362 14.2978 8.01271 14.2978 8.09308C14.2978 8.17345 14.318 8.25254 14.3565 8.32308C14.8015 8.84108 15.3165 9.29508 15.8865 9.67108C16.1775 9.88608 16.5235 10.0181 16.8845 10.0511C17.1105 9.99008 17.3135 9.86108 17.4645 9.68108C17.8745 9.26108 18.6925 8.26308 19.1725 7.68308C19.6825 8.14308 20.3615 9.04208 20.7415 9.40208C20.8965 9.57208 21.1035 9.68808 21.3315 9.73208C21.4181 9.73844 21.5051 9.72561 21.5862 9.69449C21.6672 9.66338 21.7404 9.61475 21.8005 9.55208C22.0305 9.33208 22.9095 8.72208 23.4285 8.29208C23.6205 8.14408 23.7872 7.97108 23.9285 7.77308C23.9923 7.62742 24.0139 7.4668 23.9909 7.30948C23.9679 7.15215 23.9013 7.00442 23.7985 6.88308" fill="black"/>
</g>
<defs>
<clipPath id="clip0_699_32281">
<rect width="24" height="24" fill="white"/>
</clipPath>
</defs>
</svg>
